%TF.GenerationSoftware,KiCad,Pcbnew,8.0.1-1.fc39*%
%TF.CreationDate,2024-05-03T11:27:30+02:00*%
%TF.ProjectId,esp32-board,65737033-322d-4626-9f61-72642e6b6963,rev?*%
%TF.SameCoordinates,Original*%
%TF.FileFunction,Legend,Top*%
%TF.FilePolarity,Positive*%
%FSLAX46Y46*%
G04 Gerber Fmt 4.6, Leading zero omitted, Abs format (unit mm)*
G04 Created by KiCad (PCBNEW 8.0.1-1.fc39) date 2024-05-03 11:27:30*
%MOMM*%
%LPD*%
G01*
G04 APERTURE LIST*
G04 Aperture macros list*
%AMRoundRect*
0 Rectangle with rounded corners*
0 $1 Rounding radius*
0 $2 $3 $4 $5 $6 $7 $8 $9 X,Y pos of 4 corners*
0 Add a 4 corners polygon primitive as box body*
4,1,4,$2,$3,$4,$5,$6,$7,$8,$9,$2,$3,0*
0 Add four circle primitives for the rounded corners*
1,1,$1+$1,$2,$3*
1,1,$1+$1,$4,$5*
1,1,$1+$1,$6,$7*
1,1,$1+$1,$8,$9*
0 Add four rect primitives between the rounded corners*
20,1,$1+$1,$2,$3,$4,$5,0*
20,1,$1+$1,$4,$5,$6,$7,0*
20,1,$1+$1,$6,$7,$8,$9,0*
20,1,$1+$1,$8,$9,$2,$3,0*%
G04 Aperture macros list end*
%ADD10C,0.150000*%
%ADD11C,0.120000*%
%ADD12C,0.200000*%
%ADD13C,0.100000*%
%ADD14RoundRect,0.038000X-0.750000X-0.450000X0.750000X-0.450000X0.750000X0.450000X-0.750000X0.450000X0*%
%ADD15RoundRect,0.038000X0.450000X-0.750000X0.450000X0.750000X-0.450000X0.750000X-0.450000X-0.750000X0*%
%ADD16RoundRect,0.038000X0.750000X0.450000X-0.750000X0.450000X-0.750000X-0.450000X0.750000X-0.450000X0*%
%ADD17RoundRect,0.038000X0.450000X0.450000X-0.450000X0.450000X-0.450000X-0.450000X0.450000X-0.450000X0*%
%ADD18RoundRect,0.169000X-0.606500X-0.169000X0.606500X-0.169000X0.606500X0.169000X-0.606500X0.169000X0*%
%ADD19RoundRect,0.256500X-0.319000X-0.256500X0.319000X-0.256500X0.319000X0.256500X-0.319000X0.256500X0*%
%ADD20RoundRect,0.256500X0.319000X0.256500X-0.319000X0.256500X-0.319000X-0.256500X0.319000X-0.256500X0*%
%ADD21RoundRect,0.038000X-0.750000X-0.500000X0.750000X-0.500000X0.750000X0.500000X-0.750000X0.500000X0*%
%ADD22RoundRect,0.264615X-0.648385X0.423385X-0.648385X-0.423385X0.648385X-0.423385X0.648385X0.423385X0*%
%ADD23RoundRect,0.267273X-0.320727X-0.320727X0.320727X-0.320727X0.320727X0.320727X-0.320727X0.320727X0*%
%ADD24RoundRect,0.038000X0.135000X0.175000X-0.135000X0.175000X-0.135000X-0.175000X0.135000X-0.175000X0*%
%ADD25RoundRect,0.038000X0.720000X0.220000X-0.720000X0.220000X-0.720000X-0.220000X0.720000X-0.220000X0*%
%ADD26RoundRect,0.038000X-0.500000X-0.500000X0.500000X-0.500000X0.500000X0.500000X-0.500000X0.500000X0*%
%ADD27RoundRect,0.269000X-0.269000X0.269000X-0.269000X-0.269000X0.269000X-0.269000X0.269000X0.269000X0*%
%ADD28RoundRect,0.102000X1.000000X-0.400000X1.000000X0.400000X-1.000000X0.400000X-1.000000X-0.400000X0*%
%ADD29RoundRect,0.102000X0.700000X-0.900000X0.700000X0.900000X-0.700000X0.900000X-0.700000X-0.900000X0*%
%ADD30RoundRect,0.102000X0.950000X-0.700000X0.950000X0.700000X-0.950000X0.700000X-0.950000X-0.700000X0*%
%ADD31RoundRect,0.264615X0.648385X-0.423385X0.648385X0.423385X-0.648385X0.423385X-0.648385X-0.423385X0*%
%ADD32RoundRect,0.256500X-0.256500X0.319000X-0.256500X-0.319000X0.256500X-0.319000X0.256500X0.319000X0*%
%ADD33RoundRect,0.264615X0.423385X0.648385X-0.423385X0.648385X-0.423385X-0.648385X0.423385X-0.648385X0*%
%ADD34RoundRect,0.038000X-0.500000X-0.750000X0.500000X-0.750000X0.500000X0.750000X-0.500000X0.750000X0*%
%ADD35RoundRect,0.264615X-0.423385X-0.648385X0.423385X-0.648385X0.423385X0.648385X-0.423385X0.648385X0*%
%ADD36RoundRect,0.264340X-0.436160X-0.673660X0.436160X-0.673660X0.436160X0.673660X-0.436160X0.673660X0*%
%ADD37C,2.076000*%
%ADD38RoundRect,0.256500X0.256500X-0.319000X0.256500X0.319000X-0.256500X0.319000X-0.256500X-0.319000X0*%
%ADD39RoundRect,0.269000X-0.269000X-0.269000X0.269000X-0.269000X0.269000X0.269000X-0.269000X0.269000X0*%
%ADD40RoundRect,0.038000X0.750000X-0.500000X0.750000X0.500000X-0.750000X0.500000X-0.750000X-0.500000X0*%
%ADD41RoundRect,0.038000X-0.850000X-0.850000X0.850000X-0.850000X0.850000X0.850000X-0.850000X0.850000X0*%
%ADD42O,1.776000X1.776000*%
%ADD43C,0.726000*%
%ADD44RoundRect,0.169000X-0.169000X-0.444000X0.169000X-0.444000X0.169000X0.444000X-0.169000X0.444000X0*%
%ADD45RoundRect,0.094000X-0.094000X-0.519000X0.094000X-0.519000X0.094000X0.519000X-0.094000X0.519000X0*%
%ADD46O,1.076000X2.176000*%
%ADD47O,1.076000X1.876000*%
%ADD48RoundRect,0.264340X-0.673660X0.436160X-0.673660X-0.436160X0.673660X-0.436160X0.673660X0.436160X0*%
%ADD49RoundRect,0.264340X0.436160X0.673660X-0.436160X0.673660X-0.436160X-0.673660X0.436160X-0.673660X0*%
%ADD50RoundRect,0.266522X-0.471478X0.346478X-0.471478X-0.346478X0.471478X-0.346478X0.471478X0.346478X0*%
G04 APERTURE END LIST*
D10*
X134941541Y-53153152D02*
X135179636Y-53819819D01*
X135179636Y-53819819D02*
X135417731Y-53153152D01*
X136322493Y-53819819D02*
X135751065Y-53819819D01*
X136036779Y-53819819D02*
X136036779Y-52819819D01*
X136036779Y-52819819D02*
X135941541Y-52962676D01*
X135941541Y-52962676D02*
X135846303Y-53057914D01*
X135846303Y-53057914D02*
X135751065Y-53105533D01*
X140988095Y-13364819D02*
X140988095Y-14174342D01*
X140988095Y-14174342D02*
X141035714Y-14269580D01*
X141035714Y-14269580D02*
X141083333Y-14317200D01*
X141083333Y-14317200D02*
X141178571Y-14364819D01*
X141178571Y-14364819D02*
X141369047Y-14364819D01*
X141369047Y-14364819D02*
X141464285Y-14317200D01*
X141464285Y-14317200D02*
X141511904Y-14269580D01*
X141511904Y-14269580D02*
X141559523Y-14174342D01*
X141559523Y-14174342D02*
X141559523Y-13364819D01*
X142559523Y-14364819D02*
X141988095Y-14364819D01*
X142273809Y-14364819D02*
X142273809Y-13364819D01*
X142273809Y-13364819D02*
X142178571Y-13507676D01*
X142178571Y-13507676D02*
X142083333Y-13602914D01*
X142083333Y-13602914D02*
X141988095Y-13650533D01*
X136988094Y-18379104D02*
X137464284Y-18379104D01*
X136892856Y-18664819D02*
X137226189Y-17664819D01*
X137226189Y-17664819D02*
X137559522Y-18664819D01*
X137892856Y-17998152D02*
X137892856Y-18664819D01*
X137892856Y-18093390D02*
X137940475Y-18045771D01*
X137940475Y-18045771D02*
X138035713Y-17998152D01*
X138035713Y-17998152D02*
X138178570Y-17998152D01*
X138178570Y-17998152D02*
X138273808Y-18045771D01*
X138273808Y-18045771D02*
X138321427Y-18141009D01*
X138321427Y-18141009D02*
X138321427Y-18664819D01*
X138654761Y-17998152D02*
X139035713Y-17998152D01*
X138797618Y-17664819D02*
X138797618Y-18521961D01*
X138797618Y-18521961D02*
X138845237Y-18617200D01*
X138845237Y-18617200D02*
X138940475Y-18664819D01*
X138940475Y-18664819D02*
X139035713Y-18664819D01*
X139749999Y-18617200D02*
X139654761Y-18664819D01*
X139654761Y-18664819D02*
X139464285Y-18664819D01*
X139464285Y-18664819D02*
X139369047Y-18617200D01*
X139369047Y-18617200D02*
X139321428Y-18521961D01*
X139321428Y-18521961D02*
X139321428Y-18141009D01*
X139321428Y-18141009D02*
X139369047Y-18045771D01*
X139369047Y-18045771D02*
X139464285Y-17998152D01*
X139464285Y-17998152D02*
X139654761Y-17998152D01*
X139654761Y-17998152D02*
X139749999Y-18045771D01*
X139749999Y-18045771D02*
X139797618Y-18141009D01*
X139797618Y-18141009D02*
X139797618Y-18236247D01*
X139797618Y-18236247D02*
X139321428Y-18331485D01*
X140226190Y-17998152D02*
X140226190Y-18664819D01*
X140226190Y-18093390D02*
X140273809Y-18045771D01*
X140273809Y-18045771D02*
X140369047Y-17998152D01*
X140369047Y-17998152D02*
X140511904Y-17998152D01*
X140511904Y-17998152D02*
X140607142Y-18045771D01*
X140607142Y-18045771D02*
X140654761Y-18141009D01*
X140654761Y-18141009D02*
X140654761Y-18664819D01*
X141130952Y-17998152D02*
X141130952Y-18664819D01*
X141130952Y-18093390D02*
X141178571Y-18045771D01*
X141178571Y-18045771D02*
X141273809Y-17998152D01*
X141273809Y-17998152D02*
X141416666Y-17998152D01*
X141416666Y-17998152D02*
X141511904Y-18045771D01*
X141511904Y-18045771D02*
X141559523Y-18141009D01*
X141559523Y-18141009D02*
X141559523Y-18664819D01*
X142464285Y-18664819D02*
X142464285Y-18141009D01*
X142464285Y-18141009D02*
X142416666Y-18045771D01*
X142416666Y-18045771D02*
X142321428Y-17998152D01*
X142321428Y-17998152D02*
X142130952Y-17998152D01*
X142130952Y-17998152D02*
X142035714Y-18045771D01*
X142464285Y-18617200D02*
X142369047Y-18664819D01*
X142369047Y-18664819D02*
X142130952Y-18664819D01*
X142130952Y-18664819D02*
X142035714Y-18617200D01*
X142035714Y-18617200D02*
X141988095Y-18521961D01*
X141988095Y-18521961D02*
X141988095Y-18426723D01*
X141988095Y-18426723D02*
X142035714Y-18331485D01*
X142035714Y-18331485D02*
X142130952Y-18283866D01*
X142130952Y-18283866D02*
X142369047Y-18283866D01*
X142369047Y-18283866D02*
X142464285Y-18236247D01*
X143654762Y-18379104D02*
X144130952Y-18379104D01*
X143559524Y-18664819D02*
X143892857Y-17664819D01*
X143892857Y-17664819D02*
X144226190Y-18664819D01*
X144559524Y-18664819D02*
X144559524Y-17998152D01*
X144559524Y-18188628D02*
X144607143Y-18093390D01*
X144607143Y-18093390D02*
X144654762Y-18045771D01*
X144654762Y-18045771D02*
X144750000Y-17998152D01*
X144750000Y-17998152D02*
X144845238Y-17998152D01*
X145559524Y-18617200D02*
X145464286Y-18664819D01*
X145464286Y-18664819D02*
X145273810Y-18664819D01*
X145273810Y-18664819D02*
X145178572Y-18617200D01*
X145178572Y-18617200D02*
X145130953Y-18521961D01*
X145130953Y-18521961D02*
X145130953Y-18141009D01*
X145130953Y-18141009D02*
X145178572Y-18045771D01*
X145178572Y-18045771D02*
X145273810Y-17998152D01*
X145273810Y-17998152D02*
X145464286Y-17998152D01*
X145464286Y-17998152D02*
X145559524Y-18045771D01*
X145559524Y-18045771D02*
X145607143Y-18141009D01*
X145607143Y-18141009D02*
X145607143Y-18236247D01*
X145607143Y-18236247D02*
X145130953Y-18331485D01*
X146464286Y-18664819D02*
X146464286Y-18141009D01*
X146464286Y-18141009D02*
X146416667Y-18045771D01*
X146416667Y-18045771D02*
X146321429Y-17998152D01*
X146321429Y-17998152D02*
X146130953Y-17998152D01*
X146130953Y-17998152D02*
X146035715Y-18045771D01*
X146464286Y-18617200D02*
X146369048Y-18664819D01*
X146369048Y-18664819D02*
X146130953Y-18664819D01*
X146130953Y-18664819D02*
X146035715Y-18617200D01*
X146035715Y-18617200D02*
X145988096Y-18521961D01*
X145988096Y-18521961D02*
X145988096Y-18426723D01*
X145988096Y-18426723D02*
X146035715Y-18331485D01*
X146035715Y-18331485D02*
X146130953Y-18283866D01*
X146130953Y-18283866D02*
X146369048Y-18283866D01*
X146369048Y-18283866D02*
X146464286Y-18236247D01*
X148292261Y-46750057D02*
X148197023Y-46702438D01*
X148197023Y-46702438D02*
X148101785Y-46607200D01*
X148101785Y-46607200D02*
X147958928Y-46464342D01*
X147958928Y-46464342D02*
X147863690Y-46416723D01*
X147863690Y-46416723D02*
X147768452Y-46416723D01*
X147816071Y-46654819D02*
X147720833Y-46607200D01*
X147720833Y-46607200D02*
X147625595Y-46511961D01*
X147625595Y-46511961D02*
X147577976Y-46321485D01*
X147577976Y-46321485D02*
X147577976Y-45988152D01*
X147577976Y-45988152D02*
X147625595Y-45797676D01*
X147625595Y-45797676D02*
X147720833Y-45702438D01*
X147720833Y-45702438D02*
X147816071Y-45654819D01*
X147816071Y-45654819D02*
X148006547Y-45654819D01*
X148006547Y-45654819D02*
X148101785Y-45702438D01*
X148101785Y-45702438D02*
X148197023Y-45797676D01*
X148197023Y-45797676D02*
X148244642Y-45988152D01*
X148244642Y-45988152D02*
X148244642Y-46321485D01*
X148244642Y-46321485D02*
X148197023Y-46511961D01*
X148197023Y-46511961D02*
X148101785Y-46607200D01*
X148101785Y-46607200D02*
X148006547Y-46654819D01*
X148006547Y-46654819D02*
X147816071Y-46654819D01*
X148577976Y-45654819D02*
X149197023Y-45654819D01*
X149197023Y-45654819D02*
X148863690Y-46035771D01*
X148863690Y-46035771D02*
X149006547Y-46035771D01*
X149006547Y-46035771D02*
X149101785Y-46083390D01*
X149101785Y-46083390D02*
X149149404Y-46131009D01*
X149149404Y-46131009D02*
X149197023Y-46226247D01*
X149197023Y-46226247D02*
X149197023Y-46464342D01*
X149197023Y-46464342D02*
X149149404Y-46559580D01*
X149149404Y-46559580D02*
X149101785Y-46607200D01*
X149101785Y-46607200D02*
X149006547Y-46654819D01*
X149006547Y-46654819D02*
X148720833Y-46654819D01*
X148720833Y-46654819D02*
X148625595Y-46607200D01*
X148625595Y-46607200D02*
X148577976Y-46559580D01*
X126235714Y-74536104D02*
X126197618Y-74574200D01*
X126197618Y-74574200D02*
X126083333Y-74612295D01*
X126083333Y-74612295D02*
X126007142Y-74612295D01*
X126007142Y-74612295D02*
X125892856Y-74574200D01*
X125892856Y-74574200D02*
X125816666Y-74498009D01*
X125816666Y-74498009D02*
X125778571Y-74421819D01*
X125778571Y-74421819D02*
X125740475Y-74269438D01*
X125740475Y-74269438D02*
X125740475Y-74155152D01*
X125740475Y-74155152D02*
X125778571Y-74002771D01*
X125778571Y-74002771D02*
X125816666Y-73926580D01*
X125816666Y-73926580D02*
X125892856Y-73850390D01*
X125892856Y-73850390D02*
X126007142Y-73812295D01*
X126007142Y-73812295D02*
X126083333Y-73812295D01*
X126083333Y-73812295D02*
X126197618Y-73850390D01*
X126197618Y-73850390D02*
X126235714Y-73888485D01*
X126997618Y-74612295D02*
X126540475Y-74612295D01*
X126769047Y-74612295D02*
X126769047Y-73812295D01*
X126769047Y-73812295D02*
X126692856Y-73926580D01*
X126692856Y-73926580D02*
X126616666Y-74002771D01*
X126616666Y-74002771D02*
X126540475Y-74040866D01*
X127721428Y-73812295D02*
X127340476Y-73812295D01*
X127340476Y-73812295D02*
X127302380Y-74193247D01*
X127302380Y-74193247D02*
X127340476Y-74155152D01*
X127340476Y-74155152D02*
X127416666Y-74117057D01*
X127416666Y-74117057D02*
X127607142Y-74117057D01*
X127607142Y-74117057D02*
X127683333Y-74155152D01*
X127683333Y-74155152D02*
X127721428Y-74193247D01*
X127721428Y-74193247D02*
X127759523Y-74269438D01*
X127759523Y-74269438D02*
X127759523Y-74459914D01*
X127759523Y-74459914D02*
X127721428Y-74536104D01*
X127721428Y-74536104D02*
X127683333Y-74574200D01*
X127683333Y-74574200D02*
X127607142Y-74612295D01*
X127607142Y-74612295D02*
X127416666Y-74612295D01*
X127416666Y-74612295D02*
X127340476Y-74574200D01*
X127340476Y-74574200D02*
X127302380Y-74536104D01*
X161033333Y-78159580D02*
X160985714Y-78207200D01*
X160985714Y-78207200D02*
X160842857Y-78254819D01*
X160842857Y-78254819D02*
X160747619Y-78254819D01*
X160747619Y-78254819D02*
X160604762Y-78207200D01*
X160604762Y-78207200D02*
X160509524Y-78111961D01*
X160509524Y-78111961D02*
X160461905Y-78016723D01*
X160461905Y-78016723D02*
X160414286Y-77826247D01*
X160414286Y-77826247D02*
X160414286Y-77683390D01*
X160414286Y-77683390D02*
X160461905Y-77492914D01*
X160461905Y-77492914D02*
X160509524Y-77397676D01*
X160509524Y-77397676D02*
X160604762Y-77302438D01*
X160604762Y-77302438D02*
X160747619Y-77254819D01*
X160747619Y-77254819D02*
X160842857Y-77254819D01*
X160842857Y-77254819D02*
X160985714Y-77302438D01*
X160985714Y-77302438D02*
X161033333Y-77350057D01*
X161366667Y-77254819D02*
X161985714Y-77254819D01*
X161985714Y-77254819D02*
X161652381Y-77635771D01*
X161652381Y-77635771D02*
X161795238Y-77635771D01*
X161795238Y-77635771D02*
X161890476Y-77683390D01*
X161890476Y-77683390D02*
X161938095Y-77731009D01*
X161938095Y-77731009D02*
X161985714Y-77826247D01*
X161985714Y-77826247D02*
X161985714Y-78064342D01*
X161985714Y-78064342D02*
X161938095Y-78159580D01*
X161938095Y-78159580D02*
X161890476Y-78207200D01*
X161890476Y-78207200D02*
X161795238Y-78254819D01*
X161795238Y-78254819D02*
X161509524Y-78254819D01*
X161509524Y-78254819D02*
X161414286Y-78207200D01*
X161414286Y-78207200D02*
X161366667Y-78159580D01*
X146711905Y-55454819D02*
X146711905Y-54454819D01*
X146711905Y-54454819D02*
X146950000Y-54454819D01*
X146950000Y-54454819D02*
X147092857Y-54502438D01*
X147092857Y-54502438D02*
X147188095Y-54597676D01*
X147188095Y-54597676D02*
X147235714Y-54692914D01*
X147235714Y-54692914D02*
X147283333Y-54883390D01*
X147283333Y-54883390D02*
X147283333Y-55026247D01*
X147283333Y-55026247D02*
X147235714Y-55216723D01*
X147235714Y-55216723D02*
X147188095Y-55311961D01*
X147188095Y-55311961D02*
X147092857Y-55407200D01*
X147092857Y-55407200D02*
X146950000Y-55454819D01*
X146950000Y-55454819D02*
X146711905Y-55454819D01*
X148188095Y-54454819D02*
X147711905Y-54454819D01*
X147711905Y-54454819D02*
X147664286Y-54931009D01*
X147664286Y-54931009D02*
X147711905Y-54883390D01*
X147711905Y-54883390D02*
X147807143Y-54835771D01*
X147807143Y-54835771D02*
X148045238Y-54835771D01*
X148045238Y-54835771D02*
X148140476Y-54883390D01*
X148140476Y-54883390D02*
X148188095Y-54931009D01*
X148188095Y-54931009D02*
X148235714Y-55026247D01*
X148235714Y-55026247D02*
X148235714Y-55264342D01*
X148235714Y-55264342D02*
X148188095Y-55359580D01*
X148188095Y-55359580D02*
X148140476Y-55407200D01*
X148140476Y-55407200D02*
X148045238Y-55454819D01*
X148045238Y-55454819D02*
X147807143Y-55454819D01*
X147807143Y-55454819D02*
X147711905Y-55407200D01*
X147711905Y-55407200D02*
X147664286Y-55359580D01*
X122607142Y-78204819D02*
X122273809Y-77728628D01*
X122035714Y-78204819D02*
X122035714Y-77204819D01*
X122035714Y-77204819D02*
X122416666Y-77204819D01*
X122416666Y-77204819D02*
X122511904Y-77252438D01*
X122511904Y-77252438D02*
X122559523Y-77300057D01*
X122559523Y-77300057D02*
X122607142Y-77395295D01*
X122607142Y-77395295D02*
X122607142Y-77538152D01*
X122607142Y-77538152D02*
X122559523Y-77633390D01*
X122559523Y-77633390D02*
X122511904Y-77681009D01*
X122511904Y-77681009D02*
X122416666Y-77728628D01*
X122416666Y-77728628D02*
X122035714Y-77728628D01*
X122940476Y-77204819D02*
X123559523Y-77204819D01*
X123559523Y-77204819D02*
X123226190Y-77585771D01*
X123226190Y-77585771D02*
X123369047Y-77585771D01*
X123369047Y-77585771D02*
X123464285Y-77633390D01*
X123464285Y-77633390D02*
X123511904Y-77681009D01*
X123511904Y-77681009D02*
X123559523Y-77776247D01*
X123559523Y-77776247D02*
X123559523Y-78014342D01*
X123559523Y-78014342D02*
X123511904Y-78109580D01*
X123511904Y-78109580D02*
X123464285Y-78157200D01*
X123464285Y-78157200D02*
X123369047Y-78204819D01*
X123369047Y-78204819D02*
X123083333Y-78204819D01*
X123083333Y-78204819D02*
X122988095Y-78157200D01*
X122988095Y-78157200D02*
X122940476Y-78109580D01*
X123940476Y-77300057D02*
X123988095Y-77252438D01*
X123988095Y-77252438D02*
X124083333Y-77204819D01*
X124083333Y-77204819D02*
X124321428Y-77204819D01*
X124321428Y-77204819D02*
X124416666Y-77252438D01*
X124416666Y-77252438D02*
X124464285Y-77300057D01*
X124464285Y-77300057D02*
X124511904Y-77395295D01*
X124511904Y-77395295D02*
X124511904Y-77490533D01*
X124511904Y-77490533D02*
X124464285Y-77633390D01*
X124464285Y-77633390D02*
X123892857Y-78204819D01*
X123892857Y-78204819D02*
X124511904Y-78204819D01*
X157304761Y-40950057D02*
X157209523Y-40902438D01*
X157209523Y-40902438D02*
X157114285Y-40807200D01*
X157114285Y-40807200D02*
X156971428Y-40664342D01*
X156971428Y-40664342D02*
X156876190Y-40616723D01*
X156876190Y-40616723D02*
X156780952Y-40616723D01*
X156828571Y-40854819D02*
X156733333Y-40807200D01*
X156733333Y-40807200D02*
X156638095Y-40711961D01*
X156638095Y-40711961D02*
X156590476Y-40521485D01*
X156590476Y-40521485D02*
X156590476Y-40188152D01*
X156590476Y-40188152D02*
X156638095Y-39997676D01*
X156638095Y-39997676D02*
X156733333Y-39902438D01*
X156733333Y-39902438D02*
X156828571Y-39854819D01*
X156828571Y-39854819D02*
X157019047Y-39854819D01*
X157019047Y-39854819D02*
X157114285Y-39902438D01*
X157114285Y-39902438D02*
X157209523Y-39997676D01*
X157209523Y-39997676D02*
X157257142Y-40188152D01*
X157257142Y-40188152D02*
X157257142Y-40521485D01*
X157257142Y-40521485D02*
X157209523Y-40711961D01*
X157209523Y-40711961D02*
X157114285Y-40807200D01*
X157114285Y-40807200D02*
X157019047Y-40854819D01*
X157019047Y-40854819D02*
X156828571Y-40854819D01*
X158209523Y-40854819D02*
X157638095Y-40854819D01*
X157923809Y-40854819D02*
X157923809Y-39854819D01*
X157923809Y-39854819D02*
X157828571Y-39997676D01*
X157828571Y-39997676D02*
X157733333Y-40092914D01*
X157733333Y-40092914D02*
X157638095Y-40140533D01*
X130161905Y-80954819D02*
X130161905Y-79954819D01*
X130161905Y-79954819D02*
X130400000Y-79954819D01*
X130400000Y-79954819D02*
X130542857Y-80002438D01*
X130542857Y-80002438D02*
X130638095Y-80097676D01*
X130638095Y-80097676D02*
X130685714Y-80192914D01*
X130685714Y-80192914D02*
X130733333Y-80383390D01*
X130733333Y-80383390D02*
X130733333Y-80526247D01*
X130733333Y-80526247D02*
X130685714Y-80716723D01*
X130685714Y-80716723D02*
X130638095Y-80811961D01*
X130638095Y-80811961D02*
X130542857Y-80907200D01*
X130542857Y-80907200D02*
X130400000Y-80954819D01*
X130400000Y-80954819D02*
X130161905Y-80954819D01*
X131590476Y-80288152D02*
X131590476Y-80954819D01*
X131352381Y-79907200D02*
X131114286Y-80621485D01*
X131114286Y-80621485D02*
X131733333Y-80621485D01*
X125704819Y-72011904D02*
X126514342Y-72011904D01*
X126514342Y-72011904D02*
X126609580Y-71964285D01*
X126609580Y-71964285D02*
X126657200Y-71916666D01*
X126657200Y-71916666D02*
X126704819Y-71821428D01*
X126704819Y-71821428D02*
X126704819Y-71630952D01*
X126704819Y-71630952D02*
X126657200Y-71535714D01*
X126657200Y-71535714D02*
X126609580Y-71488095D01*
X126609580Y-71488095D02*
X126514342Y-71440476D01*
X126514342Y-71440476D02*
X125704819Y-71440476D01*
X125800057Y-71011904D02*
X125752438Y-70964285D01*
X125752438Y-70964285D02*
X125704819Y-70869047D01*
X125704819Y-70869047D02*
X125704819Y-70630952D01*
X125704819Y-70630952D02*
X125752438Y-70535714D01*
X125752438Y-70535714D02*
X125800057Y-70488095D01*
X125800057Y-70488095D02*
X125895295Y-70440476D01*
X125895295Y-70440476D02*
X125990533Y-70440476D01*
X125990533Y-70440476D02*
X126133390Y-70488095D01*
X126133390Y-70488095D02*
X126704819Y-71059523D01*
X126704819Y-71059523D02*
X126704819Y-70440476D01*
X125538095Y-35254819D02*
X126109523Y-35254819D01*
X125823809Y-36254819D02*
X125823809Y-35254819D01*
X126442857Y-36254819D02*
X126442857Y-35254819D01*
X126442857Y-35254819D02*
X126823809Y-35254819D01*
X126823809Y-35254819D02*
X126919047Y-35302438D01*
X126919047Y-35302438D02*
X126966666Y-35350057D01*
X126966666Y-35350057D02*
X127014285Y-35445295D01*
X127014285Y-35445295D02*
X127014285Y-35588152D01*
X127014285Y-35588152D02*
X126966666Y-35683390D01*
X126966666Y-35683390D02*
X126919047Y-35731009D01*
X126919047Y-35731009D02*
X126823809Y-35778628D01*
X126823809Y-35778628D02*
X126442857Y-35778628D01*
X127585714Y-35683390D02*
X127490476Y-35635771D01*
X127490476Y-35635771D02*
X127442857Y-35588152D01*
X127442857Y-35588152D02*
X127395238Y-35492914D01*
X127395238Y-35492914D02*
X127395238Y-35445295D01*
X127395238Y-35445295D02*
X127442857Y-35350057D01*
X127442857Y-35350057D02*
X127490476Y-35302438D01*
X127490476Y-35302438D02*
X127585714Y-35254819D01*
X127585714Y-35254819D02*
X127776190Y-35254819D01*
X127776190Y-35254819D02*
X127871428Y-35302438D01*
X127871428Y-35302438D02*
X127919047Y-35350057D01*
X127919047Y-35350057D02*
X127966666Y-35445295D01*
X127966666Y-35445295D02*
X127966666Y-35492914D01*
X127966666Y-35492914D02*
X127919047Y-35588152D01*
X127919047Y-35588152D02*
X127871428Y-35635771D01*
X127871428Y-35635771D02*
X127776190Y-35683390D01*
X127776190Y-35683390D02*
X127585714Y-35683390D01*
X127585714Y-35683390D02*
X127490476Y-35731009D01*
X127490476Y-35731009D02*
X127442857Y-35778628D01*
X127442857Y-35778628D02*
X127395238Y-35873866D01*
X127395238Y-35873866D02*
X127395238Y-36064342D01*
X127395238Y-36064342D02*
X127442857Y-36159580D01*
X127442857Y-36159580D02*
X127490476Y-36207200D01*
X127490476Y-36207200D02*
X127585714Y-36254819D01*
X127585714Y-36254819D02*
X127776190Y-36254819D01*
X127776190Y-36254819D02*
X127871428Y-36207200D01*
X127871428Y-36207200D02*
X127919047Y-36159580D01*
X127919047Y-36159580D02*
X127966666Y-36064342D01*
X127966666Y-36064342D02*
X127966666Y-35873866D01*
X127966666Y-35873866D02*
X127919047Y-35778628D01*
X127919047Y-35778628D02*
X127871428Y-35731009D01*
X127871428Y-35731009D02*
X127776190Y-35683390D01*
X133354819Y-72638094D02*
X132354819Y-72638094D01*
X132354819Y-72638094D02*
X132354819Y-72399999D01*
X132354819Y-72399999D02*
X132402438Y-72257142D01*
X132402438Y-72257142D02*
X132497676Y-72161904D01*
X132497676Y-72161904D02*
X132592914Y-72114285D01*
X132592914Y-72114285D02*
X132783390Y-72066666D01*
X132783390Y-72066666D02*
X132926247Y-72066666D01*
X132926247Y-72066666D02*
X133116723Y-72114285D01*
X133116723Y-72114285D02*
X133211961Y-72161904D01*
X133211961Y-72161904D02*
X133307200Y-72257142D01*
X133307200Y-72257142D02*
X133354819Y-72399999D01*
X133354819Y-72399999D02*
X133354819Y-72638094D01*
X132354819Y-71733332D02*
X132354819Y-71114285D01*
X132354819Y-71114285D02*
X132735771Y-71447618D01*
X132735771Y-71447618D02*
X132735771Y-71304761D01*
X132735771Y-71304761D02*
X132783390Y-71209523D01*
X132783390Y-71209523D02*
X132831009Y-71161904D01*
X132831009Y-71161904D02*
X132926247Y-71114285D01*
X132926247Y-71114285D02*
X133164342Y-71114285D01*
X133164342Y-71114285D02*
X133259580Y-71161904D01*
X133259580Y-71161904D02*
X133307200Y-71209523D01*
X133307200Y-71209523D02*
X133354819Y-71304761D01*
X133354819Y-71304761D02*
X133354819Y-71590475D01*
X133354819Y-71590475D02*
X133307200Y-71685713D01*
X133307200Y-71685713D02*
X133259580Y-71733332D01*
X156266378Y-60331925D02*
X156266378Y-61475401D01*
X156266378Y-61475401D02*
X156190147Y-61704096D01*
X156190147Y-61704096D02*
X156037683Y-61856560D01*
X156037683Y-61856560D02*
X155808988Y-61932791D01*
X155808988Y-61932791D02*
X155656525Y-61932791D01*
X157714781Y-60865547D02*
X157714781Y-61932791D01*
X157333622Y-60255694D02*
X156952463Y-61399169D01*
X156952463Y-61399169D02*
X157943476Y-61399169D01*
X137133333Y-72554819D02*
X136800000Y-72078628D01*
X136561905Y-72554819D02*
X136561905Y-71554819D01*
X136561905Y-71554819D02*
X136942857Y-71554819D01*
X136942857Y-71554819D02*
X137038095Y-71602438D01*
X137038095Y-71602438D02*
X137085714Y-71650057D01*
X137085714Y-71650057D02*
X137133333Y-71745295D01*
X137133333Y-71745295D02*
X137133333Y-71888152D01*
X137133333Y-71888152D02*
X137085714Y-71983390D01*
X137085714Y-71983390D02*
X137038095Y-72031009D01*
X137038095Y-72031009D02*
X136942857Y-72078628D01*
X136942857Y-72078628D02*
X136561905Y-72078628D01*
X137990476Y-71888152D02*
X137990476Y-72554819D01*
X137752381Y-71507200D02*
X137514286Y-72221485D01*
X137514286Y-72221485D02*
X138133333Y-72221485D01*
X130457142Y-68859580D02*
X130409523Y-68907200D01*
X130409523Y-68907200D02*
X130266666Y-68954819D01*
X130266666Y-68954819D02*
X130171428Y-68954819D01*
X130171428Y-68954819D02*
X130028571Y-68907200D01*
X130028571Y-68907200D02*
X129933333Y-68811961D01*
X129933333Y-68811961D02*
X129885714Y-68716723D01*
X129885714Y-68716723D02*
X129838095Y-68526247D01*
X129838095Y-68526247D02*
X129838095Y-68383390D01*
X129838095Y-68383390D02*
X129885714Y-68192914D01*
X129885714Y-68192914D02*
X129933333Y-68097676D01*
X129933333Y-68097676D02*
X130028571Y-68002438D01*
X130028571Y-68002438D02*
X130171428Y-67954819D01*
X130171428Y-67954819D02*
X130266666Y-67954819D01*
X130266666Y-67954819D02*
X130409523Y-68002438D01*
X130409523Y-68002438D02*
X130457142Y-68050057D01*
X131409523Y-68954819D02*
X130838095Y-68954819D01*
X131123809Y-68954819D02*
X131123809Y-67954819D01*
X131123809Y-67954819D02*
X131028571Y-68097676D01*
X131028571Y-68097676D02*
X130933333Y-68192914D01*
X130933333Y-68192914D02*
X130838095Y-68240533D01*
X131742857Y-67954819D02*
X132409523Y-67954819D01*
X132409523Y-67954819D02*
X131980952Y-68954819D01*
X155607142Y-20204819D02*
X155273809Y-19728628D01*
X155035714Y-20204819D02*
X155035714Y-19204819D01*
X155035714Y-19204819D02*
X155416666Y-19204819D01*
X155416666Y-19204819D02*
X155511904Y-19252438D01*
X155511904Y-19252438D02*
X155559523Y-19300057D01*
X155559523Y-19300057D02*
X155607142Y-19395295D01*
X155607142Y-19395295D02*
X155607142Y-19538152D01*
X155607142Y-19538152D02*
X155559523Y-19633390D01*
X155559523Y-19633390D02*
X155511904Y-19681009D01*
X155511904Y-19681009D02*
X155416666Y-19728628D01*
X155416666Y-19728628D02*
X155035714Y-19728628D01*
X156559523Y-20204819D02*
X155988095Y-20204819D01*
X156273809Y-20204819D02*
X156273809Y-19204819D01*
X156273809Y-19204819D02*
X156178571Y-19347676D01*
X156178571Y-19347676D02*
X156083333Y-19442914D01*
X156083333Y-19442914D02*
X155988095Y-19490533D01*
X157178571Y-19204819D02*
X157273809Y-19204819D01*
X157273809Y-19204819D02*
X157369047Y-19252438D01*
X157369047Y-19252438D02*
X157416666Y-19300057D01*
X157416666Y-19300057D02*
X157464285Y-19395295D01*
X157464285Y-19395295D02*
X157511904Y-19585771D01*
X157511904Y-19585771D02*
X157511904Y-19823866D01*
X157511904Y-19823866D02*
X157464285Y-20014342D01*
X157464285Y-20014342D02*
X157416666Y-20109580D01*
X157416666Y-20109580D02*
X157369047Y-20157200D01*
X157369047Y-20157200D02*
X157273809Y-20204819D01*
X157273809Y-20204819D02*
X157178571Y-20204819D01*
X157178571Y-20204819D02*
X157083333Y-20157200D01*
X157083333Y-20157200D02*
X157035714Y-20109580D01*
X157035714Y-20109580D02*
X156988095Y-20014342D01*
X156988095Y-20014342D02*
X156940476Y-19823866D01*
X156940476Y-19823866D02*
X156940476Y-19585771D01*
X156940476Y-19585771D02*
X156988095Y-19395295D01*
X156988095Y-19395295D02*
X157035714Y-19300057D01*
X157035714Y-19300057D02*
X157083333Y-19252438D01*
X157083333Y-19252438D02*
X157178571Y-19204819D01*
X159083333Y-23774819D02*
X158750000Y-23298628D01*
X158511905Y-23774819D02*
X158511905Y-22774819D01*
X158511905Y-22774819D02*
X158892857Y-22774819D01*
X158892857Y-22774819D02*
X158988095Y-22822438D01*
X158988095Y-22822438D02*
X159035714Y-22870057D01*
X159035714Y-22870057D02*
X159083333Y-22965295D01*
X159083333Y-22965295D02*
X159083333Y-23108152D01*
X159083333Y-23108152D02*
X159035714Y-23203390D01*
X159035714Y-23203390D02*
X158988095Y-23251009D01*
X158988095Y-23251009D02*
X158892857Y-23298628D01*
X158892857Y-23298628D02*
X158511905Y-23298628D01*
X159559524Y-23774819D02*
X159750000Y-23774819D01*
X159750000Y-23774819D02*
X159845238Y-23727200D01*
X159845238Y-23727200D02*
X159892857Y-23679580D01*
X159892857Y-23679580D02*
X159988095Y-23536723D01*
X159988095Y-23536723D02*
X160035714Y-23346247D01*
X160035714Y-23346247D02*
X160035714Y-22965295D01*
X160035714Y-22965295D02*
X159988095Y-22870057D01*
X159988095Y-22870057D02*
X159940476Y-22822438D01*
X159940476Y-22822438D02*
X159845238Y-22774819D01*
X159845238Y-22774819D02*
X159654762Y-22774819D01*
X159654762Y-22774819D02*
X159559524Y-22822438D01*
X159559524Y-22822438D02*
X159511905Y-22870057D01*
X159511905Y-22870057D02*
X159464286Y-22965295D01*
X159464286Y-22965295D02*
X159464286Y-23203390D01*
X159464286Y-23203390D02*
X159511905Y-23298628D01*
X159511905Y-23298628D02*
X159559524Y-23346247D01*
X159559524Y-23346247D02*
X159654762Y-23393866D01*
X159654762Y-23393866D02*
X159845238Y-23393866D01*
X159845238Y-23393866D02*
X159940476Y-23346247D01*
X159940476Y-23346247D02*
X159988095Y-23298628D01*
X159988095Y-23298628D02*
X160035714Y-23203390D01*
X143166666Y-82454819D02*
X143166666Y-83169104D01*
X143166666Y-83169104D02*
X143119047Y-83311961D01*
X143119047Y-83311961D02*
X143023809Y-83407200D01*
X143023809Y-83407200D02*
X142880952Y-83454819D01*
X142880952Y-83454819D02*
X142785714Y-83454819D01*
X143642857Y-83454819D02*
X143642857Y-82454819D01*
X143642857Y-82454819D02*
X144023809Y-82454819D01*
X144023809Y-82454819D02*
X144119047Y-82502438D01*
X144119047Y-82502438D02*
X144166666Y-82550057D01*
X144166666Y-82550057D02*
X144214285Y-82645295D01*
X144214285Y-82645295D02*
X144214285Y-82788152D01*
X144214285Y-82788152D02*
X144166666Y-82883390D01*
X144166666Y-82883390D02*
X144119047Y-82931009D01*
X144119047Y-82931009D02*
X144023809Y-82978628D01*
X144023809Y-82978628D02*
X143642857Y-82978628D01*
X145166666Y-83454819D02*
X144595238Y-83454819D01*
X144880952Y-83454819D02*
X144880952Y-82454819D01*
X144880952Y-82454819D02*
X144785714Y-82597676D01*
X144785714Y-82597676D02*
X144690476Y-82692914D01*
X144690476Y-82692914D02*
X144595238Y-82740533D01*
X125538095Y-36854819D02*
X126109523Y-36854819D01*
X125823809Y-37854819D02*
X125823809Y-36854819D01*
X126442857Y-37854819D02*
X126442857Y-36854819D01*
X126442857Y-36854819D02*
X126823809Y-36854819D01*
X126823809Y-36854819D02*
X126919047Y-36902438D01*
X126919047Y-36902438D02*
X126966666Y-36950057D01*
X126966666Y-36950057D02*
X127014285Y-37045295D01*
X127014285Y-37045295D02*
X127014285Y-37188152D01*
X127014285Y-37188152D02*
X126966666Y-37283390D01*
X126966666Y-37283390D02*
X126919047Y-37331009D01*
X126919047Y-37331009D02*
X126823809Y-37378628D01*
X126823809Y-37378628D02*
X126442857Y-37378628D01*
X127490476Y-37854819D02*
X127680952Y-37854819D01*
X127680952Y-37854819D02*
X127776190Y-37807200D01*
X127776190Y-37807200D02*
X127823809Y-37759580D01*
X127823809Y-37759580D02*
X127919047Y-37616723D01*
X127919047Y-37616723D02*
X127966666Y-37426247D01*
X127966666Y-37426247D02*
X127966666Y-37045295D01*
X127966666Y-37045295D02*
X127919047Y-36950057D01*
X127919047Y-36950057D02*
X127871428Y-36902438D01*
X127871428Y-36902438D02*
X127776190Y-36854819D01*
X127776190Y-36854819D02*
X127585714Y-36854819D01*
X127585714Y-36854819D02*
X127490476Y-36902438D01*
X127490476Y-36902438D02*
X127442857Y-36950057D01*
X127442857Y-36950057D02*
X127395238Y-37045295D01*
X127395238Y-37045295D02*
X127395238Y-37283390D01*
X127395238Y-37283390D02*
X127442857Y-37378628D01*
X127442857Y-37378628D02*
X127490476Y-37426247D01*
X127490476Y-37426247D02*
X127585714Y-37473866D01*
X127585714Y-37473866D02*
X127776190Y-37473866D01*
X127776190Y-37473866D02*
X127871428Y-37426247D01*
X127871428Y-37426247D02*
X127919047Y-37378628D01*
X127919047Y-37378628D02*
X127966666Y-37283390D01*
X138233333Y-77654819D02*
X137900000Y-77178628D01*
X137661905Y-77654819D02*
X137661905Y-76654819D01*
X137661905Y-76654819D02*
X138042857Y-76654819D01*
X138042857Y-76654819D02*
X138138095Y-76702438D01*
X138138095Y-76702438D02*
X138185714Y-76750057D01*
X138185714Y-76750057D02*
X138233333Y-76845295D01*
X138233333Y-76845295D02*
X138233333Y-76988152D01*
X138233333Y-76988152D02*
X138185714Y-77083390D01*
X138185714Y-77083390D02*
X138138095Y-77131009D01*
X138138095Y-77131009D02*
X138042857Y-77178628D01*
X138042857Y-77178628D02*
X137661905Y-77178628D01*
X138566667Y-76654819D02*
X139185714Y-76654819D01*
X139185714Y-76654819D02*
X138852381Y-77035771D01*
X138852381Y-77035771D02*
X138995238Y-77035771D01*
X138995238Y-77035771D02*
X139090476Y-77083390D01*
X139090476Y-77083390D02*
X139138095Y-77131009D01*
X139138095Y-77131009D02*
X139185714Y-77226247D01*
X139185714Y-77226247D02*
X139185714Y-77464342D01*
X139185714Y-77464342D02*
X139138095Y-77559580D01*
X139138095Y-77559580D02*
X139090476Y-77607200D01*
X139090476Y-77607200D02*
X138995238Y-77654819D01*
X138995238Y-77654819D02*
X138709524Y-77654819D01*
X138709524Y-77654819D02*
X138614286Y-77607200D01*
X138614286Y-77607200D02*
X138566667Y-77559580D01*
X126107142Y-78009580D02*
X126059523Y-78057200D01*
X126059523Y-78057200D02*
X125916666Y-78104819D01*
X125916666Y-78104819D02*
X125821428Y-78104819D01*
X125821428Y-78104819D02*
X125678571Y-78057200D01*
X125678571Y-78057200D02*
X125583333Y-77961961D01*
X125583333Y-77961961D02*
X125535714Y-77866723D01*
X125535714Y-77866723D02*
X125488095Y-77676247D01*
X125488095Y-77676247D02*
X125488095Y-77533390D01*
X125488095Y-77533390D02*
X125535714Y-77342914D01*
X125535714Y-77342914D02*
X125583333Y-77247676D01*
X125583333Y-77247676D02*
X125678571Y-77152438D01*
X125678571Y-77152438D02*
X125821428Y-77104819D01*
X125821428Y-77104819D02*
X125916666Y-77104819D01*
X125916666Y-77104819D02*
X126059523Y-77152438D01*
X126059523Y-77152438D02*
X126107142Y-77200057D01*
X127059523Y-78104819D02*
X126488095Y-78104819D01*
X126773809Y-78104819D02*
X126773809Y-77104819D01*
X126773809Y-77104819D02*
X126678571Y-77247676D01*
X126678571Y-77247676D02*
X126583333Y-77342914D01*
X126583333Y-77342914D02*
X126488095Y-77390533D01*
X127916666Y-77438152D02*
X127916666Y-78104819D01*
X127678571Y-77057200D02*
X127440476Y-77771485D01*
X127440476Y-77771485D02*
X128059523Y-77771485D01*
X145657200Y-80583332D02*
X145704819Y-80440475D01*
X145704819Y-80440475D02*
X145704819Y-80202380D01*
X145704819Y-80202380D02*
X145657200Y-80107142D01*
X145657200Y-80107142D02*
X145609580Y-80059523D01*
X145609580Y-80059523D02*
X145514342Y-80011904D01*
X145514342Y-80011904D02*
X145419104Y-80011904D01*
X145419104Y-80011904D02*
X145323866Y-80059523D01*
X145323866Y-80059523D02*
X145276247Y-80107142D01*
X145276247Y-80107142D02*
X145228628Y-80202380D01*
X145228628Y-80202380D02*
X145181009Y-80392856D01*
X145181009Y-80392856D02*
X145133390Y-80488094D01*
X145133390Y-80488094D02*
X145085771Y-80535713D01*
X145085771Y-80535713D02*
X144990533Y-80583332D01*
X144990533Y-80583332D02*
X144895295Y-80583332D01*
X144895295Y-80583332D02*
X144800057Y-80535713D01*
X144800057Y-80535713D02*
X144752438Y-80488094D01*
X144752438Y-80488094D02*
X144704819Y-80392856D01*
X144704819Y-80392856D02*
X144704819Y-80154761D01*
X144704819Y-80154761D02*
X144752438Y-80011904D01*
X144704819Y-79678570D02*
X145704819Y-79440475D01*
X145704819Y-79440475D02*
X144990533Y-79249999D01*
X144990533Y-79249999D02*
X145704819Y-79059523D01*
X145704819Y-79059523D02*
X144704819Y-78821428D01*
X145704819Y-77916666D02*
X145704819Y-78488094D01*
X145704819Y-78202380D02*
X144704819Y-78202380D01*
X144704819Y-78202380D02*
X144847676Y-78297618D01*
X144847676Y-78297618D02*
X144942914Y-78392856D01*
X144942914Y-78392856D02*
X144990533Y-78488094D01*
X147633333Y-77959580D02*
X147585714Y-78007200D01*
X147585714Y-78007200D02*
X147442857Y-78054819D01*
X147442857Y-78054819D02*
X147347619Y-78054819D01*
X147347619Y-78054819D02*
X147204762Y-78007200D01*
X147204762Y-78007200D02*
X147109524Y-77911961D01*
X147109524Y-77911961D02*
X147061905Y-77816723D01*
X147061905Y-77816723D02*
X147014286Y-77626247D01*
X147014286Y-77626247D02*
X147014286Y-77483390D01*
X147014286Y-77483390D02*
X147061905Y-77292914D01*
X147061905Y-77292914D02*
X147109524Y-77197676D01*
X147109524Y-77197676D02*
X147204762Y-77102438D01*
X147204762Y-77102438D02*
X147347619Y-77054819D01*
X147347619Y-77054819D02*
X147442857Y-77054819D01*
X147442857Y-77054819D02*
X147585714Y-77102438D01*
X147585714Y-77102438D02*
X147633333Y-77150057D01*
X148014286Y-77150057D02*
X148061905Y-77102438D01*
X148061905Y-77102438D02*
X148157143Y-77054819D01*
X148157143Y-77054819D02*
X148395238Y-77054819D01*
X148395238Y-77054819D02*
X148490476Y-77102438D01*
X148490476Y-77102438D02*
X148538095Y-77150057D01*
X148538095Y-77150057D02*
X148585714Y-77245295D01*
X148585714Y-77245295D02*
X148585714Y-77340533D01*
X148585714Y-77340533D02*
X148538095Y-77483390D01*
X148538095Y-77483390D02*
X147966667Y-78054819D01*
X147966667Y-78054819D02*
X148585714Y-78054819D01*
X148154761Y-50550057D02*
X148059523Y-50502438D01*
X148059523Y-50502438D02*
X147964285Y-50407200D01*
X147964285Y-50407200D02*
X147821428Y-50264342D01*
X147821428Y-50264342D02*
X147726190Y-50216723D01*
X147726190Y-50216723D02*
X147630952Y-50216723D01*
X147678571Y-50454819D02*
X147583333Y-50407200D01*
X147583333Y-50407200D02*
X147488095Y-50311961D01*
X147488095Y-50311961D02*
X147440476Y-50121485D01*
X147440476Y-50121485D02*
X147440476Y-49788152D01*
X147440476Y-49788152D02*
X147488095Y-49597676D01*
X147488095Y-49597676D02*
X147583333Y-49502438D01*
X147583333Y-49502438D02*
X147678571Y-49454819D01*
X147678571Y-49454819D02*
X147869047Y-49454819D01*
X147869047Y-49454819D02*
X147964285Y-49502438D01*
X147964285Y-49502438D02*
X148059523Y-49597676D01*
X148059523Y-49597676D02*
X148107142Y-49788152D01*
X148107142Y-49788152D02*
X148107142Y-50121485D01*
X148107142Y-50121485D02*
X148059523Y-50311961D01*
X148059523Y-50311961D02*
X147964285Y-50407200D01*
X147964285Y-50407200D02*
X147869047Y-50454819D01*
X147869047Y-50454819D02*
X147678571Y-50454819D01*
X148488095Y-49550057D02*
X148535714Y-49502438D01*
X148535714Y-49502438D02*
X148630952Y-49454819D01*
X148630952Y-49454819D02*
X148869047Y-49454819D01*
X148869047Y-49454819D02*
X148964285Y-49502438D01*
X148964285Y-49502438D02*
X149011904Y-49550057D01*
X149011904Y-49550057D02*
X149059523Y-49645295D01*
X149059523Y-49645295D02*
X149059523Y-49740533D01*
X149059523Y-49740533D02*
X149011904Y-49883390D01*
X149011904Y-49883390D02*
X148440476Y-50454819D01*
X148440476Y-50454819D02*
X149059523Y-50454819D01*
X152607142Y-20109580D02*
X152559523Y-20157200D01*
X152559523Y-20157200D02*
X152416666Y-20204819D01*
X152416666Y-20204819D02*
X152321428Y-20204819D01*
X152321428Y-20204819D02*
X152178571Y-20157200D01*
X152178571Y-20157200D02*
X152083333Y-20061961D01*
X152083333Y-20061961D02*
X152035714Y-19966723D01*
X152035714Y-19966723D02*
X151988095Y-19776247D01*
X151988095Y-19776247D02*
X151988095Y-19633390D01*
X151988095Y-19633390D02*
X152035714Y-19442914D01*
X152035714Y-19442914D02*
X152083333Y-19347676D01*
X152083333Y-19347676D02*
X152178571Y-19252438D01*
X152178571Y-19252438D02*
X152321428Y-19204819D01*
X152321428Y-19204819D02*
X152416666Y-19204819D01*
X152416666Y-19204819D02*
X152559523Y-19252438D01*
X152559523Y-19252438D02*
X152607142Y-19300057D01*
X153559523Y-20204819D02*
X152988095Y-20204819D01*
X153273809Y-20204819D02*
X153273809Y-19204819D01*
X153273809Y-19204819D02*
X153178571Y-19347676D01*
X153178571Y-19347676D02*
X153083333Y-19442914D01*
X153083333Y-19442914D02*
X152988095Y-19490533D01*
X154416666Y-19204819D02*
X154226190Y-19204819D01*
X154226190Y-19204819D02*
X154130952Y-19252438D01*
X154130952Y-19252438D02*
X154083333Y-19300057D01*
X154083333Y-19300057D02*
X153988095Y-19442914D01*
X153988095Y-19442914D02*
X153940476Y-19633390D01*
X153940476Y-19633390D02*
X153940476Y-20014342D01*
X153940476Y-20014342D02*
X153988095Y-20109580D01*
X153988095Y-20109580D02*
X154035714Y-20157200D01*
X154035714Y-20157200D02*
X154130952Y-20204819D01*
X154130952Y-20204819D02*
X154321428Y-20204819D01*
X154321428Y-20204819D02*
X154416666Y-20157200D01*
X154416666Y-20157200D02*
X154464285Y-20109580D01*
X154464285Y-20109580D02*
X154511904Y-20014342D01*
X154511904Y-20014342D02*
X154511904Y-19776247D01*
X154511904Y-19776247D02*
X154464285Y-19681009D01*
X154464285Y-19681009D02*
X154416666Y-19633390D01*
X154416666Y-19633390D02*
X154321428Y-19585771D01*
X154321428Y-19585771D02*
X154130952Y-19585771D01*
X154130952Y-19585771D02*
X154035714Y-19633390D01*
X154035714Y-19633390D02*
X153988095Y-19681009D01*
X153988095Y-19681009D02*
X153940476Y-19776247D01*
X122761905Y-79254819D02*
X123333333Y-79254819D01*
X123047619Y-80254819D02*
X123047619Y-79254819D01*
X123666667Y-80254819D02*
X123666667Y-79254819D01*
X123666667Y-79254819D02*
X124047619Y-79254819D01*
X124047619Y-79254819D02*
X124142857Y-79302438D01*
X124142857Y-79302438D02*
X124190476Y-79350057D01*
X124190476Y-79350057D02*
X124238095Y-79445295D01*
X124238095Y-79445295D02*
X124238095Y-79588152D01*
X124238095Y-79588152D02*
X124190476Y-79683390D01*
X124190476Y-79683390D02*
X124142857Y-79731009D01*
X124142857Y-79731009D02*
X124047619Y-79778628D01*
X124047619Y-79778628D02*
X123666667Y-79778628D01*
X125190476Y-80254819D02*
X124619048Y-80254819D01*
X124904762Y-80254819D02*
X124904762Y-79254819D01*
X124904762Y-79254819D02*
X124809524Y-79397676D01*
X124809524Y-79397676D02*
X124714286Y-79492914D01*
X124714286Y-79492914D02*
X124619048Y-79540533D01*
X125809524Y-79254819D02*
X125904762Y-79254819D01*
X125904762Y-79254819D02*
X126000000Y-79302438D01*
X126000000Y-79302438D02*
X126047619Y-79350057D01*
X126047619Y-79350057D02*
X126095238Y-79445295D01*
X126095238Y-79445295D02*
X126142857Y-79635771D01*
X126142857Y-79635771D02*
X126142857Y-79873866D01*
X126142857Y-79873866D02*
X126095238Y-80064342D01*
X126095238Y-80064342D02*
X126047619Y-80159580D01*
X126047619Y-80159580D02*
X126000000Y-80207200D01*
X126000000Y-80207200D02*
X125904762Y-80254819D01*
X125904762Y-80254819D02*
X125809524Y-80254819D01*
X125809524Y-80254819D02*
X125714286Y-80207200D01*
X125714286Y-80207200D02*
X125666667Y-80159580D01*
X125666667Y-80159580D02*
X125619048Y-80064342D01*
X125619048Y-80064342D02*
X125571429Y-79873866D01*
X125571429Y-79873866D02*
X125571429Y-79635771D01*
X125571429Y-79635771D02*
X125619048Y-79445295D01*
X125619048Y-79445295D02*
X125666667Y-79350057D01*
X125666667Y-79350057D02*
X125714286Y-79302438D01*
X125714286Y-79302438D02*
X125809524Y-79254819D01*
X143309523Y-76704819D02*
X142976190Y-76228628D01*
X142738095Y-76704819D02*
X142738095Y-75704819D01*
X142738095Y-75704819D02*
X143119047Y-75704819D01*
X143119047Y-75704819D02*
X143214285Y-75752438D01*
X143214285Y-75752438D02*
X143261904Y-75800057D01*
X143261904Y-75800057D02*
X143309523Y-75895295D01*
X143309523Y-75895295D02*
X143309523Y-76038152D01*
X143309523Y-76038152D02*
X143261904Y-76133390D01*
X143261904Y-76133390D02*
X143214285Y-76181009D01*
X143214285Y-76181009D02*
X143119047Y-76228628D01*
X143119047Y-76228628D02*
X142738095Y-76228628D01*
X143738095Y-76704819D02*
X143738095Y-75704819D01*
X143738095Y-75704819D02*
X144309523Y-76704819D01*
X144309523Y-76704819D02*
X144309523Y-75704819D01*
X144738095Y-75800057D02*
X144785714Y-75752438D01*
X144785714Y-75752438D02*
X144880952Y-75704819D01*
X144880952Y-75704819D02*
X145119047Y-75704819D01*
X145119047Y-75704819D02*
X145214285Y-75752438D01*
X145214285Y-75752438D02*
X145261904Y-75800057D01*
X145261904Y-75800057D02*
X145309523Y-75895295D01*
X145309523Y-75895295D02*
X145309523Y-75990533D01*
X145309523Y-75990533D02*
X145261904Y-76133390D01*
X145261904Y-76133390D02*
X144690476Y-76704819D01*
X144690476Y-76704819D02*
X145309523Y-76704819D01*
X135138095Y-77654819D02*
X135709523Y-77654819D01*
X135423809Y-78654819D02*
X135423809Y-77654819D01*
X136042857Y-78654819D02*
X136042857Y-77654819D01*
X136042857Y-77654819D02*
X136423809Y-77654819D01*
X136423809Y-77654819D02*
X136519047Y-77702438D01*
X136519047Y-77702438D02*
X136566666Y-77750057D01*
X136566666Y-77750057D02*
X136614285Y-77845295D01*
X136614285Y-77845295D02*
X136614285Y-77988152D01*
X136614285Y-77988152D02*
X136566666Y-78083390D01*
X136566666Y-78083390D02*
X136519047Y-78131009D01*
X136519047Y-78131009D02*
X136423809Y-78178628D01*
X136423809Y-78178628D02*
X136042857Y-78178628D01*
X137566666Y-78654819D02*
X136995238Y-78654819D01*
X137280952Y-78654819D02*
X137280952Y-77654819D01*
X137280952Y-77654819D02*
X137185714Y-77797676D01*
X137185714Y-77797676D02*
X137090476Y-77892914D01*
X137090476Y-77892914D02*
X136995238Y-77940533D01*
X138011905Y-68204819D02*
X138011905Y-67204819D01*
X138011905Y-67204819D02*
X138250000Y-67204819D01*
X138250000Y-67204819D02*
X138392857Y-67252438D01*
X138392857Y-67252438D02*
X138488095Y-67347676D01*
X138488095Y-67347676D02*
X138535714Y-67442914D01*
X138535714Y-67442914D02*
X138583333Y-67633390D01*
X138583333Y-67633390D02*
X138583333Y-67776247D01*
X138583333Y-67776247D02*
X138535714Y-67966723D01*
X138535714Y-67966723D02*
X138488095Y-68061961D01*
X138488095Y-68061961D02*
X138392857Y-68157200D01*
X138392857Y-68157200D02*
X138250000Y-68204819D01*
X138250000Y-68204819D02*
X138011905Y-68204819D01*
X139535714Y-68204819D02*
X138964286Y-68204819D01*
X139250000Y-68204819D02*
X139250000Y-67204819D01*
X139250000Y-67204819D02*
X139154762Y-67347676D01*
X139154762Y-67347676D02*
X139059524Y-67442914D01*
X139059524Y-67442914D02*
X138964286Y-67490533D01*
X132666666Y-64204819D02*
X132666666Y-64919104D01*
X132666666Y-64919104D02*
X132619047Y-65061961D01*
X132619047Y-65061961D02*
X132523809Y-65157200D01*
X132523809Y-65157200D02*
X132380952Y-65204819D01*
X132380952Y-65204819D02*
X132285714Y-65204819D01*
X133142857Y-65204819D02*
X133142857Y-64204819D01*
X133142857Y-64204819D02*
X133523809Y-64204819D01*
X133523809Y-64204819D02*
X133619047Y-64252438D01*
X133619047Y-64252438D02*
X133666666Y-64300057D01*
X133666666Y-64300057D02*
X133714285Y-64395295D01*
X133714285Y-64395295D02*
X133714285Y-64538152D01*
X133714285Y-64538152D02*
X133666666Y-64633390D01*
X133666666Y-64633390D02*
X133619047Y-64681009D01*
X133619047Y-64681009D02*
X133523809Y-64728628D01*
X133523809Y-64728628D02*
X133142857Y-64728628D01*
X134619047Y-64204819D02*
X134142857Y-64204819D01*
X134142857Y-64204819D02*
X134095238Y-64681009D01*
X134095238Y-64681009D02*
X134142857Y-64633390D01*
X134142857Y-64633390D02*
X134238095Y-64585771D01*
X134238095Y-64585771D02*
X134476190Y-64585771D01*
X134476190Y-64585771D02*
X134571428Y-64633390D01*
X134571428Y-64633390D02*
X134619047Y-64681009D01*
X134619047Y-64681009D02*
X134666666Y-64776247D01*
X134666666Y-64776247D02*
X134666666Y-65014342D01*
X134666666Y-65014342D02*
X134619047Y-65109580D01*
X134619047Y-65109580D02*
X134571428Y-65157200D01*
X134571428Y-65157200D02*
X134476190Y-65204819D01*
X134476190Y-65204819D02*
X134238095Y-65204819D01*
X134238095Y-65204819D02*
X134142857Y-65157200D01*
X134142857Y-65157200D02*
X134095238Y-65109580D01*
X122261905Y-20684819D02*
X122261905Y-19684819D01*
X122261905Y-19684819D02*
X122500000Y-19684819D01*
X122500000Y-19684819D02*
X122642857Y-19732438D01*
X122642857Y-19732438D02*
X122738095Y-19827676D01*
X122738095Y-19827676D02*
X122785714Y-19922914D01*
X122785714Y-19922914D02*
X122833333Y-20113390D01*
X122833333Y-20113390D02*
X122833333Y-20256247D01*
X122833333Y-20256247D02*
X122785714Y-20446723D01*
X122785714Y-20446723D02*
X122738095Y-20541961D01*
X122738095Y-20541961D02*
X122642857Y-20637200D01*
X122642857Y-20637200D02*
X122500000Y-20684819D01*
X122500000Y-20684819D02*
X122261905Y-20684819D01*
X123261905Y-20684819D02*
X123261905Y-19684819D01*
X123261905Y-19684819D02*
X123642857Y-19684819D01*
X123642857Y-19684819D02*
X123738095Y-19732438D01*
X123738095Y-19732438D02*
X123785714Y-19780057D01*
X123785714Y-19780057D02*
X123833333Y-19875295D01*
X123833333Y-19875295D02*
X123833333Y-20018152D01*
X123833333Y-20018152D02*
X123785714Y-20113390D01*
X123785714Y-20113390D02*
X123738095Y-20161009D01*
X123738095Y-20161009D02*
X123642857Y-20208628D01*
X123642857Y-20208628D02*
X123261905Y-20208628D01*
X124785714Y-20684819D02*
X124214286Y-20684819D01*
X124500000Y-20684819D02*
X124500000Y-19684819D01*
X124500000Y-19684819D02*
X124404762Y-19827676D01*
X124404762Y-19827676D02*
X124309524Y-19922914D01*
X124309524Y-19922914D02*
X124214286Y-19970533D01*
X136466666Y-79354819D02*
X136466666Y-80069104D01*
X136466666Y-80069104D02*
X136419047Y-80211961D01*
X136419047Y-80211961D02*
X136323809Y-80307200D01*
X136323809Y-80307200D02*
X136180952Y-80354819D01*
X136180952Y-80354819D02*
X136085714Y-80354819D01*
X136847619Y-79354819D02*
X137466666Y-79354819D01*
X137466666Y-79354819D02*
X137133333Y-79735771D01*
X137133333Y-79735771D02*
X137276190Y-79735771D01*
X137276190Y-79735771D02*
X137371428Y-79783390D01*
X137371428Y-79783390D02*
X137419047Y-79831009D01*
X137419047Y-79831009D02*
X137466666Y-79926247D01*
X137466666Y-79926247D02*
X137466666Y-80164342D01*
X137466666Y-80164342D02*
X137419047Y-80259580D01*
X137419047Y-80259580D02*
X137371428Y-80307200D01*
X137371428Y-80307200D02*
X137276190Y-80354819D01*
X137276190Y-80354819D02*
X136990476Y-80354819D01*
X136990476Y-80354819D02*
X136895238Y-80307200D01*
X136895238Y-80307200D02*
X136847619Y-80259580D01*
X137938095Y-73406819D02*
X138509523Y-73406819D01*
X138223809Y-74406819D02*
X138223809Y-73406819D01*
X138842857Y-74406819D02*
X138842857Y-73406819D01*
X138842857Y-73406819D02*
X139223809Y-73406819D01*
X139223809Y-73406819D02*
X139319047Y-73454438D01*
X139319047Y-73454438D02*
X139366666Y-73502057D01*
X139366666Y-73502057D02*
X139414285Y-73597295D01*
X139414285Y-73597295D02*
X139414285Y-73740152D01*
X139414285Y-73740152D02*
X139366666Y-73835390D01*
X139366666Y-73835390D02*
X139319047Y-73883009D01*
X139319047Y-73883009D02*
X139223809Y-73930628D01*
X139223809Y-73930628D02*
X138842857Y-73930628D01*
X139795238Y-73502057D02*
X139842857Y-73454438D01*
X139842857Y-73454438D02*
X139938095Y-73406819D01*
X139938095Y-73406819D02*
X140176190Y-73406819D01*
X140176190Y-73406819D02*
X140271428Y-73454438D01*
X140271428Y-73454438D02*
X140319047Y-73502057D01*
X140319047Y-73502057D02*
X140366666Y-73597295D01*
X140366666Y-73597295D02*
X140366666Y-73692533D01*
X140366666Y-73692533D02*
X140319047Y-73835390D01*
X140319047Y-73835390D02*
X139747619Y-74406819D01*
X139747619Y-74406819D02*
X140366666Y-74406819D01*
X156938095Y-37854819D02*
X157509523Y-37854819D01*
X157223809Y-38854819D02*
X157223809Y-37854819D01*
X157842857Y-38854819D02*
X157842857Y-37854819D01*
X157842857Y-37854819D02*
X158223809Y-37854819D01*
X158223809Y-37854819D02*
X158319047Y-37902438D01*
X158319047Y-37902438D02*
X158366666Y-37950057D01*
X158366666Y-37950057D02*
X158414285Y-38045295D01*
X158414285Y-38045295D02*
X158414285Y-38188152D01*
X158414285Y-38188152D02*
X158366666Y-38283390D01*
X158366666Y-38283390D02*
X158319047Y-38331009D01*
X158319047Y-38331009D02*
X158223809Y-38378628D01*
X158223809Y-38378628D02*
X157842857Y-38378628D01*
X159271428Y-38188152D02*
X159271428Y-38854819D01*
X159033333Y-37807200D02*
X158795238Y-38521485D01*
X158795238Y-38521485D02*
X159414285Y-38521485D01*
X160166666Y-36684819D02*
X160166666Y-37399104D01*
X160166666Y-37399104D02*
X160119047Y-37541961D01*
X160119047Y-37541961D02*
X160023809Y-37637200D01*
X160023809Y-37637200D02*
X159880952Y-37684819D01*
X159880952Y-37684819D02*
X159785714Y-37684819D01*
X161166666Y-37684819D02*
X160595238Y-37684819D01*
X160880952Y-37684819D02*
X160880952Y-36684819D01*
X160880952Y-36684819D02*
X160785714Y-36827676D01*
X160785714Y-36827676D02*
X160690476Y-36922914D01*
X160690476Y-36922914D02*
X160595238Y-36970533D01*
X123166666Y-43684819D02*
X123166666Y-44399104D01*
X123166666Y-44399104D02*
X123119047Y-44541961D01*
X123119047Y-44541961D02*
X123023809Y-44637200D01*
X123023809Y-44637200D02*
X122880952Y-44684819D01*
X122880952Y-44684819D02*
X122785714Y-44684819D01*
X124119047Y-43684819D02*
X123642857Y-43684819D01*
X123642857Y-43684819D02*
X123595238Y-44161009D01*
X123595238Y-44161009D02*
X123642857Y-44113390D01*
X123642857Y-44113390D02*
X123738095Y-44065771D01*
X123738095Y-44065771D02*
X123976190Y-44065771D01*
X123976190Y-44065771D02*
X124071428Y-44113390D01*
X124071428Y-44113390D02*
X124119047Y-44161009D01*
X124119047Y-44161009D02*
X124166666Y-44256247D01*
X124166666Y-44256247D02*
X124166666Y-44494342D01*
X124166666Y-44494342D02*
X124119047Y-44589580D01*
X124119047Y-44589580D02*
X124071428Y-44637200D01*
X124071428Y-44637200D02*
X123976190Y-44684819D01*
X123976190Y-44684819D02*
X123738095Y-44684819D01*
X123738095Y-44684819D02*
X123642857Y-44637200D01*
X123642857Y-44637200D02*
X123595238Y-44589580D01*
X129333333Y-87109580D02*
X129285714Y-87157200D01*
X129285714Y-87157200D02*
X129142857Y-87204819D01*
X129142857Y-87204819D02*
X129047619Y-87204819D01*
X129047619Y-87204819D02*
X128904762Y-87157200D01*
X128904762Y-87157200D02*
X128809524Y-87061961D01*
X128809524Y-87061961D02*
X128761905Y-86966723D01*
X128761905Y-86966723D02*
X128714286Y-86776247D01*
X128714286Y-86776247D02*
X128714286Y-86633390D01*
X128714286Y-86633390D02*
X128761905Y-86442914D01*
X128761905Y-86442914D02*
X128809524Y-86347676D01*
X128809524Y-86347676D02*
X128904762Y-86252438D01*
X128904762Y-86252438D02*
X129047619Y-86204819D01*
X129047619Y-86204819D02*
X129142857Y-86204819D01*
X129142857Y-86204819D02*
X129285714Y-86252438D01*
X129285714Y-86252438D02*
X129333333Y-86300057D01*
X130190476Y-86538152D02*
X130190476Y-87204819D01*
X129952381Y-86157200D02*
X129714286Y-86871485D01*
X129714286Y-86871485D02*
X130333333Y-86871485D01*
X122857142Y-87204819D02*
X122523809Y-86728628D01*
X122285714Y-87204819D02*
X122285714Y-86204819D01*
X122285714Y-86204819D02*
X122666666Y-86204819D01*
X122666666Y-86204819D02*
X122761904Y-86252438D01*
X122761904Y-86252438D02*
X122809523Y-86300057D01*
X122809523Y-86300057D02*
X122857142Y-86395295D01*
X122857142Y-86395295D02*
X122857142Y-86538152D01*
X122857142Y-86538152D02*
X122809523Y-86633390D01*
X122809523Y-86633390D02*
X122761904Y-86681009D01*
X122761904Y-86681009D02*
X122666666Y-86728628D01*
X122666666Y-86728628D02*
X122285714Y-86728628D01*
X123809523Y-87204819D02*
X123238095Y-87204819D01*
X123523809Y-87204819D02*
X123523809Y-86204819D01*
X123523809Y-86204819D02*
X123428571Y-86347676D01*
X123428571Y-86347676D02*
X123333333Y-86442914D01*
X123333333Y-86442914D02*
X123238095Y-86490533D01*
X124761904Y-87204819D02*
X124190476Y-87204819D01*
X124476190Y-87204819D02*
X124476190Y-86204819D01*
X124476190Y-86204819D02*
X124380952Y-86347676D01*
X124380952Y-86347676D02*
X124285714Y-86442914D01*
X124285714Y-86442914D02*
X124190476Y-86490533D01*
X155454819Y-51366666D02*
X154978628Y-51699999D01*
X155454819Y-51938094D02*
X154454819Y-51938094D01*
X154454819Y-51938094D02*
X154454819Y-51557142D01*
X154454819Y-51557142D02*
X154502438Y-51461904D01*
X154502438Y-51461904D02*
X154550057Y-51414285D01*
X154550057Y-51414285D02*
X154645295Y-51366666D01*
X154645295Y-51366666D02*
X154788152Y-51366666D01*
X154788152Y-51366666D02*
X154883390Y-51414285D01*
X154883390Y-51414285D02*
X154931009Y-51461904D01*
X154931009Y-51461904D02*
X154978628Y-51557142D01*
X154978628Y-51557142D02*
X154978628Y-51938094D01*
X155454819Y-50414285D02*
X155454819Y-50985713D01*
X155454819Y-50699999D02*
X154454819Y-50699999D01*
X154454819Y-50699999D02*
X154597676Y-50795237D01*
X154597676Y-50795237D02*
X154692914Y-50890475D01*
X154692914Y-50890475D02*
X154740533Y-50985713D01*
X154738095Y-32954819D02*
X155309523Y-32954819D01*
X155023809Y-33954819D02*
X155023809Y-32954819D01*
X155642857Y-33954819D02*
X155642857Y-32954819D01*
X155642857Y-32954819D02*
X156023809Y-32954819D01*
X156023809Y-32954819D02*
X156119047Y-33002438D01*
X156119047Y-33002438D02*
X156166666Y-33050057D01*
X156166666Y-33050057D02*
X156214285Y-33145295D01*
X156214285Y-33145295D02*
X156214285Y-33288152D01*
X156214285Y-33288152D02*
X156166666Y-33383390D01*
X156166666Y-33383390D02*
X156119047Y-33431009D01*
X156119047Y-33431009D02*
X156023809Y-33478628D01*
X156023809Y-33478628D02*
X155642857Y-33478628D01*
X157071428Y-32954819D02*
X156880952Y-32954819D01*
X156880952Y-32954819D02*
X156785714Y-33002438D01*
X156785714Y-33002438D02*
X156738095Y-33050057D01*
X156738095Y-33050057D02*
X156642857Y-33192914D01*
X156642857Y-33192914D02*
X156595238Y-33383390D01*
X156595238Y-33383390D02*
X156595238Y-33764342D01*
X156595238Y-33764342D02*
X156642857Y-33859580D01*
X156642857Y-33859580D02*
X156690476Y-33907200D01*
X156690476Y-33907200D02*
X156785714Y-33954819D01*
X156785714Y-33954819D02*
X156976190Y-33954819D01*
X156976190Y-33954819D02*
X157071428Y-33907200D01*
X157071428Y-33907200D02*
X157119047Y-33859580D01*
X157119047Y-33859580D02*
X157166666Y-33764342D01*
X157166666Y-33764342D02*
X157166666Y-33526247D01*
X157166666Y-33526247D02*
X157119047Y-33431009D01*
X157119047Y-33431009D02*
X157071428Y-33383390D01*
X157071428Y-33383390D02*
X156976190Y-33335771D01*
X156976190Y-33335771D02*
X156785714Y-33335771D01*
X156785714Y-33335771D02*
X156690476Y-33383390D01*
X156690476Y-33383390D02*
X156642857Y-33431009D01*
X156642857Y-33431009D02*
X156595238Y-33526247D01*
X123609580Y-69142857D02*
X123657200Y-69190476D01*
X123657200Y-69190476D02*
X123704819Y-69333333D01*
X123704819Y-69333333D02*
X123704819Y-69428571D01*
X123704819Y-69428571D02*
X123657200Y-69571428D01*
X123657200Y-69571428D02*
X123561961Y-69666666D01*
X123561961Y-69666666D02*
X123466723Y-69714285D01*
X123466723Y-69714285D02*
X123276247Y-69761904D01*
X123276247Y-69761904D02*
X123133390Y-69761904D01*
X123133390Y-69761904D02*
X122942914Y-69714285D01*
X122942914Y-69714285D02*
X122847676Y-69666666D01*
X122847676Y-69666666D02*
X122752438Y-69571428D01*
X122752438Y-69571428D02*
X122704819Y-69428571D01*
X122704819Y-69428571D02*
X122704819Y-69333333D01*
X122704819Y-69333333D02*
X122752438Y-69190476D01*
X122752438Y-69190476D02*
X122800057Y-69142857D01*
X123704819Y-68190476D02*
X123704819Y-68761904D01*
X123704819Y-68476190D02*
X122704819Y-68476190D01*
X122704819Y-68476190D02*
X122847676Y-68571428D01*
X122847676Y-68571428D02*
X122942914Y-68666666D01*
X122942914Y-68666666D02*
X122990533Y-68761904D01*
X123133390Y-67619047D02*
X123085771Y-67714285D01*
X123085771Y-67714285D02*
X123038152Y-67761904D01*
X123038152Y-67761904D02*
X122942914Y-67809523D01*
X122942914Y-67809523D02*
X122895295Y-67809523D01*
X122895295Y-67809523D02*
X122800057Y-67761904D01*
X122800057Y-67761904D02*
X122752438Y-67714285D01*
X122752438Y-67714285D02*
X122704819Y-67619047D01*
X122704819Y-67619047D02*
X122704819Y-67428571D01*
X122704819Y-67428571D02*
X122752438Y-67333333D01*
X122752438Y-67333333D02*
X122800057Y-67285714D01*
X122800057Y-67285714D02*
X122895295Y-67238095D01*
X122895295Y-67238095D02*
X122942914Y-67238095D01*
X122942914Y-67238095D02*
X123038152Y-67285714D01*
X123038152Y-67285714D02*
X123085771Y-67333333D01*
X123085771Y-67333333D02*
X123133390Y-67428571D01*
X123133390Y-67428571D02*
X123133390Y-67619047D01*
X123133390Y-67619047D02*
X123181009Y-67714285D01*
X123181009Y-67714285D02*
X123228628Y-67761904D01*
X123228628Y-67761904D02*
X123323866Y-67809523D01*
X123323866Y-67809523D02*
X123514342Y-67809523D01*
X123514342Y-67809523D02*
X123609580Y-67761904D01*
X123609580Y-67761904D02*
X123657200Y-67714285D01*
X123657200Y-67714285D02*
X123704819Y-67619047D01*
X123704819Y-67619047D02*
X123704819Y-67428571D01*
X123704819Y-67428571D02*
X123657200Y-67333333D01*
X123657200Y-67333333D02*
X123609580Y-67285714D01*
X123609580Y-67285714D02*
X123514342Y-67238095D01*
X123514342Y-67238095D02*
X123323866Y-67238095D01*
X123323866Y-67238095D02*
X123228628Y-67285714D01*
X123228628Y-67285714D02*
X123181009Y-67333333D01*
X123181009Y-67333333D02*
X123133390Y-67428571D01*
X127904819Y-21066666D02*
X127428628Y-21399999D01*
X127904819Y-21638094D02*
X126904819Y-21638094D01*
X126904819Y-21638094D02*
X126904819Y-21257142D01*
X126904819Y-21257142D02*
X126952438Y-21161904D01*
X126952438Y-21161904D02*
X127000057Y-21114285D01*
X127000057Y-21114285D02*
X127095295Y-21066666D01*
X127095295Y-21066666D02*
X127238152Y-21066666D01*
X127238152Y-21066666D02*
X127333390Y-21114285D01*
X127333390Y-21114285D02*
X127381009Y-21161904D01*
X127381009Y-21161904D02*
X127428628Y-21257142D01*
X127428628Y-21257142D02*
X127428628Y-21638094D01*
X127000057Y-20685713D02*
X126952438Y-20638094D01*
X126952438Y-20638094D02*
X126904819Y-20542856D01*
X126904819Y-20542856D02*
X126904819Y-20304761D01*
X126904819Y-20304761D02*
X126952438Y-20209523D01*
X126952438Y-20209523D02*
X127000057Y-20161904D01*
X127000057Y-20161904D02*
X127095295Y-20114285D01*
X127095295Y-20114285D02*
X127190533Y-20114285D01*
X127190533Y-20114285D02*
X127333390Y-20161904D01*
X127333390Y-20161904D02*
X127904819Y-20733332D01*
X127904819Y-20733332D02*
X127904819Y-20114285D01*
X154657200Y-80083332D02*
X154704819Y-79940475D01*
X154704819Y-79940475D02*
X154704819Y-79702380D01*
X154704819Y-79702380D02*
X154657200Y-79607142D01*
X154657200Y-79607142D02*
X154609580Y-79559523D01*
X154609580Y-79559523D02*
X154514342Y-79511904D01*
X154514342Y-79511904D02*
X154419104Y-79511904D01*
X154419104Y-79511904D02*
X154323866Y-79559523D01*
X154323866Y-79559523D02*
X154276247Y-79607142D01*
X154276247Y-79607142D02*
X154228628Y-79702380D01*
X154228628Y-79702380D02*
X154181009Y-79892856D01*
X154181009Y-79892856D02*
X154133390Y-79988094D01*
X154133390Y-79988094D02*
X154085771Y-80035713D01*
X154085771Y-80035713D02*
X153990533Y-80083332D01*
X153990533Y-80083332D02*
X153895295Y-80083332D01*
X153895295Y-80083332D02*
X153800057Y-80035713D01*
X153800057Y-80035713D02*
X153752438Y-79988094D01*
X153752438Y-79988094D02*
X153704819Y-79892856D01*
X153704819Y-79892856D02*
X153704819Y-79654761D01*
X153704819Y-79654761D02*
X153752438Y-79511904D01*
X153704819Y-79178570D02*
X154704819Y-78940475D01*
X154704819Y-78940475D02*
X153990533Y-78749999D01*
X153990533Y-78749999D02*
X154704819Y-78559523D01*
X154704819Y-78559523D02*
X153704819Y-78321428D01*
X153800057Y-77988094D02*
X153752438Y-77940475D01*
X153752438Y-77940475D02*
X153704819Y-77845237D01*
X153704819Y-77845237D02*
X153704819Y-77607142D01*
X153704819Y-77607142D02*
X153752438Y-77511904D01*
X153752438Y-77511904D02*
X153800057Y-77464285D01*
X153800057Y-77464285D02*
X153895295Y-77416666D01*
X153895295Y-77416666D02*
X153990533Y-77416666D01*
X153990533Y-77416666D02*
X154133390Y-77464285D01*
X154133390Y-77464285D02*
X154704819Y-78035713D01*
X154704819Y-78035713D02*
X154704819Y-77416666D01*
X156938095Y-36454819D02*
X157509523Y-36454819D01*
X157223809Y-37454819D02*
X157223809Y-36454819D01*
X157842857Y-37454819D02*
X157842857Y-36454819D01*
X157842857Y-36454819D02*
X158223809Y-36454819D01*
X158223809Y-36454819D02*
X158319047Y-36502438D01*
X158319047Y-36502438D02*
X158366666Y-36550057D01*
X158366666Y-36550057D02*
X158414285Y-36645295D01*
X158414285Y-36645295D02*
X158414285Y-36788152D01*
X158414285Y-36788152D02*
X158366666Y-36883390D01*
X158366666Y-36883390D02*
X158319047Y-36931009D01*
X158319047Y-36931009D02*
X158223809Y-36978628D01*
X158223809Y-36978628D02*
X157842857Y-36978628D01*
X159319047Y-36454819D02*
X158842857Y-36454819D01*
X158842857Y-36454819D02*
X158795238Y-36931009D01*
X158795238Y-36931009D02*
X158842857Y-36883390D01*
X158842857Y-36883390D02*
X158938095Y-36835771D01*
X158938095Y-36835771D02*
X159176190Y-36835771D01*
X159176190Y-36835771D02*
X159271428Y-36883390D01*
X159271428Y-36883390D02*
X159319047Y-36931009D01*
X159319047Y-36931009D02*
X159366666Y-37026247D01*
X159366666Y-37026247D02*
X159366666Y-37264342D01*
X159366666Y-37264342D02*
X159319047Y-37359580D01*
X159319047Y-37359580D02*
X159271428Y-37407200D01*
X159271428Y-37407200D02*
X159176190Y-37454819D01*
X159176190Y-37454819D02*
X158938095Y-37454819D01*
X158938095Y-37454819D02*
X158842857Y-37407200D01*
X158842857Y-37407200D02*
X158795238Y-37359580D01*
X125285714Y-87204819D02*
X125285714Y-86204819D01*
X125285714Y-86204819D02*
X125523809Y-86204819D01*
X125523809Y-86204819D02*
X125666666Y-86252438D01*
X125666666Y-86252438D02*
X125761904Y-86347676D01*
X125761904Y-86347676D02*
X125809523Y-86442914D01*
X125809523Y-86442914D02*
X125857142Y-86633390D01*
X125857142Y-86633390D02*
X125857142Y-86776247D01*
X125857142Y-86776247D02*
X125809523Y-86966723D01*
X125809523Y-86966723D02*
X125761904Y-87061961D01*
X125761904Y-87061961D02*
X125666666Y-87157200D01*
X125666666Y-87157200D02*
X125523809Y-87204819D01*
X125523809Y-87204819D02*
X125285714Y-87204819D01*
X126809523Y-87204819D02*
X126238095Y-87204819D01*
X126523809Y-87204819D02*
X126523809Y-86204819D01*
X126523809Y-86204819D02*
X126428571Y-86347676D01*
X126428571Y-86347676D02*
X126333333Y-86442914D01*
X126333333Y-86442914D02*
X126238095Y-86490533D01*
X127714285Y-86204819D02*
X127238095Y-86204819D01*
X127238095Y-86204819D02*
X127190476Y-86681009D01*
X127190476Y-86681009D02*
X127238095Y-86633390D01*
X127238095Y-86633390D02*
X127333333Y-86585771D01*
X127333333Y-86585771D02*
X127571428Y-86585771D01*
X127571428Y-86585771D02*
X127666666Y-86633390D01*
X127666666Y-86633390D02*
X127714285Y-86681009D01*
X127714285Y-86681009D02*
X127761904Y-86776247D01*
X127761904Y-86776247D02*
X127761904Y-87014342D01*
X127761904Y-87014342D02*
X127714285Y-87109580D01*
X127714285Y-87109580D02*
X127666666Y-87157200D01*
X127666666Y-87157200D02*
X127571428Y-87204819D01*
X127571428Y-87204819D02*
X127333333Y-87204819D01*
X127333333Y-87204819D02*
X127238095Y-87157200D01*
X127238095Y-87157200D02*
X127190476Y-87109580D01*
X160916666Y-24204819D02*
X160916666Y-24919104D01*
X160916666Y-24919104D02*
X160869047Y-25061961D01*
X160869047Y-25061961D02*
X160773809Y-25157200D01*
X160773809Y-25157200D02*
X160630952Y-25204819D01*
X160630952Y-25204819D02*
X160535714Y-25204819D01*
X161345238Y-24300057D02*
X161392857Y-24252438D01*
X161392857Y-24252438D02*
X161488095Y-24204819D01*
X161488095Y-24204819D02*
X161726190Y-24204819D01*
X161726190Y-24204819D02*
X161821428Y-24252438D01*
X161821428Y-24252438D02*
X161869047Y-24300057D01*
X161869047Y-24300057D02*
X161916666Y-24395295D01*
X161916666Y-24395295D02*
X161916666Y-24490533D01*
X161916666Y-24490533D02*
X161869047Y-24633390D01*
X161869047Y-24633390D02*
X161297619Y-25204819D01*
X161297619Y-25204819D02*
X161916666Y-25204819D01*
X137011905Y-70229819D02*
X137011905Y-69229819D01*
X137011905Y-69229819D02*
X137250000Y-69229819D01*
X137250000Y-69229819D02*
X137392857Y-69277438D01*
X137392857Y-69277438D02*
X137488095Y-69372676D01*
X137488095Y-69372676D02*
X137535714Y-69467914D01*
X137535714Y-69467914D02*
X137583333Y-69658390D01*
X137583333Y-69658390D02*
X137583333Y-69801247D01*
X137583333Y-69801247D02*
X137535714Y-69991723D01*
X137535714Y-69991723D02*
X137488095Y-70086961D01*
X137488095Y-70086961D02*
X137392857Y-70182200D01*
X137392857Y-70182200D02*
X137250000Y-70229819D01*
X137250000Y-70229819D02*
X137011905Y-70229819D01*
X137964286Y-69325057D02*
X138011905Y-69277438D01*
X138011905Y-69277438D02*
X138107143Y-69229819D01*
X138107143Y-69229819D02*
X138345238Y-69229819D01*
X138345238Y-69229819D02*
X138440476Y-69277438D01*
X138440476Y-69277438D02*
X138488095Y-69325057D01*
X138488095Y-69325057D02*
X138535714Y-69420295D01*
X138535714Y-69420295D02*
X138535714Y-69515533D01*
X138535714Y-69515533D02*
X138488095Y-69658390D01*
X138488095Y-69658390D02*
X137916667Y-70229819D01*
X137916667Y-70229819D02*
X138535714Y-70229819D01*
X125738095Y-33454819D02*
X126309523Y-33454819D01*
X126023809Y-34454819D02*
X126023809Y-33454819D01*
X126642857Y-34454819D02*
X126642857Y-33454819D01*
X126642857Y-33454819D02*
X127023809Y-33454819D01*
X127023809Y-33454819D02*
X127119047Y-33502438D01*
X127119047Y-33502438D02*
X127166666Y-33550057D01*
X127166666Y-33550057D02*
X127214285Y-33645295D01*
X127214285Y-33645295D02*
X127214285Y-33788152D01*
X127214285Y-33788152D02*
X127166666Y-33883390D01*
X127166666Y-33883390D02*
X127119047Y-33931009D01*
X127119047Y-33931009D02*
X127023809Y-33978628D01*
X127023809Y-33978628D02*
X126642857Y-33978628D01*
X127547619Y-33454819D02*
X128214285Y-33454819D01*
X128214285Y-33454819D02*
X127785714Y-34454819D01*
X155738095Y-26154819D02*
X156309523Y-26154819D01*
X156023809Y-27154819D02*
X156023809Y-26154819D01*
X156642857Y-27154819D02*
X156642857Y-26154819D01*
X156642857Y-26154819D02*
X157023809Y-26154819D01*
X157023809Y-26154819D02*
X157119047Y-26202438D01*
X157119047Y-26202438D02*
X157166666Y-26250057D01*
X157166666Y-26250057D02*
X157214285Y-26345295D01*
X157214285Y-26345295D02*
X157214285Y-26488152D01*
X157214285Y-26488152D02*
X157166666Y-26583390D01*
X157166666Y-26583390D02*
X157119047Y-26631009D01*
X157119047Y-26631009D02*
X157023809Y-26678628D01*
X157023809Y-26678628D02*
X156642857Y-26678628D01*
X157547619Y-26154819D02*
X158166666Y-26154819D01*
X158166666Y-26154819D02*
X157833333Y-26535771D01*
X157833333Y-26535771D02*
X157976190Y-26535771D01*
X157976190Y-26535771D02*
X158071428Y-26583390D01*
X158071428Y-26583390D02*
X158119047Y-26631009D01*
X158119047Y-26631009D02*
X158166666Y-26726247D01*
X158166666Y-26726247D02*
X158166666Y-26964342D01*
X158166666Y-26964342D02*
X158119047Y-27059580D01*
X158119047Y-27059580D02*
X158071428Y-27107200D01*
X158071428Y-27107200D02*
X157976190Y-27154819D01*
X157976190Y-27154819D02*
X157690476Y-27154819D01*
X157690476Y-27154819D02*
X157595238Y-27107200D01*
X157595238Y-27107200D02*
X157547619Y-27059580D01*
X130109580Y-22416666D02*
X130157200Y-22464285D01*
X130157200Y-22464285D02*
X130204819Y-22607142D01*
X130204819Y-22607142D02*
X130204819Y-22702380D01*
X130204819Y-22702380D02*
X130157200Y-22845237D01*
X130157200Y-22845237D02*
X130061961Y-22940475D01*
X130061961Y-22940475D02*
X129966723Y-22988094D01*
X129966723Y-22988094D02*
X129776247Y-23035713D01*
X129776247Y-23035713D02*
X129633390Y-23035713D01*
X129633390Y-23035713D02*
X129442914Y-22988094D01*
X129442914Y-22988094D02*
X129347676Y-22940475D01*
X129347676Y-22940475D02*
X129252438Y-22845237D01*
X129252438Y-22845237D02*
X129204819Y-22702380D01*
X129204819Y-22702380D02*
X129204819Y-22607142D01*
X129204819Y-22607142D02*
X129252438Y-22464285D01*
X129252438Y-22464285D02*
X129300057Y-22416666D01*
X130204819Y-21464285D02*
X130204819Y-22035713D01*
X130204819Y-21749999D02*
X129204819Y-21749999D01*
X129204819Y-21749999D02*
X129347676Y-21845237D01*
X129347676Y-21845237D02*
X129442914Y-21940475D01*
X129442914Y-21940475D02*
X129490533Y-22035713D01*
X142059523Y-68954819D02*
X141726190Y-68478628D01*
X141488095Y-68954819D02*
X141488095Y-67954819D01*
X141488095Y-67954819D02*
X141869047Y-67954819D01*
X141869047Y-67954819D02*
X141964285Y-68002438D01*
X141964285Y-68002438D02*
X142011904Y-68050057D01*
X142011904Y-68050057D02*
X142059523Y-68145295D01*
X142059523Y-68145295D02*
X142059523Y-68288152D01*
X142059523Y-68288152D02*
X142011904Y-68383390D01*
X142011904Y-68383390D02*
X141964285Y-68431009D01*
X141964285Y-68431009D02*
X141869047Y-68478628D01*
X141869047Y-68478628D02*
X141488095Y-68478628D01*
X142488095Y-68954819D02*
X142488095Y-67954819D01*
X142488095Y-67954819D02*
X143059523Y-68954819D01*
X143059523Y-68954819D02*
X143059523Y-67954819D01*
X144059523Y-68954819D02*
X143488095Y-68954819D01*
X143773809Y-68954819D02*
X143773809Y-67954819D01*
X143773809Y-67954819D02*
X143678571Y-68097676D01*
X143678571Y-68097676D02*
X143583333Y-68192914D01*
X143583333Y-68192914D02*
X143488095Y-68240533D01*
D11*
%TO.C,U1*%
X132750000Y-15210000D02*
X132750000Y-21960000D01*
X132750000Y-15210000D02*
X150750000Y-15210000D01*
X132750000Y-39960000D02*
X132750000Y-40710000D01*
X132750000Y-40710000D02*
X133750000Y-40710000D01*
X150750000Y-15210000D02*
X150750000Y-21960000D01*
X150750000Y-21150000D02*
X132750000Y-21150000D01*
X150750000Y-39960000D02*
X150750000Y-40710000D01*
X150750000Y-40710000D02*
X149750000Y-40710000D01*
%TO.C,Q3*%
X151250000Y-44440000D02*
X149575000Y-44440000D01*
X151250000Y-44440000D02*
X151900000Y-44440000D01*
X151250000Y-47560000D02*
X150600000Y-47560000D01*
X151250000Y-47560000D02*
X151900000Y-47560000D01*
%TO.C,C15*%
X129353733Y-73490000D02*
X129646267Y-73490000D01*
X129353733Y-74510000D02*
X129646267Y-74510000D01*
%TO.C,C3*%
X158396267Y-78510000D02*
X158103733Y-78510000D01*
X158396267Y-77490000D02*
X158103733Y-77490000D01*
%TO.C,D5*%
X143800000Y-55750000D02*
X151100000Y-55750000D01*
X143800000Y-61250000D02*
X151100000Y-61250000D01*
X151100000Y-61250000D02*
X151100000Y-60100000D01*
%TO.C,R32*%
X125410000Y-74022936D02*
X125410000Y-75477064D01*
X123590000Y-74022936D02*
X123590000Y-75477064D01*
%TO.C,Q1*%
X155562500Y-40440000D02*
X153887500Y-40440000D01*
X155562500Y-40440000D02*
X156212500Y-40440000D01*
X155562500Y-43560000D02*
X154912500Y-43560000D01*
X155562500Y-43560000D02*
X156212500Y-43560000D01*
%TO.C,D4*%
X128790000Y-77750000D02*
X128790000Y-79750000D01*
X128790000Y-77750000D02*
X132650000Y-77750000D01*
X128790000Y-79750000D02*
X132650000Y-79750000D01*
%TO.C,U2*%
X129490000Y-72700000D02*
X127010000Y-72700000D01*
X129490000Y-71100000D02*
X129490000Y-72700000D01*
X128690000Y-70300000D02*
X129490000Y-71100000D01*
X127010000Y-72700000D02*
X127010000Y-70300000D01*
X127010000Y-70300000D02*
X128690000Y-70300000D01*
%TO.C,TP8*%
X128500000Y-35100000D02*
X129900000Y-35100000D01*
X128500000Y-36500000D02*
X128500000Y-35100000D01*
X129900000Y-35100000D02*
X129900000Y-36500000D01*
X129900000Y-36500000D02*
X128500000Y-36500000D01*
%TO.C,D3*%
X133850000Y-72990000D02*
X132150000Y-72990000D01*
X133850000Y-72990000D02*
X133850000Y-76250000D01*
X132150000Y-72990000D02*
X132150000Y-76250000D01*
D12*
%TO.C,J4*%
X146100000Y-76300000D02*
X146100000Y-75573800D01*
X158375000Y-76300000D02*
X146100000Y-76300000D01*
X161550000Y-76300000D02*
X160875000Y-76300000D01*
X161550000Y-76300000D02*
X161550000Y-63750000D01*
X146100000Y-73110000D02*
X146100000Y-69757200D01*
X146100000Y-67318800D02*
X146100000Y-62300000D01*
X159375000Y-62300000D02*
X146100000Y-62300000D01*
X157175000Y-66300000D02*
G75*
G02*
X156975000Y-66300000I-100000J0D01*
G01*
X156975000Y-66300000D02*
G75*
G02*
X157175000Y-66300000I100000J0D01*
G01*
D11*
%TO.C,R4*%
X134590000Y-75227064D02*
X134590000Y-73772936D01*
X136410000Y-75227064D02*
X136410000Y-73772936D01*
%TO.C,C17*%
X131510000Y-70716233D02*
X131510000Y-71008767D01*
X130490000Y-70716233D02*
X130490000Y-71008767D01*
%TO.C,R10*%
X154340000Y-23727064D02*
X154340000Y-22272936D01*
X156160000Y-23727064D02*
X156160000Y-22272936D01*
%TO.C,R9*%
X159977064Y-22410000D02*
X158522936Y-22410000D01*
X159977064Y-20590000D02*
X158522936Y-20590000D01*
%TO.C,JP1*%
X142600000Y-85500000D02*
X145400000Y-85500000D01*
X142600000Y-87500000D02*
X142600000Y-85500000D01*
X145400000Y-85500000D02*
X145400000Y-87500000D01*
X145400000Y-87500000D02*
X142600000Y-87500000D01*
%TO.C,TP9*%
X128500000Y-37100000D02*
X129900000Y-37100000D01*
X128500000Y-38500000D02*
X128500000Y-37100000D01*
X129900000Y-37100000D02*
X129900000Y-38500000D01*
X129900000Y-38500000D02*
X128500000Y-38500000D01*
%TO.C,R3*%
X141022936Y-77090000D02*
X142477064Y-77090000D01*
X141022936Y-78910000D02*
X142477064Y-78910000D01*
%TO.C,C14*%
X128226248Y-75090000D02*
X129648752Y-75090000D01*
X128226248Y-76910000D02*
X129648752Y-76910000D01*
%TO.C,SW1*%
X150250000Y-80000000D02*
X148750000Y-80000000D01*
X146250000Y-81250000D02*
X146250000Y-85750000D01*
X152750000Y-85750000D02*
X152750000Y-81250000D01*
X148750000Y-87000000D02*
X150250000Y-87000000D01*
%TO.C,C2*%
X150103733Y-77240000D02*
X150396267Y-77240000D01*
X150103733Y-78260000D02*
X150396267Y-78260000D01*
%TO.C,Q2*%
X151250000Y-48440000D02*
X149575000Y-48440000D01*
X151250000Y-48440000D02*
X151900000Y-48440000D01*
X151250000Y-51560000D02*
X150600000Y-51560000D01*
X151250000Y-51560000D02*
X151900000Y-51560000D01*
%TO.C,C16*%
X152490000Y-23396267D02*
X152490000Y-23103733D01*
X153510000Y-23396267D02*
X153510000Y-23103733D01*
%TO.C,TP10*%
X126400000Y-78400000D02*
X127800000Y-78400000D01*
X126400000Y-79800000D02*
X126400000Y-78400000D01*
X127800000Y-78400000D02*
X127800000Y-79800000D01*
X127800000Y-79800000D02*
X126400000Y-79800000D01*
%TO.C,RN2*%
X141700000Y-75420000D02*
X143800000Y-75420000D01*
X141700000Y-70080000D02*
X143800000Y-70080000D01*
%TO.C,TP1*%
X133550000Y-77300000D02*
X134950000Y-77300000D01*
X133550000Y-78700000D02*
X133550000Y-77300000D01*
X134950000Y-77300000D02*
X134950000Y-78700000D01*
X134950000Y-78700000D02*
X133550000Y-78700000D01*
%TO.C,D1*%
X133865000Y-66800000D02*
X133865000Y-68500000D01*
X133865000Y-66800000D02*
X137125000Y-66800000D01*
X133865000Y-68500000D02*
X137125000Y-68500000D01*
%TO.C,JP5*%
X130000000Y-67100000D02*
X130000000Y-64300000D01*
X132000000Y-67100000D02*
X130000000Y-67100000D01*
X130000000Y-64300000D02*
X132000000Y-64300000D01*
X132000000Y-64300000D02*
X132000000Y-67100000D01*
%TO.C,DP1*%
X122170000Y-24270000D02*
X122170000Y-42110000D01*
X122170000Y-24270000D02*
X124830000Y-24270000D01*
X122170000Y-42110000D02*
X124830000Y-42110000D01*
X123500000Y-21670000D02*
X124830000Y-21670000D01*
X124830000Y-21670000D02*
X124830000Y-23000000D01*
X124830000Y-24270000D02*
X124830000Y-42110000D01*
%TO.C,J3*%
X132130000Y-85300000D02*
X132130000Y-83600000D01*
X141470000Y-85300000D02*
X141470000Y-83600000D01*
%TO.C,TP2*%
X138500000Y-74700000D02*
X139900000Y-74700000D01*
X138500000Y-76100000D02*
X138500000Y-74700000D01*
X139900000Y-74700000D02*
X139900000Y-76100000D01*
X139900000Y-76100000D02*
X138500000Y-76100000D01*
%TO.C,TP4*%
X155300000Y-38300000D02*
X156700000Y-38300000D01*
X155300000Y-39700000D02*
X155300000Y-38300000D01*
X156700000Y-38300000D02*
X156700000Y-39700000D01*
X156700000Y-39700000D02*
X155300000Y-39700000D01*
%TO.C,J1*%
X159170000Y-41270000D02*
X159170000Y-59110000D01*
X159170000Y-41270000D02*
X161830000Y-41270000D01*
X159170000Y-59110000D02*
X161830000Y-59110000D01*
X160500000Y-38670000D02*
X161830000Y-38670000D01*
X161830000Y-38670000D02*
X161830000Y-40000000D01*
X161830000Y-41270000D02*
X161830000Y-59110000D01*
%TO.C,J5*%
X122170000Y-48270000D02*
X122170000Y-66110000D01*
X122170000Y-48270000D02*
X124830000Y-48270000D01*
X122170000Y-66110000D02*
X124830000Y-66110000D01*
X123500000Y-45670000D02*
X124830000Y-45670000D01*
X124830000Y-45670000D02*
X124830000Y-47000000D01*
X124830000Y-48270000D02*
X124830000Y-66110000D01*
%TO.C,C4*%
X130410000Y-82788748D02*
X130410000Y-84211252D01*
X128590000Y-82788748D02*
X128590000Y-84211252D01*
%TO.C,R11*%
X124410000Y-82772936D02*
X124410000Y-84227064D01*
X122590000Y-82772936D02*
X122590000Y-84227064D01*
%TO.C,R1*%
X155660000Y-47022936D02*
X155660000Y-48477064D01*
X153840000Y-47022936D02*
X153840000Y-48477064D01*
%TO.C,TP6*%
X155300000Y-34300000D02*
X156700000Y-34300000D01*
X155300000Y-35700000D02*
X155300000Y-34300000D01*
X156700000Y-34300000D02*
X156700000Y-35700000D01*
X156700000Y-35700000D02*
X155300000Y-35700000D01*
%TO.C,C18*%
X127461252Y-69410000D02*
X126038748Y-69410000D01*
X127461252Y-67590000D02*
X126038748Y-67590000D01*
%TO.C,R2*%
X128410000Y-23472936D02*
X128410000Y-24927064D01*
X126590000Y-23472936D02*
X126590000Y-24927064D01*
%TO.C,SW2*%
X157500000Y-87000000D02*
X159000000Y-87000000D01*
X161500000Y-85750000D02*
X161500000Y-81250000D01*
X155000000Y-81250000D02*
X155000000Y-85750000D01*
X159000000Y-80000000D02*
X157500000Y-80000000D01*
%TO.C,TP5*%
X155300000Y-36300000D02*
X156700000Y-36300000D01*
X155300000Y-37700000D02*
X155300000Y-36300000D01*
X156700000Y-36300000D02*
X156700000Y-37700000D01*
X156700000Y-37700000D02*
X155300000Y-37700000D01*
%TO.C,D15*%
X127210000Y-81890000D02*
X125290000Y-81890000D01*
X125290000Y-81890000D02*
X125290000Y-84750000D01*
X127210000Y-84750000D02*
X127210000Y-81890000D01*
%TO.C,J2*%
X159170000Y-28270000D02*
X159170000Y-35950000D01*
X159170000Y-28270000D02*
X161830000Y-28270000D01*
X159170000Y-35950000D02*
X161830000Y-35950000D01*
X160500000Y-25670000D02*
X161830000Y-25670000D01*
X161830000Y-25670000D02*
X161830000Y-27000000D01*
X161830000Y-28270000D02*
X161830000Y-35950000D01*
%TO.C,D2*%
X132615000Y-68925000D02*
X132615000Y-70625000D01*
X132615000Y-68925000D02*
X135875000Y-68925000D01*
X132615000Y-70625000D02*
X135875000Y-70625000D01*
%TO.C,TP7*%
X128500000Y-33100000D02*
X129900000Y-33100000D01*
X128500000Y-34500000D02*
X128500000Y-33100000D01*
X129900000Y-33100000D02*
X129900000Y-34500000D01*
X129900000Y-34500000D02*
X128500000Y-34500000D01*
%TO.C,TP3*%
X154100000Y-26100000D02*
X155500000Y-26100000D01*
X154100000Y-27500000D02*
X154100000Y-26100000D01*
X155500000Y-26100000D02*
X155500000Y-27500000D01*
X155500000Y-27500000D02*
X154100000Y-27500000D01*
%TO.C,C1*%
X130260000Y-24853733D02*
X130260000Y-25146267D01*
X129240000Y-24853733D02*
X129240000Y-25146267D01*
%TO.C,RN1*%
X141700000Y-67670000D02*
X143800000Y-67670000D01*
X141700000Y-62330000D02*
X143800000Y-62330000D01*
%TD*%
%LPC*%
D13*
X127150000Y-71250000D02*
X129350000Y-71250000D01*
X129350000Y-71750000D01*
X127150000Y-71750000D01*
X127150000Y-71250000D01*
G36*
X127150000Y-71250000D02*
G01*
X129350000Y-71250000D01*
X129350000Y-71750000D01*
X127150000Y-71750000D01*
X127150000Y-71250000D01*
G37*
D14*
%TO.C,U1*%
X133000000Y-22700000D03*
X133000000Y-23970000D03*
X133000000Y-25240000D03*
X133000000Y-26510000D03*
X133000000Y-27780000D03*
X133000000Y-29050000D03*
X133000000Y-30320000D03*
X133000000Y-31590000D03*
X133000000Y-32860000D03*
X133000000Y-34130000D03*
X133000000Y-35400000D03*
X133000000Y-36670000D03*
X133000000Y-37940000D03*
X133000000Y-39210000D03*
D15*
X134765000Y-40460000D03*
X136035000Y-40460000D03*
X137305000Y-40460000D03*
X138575000Y-40460000D03*
X139845000Y-40460000D03*
X141115000Y-40460000D03*
X142385000Y-40460000D03*
X143655000Y-40460000D03*
X144925000Y-40460000D03*
X146195000Y-40460000D03*
X147465000Y-40460000D03*
X148735000Y-40460000D03*
D16*
X150500000Y-39210000D03*
X150500000Y-37940000D03*
X150500000Y-36670000D03*
X150500000Y-35400000D03*
X150500000Y-34130000D03*
X150500000Y-32860000D03*
X150500000Y-31590000D03*
X150500000Y-30320000D03*
X150500000Y-29050000D03*
X150500000Y-27780000D03*
X150500000Y-26510000D03*
X150500000Y-25240000D03*
X150500000Y-23970000D03*
X150500000Y-22700000D03*
D17*
X138850000Y-29020000D03*
X138850000Y-30420000D03*
X138850000Y-31820000D03*
X138850000Y-31820000D03*
X140250000Y-29020000D03*
X140250000Y-29020000D03*
X140250000Y-30420000D03*
X140250000Y-31820000D03*
X141650000Y-29020000D03*
X141650000Y-30420000D03*
X141650000Y-31820000D03*
%TD*%
D18*
%TO.C,Q3*%
X150312500Y-45050000D03*
X150312500Y-46950000D03*
X152187500Y-46000000D03*
%TD*%
D19*
%TO.C,C15*%
X128637500Y-74000000D03*
X130362500Y-74000000D03*
%TD*%
D20*
%TO.C,C3*%
X159112500Y-78000000D03*
X157387500Y-78000000D03*
%TD*%
D21*
%TO.C,D5*%
X149900000Y-60100000D03*
X149900000Y-56900000D03*
X145000000Y-56900000D03*
X145000000Y-60100000D03*
%TD*%
D22*
%TO.C,R32*%
X124500000Y-73200000D03*
X124500000Y-76300000D03*
%TD*%
D18*
%TO.C,Q1*%
X154625000Y-41050000D03*
X154625000Y-42950000D03*
X156500000Y-42000000D03*
%TD*%
D23*
%TO.C,D4*%
X129600000Y-78750000D03*
X132400000Y-78750000D03*
%TD*%
D24*
%TO.C,U2*%
X128850000Y-70975000D03*
X128450000Y-70975000D03*
X128050000Y-70975000D03*
X127650000Y-70975000D03*
X127650000Y-72025000D03*
X128050000Y-72025000D03*
X128450000Y-72025000D03*
X128850000Y-72025000D03*
D25*
X128250000Y-71500000D03*
%TD*%
D26*
%TO.C,TP8*%
X129200000Y-35800000D03*
%TD*%
D27*
%TO.C,D3*%
X133000000Y-73750000D03*
X133000000Y-76250000D03*
%TD*%
D28*
%TO.C,J4*%
X157050000Y-67360000D03*
X156650000Y-68460000D03*
X157050000Y-69560000D03*
X157250000Y-70660000D03*
X157050000Y-71760000D03*
X157250000Y-72860000D03*
X157050000Y-73960000D03*
X157050000Y-75060000D03*
D29*
X146500000Y-74250000D03*
X146500000Y-68550000D03*
D30*
X159650000Y-75850000D03*
X160650000Y-62700000D03*
%TD*%
D31*
%TO.C,R4*%
X135500000Y-76050000D03*
X135500000Y-72950000D03*
%TD*%
D32*
%TO.C,C17*%
X131000000Y-70000000D03*
X131000000Y-71725000D03*
%TD*%
D31*
%TO.C,R10*%
X155250000Y-24550000D03*
X155250000Y-21450000D03*
%TD*%
D33*
%TO.C,R9*%
X160800000Y-21500000D03*
X157700000Y-21500000D03*
%TD*%
D34*
%TO.C,JP1*%
X143350000Y-86500000D03*
X144650000Y-86500000D03*
%TD*%
D26*
%TO.C,TP9*%
X129200000Y-37800000D03*
%TD*%
D35*
%TO.C,R3*%
X140200000Y-78000000D03*
X143300000Y-78000000D03*
%TD*%
D36*
%TO.C,C14*%
X127375000Y-76000000D03*
X130500000Y-76000000D03*
%TD*%
D37*
%TO.C,SW1*%
X151750000Y-80250000D03*
X151750000Y-86750000D03*
X147250000Y-80250000D03*
X147250000Y-86750000D03*
%TD*%
D19*
%TO.C,C2*%
X149387500Y-77750000D03*
X151112500Y-77750000D03*
%TD*%
D18*
%TO.C,Q2*%
X150312500Y-49050000D03*
X150312500Y-50950000D03*
X152187500Y-50000000D03*
%TD*%
D38*
%TO.C,C16*%
X153000000Y-24112500D03*
X153000000Y-22387500D03*
%TD*%
D26*
%TO.C,TP10*%
X127100000Y-79100000D03*
%TD*%
D17*
%TO.C,RN2*%
X144250000Y-74750000D03*
X144250000Y-73410000D03*
X144250000Y-72090000D03*
X144250000Y-70750000D03*
X141250000Y-70750000D03*
X141250000Y-72090000D03*
X141250000Y-73410000D03*
X141250000Y-74750000D03*
%TD*%
D26*
%TO.C,TP1*%
X134250000Y-78000000D03*
%TD*%
D39*
%TO.C,D1*%
X134625000Y-67650000D03*
X137125000Y-67650000D03*
%TD*%
D40*
%TO.C,JP5*%
X131000000Y-66350000D03*
X131000000Y-65050000D03*
%TD*%
D41*
%TO.C,DP1*%
X123500000Y-23000000D03*
D42*
X123500000Y-25540000D03*
X123500000Y-28080000D03*
X123500000Y-30620000D03*
X123500000Y-33160000D03*
X123500000Y-35700000D03*
X123500000Y-38240000D03*
X123500000Y-40780000D03*
%TD*%
D43*
%TO.C,J3*%
X133910000Y-82795000D03*
X139690000Y-82795000D03*
D44*
X133600000Y-81720000D03*
X134400000Y-81720000D03*
D45*
X135550000Y-81720000D03*
X136550000Y-81720000D03*
X137050000Y-81720000D03*
X138050000Y-81720000D03*
D44*
X139200000Y-81720000D03*
X140000000Y-81720000D03*
X140000000Y-81720000D03*
X139200000Y-81720000D03*
D45*
X138550000Y-81720000D03*
X137550000Y-81720000D03*
X136050000Y-81720000D03*
X135050000Y-81720000D03*
D44*
X134400000Y-81720000D03*
X133600000Y-81720000D03*
D46*
X132480000Y-82295000D03*
D47*
X132480000Y-86475000D03*
D46*
X141120000Y-82295000D03*
D47*
X141120000Y-86475000D03*
%TD*%
D26*
%TO.C,TP2*%
X139200000Y-75400000D03*
%TD*%
%TO.C,TP4*%
X156000000Y-39000000D03*
%TD*%
D41*
%TO.C,J1*%
X160500000Y-40000000D03*
D42*
X160500000Y-42540000D03*
X160500000Y-45080000D03*
X160500000Y-47620000D03*
X160500000Y-50160000D03*
X160500000Y-52700000D03*
X160500000Y-55240000D03*
X160500000Y-57780000D03*
%TD*%
D41*
%TO.C,J5*%
X123500000Y-47000000D03*
D42*
X123500000Y-49540000D03*
X123500000Y-52080000D03*
X123500000Y-54620000D03*
X123500000Y-57160000D03*
X123500000Y-59700000D03*
X123500000Y-62240000D03*
X123500000Y-64780000D03*
%TD*%
D48*
%TO.C,C4*%
X129500000Y-81937500D03*
X129500000Y-85062500D03*
%TD*%
D22*
%TO.C,R11*%
X123500000Y-81950000D03*
X123500000Y-85050000D03*
%TD*%
%TO.C,R1*%
X154750000Y-46200000D03*
X154750000Y-49300000D03*
%TD*%
D26*
%TO.C,TP6*%
X156000000Y-35000000D03*
%TD*%
D49*
%TO.C,C18*%
X128312500Y-68500000D03*
X125187500Y-68500000D03*
%TD*%
D22*
%TO.C,R2*%
X127500000Y-22650000D03*
X127500000Y-25750000D03*
%TD*%
D37*
%TO.C,SW2*%
X156000000Y-86750000D03*
X156000000Y-80250000D03*
X160500000Y-86750000D03*
X160500000Y-80250000D03*
%TD*%
D26*
%TO.C,TP5*%
X156000000Y-37000000D03*
%TD*%
D50*
%TO.C,D15*%
X126250000Y-82725000D03*
X126250000Y-84775000D03*
%TD*%
D41*
%TO.C,J2*%
X160500000Y-27000000D03*
D42*
X160500000Y-29540000D03*
X160500000Y-32080000D03*
X160500000Y-34620000D03*
%TD*%
D39*
%TO.C,D2*%
X133375000Y-69775000D03*
X135875000Y-69775000D03*
%TD*%
D26*
%TO.C,TP7*%
X129200000Y-33800000D03*
%TD*%
%TO.C,TP3*%
X154800000Y-26800000D03*
%TD*%
D32*
%TO.C,C1*%
X129750000Y-24137500D03*
X129750000Y-25862500D03*
%TD*%
D17*
%TO.C,RN1*%
X144250000Y-67000000D03*
X144250000Y-65660000D03*
X144250000Y-64340000D03*
X144250000Y-63000000D03*
X141250000Y-63000000D03*
X141250000Y-64340000D03*
X141250000Y-65660000D03*
X141250000Y-67000000D03*
%TD*%
%LPD*%
M02*
