%TF.GenerationSoftware,KiCad,Pcbnew,8.0.1-1.fc39*%
%TF.CreationDate,2024-05-03T11:27:30+02:00*%
%TF.ProjectId,esp32-board,65737033-322d-4626-9f61-72642e6b6963,rev?*%
%TF.SameCoordinates,Original*%
%TF.FileFunction,Paste,Top*%
%TF.FilePolarity,Positive*%
%FSLAX46Y46*%
G04 Gerber Fmt 4.6, Leading zero omitted, Abs format (unit mm)*
G04 Created by KiCad (PCBNEW 8.0.1-1.fc39) date 2024-05-03 11:27:30*
%MOMM*%
%LPD*%
G01*
G04 APERTURE LIST*
G04 Aperture macros list*
%AMRoundRect*
0 Rectangle with rounded corners*
0 $1 Rounding radius*
0 $2 $3 $4 $5 $6 $7 $8 $9 X,Y pos of 4 corners*
0 Add a 4 corners polygon primitive as box body*
4,1,4,$2,$3,$4,$5,$6,$7,$8,$9,$2,$3,0*
0 Add four circle primitives for the rounded corners*
1,1,$1+$1,$2,$3*
1,1,$1+$1,$4,$5*
1,1,$1+$1,$6,$7*
1,1,$1+$1,$8,$9*
0 Add four rect primitives between the rounded corners*
20,1,$1+$1,$2,$3,$4,$5,0*
20,1,$1+$1,$4,$5,$6,$7,0*
20,1,$1+$1,$6,$7,$8,$9,0*
20,1,$1+$1,$8,$9,$2,$3,0*%
G04 Aperture macros list end*
%ADD10R,1.500000X0.900000*%
%ADD11R,0.900000X1.500000*%
%ADD12R,0.900000X0.900000*%
%ADD13RoundRect,0.150000X-0.587500X-0.150000X0.587500X-0.150000X0.587500X0.150000X-0.587500X0.150000X0*%
%ADD14RoundRect,0.237500X-0.300000X-0.237500X0.300000X-0.237500X0.300000X0.237500X-0.300000X0.237500X0*%
%ADD15RoundRect,0.237500X0.300000X0.237500X-0.300000X0.237500X-0.300000X-0.237500X0.300000X-0.237500X0*%
%ADD16R,1.500000X1.000000*%
%ADD17RoundRect,0.250000X-0.625000X0.400000X-0.625000X-0.400000X0.625000X-0.400000X0.625000X0.400000X0*%
%ADD18RoundRect,0.250000X-0.300000X-0.300000X0.300000X-0.300000X0.300000X0.300000X-0.300000X0.300000X0*%
%ADD19R,0.270000X0.350000*%
%ADD20R,1.440000X0.440000*%
%ADD21RoundRect,0.250000X-0.250000X0.250000X-0.250000X-0.250000X0.250000X-0.250000X0.250000X0.250000X0*%
%ADD22R,2.000000X0.800000*%
%ADD23R,1.400000X1.800000*%
%ADD24R,1.900000X1.400000*%
%ADD25RoundRect,0.250000X0.625000X-0.400000X0.625000X0.400000X-0.625000X0.400000X-0.625000X-0.400000X0*%
%ADD26RoundRect,0.237500X-0.237500X0.300000X-0.237500X-0.300000X0.237500X-0.300000X0.237500X0.300000X0*%
%ADD27RoundRect,0.250000X0.400000X0.625000X-0.400000X0.625000X-0.400000X-0.625000X0.400000X-0.625000X0*%
%ADD28RoundRect,0.250000X-0.400000X-0.625000X0.400000X-0.625000X0.400000X0.625000X-0.400000X0.625000X0*%
%ADD29RoundRect,0.250000X-0.412500X-0.650000X0.412500X-0.650000X0.412500X0.650000X-0.412500X0.650000X0*%
%ADD30RoundRect,0.237500X0.237500X-0.300000X0.237500X0.300000X-0.237500X0.300000X-0.237500X-0.300000X0*%
%ADD31RoundRect,0.250000X-0.250000X-0.250000X0.250000X-0.250000X0.250000X0.250000X-0.250000X0.250000X0*%
%ADD32RoundRect,0.150000X-0.150000X-0.425000X0.150000X-0.425000X0.150000X0.425000X-0.150000X0.425000X0*%
%ADD33RoundRect,0.075000X-0.075000X-0.500000X0.075000X-0.500000X0.075000X0.500000X-0.075000X0.500000X0*%
%ADD34O,1.000000X2.100000*%
%ADD35O,1.000000X1.800000*%
%ADD36RoundRect,0.250000X-0.650000X0.412500X-0.650000X-0.412500X0.650000X-0.412500X0.650000X0.412500X0*%
%ADD37RoundRect,0.250000X0.412500X0.650000X-0.412500X0.650000X-0.412500X-0.650000X0.412500X-0.650000X0*%
%ADD38RoundRect,0.250000X-0.450000X0.325000X-0.450000X-0.325000X0.450000X-0.325000X0.450000X0.325000X0*%
G04 APERTURE END LIST*
D10*
%TO.C,U1*%
X133000000Y-22700000D03*
X133000000Y-23970000D03*
X133000000Y-25240000D03*
X133000000Y-26510000D03*
X133000000Y-27780000D03*
X133000000Y-29050000D03*
X133000000Y-30320000D03*
X133000000Y-31590000D03*
X133000000Y-32860000D03*
X133000000Y-34130000D03*
X133000000Y-35400000D03*
X133000000Y-36670000D03*
X133000000Y-37940000D03*
X133000000Y-39210000D03*
D11*
X134765000Y-40460000D03*
X136035000Y-40460000D03*
X137305000Y-40460000D03*
X138575000Y-40460000D03*
X139845000Y-40460000D03*
X141115000Y-40460000D03*
X142385000Y-40460000D03*
X143655000Y-40460000D03*
X144925000Y-40460000D03*
X146195000Y-40460000D03*
X147465000Y-40460000D03*
X148735000Y-40460000D03*
D10*
X150500000Y-39210000D03*
X150500000Y-37940000D03*
X150500000Y-36670000D03*
X150500000Y-35400000D03*
X150500000Y-34130000D03*
X150500000Y-32860000D03*
X150500000Y-31590000D03*
X150500000Y-30320000D03*
X150500000Y-29050000D03*
X150500000Y-27780000D03*
X150500000Y-26510000D03*
X150500000Y-25240000D03*
X150500000Y-23970000D03*
X150500000Y-22700000D03*
D12*
X138850000Y-29020000D03*
X138850000Y-30420000D03*
X138850000Y-31820000D03*
X138850000Y-31820000D03*
X140250000Y-29020000D03*
X140250000Y-29020000D03*
X140250000Y-30420000D03*
X140250000Y-31820000D03*
X141650000Y-29020000D03*
X141650000Y-30420000D03*
X141650000Y-31820000D03*
%TD*%
D13*
%TO.C,Q3*%
X150312500Y-45050000D03*
X150312500Y-46950000D03*
X152187500Y-46000000D03*
%TD*%
D14*
%TO.C,C15*%
X128637500Y-74000000D03*
X130362500Y-74000000D03*
%TD*%
D15*
%TO.C,C3*%
X159112500Y-78000000D03*
X157387500Y-78000000D03*
%TD*%
D16*
%TO.C,D5*%
X149900000Y-60100000D03*
X149900000Y-56900000D03*
X145000000Y-56900000D03*
X145000000Y-60100000D03*
%TD*%
D17*
%TO.C,R32*%
X124500000Y-73200000D03*
X124500000Y-76300000D03*
%TD*%
D13*
%TO.C,Q1*%
X154625000Y-41050000D03*
X154625000Y-42950000D03*
X156500000Y-42000000D03*
%TD*%
D18*
%TO.C,D4*%
X129600000Y-78750000D03*
X132400000Y-78750000D03*
%TD*%
D19*
%TO.C,U2*%
X128850000Y-70975000D03*
X128450000Y-70975000D03*
X128050000Y-70975000D03*
X127650000Y-70975000D03*
X127650000Y-72025000D03*
X128050000Y-72025000D03*
X128450000Y-72025000D03*
X128850000Y-72025000D03*
D20*
X128250000Y-71500000D03*
%TD*%
D21*
%TO.C,D3*%
X133000000Y-73750000D03*
X133000000Y-76250000D03*
%TD*%
D22*
%TO.C,J4*%
X157050000Y-67360000D03*
X156650000Y-68460000D03*
X157050000Y-69560000D03*
X157250000Y-70660000D03*
X157050000Y-71760000D03*
X157250000Y-72860000D03*
X157050000Y-73960000D03*
X157050000Y-75060000D03*
D23*
X146500000Y-74250000D03*
X146500000Y-68550000D03*
D24*
X159650000Y-75850000D03*
X160650000Y-62700000D03*
%TD*%
D25*
%TO.C,R4*%
X135500000Y-76050000D03*
X135500000Y-72950000D03*
%TD*%
D26*
%TO.C,C17*%
X131000000Y-70000000D03*
X131000000Y-71725000D03*
%TD*%
D25*
%TO.C,R10*%
X155250000Y-24550000D03*
X155250000Y-21450000D03*
%TD*%
D27*
%TO.C,R9*%
X160800000Y-21500000D03*
X157700000Y-21500000D03*
%TD*%
D28*
%TO.C,R3*%
X140200000Y-78000000D03*
X143300000Y-78000000D03*
%TD*%
D29*
%TO.C,C14*%
X127375000Y-76000000D03*
X130500000Y-76000000D03*
%TD*%
D14*
%TO.C,C2*%
X149387500Y-77750000D03*
X151112500Y-77750000D03*
%TD*%
D13*
%TO.C,Q2*%
X150312500Y-49050000D03*
X150312500Y-50950000D03*
X152187500Y-50000000D03*
%TD*%
D30*
%TO.C,C16*%
X153000000Y-24112500D03*
X153000000Y-22387500D03*
%TD*%
D12*
%TO.C,RN2*%
X144250000Y-74750000D03*
X144250000Y-73410000D03*
X144250000Y-72090000D03*
X144250000Y-70750000D03*
X141250000Y-70750000D03*
X141250000Y-72090000D03*
X141250000Y-73410000D03*
X141250000Y-74750000D03*
%TD*%
D31*
%TO.C,D1*%
X134625000Y-67650000D03*
X137125000Y-67650000D03*
%TD*%
D32*
%TO.C,J3*%
X133600000Y-81720000D03*
X134400000Y-81720000D03*
D33*
X135550000Y-81720000D03*
X136550000Y-81720000D03*
X137050000Y-81720000D03*
X138050000Y-81720000D03*
D32*
X139200000Y-81720000D03*
X140000000Y-81720000D03*
X140000000Y-81720000D03*
X139200000Y-81720000D03*
D33*
X138550000Y-81720000D03*
X137550000Y-81720000D03*
X136050000Y-81720000D03*
X135050000Y-81720000D03*
D32*
X134400000Y-81720000D03*
X133600000Y-81720000D03*
D34*
X132480000Y-82295000D03*
D35*
X132480000Y-86475000D03*
D34*
X141120000Y-82295000D03*
D35*
X141120000Y-86475000D03*
%TD*%
D36*
%TO.C,C4*%
X129500000Y-81937500D03*
X129500000Y-85062500D03*
%TD*%
D17*
%TO.C,R11*%
X123500000Y-81950000D03*
X123500000Y-85050000D03*
%TD*%
%TO.C,R1*%
X154750000Y-46200000D03*
X154750000Y-49300000D03*
%TD*%
D37*
%TO.C,C18*%
X128312500Y-68500000D03*
X125187500Y-68500000D03*
%TD*%
D17*
%TO.C,R2*%
X127500000Y-22650000D03*
X127500000Y-25750000D03*
%TD*%
D38*
%TO.C,D15*%
X126250000Y-82725000D03*
X126250000Y-84775000D03*
%TD*%
D31*
%TO.C,D2*%
X133375000Y-69775000D03*
X135875000Y-69775000D03*
%TD*%
D26*
%TO.C,C1*%
X129750000Y-24137500D03*
X129750000Y-25862500D03*
%TD*%
D12*
%TO.C,RN1*%
X144250000Y-67000000D03*
X144250000Y-65660000D03*
X144250000Y-64340000D03*
X144250000Y-63000000D03*
X141250000Y-63000000D03*
X141250000Y-64340000D03*
X141250000Y-65660000D03*
X141250000Y-67000000D03*
%TD*%
M02*
