%TF.GenerationSoftware,KiCad,Pcbnew,8.0.1-1.fc39*%
%TF.CreationDate,2024-05-03T11:27:30+02:00*%
%TF.ProjectId,esp32-board,65737033-322d-4626-9f61-72642e6b6963,rev?*%
%TF.SameCoordinates,Original*%
%TF.FileFunction,Copper,L2,Bot*%
%TF.FilePolarity,Positive*%
%FSLAX46Y46*%
G04 Gerber Fmt 4.6, Leading zero omitted, Abs format (unit mm)*
G04 Created by KiCad (PCBNEW 8.0.1-1.fc39) date 2024-05-03 11:27:30*
%MOMM*%
%LPD*%
G01*
G04 APERTURE LIST*
%TA.AperFunction,EtchedComponent*%
%ADD10C,0.000000*%
%TD*%
%TA.AperFunction,ComponentPad*%
%ADD11C,2.000000*%
%TD*%
%TA.AperFunction,ComponentPad*%
%ADD12R,1.700000X1.700000*%
%TD*%
%TA.AperFunction,ComponentPad*%
%ADD13O,1.700000X1.700000*%
%TD*%
%TA.AperFunction,ComponentPad*%
%ADD14O,1.000000X2.100000*%
%TD*%
%TA.AperFunction,ComponentPad*%
%ADD15O,1.000000X1.800000*%
%TD*%
%TA.AperFunction,SMDPad,CuDef*%
%ADD16R,1.500000X1.000000*%
%TD*%
%TA.AperFunction,ViaPad*%
%ADD17C,0.800000*%
%TD*%
%TA.AperFunction,Conductor*%
%ADD18C,0.200000*%
%TD*%
%TA.AperFunction,Conductor*%
%ADD19C,1.400000*%
%TD*%
%TA.AperFunction,Conductor*%
%ADD20C,0.400000*%
%TD*%
%TA.AperFunction,Conductor*%
%ADD21C,0.800000*%
%TD*%
G04 APERTURE END LIST*
D10*
%TA.AperFunction,EtchedComponent*%
%TO.C,JP2*%
G36*
X145850000Y-52750000D02*
G01*
X145450000Y-52750000D01*
X145450000Y-52250000D01*
X145850000Y-52250000D01*
X145850000Y-52750000D01*
G37*
%TD.AperFunction*%
%TA.AperFunction,EtchedComponent*%
G36*
X145050000Y-52750000D02*
G01*
X144650000Y-52750000D01*
X144650000Y-52250000D01*
X145050000Y-52250000D01*
X145050000Y-52750000D01*
G37*
%TD.AperFunction*%
%TD*%
D11*
%TO.P,SW1,1,1*%
%TO.N,GND*%
X151750000Y-80250000D03*
X151750000Y-86750000D03*
%TO.P,SW1,2,2*%
%TO.N,GPIO0*%
X147250000Y-80250000D03*
X147250000Y-86750000D03*
%TD*%
D12*
%TO.P,DP1,1,GND*%
%TO.N,GND*%
X123500000Y-23000000D03*
D13*
%TO.P,DP1,2,VDD*%
%TO.N,+3V3*%
X123500000Y-25540000D03*
%TO.P,DP1,3,SCK*%
%TO.N,/DP_SCK*%
X123500000Y-28080000D03*
%TO.P,DP1,4,SDA*%
%TO.N,/DP_SDA*%
X123500000Y-30620000D03*
%TO.P,DP1,5,RES*%
%TO.N,/DP_RES*%
X123500000Y-33160000D03*
%TO.P,DP1,6,DC*%
%TO.N,/DP_DC*%
X123500000Y-35700000D03*
%TO.P,DP1,7,CS*%
%TO.N,/DP_CS*%
X123500000Y-38240000D03*
%TO.P,DP1,8,LEDA*%
%TO.N,/DP_LED*%
X123500000Y-40780000D03*
%TD*%
D14*
%TO.P,J3,S1,SHIELD*%
%TO.N,GNDPWR*%
X132480000Y-82295000D03*
D15*
X132480000Y-86475000D03*
D14*
X141120000Y-82295000D03*
D15*
X141120000Y-86475000D03*
%TD*%
D12*
%TO.P,J1,1,Pin_1*%
%TO.N,Net-(J1-Pin_1)*%
X160500000Y-40000000D03*
D13*
%TO.P,J1,2,Pin_2*%
%TO.N,GND*%
X160500000Y-42540000D03*
%TO.P,J1,3,Pin_3*%
X160500000Y-45080000D03*
%TO.P,J1,4,Pin_4*%
%TO.N,Net-(J1-Pin_4)*%
X160500000Y-47620000D03*
%TO.P,J1,5,Pin_5*%
%TO.N,/U1RX*%
X160500000Y-50160000D03*
%TO.P,J1,6,Pin_6*%
%TO.N,/U1TX*%
X160500000Y-52700000D03*
%TO.P,J1,7,Pin_7*%
%TO.N,GND*%
X160500000Y-55240000D03*
%TO.P,J1,8,Pin_8*%
%TO.N,/U2RX*%
X160500000Y-57780000D03*
%TD*%
D12*
%TO.P,J5,1,Pin_1*%
%TO.N,VSYS*%
X123500000Y-47000000D03*
D13*
%TO.P,J5,2,Pin_2*%
%TO.N,GND*%
X123500000Y-49540000D03*
%TO.P,J5,3,Pin_3*%
%TO.N,+3V3*%
X123500000Y-52080000D03*
%TO.P,J5,4,Pin_4*%
%TO.N,/LED_CTRL*%
X123500000Y-54620000D03*
%TO.P,J5,5,Pin_5*%
%TO.N,/BTN1*%
X123500000Y-57160000D03*
%TO.P,J5,6,Pin_6*%
%TO.N,/BTN2*%
X123500000Y-59700000D03*
%TO.P,J5,7,Pin_7*%
%TO.N,/BTN3*%
X123500000Y-62240000D03*
%TO.P,J5,8,Pin_8*%
%TO.N,/BTN4*%
X123500000Y-64780000D03*
%TD*%
D11*
%TO.P,SW2,1,1*%
%TO.N,GND*%
X156000000Y-86750000D03*
X156000000Y-80250000D03*
%TO.P,SW2,2,2*%
%TO.N,CHIP_PU*%
X160500000Y-86750000D03*
X160500000Y-80250000D03*
%TD*%
D12*
%TO.P,J2,1,Pin_1*%
%TO.N,+3V3*%
X160500000Y-27000000D03*
D13*
%TO.P,J2,2,Pin_2*%
%TO.N,Net-(J2-Pin_2)*%
X160500000Y-29540000D03*
%TO.P,J2,3,Pin_3*%
%TO.N,Net-(J2-Pin_3)*%
X160500000Y-32080000D03*
%TO.P,J2,4,Pin_4*%
%TO.N,GND*%
X160500000Y-34620000D03*
%TD*%
D16*
%TO.P,JP2,1,A*%
%TO.N,GPIO38*%
X145250000Y-51850000D03*
%TO.P,JP2,2,B*%
%TO.N,Net-(D5-DIN)*%
X145250000Y-53150000D03*
%TD*%
D17*
%TO.N,CHIP_PU*%
X156000000Y-58000000D03*
X132750000Y-49000000D03*
X155250000Y-77000000D03*
X128000000Y-39750000D03*
X128000000Y-27250000D03*
X145750000Y-49000000D03*
%TO.N,GND*%
X149250000Y-47000000D03*
X161250000Y-77750000D03*
X148600000Y-25000000D03*
X158000000Y-45000000D03*
X135000000Y-38600000D03*
X141800000Y-35200000D03*
X141800000Y-38600000D03*
X148600000Y-35200000D03*
X153000000Y-21000000D03*
X135000000Y-28400000D03*
X143000000Y-84250000D03*
X135000000Y-25000000D03*
X143000000Y-33200000D03*
X148600000Y-31800000D03*
X148600000Y-21600000D03*
X138400000Y-35200000D03*
X125000000Y-21500000D03*
X148600000Y-28400000D03*
X135000000Y-21600000D03*
X132750000Y-71750000D03*
X138400000Y-25000000D03*
X159250000Y-60500000D03*
X143500000Y-79750000D03*
X145200000Y-38600000D03*
X129500000Y-27250000D03*
X145200000Y-28400000D03*
X145200000Y-21600000D03*
X138000000Y-27600000D03*
X138400000Y-38600000D03*
X158250000Y-54500000D03*
X154500000Y-78500000D03*
X135000000Y-35200000D03*
X148600000Y-38600000D03*
X125500000Y-49500000D03*
X141800000Y-21600000D03*
X141400000Y-76300000D03*
X145200000Y-25000000D03*
X153250000Y-78500000D03*
X145200000Y-31800000D03*
X126500000Y-72000000D03*
X151900000Y-59400000D03*
X135000000Y-31800000D03*
X138400000Y-21600000D03*
X141800000Y-25000000D03*
X144500000Y-84250000D03*
X145200000Y-35200000D03*
X158250000Y-34250000D03*
X142800000Y-27600000D03*
X126250000Y-81250000D03*
X137800000Y-33000000D03*
%TO.N,GPIO0*%
X153600000Y-77000000D03*
X155000000Y-59250000D03*
%TO.N,/VBUS_USB*%
X135000000Y-79100000D03*
X139000000Y-80100000D03*
X139900000Y-80100000D03*
%TO.N,Net-(D5-DIN)*%
X145250000Y-54750000D03*
%TO.N,/LED_CTRL*%
X135250000Y-47000000D03*
X126750000Y-48750000D03*
%TO.N,VSYS*%
X125000000Y-78750000D03*
X153456000Y-44856000D03*
X126750000Y-47000000D03*
X128250000Y-66250000D03*
%TO.N,+3V3*%
X126250000Y-27250000D03*
X139736092Y-70513908D03*
X132250000Y-52000000D03*
X131100000Y-63100000D03*
X151000000Y-52500000D03*
X147250000Y-60500000D03*
X139250000Y-63000000D03*
X152400000Y-70000000D03*
X126750000Y-38500000D03*
X125750000Y-52000000D03*
X155750000Y-28750000D03*
%TO.N,/U1RX*%
X157400000Y-32200000D03*
X158250000Y-49500000D03*
%TO.N,/U1TX*%
X158000000Y-52000000D03*
X156400000Y-31400000D03*
%TO.N,/SD_SCLK*%
X147500000Y-70750000D03*
X154000000Y-71750000D03*
%TO.N,/SD_DO*%
X154000000Y-73750000D03*
X146000000Y-71873500D03*
%TO.N,/SD_DAT1*%
X153750000Y-75000000D03*
X147250000Y-72500000D03*
%TO.N,GPIO38*%
X144750000Y-50000000D03*
%TO.N,/BTN1*%
X136000000Y-48000000D03*
X128250000Y-48750000D03*
%TO.N,/BTN2*%
X142000000Y-57000000D03*
X126250000Y-57000000D03*
%TO.N,/BTN3*%
X126250000Y-58250000D03*
X142000000Y-58250000D03*
%TO.N,/BTN4*%
X126250000Y-60500000D03*
X142000000Y-59500000D03*
%TO.N,Net-(U1-SPIIO6{slash}GPIO35{slash}FSPID{slash}SUBSPID)*%
X152000000Y-37800000D03*
X154800000Y-39000000D03*
%TO.N,Net-(U1-SPIIO7{slash}GPIO36{slash}FSPICLK{slash}SUBSPICLK)*%
X152373500Y-36800000D03*
X154703500Y-37000000D03*
%TO.N,Net-(U1-SPIDQS{slash}GPIO37{slash}FSPIQ{slash}SUBSPIQ)*%
X154703500Y-35000000D03*
X152000000Y-35600000D03*
%TD*%
D18*
%TO.N,CHIP_PU*%
X128000000Y-27250000D02*
X128000000Y-39750000D01*
X156000000Y-76250000D02*
X156000000Y-58000000D01*
X155250000Y-77000000D02*
X156000000Y-76250000D01*
X145750000Y-49000000D02*
X132750000Y-49000000D01*
%TO.N,GPIO0*%
X153600000Y-77000000D02*
X155000000Y-75600000D01*
X155000000Y-75600000D02*
X155000000Y-59250000D01*
D19*
%TO.N,/VBUS_USB*%
X139000000Y-80100000D02*
X139900000Y-80100000D01*
X135000000Y-79100000D02*
X138000000Y-79100000D01*
X138000000Y-79100000D02*
X139000000Y-80100000D01*
D20*
%TO.N,Net-(D5-DIN)*%
X145250000Y-53150000D02*
X145250000Y-54750000D01*
D18*
%TO.N,/LED_CTRL*%
X135000000Y-46750000D02*
X128750000Y-46750000D01*
X128750000Y-46750000D02*
X126750000Y-48750000D01*
X135250000Y-47000000D02*
X135000000Y-46750000D01*
D21*
%TO.N,VSYS*%
X153456000Y-44856000D02*
X153062000Y-45250000D01*
X128250000Y-66750000D02*
X128250000Y-66250000D01*
X128500000Y-45250000D02*
X126750000Y-47000000D01*
X153062000Y-45250000D02*
X128500000Y-45250000D01*
X125000000Y-70000000D02*
X128250000Y-66750000D01*
X125000000Y-78750000D02*
X125000000Y-70000000D01*
%TO.N,+3V3*%
X147250000Y-56250000D02*
X151000000Y-52500000D01*
X139750000Y-70500000D02*
X139736092Y-70513908D01*
X139750000Y-68600000D02*
X139750000Y-70500000D01*
X139250000Y-63000000D02*
X144750000Y-63000000D01*
X155800000Y-47700000D02*
X151000000Y-52500000D01*
X154000000Y-32400000D02*
X155800000Y-34200000D01*
D20*
X151400000Y-69000000D02*
X140150000Y-69000000D01*
D21*
X147250000Y-60500000D02*
X147250000Y-56250000D01*
X139250000Y-63000000D02*
X131200000Y-63000000D01*
X126750000Y-27750000D02*
X126750000Y-38500000D01*
X126250000Y-27250000D02*
X126750000Y-27750000D01*
X139750000Y-63500000D02*
X139750000Y-68600000D01*
D20*
X140150000Y-69000000D02*
X139750000Y-68600000D01*
D21*
X155750000Y-28750000D02*
X154000000Y-30500000D01*
X154000000Y-30500000D02*
X154000000Y-32400000D01*
X131200000Y-63000000D02*
X131100000Y-63100000D01*
X155800000Y-34200000D02*
X155800000Y-47700000D01*
D20*
X152400000Y-70000000D02*
X151400000Y-69000000D01*
D21*
X125750000Y-52000000D02*
X132250000Y-52000000D01*
X144750000Y-63000000D02*
X147250000Y-60500000D01*
X139250000Y-63000000D02*
X139750000Y-63500000D01*
D18*
%TO.N,/U1RX*%
X157000000Y-32600000D02*
X157000000Y-48250000D01*
X157400000Y-32200000D02*
X157000000Y-32600000D01*
X157000000Y-48250000D02*
X158250000Y-49500000D01*
%TO.N,/U1TX*%
X156400000Y-32887212D02*
X156600000Y-33087212D01*
X156600000Y-33087212D02*
X156600000Y-50600000D01*
X156400000Y-31400000D02*
X156400000Y-32887212D01*
X156600000Y-50600000D02*
X158000000Y-52000000D01*
D21*
%TO.N,GNDPWR*%
X141120000Y-82295000D02*
X141120000Y-86475000D01*
X132480000Y-82295000D02*
X132480000Y-86475000D01*
X132480000Y-86475000D02*
X141120000Y-86475000D01*
D18*
%TO.N,/SD_SCLK*%
X153000000Y-70750000D02*
X154000000Y-71750000D01*
X147500000Y-70750000D02*
X153000000Y-70750000D01*
%TO.N,/SD_DO*%
X153450000Y-73750000D02*
X154000000Y-73750000D01*
X151550000Y-71850000D02*
X153450000Y-73750000D01*
X146000000Y-71873500D02*
X146023500Y-71850000D01*
X146023500Y-71850000D02*
X151550000Y-71850000D01*
%TO.N,/SD_DAT1*%
X147250000Y-72500000D02*
X151250000Y-72500000D01*
X151250000Y-72500000D02*
X153750000Y-75000000D01*
%TO.N,GPIO38*%
X145250000Y-50500000D02*
X145250000Y-51850000D01*
X144750000Y-50000000D02*
X145250000Y-50500000D01*
%TO.N,/BTN1*%
X136000000Y-48000000D02*
X129000000Y-48000000D01*
X129000000Y-48000000D02*
X128250000Y-48750000D01*
%TO.N,/BTN2*%
X126750000Y-57500000D02*
X141500000Y-57500000D01*
X141500000Y-57500000D02*
X142000000Y-57000000D01*
X126250000Y-57000000D02*
X126750000Y-57500000D01*
%TO.N,/BTN3*%
X126250000Y-58250000D02*
X142000000Y-58250000D01*
%TO.N,/BTN4*%
X126250000Y-60500000D02*
X127000000Y-60500000D01*
X141500000Y-59000000D02*
X142000000Y-59500000D01*
X127000000Y-60500000D02*
X128500000Y-59000000D01*
X128500000Y-59000000D02*
X141500000Y-59000000D01*
%TO.N,Net-(U1-SPIIO6{slash}GPIO35{slash}FSPID{slash}SUBSPID)*%
X152000000Y-37800000D02*
X153600000Y-37800000D01*
X153600000Y-37800000D02*
X154800000Y-39000000D01*
%TO.N,Net-(U1-SPIIO7{slash}GPIO36{slash}FSPICLK{slash}SUBSPICLK)*%
X154503500Y-36800000D02*
X154703500Y-37000000D01*
X152373500Y-36800000D02*
X154503500Y-36800000D01*
%TO.N,Net-(U1-SPIDQS{slash}GPIO37{slash}FSPIQ{slash}SUBSPIQ)*%
X154703500Y-35000000D02*
X154103500Y-35600000D01*
X154103500Y-35600000D02*
X152000000Y-35600000D01*
%TD*%
%TA.AperFunction,Conductor*%
%TO.N,GND*%
G36*
X151500000Y-34850191D02*
G01*
X151394129Y-34927111D01*
X151267466Y-35067785D01*
X151172821Y-35231715D01*
X151172818Y-35231722D01*
X151114327Y-35411740D01*
X151114326Y-35411744D01*
X151094540Y-35600000D01*
X151114326Y-35788256D01*
X151114327Y-35788259D01*
X151172818Y-35968277D01*
X151172821Y-35968284D01*
X151267467Y-36132216D01*
X151394129Y-36272888D01*
X151486121Y-36339724D01*
X151500000Y-36357722D01*
X151500000Y-36574274D01*
X151487827Y-36611740D01*
X151487826Y-36611744D01*
X151468040Y-36800000D01*
X151487254Y-36982817D01*
X151474686Y-37051545D01*
X151436820Y-37096094D01*
X151394131Y-37127109D01*
X151394129Y-37127111D01*
X151267466Y-37267785D01*
X151172821Y-37431715D01*
X151172818Y-37431722D01*
X151114327Y-37611740D01*
X151114326Y-37611744D01*
X151094540Y-37800000D01*
X151114326Y-37988256D01*
X151114327Y-37988259D01*
X151172818Y-38168277D01*
X151172821Y-38168284D01*
X151267467Y-38332216D01*
X151394129Y-38472888D01*
X151500000Y-38549807D01*
X151500000Y-41250000D01*
X132000000Y-41250000D01*
X132000000Y-21500000D01*
X151500000Y-21500000D01*
X151500000Y-34850191D01*
G37*
%TD.AperFunction*%
%TD*%
%TA.AperFunction,Conductor*%
%TO.N,GND*%
G36*
X160750000Y-44644498D02*
G01*
X160642315Y-44595320D01*
X160535763Y-44580000D01*
X160464237Y-44580000D01*
X160357685Y-44595320D01*
X160250000Y-44644498D01*
X160250000Y-42975501D01*
X160357685Y-43024680D01*
X160464237Y-43040000D01*
X160535763Y-43040000D01*
X160642315Y-43024680D01*
X160750000Y-42975501D01*
X160750000Y-44644498D01*
G37*
%TD.AperFunction*%
%TA.AperFunction,Conductor*%
G36*
X151510433Y-36382024D02*
G01*
X151528404Y-36463344D01*
X151519939Y-36512907D01*
X151500000Y-36574272D01*
X151500000Y-36369657D01*
X151510433Y-36382024D01*
G37*
%TD.AperFunction*%
%TA.AperFunction,Conductor*%
G36*
X160753095Y-18800722D02*
G01*
X160887508Y-18810334D01*
X160979460Y-18816910D01*
X161004010Y-18820440D01*
X161216670Y-18866702D01*
X161240448Y-18873685D01*
X161444335Y-18949730D01*
X161466915Y-18960042D01*
X161657899Y-19064327D01*
X161678771Y-19077740D01*
X161852975Y-19208147D01*
X161871731Y-19224399D01*
X162025600Y-19378268D01*
X162041852Y-19397025D01*
X162172257Y-19571225D01*
X162185672Y-19592100D01*
X162289957Y-19783084D01*
X162300270Y-19805666D01*
X162329068Y-19882877D01*
X162376311Y-20009542D01*
X162383299Y-20033338D01*
X162429557Y-20245978D01*
X162433089Y-20270544D01*
X162449278Y-20496903D01*
X162449500Y-20503112D01*
X162449500Y-86746887D01*
X162449278Y-86753096D01*
X162433089Y-86979455D01*
X162429556Y-87004023D01*
X162383300Y-87216657D01*
X162376309Y-87240465D01*
X162300270Y-87444333D01*
X162289957Y-87466915D01*
X162185672Y-87657899D01*
X162172252Y-87678780D01*
X162135072Y-87728449D01*
X162041857Y-87852969D01*
X162025600Y-87871731D01*
X161871731Y-88025600D01*
X161852968Y-88041857D01*
X161741978Y-88124943D01*
X161665301Y-88157447D01*
X161582302Y-88150593D01*
X161511994Y-88105953D01*
X161470485Y-88033753D01*
X161467284Y-87950532D01*
X161503124Y-87875357D01*
X161519142Y-87858391D01*
X161519740Y-87857740D01*
X161519744Y-87857738D01*
X161688164Y-87674785D01*
X161688165Y-87674782D01*
X161688168Y-87674780D01*
X161816207Y-87478800D01*
X161824173Y-87466607D01*
X161924063Y-87238881D01*
X161985108Y-86997821D01*
X162005643Y-86750000D01*
X161985108Y-86502179D01*
X161924063Y-86261119D01*
X161824173Y-86033393D01*
X161824172Y-86033391D01*
X161688168Y-85825219D01*
X161519748Y-85642266D01*
X161519740Y-85642258D01*
X161323516Y-85489530D01*
X161323507Y-85489524D01*
X161104820Y-85371176D01*
X161104809Y-85371171D01*
X160869619Y-85290430D01*
X160869614Y-85290429D01*
X160624335Y-85249500D01*
X160375665Y-85249500D01*
X160179441Y-85282243D01*
X160130385Y-85290429D01*
X160130380Y-85290430D01*
X159895190Y-85371171D01*
X159895179Y-85371176D01*
X159676492Y-85489524D01*
X159676483Y-85489530D01*
X159480259Y-85642258D01*
X159480251Y-85642266D01*
X159311831Y-85825219D01*
X159175827Y-86033391D01*
X159075936Y-86261121D01*
X159014892Y-86502178D01*
X158994357Y-86750000D01*
X159014892Y-86997821D01*
X159075936Y-87238878D01*
X159175827Y-87466608D01*
X159311831Y-87674780D01*
X159480251Y-87857733D01*
X159480259Y-87857741D01*
X159676483Y-88010469D01*
X159676488Y-88010472D01*
X159676491Y-88010474D01*
X159734482Y-88041857D01*
X159883444Y-88122472D01*
X159945074Y-88178486D01*
X159973613Y-88256726D01*
X159962524Y-88339266D01*
X159914346Y-88407198D01*
X159840117Y-88444960D01*
X159800629Y-88449500D01*
X156698319Y-88449500D01*
X156617457Y-88429569D01*
X156555120Y-88374343D01*
X156525588Y-88296473D01*
X156535626Y-88213799D01*
X156582936Y-88145259D01*
X156615504Y-88122472D01*
X156823232Y-88010054D01*
X156823234Y-88010053D01*
X156870056Y-87973610D01*
X156171567Y-87275121D01*
X156288458Y-87224349D01*
X156405739Y-87128934D01*
X156492928Y-87005415D01*
X156523355Y-86919801D01*
X157223435Y-87619881D01*
X157323729Y-87466372D01*
X157323733Y-87466364D01*
X157423587Y-87238717D01*
X157423587Y-87238716D01*
X157484612Y-86997737D01*
X157505140Y-86750000D01*
X157484612Y-86502262D01*
X157423587Y-86261283D01*
X157423587Y-86261282D01*
X157323733Y-86033636D01*
X157323731Y-86033631D01*
X157223435Y-85880117D01*
X156525929Y-86577622D01*
X156523116Y-86564085D01*
X156453558Y-86429844D01*
X156350362Y-86319348D01*
X156221181Y-86240791D01*
X156169994Y-86226449D01*
X156870056Y-85526388D01*
X156823235Y-85489946D01*
X156823234Y-85489945D01*
X156604613Y-85371635D01*
X156604606Y-85371631D01*
X156369495Y-85290917D01*
X156369490Y-85290916D01*
X156124291Y-85250000D01*
X155875709Y-85250000D01*
X155630509Y-85290916D01*
X155630504Y-85290917D01*
X155395393Y-85371631D01*
X155395391Y-85371632D01*
X155176767Y-85489945D01*
X155129942Y-85526388D01*
X155828432Y-86224878D01*
X155711542Y-86275651D01*
X155594261Y-86371066D01*
X155507072Y-86494585D01*
X155476644Y-86580198D01*
X154776563Y-85880117D01*
X154676268Y-86033631D01*
X154676266Y-86033636D01*
X154576412Y-86261282D01*
X154576412Y-86261283D01*
X154515387Y-86502262D01*
X154494859Y-86750000D01*
X154515387Y-86997737D01*
X154576412Y-87238716D01*
X154576412Y-87238717D01*
X154676266Y-87466363D01*
X154676268Y-87466368D01*
X154776563Y-87619881D01*
X155474070Y-86922373D01*
X155476884Y-86935915D01*
X155546442Y-87070156D01*
X155649638Y-87180652D01*
X155778819Y-87259209D01*
X155830002Y-87273549D01*
X155129942Y-87973610D01*
X155176763Y-88010052D01*
X155176769Y-88010056D01*
X155384496Y-88122472D01*
X155446126Y-88178486D01*
X155474665Y-88256725D01*
X155463576Y-88339266D01*
X155415398Y-88407198D01*
X155341170Y-88444960D01*
X155301681Y-88449500D01*
X152448319Y-88449500D01*
X152367457Y-88429569D01*
X152305120Y-88374343D01*
X152275588Y-88296473D01*
X152285626Y-88213799D01*
X152332936Y-88145259D01*
X152365504Y-88122472D01*
X152573232Y-88010054D01*
X152573234Y-88010053D01*
X152620056Y-87973610D01*
X151921567Y-87275121D01*
X152038458Y-87224349D01*
X152155739Y-87128934D01*
X152242928Y-87005415D01*
X152273355Y-86919801D01*
X152973435Y-87619881D01*
X153073729Y-87466372D01*
X153073733Y-87466364D01*
X153173587Y-87238717D01*
X153173587Y-87238716D01*
X153234612Y-86997737D01*
X153255140Y-86750000D01*
X153234612Y-86502262D01*
X153173587Y-86261283D01*
X153173587Y-86261282D01*
X153073733Y-86033636D01*
X153073731Y-86033631D01*
X152973435Y-85880117D01*
X152275929Y-86577622D01*
X152273116Y-86564085D01*
X152203558Y-86429844D01*
X152100362Y-86319348D01*
X151971181Y-86240791D01*
X151919994Y-86226449D01*
X152620056Y-85526388D01*
X152573235Y-85489946D01*
X152573234Y-85489945D01*
X152354613Y-85371635D01*
X152354606Y-85371631D01*
X152119495Y-85290917D01*
X152119490Y-85290916D01*
X151874291Y-85250000D01*
X151625709Y-85250000D01*
X151380509Y-85290916D01*
X151380504Y-85290917D01*
X151145393Y-85371631D01*
X151145391Y-85371632D01*
X150926767Y-85489945D01*
X150879942Y-85526388D01*
X151578432Y-86224878D01*
X151461542Y-86275651D01*
X151344261Y-86371066D01*
X151257072Y-86494585D01*
X151226644Y-86580198D01*
X150526563Y-85880117D01*
X150426268Y-86033631D01*
X150426266Y-86033636D01*
X150326412Y-86261282D01*
X150326412Y-86261283D01*
X150265387Y-86502262D01*
X150244859Y-86750000D01*
X150265387Y-86997737D01*
X150326412Y-87238716D01*
X150326412Y-87238717D01*
X150426266Y-87466363D01*
X150426268Y-87466368D01*
X150526563Y-87619881D01*
X151224070Y-86922373D01*
X151226884Y-86935915D01*
X151296442Y-87070156D01*
X151399638Y-87180652D01*
X151528819Y-87259209D01*
X151580002Y-87273549D01*
X150879942Y-87973610D01*
X150926763Y-88010052D01*
X150926769Y-88010056D01*
X151134496Y-88122472D01*
X151196126Y-88178486D01*
X151224665Y-88256725D01*
X151213576Y-88339266D01*
X151165398Y-88407198D01*
X151091170Y-88444960D01*
X151051681Y-88449500D01*
X147949371Y-88449500D01*
X147868509Y-88429569D01*
X147806172Y-88374343D01*
X147776640Y-88296473D01*
X147786678Y-88213799D01*
X147833988Y-88145259D01*
X147866556Y-88122472D01*
X147941803Y-88081749D01*
X148073509Y-88010474D01*
X148073513Y-88010470D01*
X148073516Y-88010469D01*
X148230146Y-87888557D01*
X148269744Y-87857738D01*
X148438164Y-87674785D01*
X148438165Y-87674782D01*
X148438168Y-87674780D01*
X148566207Y-87478800D01*
X148574173Y-87466607D01*
X148674063Y-87238881D01*
X148735108Y-86997821D01*
X148755643Y-86750000D01*
X148735108Y-86502179D01*
X148674063Y-86261119D01*
X148574173Y-86033393D01*
X148574172Y-86033391D01*
X148438168Y-85825219D01*
X148269748Y-85642266D01*
X148269740Y-85642258D01*
X148073516Y-85489530D01*
X148073507Y-85489524D01*
X147854820Y-85371176D01*
X147854809Y-85371171D01*
X147619619Y-85290430D01*
X147619614Y-85290429D01*
X147374335Y-85249500D01*
X147125665Y-85249500D01*
X146929441Y-85282243D01*
X146880385Y-85290429D01*
X146880380Y-85290430D01*
X146645190Y-85371171D01*
X146645179Y-85371176D01*
X146426492Y-85489524D01*
X146426483Y-85489530D01*
X146230259Y-85642258D01*
X146230251Y-85642266D01*
X146061831Y-85825219D01*
X145925827Y-86033391D01*
X145825936Y-86261121D01*
X145764892Y-86502178D01*
X145744357Y-86750000D01*
X145764892Y-86997821D01*
X145825936Y-87238878D01*
X145925827Y-87466608D01*
X146061831Y-87674780D01*
X146230251Y-87857733D01*
X146230259Y-87857741D01*
X146426483Y-88010469D01*
X146426488Y-88010472D01*
X146426491Y-88010474D01*
X146484482Y-88041857D01*
X146633444Y-88122472D01*
X146695074Y-88178486D01*
X146723613Y-88256726D01*
X146712524Y-88339266D01*
X146664346Y-88407198D01*
X146590117Y-88444960D01*
X146550629Y-88449500D01*
X123253113Y-88449500D01*
X123246904Y-88449278D01*
X123020544Y-88433089D01*
X122995978Y-88429557D01*
X122783338Y-88383299D01*
X122759542Y-88376311D01*
X122632877Y-88329068D01*
X122555666Y-88300270D01*
X122533084Y-88289957D01*
X122342100Y-88185672D01*
X122321225Y-88172257D01*
X122147025Y-88041852D01*
X122128268Y-88025600D01*
X121974399Y-87871731D01*
X121958147Y-87852975D01*
X121827740Y-87678771D01*
X121814327Y-87657899D01*
X121710042Y-87466915D01*
X121699729Y-87444333D01*
X121669412Y-87363049D01*
X121623685Y-87240448D01*
X121616702Y-87216670D01*
X121570440Y-87004010D01*
X121566910Y-86979460D01*
X121553210Y-86787886D01*
X121550722Y-86753095D01*
X121550500Y-86746887D01*
X121550500Y-86057952D01*
X131475072Y-86057952D01*
X131475149Y-86073617D01*
X131478967Y-86107944D01*
X131479500Y-86117567D01*
X131479500Y-86925742D01*
X131494924Y-87077432D01*
X131494926Y-87077442D01*
X131555838Y-87271582D01*
X131555843Y-87271593D01*
X131654590Y-87449502D01*
X131654593Y-87449506D01*
X131787127Y-87603889D01*
X131787129Y-87603890D01*
X131787131Y-87603891D01*
X131787134Y-87603895D01*
X131948042Y-87728448D01*
X132130729Y-87818060D01*
X132327715Y-87869063D01*
X132380325Y-87871731D01*
X132530934Y-87879369D01*
X132530934Y-87879368D01*
X132530936Y-87879369D01*
X132732071Y-87848556D01*
X132922887Y-87777886D01*
X133002202Y-87728449D01*
X133095565Y-87670256D01*
X133095566Y-87670254D01*
X133095571Y-87670252D01*
X133243053Y-87530059D01*
X133278731Y-87478797D01*
X133341280Y-87423817D01*
X133388672Y-87407332D01*
X133506445Y-87384679D01*
X133537888Y-87378632D01*
X133570753Y-87375500D01*
X140029247Y-87375500D01*
X140062112Y-87378632D01*
X140116072Y-87389010D01*
X140208083Y-87406708D01*
X140283724Y-87441553D01*
X140307239Y-87464235D01*
X140309276Y-87466608D01*
X140427129Y-87603890D01*
X140427134Y-87603895D01*
X140588042Y-87728448D01*
X140770729Y-87818060D01*
X140967715Y-87869063D01*
X141020325Y-87871731D01*
X141170934Y-87879369D01*
X141170934Y-87879368D01*
X141170936Y-87879369D01*
X141372071Y-87848556D01*
X141562887Y-87777886D01*
X141642202Y-87728449D01*
X141735565Y-87670256D01*
X141735566Y-87670254D01*
X141735571Y-87670252D01*
X141883053Y-87530059D01*
X141999295Y-87363049D01*
X142079540Y-87176058D01*
X142101303Y-87070156D01*
X142120499Y-86976747D01*
X142120500Y-86976740D01*
X142120500Y-86061455D01*
X142120651Y-86057952D01*
X142122359Y-86018382D01*
X142120932Y-86004111D01*
X142024046Y-85035237D01*
X142021216Y-85013307D01*
X142020500Y-85002163D01*
X142020500Y-83920200D01*
X142023040Y-83890575D01*
X142024041Y-83884775D01*
X142024045Y-83884763D01*
X142114885Y-82976350D01*
X142116233Y-82967503D01*
X142120500Y-82946741D01*
X142120500Y-82924546D01*
X142120932Y-82915884D01*
X142122472Y-82900486D01*
X142123130Y-82893909D01*
X142123659Y-82886733D01*
X142124157Y-82819947D01*
X142124016Y-82819260D01*
X142120500Y-82784454D01*
X142120500Y-81694257D01*
X142105075Y-81542567D01*
X142105073Y-81542557D01*
X142044161Y-81348417D01*
X142044156Y-81348406D01*
X141945409Y-81170497D01*
X141945406Y-81170493D01*
X141812872Y-81016110D01*
X141812870Y-81016109D01*
X141812868Y-81016107D01*
X141812866Y-81016105D01*
X141651958Y-80891552D01*
X141651956Y-80891551D01*
X141651955Y-80891550D01*
X141469271Y-80801940D01*
X141402238Y-80784584D01*
X141272285Y-80750937D01*
X141272283Y-80750936D01*
X141182142Y-80746365D01*
X141102394Y-80722364D01*
X141042934Y-80664051D01*
X141017384Y-80584785D01*
X141028705Y-80509734D01*
X141059618Y-80429940D01*
X141093255Y-80250000D01*
X145744357Y-80250000D01*
X145764892Y-80497821D01*
X145825937Y-80738881D01*
X145845984Y-80784584D01*
X145925827Y-80966608D01*
X146061831Y-81174780D01*
X146230251Y-81357733D01*
X146230259Y-81357741D01*
X146426483Y-81510469D01*
X146426492Y-81510475D01*
X146645179Y-81628823D01*
X146645190Y-81628828D01*
X146878964Y-81709083D01*
X146880386Y-81709571D01*
X147125665Y-81750500D01*
X147125669Y-81750500D01*
X147374331Y-81750500D01*
X147374335Y-81750500D01*
X147619614Y-81709571D01*
X147854810Y-81628828D01*
X147854815Y-81628825D01*
X147854820Y-81628823D01*
X148073507Y-81510475D01*
X148073516Y-81510469D01*
X148269740Y-81357741D01*
X148269739Y-81357741D01*
X148269744Y-81357738D01*
X148438164Y-81174785D01*
X148438165Y-81174782D01*
X148438168Y-81174780D01*
X148574172Y-80966608D01*
X148574173Y-80966607D01*
X148674063Y-80738881D01*
X148735108Y-80497821D01*
X148755643Y-80250000D01*
X150244859Y-80250000D01*
X150265387Y-80497737D01*
X150326412Y-80738716D01*
X150326412Y-80738717D01*
X150426266Y-80966363D01*
X150426268Y-80966368D01*
X150526563Y-81119881D01*
X151224070Y-80422373D01*
X151226884Y-80435915D01*
X151296442Y-80570156D01*
X151399638Y-80680652D01*
X151528819Y-80759209D01*
X151580002Y-80773549D01*
X150879942Y-81473610D01*
X150926763Y-81510052D01*
X150926769Y-81510056D01*
X151145381Y-81628362D01*
X151145393Y-81628368D01*
X151380504Y-81709082D01*
X151380509Y-81709083D01*
X151625709Y-81750000D01*
X151874291Y-81750000D01*
X152119490Y-81709083D01*
X152119495Y-81709082D01*
X152354606Y-81628368D01*
X152354618Y-81628362D01*
X152573232Y-81510054D01*
X152573234Y-81510053D01*
X152620056Y-81473610D01*
X151921567Y-80775121D01*
X152038458Y-80724349D01*
X152155739Y-80628934D01*
X152242928Y-80505415D01*
X152273355Y-80419801D01*
X152973435Y-81119881D01*
X153073729Y-80966372D01*
X153073733Y-80966364D01*
X153173587Y-80738717D01*
X153173587Y-80738716D01*
X153234612Y-80497737D01*
X153255140Y-80250000D01*
X154494859Y-80250000D01*
X154515387Y-80497737D01*
X154576412Y-80738716D01*
X154576412Y-80738717D01*
X154676266Y-80966363D01*
X154676268Y-80966368D01*
X154776563Y-81119881D01*
X155474070Y-80422373D01*
X155476884Y-80435915D01*
X155546442Y-80570156D01*
X155649638Y-80680652D01*
X155778819Y-80759209D01*
X155830002Y-80773549D01*
X155129942Y-81473610D01*
X155176763Y-81510052D01*
X155176769Y-81510056D01*
X155395381Y-81628362D01*
X155395393Y-81628368D01*
X155630504Y-81709082D01*
X155630509Y-81709083D01*
X155875709Y-81750000D01*
X156124291Y-81750000D01*
X156369490Y-81709083D01*
X156369495Y-81709082D01*
X156604606Y-81628368D01*
X156604618Y-81628362D01*
X156823232Y-81510054D01*
X156823234Y-81510053D01*
X156870056Y-81473610D01*
X156171567Y-80775121D01*
X156288458Y-80724349D01*
X156405739Y-80628934D01*
X156492928Y-80505415D01*
X156523355Y-80419801D01*
X157223435Y-81119881D01*
X157323729Y-80966372D01*
X157323733Y-80966364D01*
X157423587Y-80738717D01*
X157423587Y-80738716D01*
X157484612Y-80497737D01*
X157505140Y-80250000D01*
X158994357Y-80250000D01*
X159014892Y-80497821D01*
X159075937Y-80738881D01*
X159095984Y-80784584D01*
X159175827Y-80966608D01*
X159311831Y-81174780D01*
X159480251Y-81357733D01*
X159480259Y-81357741D01*
X159676483Y-81510469D01*
X159676492Y-81510475D01*
X159895179Y-81628823D01*
X159895190Y-81628828D01*
X160128964Y-81709083D01*
X160130386Y-81709571D01*
X160375665Y-81750500D01*
X160375669Y-81750500D01*
X160624331Y-81750500D01*
X160624335Y-81750500D01*
X160869614Y-81709571D01*
X161104810Y-81628828D01*
X161104815Y-81628825D01*
X161104820Y-81628823D01*
X161323507Y-81510475D01*
X161323516Y-81510469D01*
X161519740Y-81357741D01*
X161519739Y-81357741D01*
X161519744Y-81357738D01*
X161688164Y-81174785D01*
X161688165Y-81174782D01*
X161688168Y-81174780D01*
X161824172Y-80966608D01*
X161824173Y-80966607D01*
X161924063Y-80738881D01*
X161985108Y-80497821D01*
X162005643Y-80250000D01*
X161985108Y-80002179D01*
X161924063Y-79761119D01*
X161824173Y-79533393D01*
X161756587Y-79429944D01*
X161688168Y-79325219D01*
X161519748Y-79142266D01*
X161519740Y-79142258D01*
X161323516Y-78989530D01*
X161323507Y-78989524D01*
X161104820Y-78871176D01*
X161104809Y-78871171D01*
X160869619Y-78790430D01*
X160869614Y-78790429D01*
X160624335Y-78749500D01*
X160375665Y-78749500D01*
X160179441Y-78782243D01*
X160130385Y-78790429D01*
X160130380Y-78790430D01*
X159895190Y-78871171D01*
X159895179Y-78871176D01*
X159676492Y-78989524D01*
X159676483Y-78989530D01*
X159480259Y-79142258D01*
X159480251Y-79142266D01*
X159311831Y-79325219D01*
X159175827Y-79533391D01*
X159075936Y-79761121D01*
X159014892Y-80002178D01*
X158997569Y-80211242D01*
X158994357Y-80250000D01*
X157505140Y-80250000D01*
X157484612Y-80002262D01*
X157423587Y-79761283D01*
X157423587Y-79761282D01*
X157323733Y-79533636D01*
X157323731Y-79533631D01*
X157223435Y-79380117D01*
X156525929Y-80077622D01*
X156523116Y-80064085D01*
X156453558Y-79929844D01*
X156350362Y-79819348D01*
X156221181Y-79740791D01*
X156169994Y-79726449D01*
X156870056Y-79026388D01*
X156823235Y-78989946D01*
X156823234Y-78989945D01*
X156604613Y-78871635D01*
X156604606Y-78871631D01*
X156369495Y-78790917D01*
X156369490Y-78790916D01*
X156124291Y-78750000D01*
X155875709Y-78750000D01*
X155630509Y-78790916D01*
X155630504Y-78790917D01*
X155395393Y-78871631D01*
X155395391Y-78871632D01*
X155176767Y-78989945D01*
X155129942Y-79026388D01*
X155828432Y-79724878D01*
X155711542Y-79775651D01*
X155594261Y-79871066D01*
X155507072Y-79994585D01*
X155476644Y-80080198D01*
X154776563Y-79380117D01*
X154676268Y-79533631D01*
X154676266Y-79533636D01*
X154576412Y-79761282D01*
X154576412Y-79761283D01*
X154515387Y-80002262D01*
X154494859Y-80250000D01*
X153255140Y-80250000D01*
X153234612Y-80002262D01*
X153173587Y-79761283D01*
X153173587Y-79761282D01*
X153073733Y-79533636D01*
X153073731Y-79533631D01*
X152973435Y-79380117D01*
X152275929Y-80077622D01*
X152273116Y-80064085D01*
X152203558Y-79929844D01*
X152100362Y-79819348D01*
X151971181Y-79740791D01*
X151919994Y-79726449D01*
X152620056Y-79026388D01*
X152573235Y-78989946D01*
X152573234Y-78989945D01*
X152354613Y-78871635D01*
X152354606Y-78871631D01*
X152119495Y-78790917D01*
X152119490Y-78790916D01*
X151874291Y-78750000D01*
X151625709Y-78750000D01*
X151380509Y-78790916D01*
X151380504Y-78790917D01*
X151145393Y-78871631D01*
X151145391Y-78871632D01*
X150926767Y-78989945D01*
X150879942Y-79026388D01*
X151578432Y-79724878D01*
X151461542Y-79775651D01*
X151344261Y-79871066D01*
X151257072Y-79994585D01*
X151226644Y-80080198D01*
X150526563Y-79380117D01*
X150426268Y-79533631D01*
X150426266Y-79533636D01*
X150326412Y-79761282D01*
X150326412Y-79761283D01*
X150265387Y-80002262D01*
X150244859Y-80250000D01*
X148755643Y-80250000D01*
X148735108Y-80002179D01*
X148674063Y-79761119D01*
X148574173Y-79533393D01*
X148506587Y-79429944D01*
X148438168Y-79325219D01*
X148269748Y-79142266D01*
X148269740Y-79142258D01*
X148073516Y-78989530D01*
X148073507Y-78989524D01*
X147854820Y-78871176D01*
X147854809Y-78871171D01*
X147619619Y-78790430D01*
X147619614Y-78790429D01*
X147374335Y-78749500D01*
X147125665Y-78749500D01*
X146929441Y-78782243D01*
X146880385Y-78790429D01*
X146880380Y-78790430D01*
X146645190Y-78871171D01*
X146645179Y-78871176D01*
X146426492Y-78989524D01*
X146426483Y-78989530D01*
X146230259Y-79142258D01*
X146230251Y-79142266D01*
X146061831Y-79325219D01*
X145925827Y-79533391D01*
X145825936Y-79761121D01*
X145764892Y-80002178D01*
X145747569Y-80211242D01*
X145744357Y-80250000D01*
X141093255Y-80250000D01*
X141100500Y-80211243D01*
X141100500Y-79988757D01*
X141059618Y-79770060D01*
X140979247Y-79562599D01*
X140862124Y-79373438D01*
X140712236Y-79209019D01*
X140534689Y-79074942D01*
X140534688Y-79074941D01*
X140534685Y-79074939D01*
X140335531Y-78975772D01*
X140335528Y-78975771D01*
X140121536Y-78914885D01*
X140121535Y-78914884D01*
X140121532Y-78914884D01*
X139955510Y-78899500D01*
X139955503Y-78899500D01*
X139569337Y-78899500D01*
X139488475Y-78879569D01*
X139446301Y-78848537D01*
X139305107Y-78707343D01*
X138869898Y-78272135D01*
X138867145Y-78269251D01*
X138812241Y-78209024D01*
X138812239Y-78209022D01*
X138812236Y-78209019D01*
X138747186Y-78159896D01*
X138744073Y-78157431D01*
X138681353Y-78105348D01*
X138681351Y-78105346D01*
X138681350Y-78105346D01*
X138672870Y-78100623D01*
X138662240Y-78094702D01*
X138652144Y-78088123D01*
X138634689Y-78074942D01*
X138634683Y-78074938D01*
X138561739Y-78038616D01*
X138558183Y-78036742D01*
X138486991Y-77997088D01*
X138486988Y-77997086D01*
X138486985Y-77997085D01*
X138486980Y-77997083D01*
X138486977Y-77997082D01*
X138466242Y-77990132D01*
X138455104Y-77985518D01*
X138435526Y-77975770D01*
X138435528Y-77975770D01*
X138357131Y-77953464D01*
X138353293Y-77952276D01*
X138276040Y-77926383D01*
X138276029Y-77926381D01*
X138254379Y-77923361D01*
X138242580Y-77920872D01*
X138221536Y-77914885D01*
X138221526Y-77914884D01*
X138140373Y-77907363D01*
X138136383Y-77906900D01*
X138055676Y-77895643D01*
X137985869Y-77898871D01*
X137974283Y-77899407D01*
X137970273Y-77899500D01*
X134944489Y-77899500D01*
X134778467Y-77914884D01*
X134564468Y-77975772D01*
X134365314Y-78074939D01*
X134187763Y-78209019D01*
X134037874Y-78373440D01*
X133920753Y-78562599D01*
X133840383Y-78770055D01*
X133840380Y-78770066D01*
X133799500Y-78988757D01*
X133799500Y-79211242D01*
X133840380Y-79429933D01*
X133840383Y-79429944D01*
X133880459Y-79533391D01*
X133920753Y-79637401D01*
X134037876Y-79826562D01*
X134078447Y-79871066D01*
X134185736Y-79988757D01*
X134187764Y-79990981D01*
X134202702Y-80002262D01*
X134365314Y-80125060D01*
X134538391Y-80211242D01*
X134564472Y-80224229D01*
X134778464Y-80285115D01*
X134944497Y-80300500D01*
X137430664Y-80300500D01*
X137511526Y-80320431D01*
X137553700Y-80351463D01*
X137866287Y-80664051D01*
X138130098Y-80927862D01*
X138132858Y-80930753D01*
X138187764Y-80990981D01*
X138252783Y-81040080D01*
X138255923Y-81042568D01*
X138312970Y-81089939D01*
X138318647Y-81094653D01*
X138337756Y-81105296D01*
X138347863Y-81111881D01*
X138365311Y-81125058D01*
X138438260Y-81161382D01*
X138441791Y-81163244D01*
X138513009Y-81202912D01*
X138513013Y-81202914D01*
X138513015Y-81202915D01*
X138533758Y-81209867D01*
X138544893Y-81214479D01*
X138564472Y-81224229D01*
X138642893Y-81246541D01*
X138646673Y-81247712D01*
X138723968Y-81273619D01*
X138745627Y-81276640D01*
X138757425Y-81279128D01*
X138778464Y-81285115D01*
X138859616Y-81292634D01*
X138863562Y-81293091D01*
X138944319Y-81304357D01*
X139025738Y-81300592D01*
X139029749Y-81300500D01*
X139955498Y-81300500D01*
X139955503Y-81300500D01*
X139960731Y-81300015D01*
X140043085Y-81312394D01*
X140110256Y-81361628D01*
X140146853Y-81436438D01*
X140147234Y-81508297D01*
X140119501Y-81643249D01*
X140119500Y-81643259D01*
X140119500Y-82085249D01*
X140099569Y-82166111D01*
X140044343Y-82228448D01*
X139966473Y-82257980D01*
X139883799Y-82247942D01*
X139878914Y-82246004D01*
X139841284Y-82230417D01*
X139841272Y-82230414D01*
X139727995Y-82215501D01*
X139727983Y-82215500D01*
X139727980Y-82215500D01*
X139652020Y-82215500D01*
X139652016Y-82215500D01*
X139652004Y-82215501D01*
X139538727Y-82230414D01*
X139538718Y-82230416D01*
X139397750Y-82288807D01*
X139276700Y-82381692D01*
X139276692Y-82381700D01*
X139183807Y-82502750D01*
X139125416Y-82643718D01*
X139125414Y-82643727D01*
X139105500Y-82794996D01*
X139105500Y-82795003D01*
X139125414Y-82946272D01*
X139125416Y-82946281D01*
X139183807Y-83087249D01*
X139183808Y-83087250D01*
X139276696Y-83208304D01*
X139397750Y-83301192D01*
X139538720Y-83359584D01*
X139538726Y-83359584D01*
X139538727Y-83359585D01*
X139652004Y-83374498D01*
X139652006Y-83374498D01*
X139652020Y-83374500D01*
X139652027Y-83374500D01*
X139727973Y-83374500D01*
X139727980Y-83374500D01*
X139841280Y-83359584D01*
X139934211Y-83321090D01*
X140016541Y-83308560D01*
X140095267Y-83335726D01*
X140152351Y-83396367D01*
X140173931Y-83464532D01*
X140195484Y-83680060D01*
X140215955Y-83884763D01*
X140216705Y-83890575D01*
X140218784Y-83906694D01*
X140219500Y-83917836D01*
X140219500Y-84999795D01*
X140216961Y-85029410D01*
X140215954Y-85035236D01*
X140177697Y-85417814D01*
X140149820Y-85496291D01*
X140088665Y-85552824D01*
X140008243Y-85574461D01*
X140004561Y-85574500D01*
X133595439Y-85574500D01*
X133514577Y-85554569D01*
X133452240Y-85499343D01*
X133422708Y-85421473D01*
X133422303Y-85417813D01*
X133384045Y-85035237D01*
X133381216Y-85013307D01*
X133380500Y-85002163D01*
X133380500Y-83920200D01*
X133383040Y-83890575D01*
X133384039Y-83884783D01*
X133384045Y-83884763D01*
X133426068Y-83464527D01*
X133453944Y-83386055D01*
X133515099Y-83329522D01*
X133595521Y-83307885D01*
X133665790Y-83321091D01*
X133758720Y-83359584D01*
X133758726Y-83359584D01*
X133758727Y-83359585D01*
X133872004Y-83374498D01*
X133872006Y-83374498D01*
X133872020Y-83374500D01*
X133872027Y-83374500D01*
X133947973Y-83374500D01*
X133947980Y-83374500D01*
X134061280Y-83359584D01*
X134202250Y-83301192D01*
X134323304Y-83208304D01*
X134416192Y-83087250D01*
X134474584Y-82946280D01*
X134480613Y-82900486D01*
X134494500Y-82795003D01*
X134494500Y-82794996D01*
X134474585Y-82643727D01*
X134474584Y-82643726D01*
X134474584Y-82643720D01*
X134416192Y-82502750D01*
X134323304Y-82381696D01*
X134202250Y-82288808D01*
X134202249Y-82288807D01*
X134061281Y-82230416D01*
X134061272Y-82230414D01*
X133947995Y-82215501D01*
X133947983Y-82215500D01*
X133947980Y-82215500D01*
X133872020Y-82215500D01*
X133872016Y-82215500D01*
X133872004Y-82215501D01*
X133758727Y-82230414D01*
X133758715Y-82230417D01*
X133721086Y-82246004D01*
X133638752Y-82258535D01*
X133560026Y-82231368D01*
X133502943Y-82170727D01*
X133480579Y-82090504D01*
X133480500Y-82085249D01*
X133480500Y-81694257D01*
X133465075Y-81542567D01*
X133465073Y-81542557D01*
X133404161Y-81348417D01*
X133404156Y-81348406D01*
X133305409Y-81170497D01*
X133305406Y-81170493D01*
X133172872Y-81016110D01*
X133172870Y-81016109D01*
X133172868Y-81016107D01*
X133172866Y-81016105D01*
X133011958Y-80891552D01*
X133011956Y-80891551D01*
X133011955Y-80891550D01*
X132829271Y-80801940D01*
X132762238Y-80784584D01*
X132632285Y-80750937D01*
X132632283Y-80750936D01*
X132429065Y-80740630D01*
X132429057Y-80740631D01*
X132227931Y-80771443D01*
X132227925Y-80771444D01*
X132037109Y-80842115D01*
X131864434Y-80949743D01*
X131864428Y-80949748D01*
X131716948Y-81089939D01*
X131716948Y-81089940D01*
X131716947Y-81089941D01*
X131713667Y-81094654D01*
X131600704Y-81256951D01*
X131520458Y-81443946D01*
X131479500Y-81643252D01*
X131479500Y-82854727D01*
X131477526Y-82900466D01*
X131477526Y-82900486D01*
X131526084Y-83386055D01*
X131575955Y-83884763D01*
X131576705Y-83890575D01*
X131578784Y-83906693D01*
X131579500Y-83917835D01*
X131579500Y-84999795D01*
X131576962Y-85029408D01*
X131575955Y-85035233D01*
X131575955Y-85035236D01*
X131515253Y-85642262D01*
X131485115Y-85943640D01*
X131483765Y-85952500D01*
X131479501Y-85973250D01*
X131479500Y-85973261D01*
X131479500Y-85995447D01*
X131479068Y-86004111D01*
X131476324Y-86031541D01*
X131476324Y-86031542D01*
X131475072Y-86057952D01*
X121550500Y-86057952D01*
X121550500Y-78749999D01*
X124094540Y-78749999D01*
X124099500Y-78797193D01*
X124114325Y-78938254D01*
X124172820Y-79118281D01*
X124172824Y-79118290D01*
X124267462Y-79282209D01*
X124267465Y-79282213D01*
X124267467Y-79282216D01*
X124267470Y-79282219D01*
X124394128Y-79422887D01*
X124394131Y-79422890D01*
X124470699Y-79478519D01*
X124547270Y-79534151D01*
X124720197Y-79611144D01*
X124905354Y-79650500D01*
X125094646Y-79650500D01*
X125279803Y-79611144D01*
X125452730Y-79534151D01*
X125605871Y-79422888D01*
X125732533Y-79282216D01*
X125827179Y-79118284D01*
X125885674Y-78938256D01*
X125900500Y-78797192D01*
X125905460Y-78750000D01*
X125905460Y-78749999D01*
X125900977Y-78707343D01*
X125900500Y-78698243D01*
X125900500Y-70445072D01*
X125920431Y-70364210D01*
X125951460Y-70322038D01*
X128826957Y-67446540D01*
X128847719Y-67428809D01*
X128855871Y-67422888D01*
X128901911Y-67371753D01*
X128905004Y-67368493D01*
X128920119Y-67353380D01*
X128933545Y-67336800D01*
X128936473Y-67333369D01*
X128982533Y-67282216D01*
X128987569Y-67273491D01*
X129003041Y-67250978D01*
X129009383Y-67243149D01*
X129040628Y-67181824D01*
X129042764Y-67177889D01*
X129077179Y-67118284D01*
X129080291Y-67108701D01*
X129090748Y-67083460D01*
X129095318Y-67074491D01*
X129095320Y-67074488D01*
X129113132Y-67008011D01*
X129114406Y-67003710D01*
X129135674Y-66938256D01*
X129136726Y-66928243D01*
X129141704Y-66901379D01*
X129144313Y-66891646D01*
X129147913Y-66822946D01*
X129148268Y-66818421D01*
X129150500Y-66797192D01*
X129150500Y-66775866D01*
X129150619Y-66771313D01*
X129151194Y-66760325D01*
X129154219Y-66702612D01*
X129152642Y-66692654D01*
X129150500Y-66665437D01*
X129150500Y-66301756D01*
X129150977Y-66292656D01*
X129151887Y-66283994D01*
X129155460Y-66250000D01*
X129135674Y-66061744D01*
X129077179Y-65881716D01*
X129040680Y-65818498D01*
X128982537Y-65717790D01*
X128982535Y-65717787D01*
X128982533Y-65717784D01*
X128855871Y-65577112D01*
X128855868Y-65577109D01*
X128702731Y-65465850D01*
X128702730Y-65465849D01*
X128529803Y-65388856D01*
X128344646Y-65349500D01*
X128155354Y-65349500D01*
X127970197Y-65388856D01*
X127797268Y-65465850D01*
X127644131Y-65577109D01*
X127644128Y-65577112D01*
X127517470Y-65717780D01*
X127517462Y-65717790D01*
X127422824Y-65881709D01*
X127422820Y-65881718D01*
X127364325Y-66061745D01*
X127344540Y-66250000D01*
X127348415Y-66286871D01*
X127337045Y-66369374D01*
X127298405Y-66428095D01*
X124423042Y-69303457D01*
X124402290Y-69321181D01*
X124394134Y-69327107D01*
X124394125Y-69327115D01*
X124348096Y-69378234D01*
X124344965Y-69381534D01*
X124329886Y-69396613D01*
X124329878Y-69396623D01*
X124316460Y-69413191D01*
X124313507Y-69416648D01*
X124267470Y-69467779D01*
X124262424Y-69476519D01*
X124246967Y-69499008D01*
X124240623Y-69506842D01*
X124240614Y-69506856D01*
X124209384Y-69568146D01*
X124207212Y-69572146D01*
X124172822Y-69631713D01*
X124172816Y-69631727D01*
X124169703Y-69641308D01*
X124159262Y-69666518D01*
X124154681Y-69675508D01*
X124154679Y-69675514D01*
X124136877Y-69741947D01*
X124135584Y-69746310D01*
X124114326Y-69811740D01*
X124114325Y-69811744D01*
X124113272Y-69821770D01*
X124108298Y-69848608D01*
X124105688Y-69858347D01*
X124105686Y-69858363D01*
X124102086Y-69927052D01*
X124101729Y-69931588D01*
X124099500Y-69952812D01*
X124099500Y-69974131D01*
X124099381Y-69978685D01*
X124095781Y-70047388D01*
X124097358Y-70057345D01*
X124099500Y-70084563D01*
X124099500Y-78698243D01*
X124099023Y-78707343D01*
X124094540Y-78749999D01*
X121550500Y-78749999D01*
X121550500Y-64780000D01*
X122144341Y-64780000D01*
X122164936Y-65015406D01*
X122226094Y-65243655D01*
X122226097Y-65243663D01*
X122325966Y-65457832D01*
X122331580Y-65465850D01*
X122461505Y-65651401D01*
X122628599Y-65818495D01*
X122628602Y-65818497D01*
X122628603Y-65818498D01*
X122822167Y-65954033D01*
X122822170Y-65954035D01*
X123036337Y-66053903D01*
X123264592Y-66115063D01*
X123264591Y-66115063D01*
X123283530Y-66116719D01*
X123500000Y-66135659D01*
X123735408Y-66115063D01*
X123963663Y-66053903D01*
X124177830Y-65954035D01*
X124371401Y-65818495D01*
X124538495Y-65651401D01*
X124674035Y-65457830D01*
X124773903Y-65243663D01*
X124835063Y-65015408D01*
X124855659Y-64780000D01*
X124835063Y-64544592D01*
X124773903Y-64316337D01*
X124755612Y-64277112D01*
X124674037Y-64102174D01*
X124674035Y-64102171D01*
X124538495Y-63908599D01*
X124538491Y-63908595D01*
X124538489Y-63908592D01*
X124371399Y-63741503D01*
X124244335Y-63652532D01*
X124189528Y-63589826D01*
X124170141Y-63508832D01*
X124190614Y-63428106D01*
X124244335Y-63367468D01*
X124325162Y-63310872D01*
X124371401Y-63278495D01*
X124538495Y-63111401D01*
X124546479Y-63099999D01*
X130194540Y-63099999D01*
X130195594Y-63110032D01*
X130196308Y-63137309D01*
X130195780Y-63147383D01*
X130195780Y-63147386D01*
X130206538Y-63215315D01*
X130207132Y-63219827D01*
X130214325Y-63288252D01*
X130214328Y-63288267D01*
X130217445Y-63297860D01*
X130223814Y-63324389D01*
X130225391Y-63334344D01*
X130225392Y-63334350D01*
X130250035Y-63398545D01*
X130251555Y-63402838D01*
X130259766Y-63428106D01*
X130272821Y-63468284D01*
X130277863Y-63477017D01*
X130289614Y-63501654D01*
X130293229Y-63511070D01*
X130293230Y-63511072D01*
X130330683Y-63568745D01*
X130333063Y-63572628D01*
X130367465Y-63632213D01*
X130367467Y-63632216D01*
X130374213Y-63639708D01*
X130390840Y-63661377D01*
X130396323Y-63669821D01*
X130396328Y-63669827D01*
X130444970Y-63718470D01*
X130448105Y-63721774D01*
X130494128Y-63772887D01*
X130502279Y-63778809D01*
X130523044Y-63796543D01*
X130530176Y-63803675D01*
X130568511Y-63828570D01*
X130571158Y-63830289D01*
X130587874Y-63841144D01*
X130591624Y-63843722D01*
X130647270Y-63884151D01*
X130656477Y-63888250D01*
X130680468Y-63901275D01*
X130688930Y-63906771D01*
X130752835Y-63931301D01*
X130753148Y-63931421D01*
X130757350Y-63933161D01*
X130820197Y-63961144D01*
X130830061Y-63963240D01*
X130856245Y-63970996D01*
X130865650Y-63974607D01*
X130865654Y-63974608D01*
X130903455Y-63980594D01*
X130933596Y-63985368D01*
X130938057Y-63986194D01*
X131005354Y-64000500D01*
X131015437Y-64000500D01*
X131042654Y-64002642D01*
X131044421Y-64002921D01*
X131052612Y-64004219D01*
X131110249Y-64001198D01*
X131121314Y-64000619D01*
X131125868Y-64000500D01*
X131194644Y-64000500D01*
X131194646Y-64000500D01*
X131204502Y-63998404D01*
X131231577Y-63994840D01*
X131241646Y-63994313D01*
X131308103Y-63976505D01*
X131312522Y-63975445D01*
X131318212Y-63974235D01*
X131379803Y-63961144D01*
X131389007Y-63957045D01*
X131414757Y-63947927D01*
X131424488Y-63945320D01*
X131475228Y-63919465D01*
X131554224Y-63900500D01*
X138675500Y-63900500D01*
X138756362Y-63920431D01*
X138818699Y-63975657D01*
X138848231Y-64053527D01*
X138849500Y-64074500D01*
X138849500Y-70320539D01*
X138843573Y-70365567D01*
X138841780Y-70372257D01*
X138841778Y-70372271D01*
X138838178Y-70440952D01*
X138837821Y-70445490D01*
X138830632Y-70513904D01*
X138830632Y-70513907D01*
X138831686Y-70523940D01*
X138832400Y-70551217D01*
X138831872Y-70561291D01*
X138831872Y-70561294D01*
X138842630Y-70629223D01*
X138843224Y-70633735D01*
X138850417Y-70702160D01*
X138850420Y-70702175D01*
X138853537Y-70711768D01*
X138859906Y-70738297D01*
X138861483Y-70748252D01*
X138861484Y-70748258D01*
X138886127Y-70812453D01*
X138887647Y-70816746D01*
X138897852Y-70848150D01*
X138908913Y-70882192D01*
X138913955Y-70890925D01*
X138925709Y-70915567D01*
X138929322Y-70924980D01*
X138966775Y-70982653D01*
X138969155Y-70986536D01*
X139003557Y-71046121D01*
X139003559Y-71046124D01*
X139010305Y-71053616D01*
X139026932Y-71075285D01*
X139032415Y-71083729D01*
X139032420Y-71083735D01*
X139081062Y-71132378D01*
X139084197Y-71135682D01*
X139130220Y-71186795D01*
X139138371Y-71192717D01*
X139159136Y-71210451D01*
X139166268Y-71217583D01*
X139223966Y-71255052D01*
X139227716Y-71257630D01*
X139283362Y-71298059D01*
X139292569Y-71302158D01*
X139316560Y-71315183D01*
X139325022Y-71320679D01*
X139389240Y-71345329D01*
X139393442Y-71347069D01*
X139456289Y-71375052D01*
X139466153Y-71377148D01*
X139492337Y-71384904D01*
X139501742Y-71388515D01*
X139501746Y-71388516D01*
X139539547Y-71394502D01*
X139569688Y-71399276D01*
X139574149Y-71400102D01*
X139641446Y-71414408D01*
X139651529Y-71414408D01*
X139678746Y-71416550D01*
X139680513Y-71416829D01*
X139688704Y-71418127D01*
X139746341Y-71415106D01*
X139757406Y-71414527D01*
X139761960Y-71414408D01*
X139830736Y-71414408D01*
X139830738Y-71414408D01*
X139840594Y-71412312D01*
X139867669Y-71408748D01*
X139877738Y-71408221D01*
X139944195Y-71390413D01*
X139948614Y-71389353D01*
X139954304Y-71388143D01*
X140015895Y-71375052D01*
X140025099Y-71370953D01*
X140050849Y-71361835D01*
X140060580Y-71359228D01*
X140121917Y-71327974D01*
X140125968Y-71326042D01*
X140188822Y-71298059D01*
X140196968Y-71292139D01*
X140220259Y-71277867D01*
X140229241Y-71273291D01*
X140282738Y-71229968D01*
X140286279Y-71227250D01*
X140341963Y-71186796D01*
X140345504Y-71182862D01*
X140351952Y-71176415D01*
X140355862Y-71172893D01*
X140355871Y-71172888D01*
X140401903Y-71121762D01*
X140404996Y-71118502D01*
X140420120Y-71103380D01*
X140433553Y-71086789D01*
X140436502Y-71083337D01*
X140482529Y-71032221D01*
X140482529Y-71032219D01*
X140482533Y-71032216D01*
X140487573Y-71023484D01*
X140503042Y-71000979D01*
X140509383Y-70993149D01*
X140509385Y-70993146D01*
X140532340Y-70948091D01*
X140540621Y-70931838D01*
X140542786Y-70927852D01*
X140542794Y-70927838D01*
X140577179Y-70868284D01*
X140580291Y-70858701D01*
X140590748Y-70833460D01*
X140595320Y-70824488D01*
X140613134Y-70758003D01*
X140614400Y-70753727D01*
X140635674Y-70688256D01*
X140636727Y-70678227D01*
X140641701Y-70651389D01*
X140644313Y-70641645D01*
X140647913Y-70572946D01*
X140648268Y-70568421D01*
X140650500Y-70547192D01*
X140650500Y-70525866D01*
X140650619Y-70521313D01*
X140651194Y-70510325D01*
X140654219Y-70452612D01*
X140652642Y-70442654D01*
X140650500Y-70415437D01*
X140650500Y-69874500D01*
X140670431Y-69793638D01*
X140725657Y-69731301D01*
X140803527Y-69701769D01*
X140824500Y-69700500D01*
X146876974Y-69700500D01*
X146957836Y-69720431D01*
X147020173Y-69775657D01*
X147049705Y-69853527D01*
X147039667Y-69936201D01*
X146992357Y-70004741D01*
X146979249Y-70015269D01*
X146894128Y-70077112D01*
X146767470Y-70217780D01*
X146767462Y-70217790D01*
X146672824Y-70381709D01*
X146672820Y-70381718D01*
X146614325Y-70561745D01*
X146594540Y-70750000D01*
X146606688Y-70865589D01*
X146595318Y-70948091D01*
X146546910Y-71015860D01*
X146472554Y-71053369D01*
X146389282Y-71052027D01*
X146371395Y-71046261D01*
X146344536Y-71035972D01*
X146344534Y-71035971D01*
X146303092Y-71022255D01*
X146295040Y-71019139D01*
X146279805Y-71012356D01*
X146094646Y-70973000D01*
X145905354Y-70973000D01*
X145720197Y-71012356D01*
X145627534Y-71053613D01*
X145547268Y-71089350D01*
X145394131Y-71200609D01*
X145394128Y-71200612D01*
X145267470Y-71341280D01*
X145267462Y-71341290D01*
X145172824Y-71505209D01*
X145172820Y-71505218D01*
X145114325Y-71685245D01*
X145094540Y-71873500D01*
X145114325Y-72061754D01*
X145172820Y-72241781D01*
X145172824Y-72241790D01*
X145267462Y-72405709D01*
X145267465Y-72405713D01*
X145267467Y-72405716D01*
X145267470Y-72405719D01*
X145394128Y-72546387D01*
X145394131Y-72546390D01*
X145409905Y-72557850D01*
X145547270Y-72657651D01*
X145720197Y-72734644D01*
X145905354Y-72774000D01*
X146094646Y-72774000D01*
X146219719Y-72747415D01*
X146302956Y-72750098D01*
X146375413Y-72791157D01*
X146420490Y-72861185D01*
X146421377Y-72863840D01*
X146422820Y-72868282D01*
X146422824Y-72868290D01*
X146517462Y-73032209D01*
X146517465Y-73032213D01*
X146517467Y-73032216D01*
X146517470Y-73032219D01*
X146644128Y-73172887D01*
X146644131Y-73172890D01*
X146720699Y-73228519D01*
X146797270Y-73284151D01*
X146970197Y-73361144D01*
X147155354Y-73400500D01*
X147344647Y-73400500D01*
X147529798Y-73361145D01*
X147529797Y-73361145D01*
X147529803Y-73361144D01*
X147565872Y-73345084D01*
X147593245Y-73335542D01*
X147608293Y-73331668D01*
X148130973Y-73113885D01*
X148197896Y-73100500D01*
X150929191Y-73100500D01*
X151010053Y-73120431D01*
X151052228Y-73151463D01*
X152655116Y-74754351D01*
X152692973Y-74811137D01*
X152908569Y-75334725D01*
X152908574Y-75334735D01*
X152908573Y-75334734D01*
X152916688Y-75351788D01*
X152920871Y-75362284D01*
X152922821Y-75368284D01*
X153017467Y-75532216D01*
X153017470Y-75532219D01*
X153144128Y-75672887D01*
X153144131Y-75672890D01*
X153297270Y-75784151D01*
X153297273Y-75784153D01*
X153347740Y-75806623D01*
X153413504Y-75857720D01*
X153447989Y-75933527D01*
X153443295Y-76016676D01*
X153400497Y-76088120D01*
X153343219Y-76126473D01*
X153265280Y-76158565D01*
X153265279Y-76158566D01*
X153216389Y-76181832D01*
X153209078Y-76186239D01*
X153208687Y-76185591D01*
X153187907Y-76197755D01*
X153147271Y-76215848D01*
X153147266Y-76215850D01*
X152994131Y-76327109D01*
X152994128Y-76327112D01*
X152867470Y-76467780D01*
X152867462Y-76467790D01*
X152772824Y-76631709D01*
X152772820Y-76631718D01*
X152714325Y-76811745D01*
X152694540Y-77000000D01*
X152714325Y-77188254D01*
X152772820Y-77368281D01*
X152772824Y-77368290D01*
X152867462Y-77532209D01*
X152867465Y-77532213D01*
X152867467Y-77532216D01*
X152867470Y-77532219D01*
X152994128Y-77672887D01*
X152994131Y-77672890D01*
X153070699Y-77728519D01*
X153147270Y-77784151D01*
X153320197Y-77861144D01*
X153505354Y-77900500D01*
X153694646Y-77900500D01*
X153879803Y-77861144D01*
X154052730Y-77784151D01*
X154205871Y-77672888D01*
X154295694Y-77573129D01*
X154364611Y-77526375D01*
X154447364Y-77517002D01*
X154524993Y-77547160D01*
X154554303Y-77573127D01*
X154644128Y-77672887D01*
X154644129Y-77672888D01*
X154644131Y-77672890D01*
X154720699Y-77728519D01*
X154797270Y-77784151D01*
X154970197Y-77861144D01*
X155155354Y-77900500D01*
X155344646Y-77900500D01*
X155529803Y-77861144D01*
X155702730Y-77784151D01*
X155855871Y-77672888D01*
X155982533Y-77532216D01*
X156077179Y-77368284D01*
X156078067Y-77365548D01*
X156089323Y-77340612D01*
X156088662Y-77340283D01*
X156091429Y-77334727D01*
X156229258Y-77000000D01*
X156307024Y-76811137D01*
X156344879Y-76754354D01*
X156392747Y-76706487D01*
X156401310Y-76698977D01*
X156428282Y-76678282D01*
X156524536Y-76552841D01*
X156585044Y-76406762D01*
X156600500Y-76289361D01*
X156605682Y-76250000D01*
X156601244Y-76216292D01*
X156600500Y-76204932D01*
X156600500Y-58947898D01*
X156613885Y-58880975D01*
X156616375Y-58875000D01*
X156831669Y-58358292D01*
X156849757Y-58307369D01*
X156849899Y-58306394D01*
X156856591Y-58277760D01*
X156865611Y-58250000D01*
X156885674Y-58188256D01*
X156905460Y-58000000D01*
X156885674Y-57811744D01*
X156827179Y-57631716D01*
X156769733Y-57532216D01*
X156732537Y-57467790D01*
X156732535Y-57467787D01*
X156732533Y-57467784D01*
X156605871Y-57327112D01*
X156605868Y-57327109D01*
X156452731Y-57215850D01*
X156452730Y-57215849D01*
X156279803Y-57138856D01*
X156094646Y-57099500D01*
X155905354Y-57099500D01*
X155720197Y-57138856D01*
X155547268Y-57215850D01*
X155394131Y-57327109D01*
X155394128Y-57327112D01*
X155267470Y-57467780D01*
X155267462Y-57467790D01*
X155172824Y-57631709D01*
X155172820Y-57631718D01*
X155114325Y-57811745D01*
X155094540Y-57999999D01*
X155094540Y-58000000D01*
X155101029Y-58061745D01*
X155111074Y-58157312D01*
X155099705Y-58239815D01*
X155051297Y-58307583D01*
X154976940Y-58345093D01*
X154938027Y-58349500D01*
X154905354Y-58349500D01*
X154720197Y-58388856D01*
X154547268Y-58465850D01*
X154394131Y-58577109D01*
X154394128Y-58577112D01*
X154267470Y-58717780D01*
X154267462Y-58717790D01*
X154172824Y-58881709D01*
X154172820Y-58881718D01*
X154114325Y-59061745D01*
X154094540Y-59250000D01*
X154114325Y-59438254D01*
X154162747Y-59587283D01*
X154164257Y-59592475D01*
X154168326Y-59608279D01*
X154168334Y-59608302D01*
X154386115Y-60130975D01*
X154399500Y-60197898D01*
X154399500Y-70675419D01*
X154379569Y-70756281D01*
X154324343Y-70818618D01*
X154246473Y-70848150D01*
X154163799Y-70838112D01*
X154159249Y-70836313D01*
X153811136Y-70692972D01*
X153754350Y-70655115D01*
X153456484Y-70357249D01*
X153448973Y-70348683D01*
X153428284Y-70321721D01*
X153428282Y-70321718D01*
X153360643Y-70269817D01*
X153308625Y-70204780D01*
X153292788Y-70123018D01*
X153293518Y-70113622D01*
X153305460Y-70000000D01*
X153285674Y-69811744D01*
X153227179Y-69631716D01*
X153227175Y-69631709D01*
X153132537Y-69467790D01*
X153132535Y-69467787D01*
X153132533Y-69467784D01*
X153005871Y-69327112D01*
X153005868Y-69327109D01*
X152852729Y-69215848D01*
X152827221Y-69204491D01*
X152804840Y-69191981D01*
X152804793Y-69192062D01*
X152800630Y-69189628D01*
X152799680Y-69189097D01*
X152799435Y-69188929D01*
X152799428Y-69188925D01*
X152799427Y-69188924D01*
X152670159Y-69113344D01*
X152289447Y-68890751D01*
X152254234Y-68863578D01*
X151912150Y-68521493D01*
X151908547Y-68517665D01*
X151867930Y-68471818D01*
X151867929Y-68471817D01*
X151817488Y-68436999D01*
X151813286Y-68433907D01*
X151765057Y-68396121D01*
X151759960Y-68393828D01*
X151732527Y-68378355D01*
X151727930Y-68375182D01*
X151727929Y-68375181D01*
X151727926Y-68375180D01*
X151705552Y-68366695D01*
X151670644Y-68353456D01*
X151665809Y-68351453D01*
X151609932Y-68326305D01*
X151604423Y-68325295D01*
X151574093Y-68316840D01*
X151568870Y-68314859D01*
X151529990Y-68310138D01*
X151508055Y-68307474D01*
X151502886Y-68306688D01*
X151480942Y-68302666D01*
X151442610Y-68295642D01*
X151442598Y-68295642D01*
X151403895Y-68297983D01*
X151381454Y-68299341D01*
X151376209Y-68299500D01*
X140824500Y-68299500D01*
X140743638Y-68279569D01*
X140681301Y-68224343D01*
X140651769Y-68146473D01*
X140650500Y-68125500D01*
X140650500Y-64074500D01*
X140670431Y-63993638D01*
X140725657Y-63931301D01*
X140803527Y-63901769D01*
X140824500Y-63900500D01*
X144665437Y-63900500D01*
X144692654Y-63902642D01*
X144694421Y-63902921D01*
X144702612Y-63904219D01*
X144760249Y-63901198D01*
X144771314Y-63900619D01*
X144775868Y-63900500D01*
X144797183Y-63900500D01*
X144797192Y-63900500D01*
X144818421Y-63898268D01*
X144822946Y-63897913D01*
X144834242Y-63897320D01*
X144891646Y-63894313D01*
X144901379Y-63891704D01*
X144928243Y-63886726D01*
X144928385Y-63886710D01*
X144938256Y-63885674D01*
X145003710Y-63864406D01*
X145008011Y-63863132D01*
X145074488Y-63845320D01*
X145083460Y-63840747D01*
X145108701Y-63830291D01*
X145118284Y-63827179D01*
X145177889Y-63792764D01*
X145181824Y-63790628D01*
X145243149Y-63759383D01*
X145250978Y-63753041D01*
X145273491Y-63737569D01*
X145282216Y-63732533D01*
X145333369Y-63686473D01*
X145336806Y-63683540D01*
X145353380Y-63670119D01*
X145368493Y-63655004D01*
X145371753Y-63651911D01*
X145422888Y-63605871D01*
X145428809Y-63597719D01*
X145446540Y-63576957D01*
X147826964Y-61196534D01*
X147847718Y-61178810D01*
X147855871Y-61172888D01*
X147901919Y-61121745D01*
X147905013Y-61118485D01*
X147920120Y-61103380D01*
X147933553Y-61086789D01*
X147936502Y-61083337D01*
X147982529Y-61032221D01*
X147982529Y-61032219D01*
X147982533Y-61032216D01*
X147987573Y-61023484D01*
X148003042Y-61000979D01*
X148009383Y-60993149D01*
X148009385Y-60993146D01*
X148022149Y-60968091D01*
X148040621Y-60931838D01*
X148042786Y-60927852D01*
X148077179Y-60868284D01*
X148080291Y-60858701D01*
X148090748Y-60833460D01*
X148093801Y-60827468D01*
X148095320Y-60824488D01*
X148113134Y-60758003D01*
X148114400Y-60753727D01*
X148135674Y-60688256D01*
X148136727Y-60678227D01*
X148141701Y-60651389D01*
X148144313Y-60641645D01*
X148147913Y-60572946D01*
X148148268Y-60568421D01*
X148150500Y-60547192D01*
X148155460Y-60500000D01*
X148154405Y-60489971D01*
X148153691Y-60462675D01*
X148154219Y-60452612D01*
X148152642Y-60442655D01*
X148150500Y-60415435D01*
X148150500Y-56695073D01*
X148170431Y-56614211D01*
X148201463Y-56572036D01*
X149864297Y-54909202D01*
X151576964Y-53196534D01*
X151597718Y-53178810D01*
X151605871Y-53172888D01*
X151651893Y-53121775D01*
X151655032Y-53118467D01*
X151676176Y-53097324D01*
X151676193Y-53097304D01*
X155702465Y-49071033D01*
X155773734Y-49027951D01*
X155856864Y-49022922D01*
X155932809Y-49057102D01*
X155984171Y-49122660D01*
X155999500Y-49194072D01*
X155999500Y-50554932D01*
X155998755Y-50566292D01*
X155997200Y-50578112D01*
X155994318Y-50599999D01*
X155994318Y-50600001D01*
X156003914Y-50672888D01*
X156014956Y-50756762D01*
X156075462Y-50902839D01*
X156113358Y-50952226D01*
X156171718Y-51028282D01*
X156175783Y-51031401D01*
X156198683Y-51048973D01*
X156207249Y-51056484D01*
X156905116Y-51754351D01*
X156942973Y-51811137D01*
X156950162Y-51828595D01*
X157158569Y-52334725D01*
X157158574Y-52334735D01*
X157158573Y-52334734D01*
X157166688Y-52351788D01*
X157170871Y-52362284D01*
X157172821Y-52368284D01*
X157267467Y-52532216D01*
X157333789Y-52605874D01*
X157394128Y-52672887D01*
X157394131Y-52672890D01*
X157432516Y-52700778D01*
X157547270Y-52784151D01*
X157720197Y-52861144D01*
X157905354Y-52900500D01*
X158094646Y-52900500D01*
X158279803Y-52861144D01*
X158452730Y-52784151D01*
X158605871Y-52672888D01*
X158732533Y-52532216D01*
X158827179Y-52368284D01*
X158847335Y-52306249D01*
X158891277Y-52235504D01*
X158898023Y-52231536D01*
X158888479Y-52161562D01*
X158905460Y-52000000D01*
X158885674Y-51811744D01*
X158827179Y-51631716D01*
X158756806Y-51509826D01*
X158732537Y-51467790D01*
X158732534Y-51467786D01*
X158732533Y-51467784D01*
X158605871Y-51327112D01*
X158605868Y-51327109D01*
X158452733Y-51215850D01*
X158452727Y-51215847D01*
X158371915Y-51179867D01*
X158363066Y-51175303D01*
X158336418Y-51159568D01*
X158334725Y-51158568D01*
X157811136Y-50942972D01*
X157754350Y-50905115D01*
X157251463Y-50402228D01*
X157208379Y-50330957D01*
X157200500Y-50279191D01*
X157200500Y-50131465D01*
X157220431Y-50050603D01*
X157275657Y-49988266D01*
X157353527Y-49958734D01*
X157436201Y-49968772D01*
X157504741Y-50016082D01*
X157515270Y-50029192D01*
X157517466Y-50032215D01*
X157644128Y-50172887D01*
X157644131Y-50172890D01*
X157705644Y-50217581D01*
X157797270Y-50284151D01*
X157970197Y-50361144D01*
X158155354Y-50400500D01*
X158344646Y-50400500D01*
X158529803Y-50361144D01*
X158702730Y-50284151D01*
X158855871Y-50172888D01*
X158855874Y-50172884D01*
X158862648Y-50166786D01*
X158864411Y-50168745D01*
X158920964Y-50130374D01*
X159003717Y-50120998D01*
X159081348Y-50151153D01*
X159136073Y-50213930D01*
X159154699Y-50278391D01*
X159164936Y-50395406D01*
X159226094Y-50623655D01*
X159226097Y-50623663D01*
X159325966Y-50837832D01*
X159434229Y-50992448D01*
X159461505Y-51031401D01*
X159628599Y-51198495D01*
X159628602Y-51198497D01*
X159628603Y-51198498D01*
X159755665Y-51287468D01*
X159810472Y-51350174D01*
X159829859Y-51431168D01*
X159809386Y-51511894D01*
X159755665Y-51572532D01*
X159628602Y-51661501D01*
X159461507Y-51828596D01*
X159325962Y-52022174D01*
X159226095Y-52236339D01*
X159225027Y-52239274D01*
X159224042Y-52240741D01*
X159222886Y-52243222D01*
X159222499Y-52243041D01*
X159178635Y-52308438D01*
X159175673Y-52310042D01*
X159186362Y-52372619D01*
X159180891Y-52405049D01*
X159164936Y-52464595D01*
X159144341Y-52700000D01*
X159164936Y-52935406D01*
X159226094Y-53163655D01*
X159226097Y-53163663D01*
X159325966Y-53377832D01*
X159373673Y-53445965D01*
X159461505Y-53571401D01*
X159628599Y-53738495D01*
X159756103Y-53827774D01*
X159810908Y-53890479D01*
X159830295Y-53971473D01*
X159809822Y-54052199D01*
X159756102Y-54112837D01*
X159628924Y-54201888D01*
X159461886Y-54368926D01*
X159326400Y-54562419D01*
X159326398Y-54562423D01*
X159226571Y-54776502D01*
X159226567Y-54776513D01*
X159169363Y-54989999D01*
X159169364Y-54990000D01*
X160066314Y-54990000D01*
X160040507Y-55030156D01*
X160000000Y-55168111D01*
X160000000Y-55311889D01*
X160040507Y-55449844D01*
X160066314Y-55490000D01*
X159169364Y-55490000D01*
X159226567Y-55703487D01*
X159326401Y-55917581D01*
X159461882Y-56111068D01*
X159461886Y-56111073D01*
X159628925Y-56278112D01*
X159756101Y-56367161D01*
X159810907Y-56429868D01*
X159830295Y-56510861D01*
X159809822Y-56591588D01*
X159756102Y-56652226D01*
X159628598Y-56741505D01*
X159461507Y-56908596D01*
X159325962Y-57102174D01*
X159226098Y-57316333D01*
X159226096Y-57316338D01*
X159164936Y-57544593D01*
X159144341Y-57780000D01*
X159164936Y-58015406D01*
X159226094Y-58243655D01*
X159226097Y-58243663D01*
X159316837Y-58438256D01*
X159325966Y-58457832D01*
X159438316Y-58618285D01*
X159461505Y-58651401D01*
X159628599Y-58818495D01*
X159628602Y-58818497D01*
X159628603Y-58818498D01*
X159777690Y-58922890D01*
X159822170Y-58954035D01*
X160036337Y-59053903D01*
X160264592Y-59115063D01*
X160264591Y-59115063D01*
X160283530Y-59116719D01*
X160500000Y-59135659D01*
X160735408Y-59115063D01*
X160963663Y-59053903D01*
X161177830Y-58954035D01*
X161371401Y-58818495D01*
X161538495Y-58651401D01*
X161674035Y-58457830D01*
X161773903Y-58243663D01*
X161835063Y-58015408D01*
X161855659Y-57780000D01*
X161835063Y-57544592D01*
X161773903Y-57316337D01*
X161727045Y-57215850D01*
X161674037Y-57102174D01*
X161602494Y-57000000D01*
X161538495Y-56908599D01*
X161538491Y-56908595D01*
X161538489Y-56908592D01*
X161371402Y-56741505D01*
X161243898Y-56652226D01*
X161189092Y-56589519D01*
X161169705Y-56508525D01*
X161190178Y-56427799D01*
X161243899Y-56367161D01*
X161371074Y-56278112D01*
X161538113Y-56111073D01*
X161538117Y-56111068D01*
X161673598Y-55917581D01*
X161773432Y-55703487D01*
X161830636Y-55490000D01*
X160933686Y-55490000D01*
X160959493Y-55449844D01*
X161000000Y-55311889D01*
X161000000Y-55168111D01*
X160959493Y-55030156D01*
X160933686Y-54990000D01*
X161830636Y-54990000D01*
X161830636Y-54989999D01*
X161773432Y-54776513D01*
X161773428Y-54776502D01*
X161673601Y-54562423D01*
X161673599Y-54562419D01*
X161538113Y-54368926D01*
X161371068Y-54201881D01*
X161243899Y-54112837D01*
X161189092Y-54050131D01*
X161169705Y-53969137D01*
X161190178Y-53888411D01*
X161243896Y-53827774D01*
X161371401Y-53738495D01*
X161538495Y-53571401D01*
X161674035Y-53377830D01*
X161773903Y-53163663D01*
X161835063Y-52935408D01*
X161855659Y-52700000D01*
X161835063Y-52464592D01*
X161773903Y-52236337D01*
X161727394Y-52136599D01*
X161674037Y-52022174D01*
X161622270Y-51948243D01*
X161538495Y-51828599D01*
X161538491Y-51828595D01*
X161538489Y-51828592D01*
X161371399Y-51661503D01*
X161244335Y-51572532D01*
X161189528Y-51509826D01*
X161170141Y-51428832D01*
X161190614Y-51348106D01*
X161244335Y-51287468D01*
X161308531Y-51242517D01*
X161371401Y-51198495D01*
X161538495Y-51031401D01*
X161674035Y-50837830D01*
X161773903Y-50623663D01*
X161835063Y-50395408D01*
X161855659Y-50160000D01*
X161835063Y-49924592D01*
X161773903Y-49696337D01*
X161697372Y-49532216D01*
X161674037Y-49482174D01*
X161632525Y-49422889D01*
X161538495Y-49288599D01*
X161538491Y-49288595D01*
X161538489Y-49288592D01*
X161371399Y-49121503D01*
X161244335Y-49032532D01*
X161189528Y-48969826D01*
X161170141Y-48888832D01*
X161190614Y-48808106D01*
X161244335Y-48747468D01*
X161300345Y-48708249D01*
X161371401Y-48658495D01*
X161538495Y-48491401D01*
X161674035Y-48297830D01*
X161773903Y-48083663D01*
X161835063Y-47855408D01*
X161855659Y-47620000D01*
X161835063Y-47384592D01*
X161773903Y-47156337D01*
X161718399Y-47037309D01*
X161674037Y-46942174D01*
X161674035Y-46942171D01*
X161538495Y-46748599D01*
X161538491Y-46748595D01*
X161538489Y-46748592D01*
X161371402Y-46581505D01*
X161243898Y-46492226D01*
X161189092Y-46429519D01*
X161169705Y-46348525D01*
X161190178Y-46267799D01*
X161243899Y-46207161D01*
X161371074Y-46118112D01*
X161538113Y-45951073D01*
X161538117Y-45951068D01*
X161673598Y-45757581D01*
X161773432Y-45543487D01*
X161830636Y-45330000D01*
X160933686Y-45330000D01*
X160959493Y-45289844D01*
X161000000Y-45151889D01*
X161000000Y-45008111D01*
X160959493Y-44870156D01*
X160933686Y-44830000D01*
X161830636Y-44830000D01*
X161830636Y-44829999D01*
X161773432Y-44616513D01*
X161773428Y-44616502D01*
X161673601Y-44402423D01*
X161673599Y-44402419D01*
X161538113Y-44208926D01*
X161371073Y-44041886D01*
X161371068Y-44041882D01*
X161243463Y-43952532D01*
X161188656Y-43889826D01*
X161169269Y-43808832D01*
X161189742Y-43728106D01*
X161243463Y-43667468D01*
X161371068Y-43578117D01*
X161371073Y-43578113D01*
X161538113Y-43411073D01*
X161538117Y-43411068D01*
X161673598Y-43217581D01*
X161773432Y-43003487D01*
X161830636Y-42790000D01*
X160933686Y-42790000D01*
X160959493Y-42749844D01*
X161000000Y-42611889D01*
X161000000Y-42468111D01*
X160959493Y-42330156D01*
X160933686Y-42290000D01*
X161830636Y-42290000D01*
X161830636Y-42289999D01*
X161773432Y-42076513D01*
X161773428Y-42076502D01*
X161673601Y-41862423D01*
X161673599Y-41862419D01*
X161538113Y-41668926D01*
X161471067Y-41601880D01*
X161427983Y-41530609D01*
X161422954Y-41447479D01*
X161457134Y-41371534D01*
X161522692Y-41320172D01*
X161533275Y-41315822D01*
X161592331Y-41293796D01*
X161707546Y-41207546D01*
X161793796Y-41092331D01*
X161844091Y-40957483D01*
X161850500Y-40897873D01*
X161850499Y-39102128D01*
X161844091Y-39042517D01*
X161793796Y-38907669D01*
X161793794Y-38907667D01*
X161793794Y-38907665D01*
X161793793Y-38907664D01*
X161707551Y-38792460D01*
X161707548Y-38792457D01*
X161707546Y-38792454D01*
X161707542Y-38792451D01*
X161707539Y-38792448D01*
X161592335Y-38706206D01*
X161592328Y-38706202D01*
X161457490Y-38655911D01*
X161457485Y-38655910D01*
X161457483Y-38655909D01*
X161397873Y-38649500D01*
X161397870Y-38649500D01*
X159602126Y-38649500D01*
X159542525Y-38655907D01*
X159542519Y-38655908D01*
X159407665Y-38706205D01*
X159407664Y-38706206D01*
X159292460Y-38792448D01*
X159292448Y-38792460D01*
X159206206Y-38907664D01*
X159206202Y-38907671D01*
X159155911Y-39042509D01*
X159155909Y-39042518D01*
X159149500Y-39102129D01*
X159149500Y-40897873D01*
X159155907Y-40957474D01*
X159155908Y-40957480D01*
X159206205Y-41092334D01*
X159206206Y-41092335D01*
X159292448Y-41207539D01*
X159292451Y-41207542D01*
X159292454Y-41207546D01*
X159292457Y-41207548D01*
X159292460Y-41207551D01*
X159407664Y-41293793D01*
X159407669Y-41293796D01*
X159466702Y-41315814D01*
X159535500Y-41362746D01*
X159574608Y-41436275D01*
X159575065Y-41519555D01*
X159536768Y-41593509D01*
X159528932Y-41601879D01*
X159461888Y-41668923D01*
X159326400Y-41862419D01*
X159326398Y-41862423D01*
X159226571Y-42076502D01*
X159226567Y-42076513D01*
X159169363Y-42289999D01*
X159169364Y-42290000D01*
X160066314Y-42290000D01*
X160040507Y-42330156D01*
X160000000Y-42468111D01*
X160000000Y-42611889D01*
X160040507Y-42749844D01*
X160066314Y-42790000D01*
X159169364Y-42790000D01*
X159226567Y-43003487D01*
X159326401Y-43217581D01*
X159461882Y-43411068D01*
X159461886Y-43411073D01*
X159628926Y-43578113D01*
X159628931Y-43578117D01*
X159756537Y-43667468D01*
X159811344Y-43730174D01*
X159830731Y-43811168D01*
X159810258Y-43891894D01*
X159756538Y-43952532D01*
X159628924Y-44041888D01*
X159461886Y-44208926D01*
X159326400Y-44402419D01*
X159326398Y-44402423D01*
X159226571Y-44616502D01*
X159226567Y-44616513D01*
X159169363Y-44829999D01*
X159169364Y-44830000D01*
X160066314Y-44830000D01*
X160040507Y-44870156D01*
X160000000Y-45008111D01*
X160000000Y-45151889D01*
X160040507Y-45289844D01*
X160066314Y-45330000D01*
X159169364Y-45330000D01*
X159226567Y-45543487D01*
X159326401Y-45757581D01*
X159461882Y-45951068D01*
X159461886Y-45951073D01*
X159628925Y-46118112D01*
X159756101Y-46207161D01*
X159810907Y-46269868D01*
X159830295Y-46350861D01*
X159809822Y-46431588D01*
X159756102Y-46492226D01*
X159628598Y-46581505D01*
X159461507Y-46748596D01*
X159325962Y-46942174D01*
X159226098Y-47156333D01*
X159226096Y-47156338D01*
X159164936Y-47384593D01*
X159144341Y-47620000D01*
X159164936Y-47855406D01*
X159226094Y-48083655D01*
X159226097Y-48083663D01*
X159283861Y-48207539D01*
X159325966Y-48297832D01*
X159427594Y-48442972D01*
X159461505Y-48491401D01*
X159628599Y-48658495D01*
X159628602Y-48658497D01*
X159628603Y-48658498D01*
X159755665Y-48747468D01*
X159810472Y-48810174D01*
X159829859Y-48891168D01*
X159809386Y-48971894D01*
X159755665Y-49032532D01*
X159628602Y-49121501D01*
X159461503Y-49288600D01*
X159433982Y-49327905D01*
X159371275Y-49382710D01*
X159290281Y-49402097D01*
X159209555Y-49381623D01*
X159147591Y-49325979D01*
X159125967Y-49281870D01*
X159077179Y-49131716D01*
X159067556Y-49115048D01*
X158982537Y-48967790D01*
X158982535Y-48967787D01*
X158982533Y-48967784D01*
X158855871Y-48827112D01*
X158855868Y-48827109D01*
X158702733Y-48715850D01*
X158702727Y-48715847D01*
X158621915Y-48679867D01*
X158613066Y-48675303D01*
X158595045Y-48664662D01*
X158584725Y-48658568D01*
X158061136Y-48442972D01*
X158004350Y-48405115D01*
X157651463Y-48052228D01*
X157608379Y-47980957D01*
X157600500Y-47929191D01*
X157600500Y-33227170D01*
X157620431Y-33146308D01*
X157675657Y-33083971D01*
X157686690Y-33076952D01*
X157799314Y-33011138D01*
X157813899Y-33002232D01*
X157823844Y-32997011D01*
X157852730Y-32984151D01*
X158005871Y-32872888D01*
X158132533Y-32732216D01*
X158227179Y-32568284D01*
X158285674Y-32388256D01*
X158305460Y-32200000D01*
X158292848Y-32080000D01*
X159144341Y-32080000D01*
X159164936Y-32315406D01*
X159226094Y-32543655D01*
X159226097Y-32543663D01*
X159310415Y-32724484D01*
X159325966Y-32757832D01*
X159448072Y-32932218D01*
X159461505Y-32951401D01*
X159628599Y-33118495D01*
X159756103Y-33207774D01*
X159810908Y-33270479D01*
X159830295Y-33351473D01*
X159809822Y-33432199D01*
X159756102Y-33492837D01*
X159628924Y-33581888D01*
X159461886Y-33748926D01*
X159326400Y-33942419D01*
X159326398Y-33942423D01*
X159226571Y-34156502D01*
X159226567Y-34156513D01*
X159169363Y-34369999D01*
X159169364Y-34370000D01*
X160066314Y-34370000D01*
X160040507Y-34410156D01*
X160000000Y-34548111D01*
X160000000Y-34691889D01*
X160040507Y-34829844D01*
X160066314Y-34870000D01*
X159169364Y-34870000D01*
X159226567Y-35083487D01*
X159326401Y-35297581D01*
X159461882Y-35491068D01*
X159461886Y-35491073D01*
X159628926Y-35658113D01*
X159628931Y-35658117D01*
X159822418Y-35793598D01*
X160036508Y-35893430D01*
X160036517Y-35893433D01*
X160249999Y-35950634D01*
X160250000Y-35950634D01*
X160250000Y-35055501D01*
X160357685Y-35104680D01*
X160464237Y-35120000D01*
X160535763Y-35120000D01*
X160642315Y-35104680D01*
X160750000Y-35055501D01*
X160750000Y-35950634D01*
X160963482Y-35893433D01*
X160963491Y-35893430D01*
X161177581Y-35793598D01*
X161371068Y-35658117D01*
X161371073Y-35658113D01*
X161538113Y-35491073D01*
X161538117Y-35491068D01*
X161673598Y-35297581D01*
X161773432Y-35083487D01*
X161830636Y-34870000D01*
X160933686Y-34870000D01*
X160959493Y-34829844D01*
X161000000Y-34691889D01*
X161000000Y-34548111D01*
X160959493Y-34410156D01*
X160933686Y-34370000D01*
X161830636Y-34370000D01*
X161830636Y-34369999D01*
X161773432Y-34156513D01*
X161773428Y-34156502D01*
X161673601Y-33942423D01*
X161673599Y-33942419D01*
X161538113Y-33748926D01*
X161371068Y-33581881D01*
X161243899Y-33492837D01*
X161189092Y-33430131D01*
X161169705Y-33349137D01*
X161190178Y-33268411D01*
X161243896Y-33207774D01*
X161371401Y-33118495D01*
X161538495Y-32951401D01*
X161674035Y-32757830D01*
X161773903Y-32543663D01*
X161835063Y-32315408D01*
X161855659Y-32080000D01*
X161835063Y-31844592D01*
X161773903Y-31616337D01*
X161755612Y-31577112D01*
X161674037Y-31402174D01*
X161672515Y-31400000D01*
X161538495Y-31208599D01*
X161538491Y-31208595D01*
X161538489Y-31208592D01*
X161371399Y-31041503D01*
X161244335Y-30952532D01*
X161189528Y-30889826D01*
X161170141Y-30808832D01*
X161190614Y-30728106D01*
X161244335Y-30667468D01*
X161312126Y-30620000D01*
X161371401Y-30578495D01*
X161538495Y-30411401D01*
X161674035Y-30217830D01*
X161773903Y-30003663D01*
X161835063Y-29775408D01*
X161855659Y-29540000D01*
X161835063Y-29304592D01*
X161773903Y-29076337D01*
X161709516Y-28938259D01*
X161674037Y-28862174D01*
X161600976Y-28757832D01*
X161538495Y-28668599D01*
X161471582Y-28601686D01*
X161428499Y-28530416D01*
X161423470Y-28447286D01*
X161457650Y-28371341D01*
X161523208Y-28319979D01*
X161533787Y-28315631D01*
X161592331Y-28293796D01*
X161707546Y-28207546D01*
X161793796Y-28092331D01*
X161844091Y-27957483D01*
X161850500Y-27897873D01*
X161850499Y-26102128D01*
X161844091Y-26042517D01*
X161793796Y-25907669D01*
X161793794Y-25907667D01*
X161793794Y-25907665D01*
X161793793Y-25907664D01*
X161707551Y-25792460D01*
X161707548Y-25792457D01*
X161707546Y-25792454D01*
X161707542Y-25792451D01*
X161707539Y-25792448D01*
X161592335Y-25706206D01*
X161592328Y-25706202D01*
X161457490Y-25655911D01*
X161457485Y-25655910D01*
X161457483Y-25655909D01*
X161397873Y-25649500D01*
X161397870Y-25649500D01*
X159602126Y-25649500D01*
X159542525Y-25655907D01*
X159542519Y-25655908D01*
X159407665Y-25706205D01*
X159407664Y-25706206D01*
X159292460Y-25792448D01*
X159292448Y-25792460D01*
X159206206Y-25907664D01*
X159206202Y-25907671D01*
X159155911Y-26042509D01*
X159155909Y-26042518D01*
X159149500Y-26102129D01*
X159149500Y-27897873D01*
X159155907Y-27957474D01*
X159155908Y-27957480D01*
X159206205Y-28092334D01*
X159206206Y-28092335D01*
X159292448Y-28207539D01*
X159292451Y-28207542D01*
X159292454Y-28207546D01*
X159292457Y-28207548D01*
X159292460Y-28207551D01*
X159407664Y-28293793D01*
X159407667Y-28293795D01*
X159407668Y-28293795D01*
X159407669Y-28293796D01*
X159466186Y-28315621D01*
X159534983Y-28362552D01*
X159574091Y-28436080D01*
X159574549Y-28519361D01*
X159536253Y-28593315D01*
X159528416Y-28601686D01*
X159461511Y-28668591D01*
X159461508Y-28668595D01*
X159325962Y-28862174D01*
X159226098Y-29076333D01*
X159226096Y-29076338D01*
X159164936Y-29304593D01*
X159144341Y-29540000D01*
X159164936Y-29775406D01*
X159226094Y-30003655D01*
X159226097Y-30003663D01*
X159325966Y-30217832D01*
X159442733Y-30384593D01*
X159461505Y-30411401D01*
X159628599Y-30578495D01*
X159628602Y-30578497D01*
X159628603Y-30578498D01*
X159755665Y-30667468D01*
X159810472Y-30730174D01*
X159829859Y-30811168D01*
X159809386Y-30891894D01*
X159755665Y-30952532D01*
X159628602Y-31041501D01*
X159461507Y-31208596D01*
X159325962Y-31402174D01*
X159226098Y-31616333D01*
X159226096Y-31616338D01*
X159164936Y-31844593D01*
X159144341Y-32080000D01*
X158292848Y-32080000D01*
X158285674Y-32011744D01*
X158227179Y-31831716D01*
X158205424Y-31794035D01*
X158132537Y-31667790D01*
X158132535Y-31667787D01*
X158132533Y-31667784D01*
X158005871Y-31527112D01*
X158005868Y-31527109D01*
X157852731Y-31415850D01*
X157852730Y-31415849D01*
X157679803Y-31338856D01*
X157494646Y-31299500D01*
X157440606Y-31299500D01*
X157359744Y-31279569D01*
X157297407Y-31224343D01*
X157275122Y-31179269D01*
X157227179Y-31031716D01*
X157135544Y-30872999D01*
X157132537Y-30867790D01*
X157132535Y-30867787D01*
X157132533Y-30867784D01*
X157005871Y-30727112D01*
X157005868Y-30727109D01*
X156852731Y-30615850D01*
X156852730Y-30615849D01*
X156679803Y-30538856D01*
X156494646Y-30499500D01*
X156305354Y-30499500D01*
X156120197Y-30538856D01*
X156031168Y-30578495D01*
X155947268Y-30615850D01*
X155794131Y-30727109D01*
X155794128Y-30727112D01*
X155667470Y-30867780D01*
X155667462Y-30867790D01*
X155572824Y-31031709D01*
X155572820Y-31031718D01*
X155514325Y-31211745D01*
X155494540Y-31400000D01*
X155514325Y-31588254D01*
X155562747Y-31737283D01*
X155564257Y-31742475D01*
X155568326Y-31758279D01*
X155568334Y-31758302D01*
X155786115Y-32280975D01*
X155799500Y-32347898D01*
X155799500Y-32505927D01*
X155779569Y-32586789D01*
X155724343Y-32649126D01*
X155646473Y-32678658D01*
X155563799Y-32668620D01*
X155502463Y-32628964D01*
X154951463Y-32077964D01*
X154908379Y-32006693D01*
X154900500Y-31954927D01*
X154900500Y-30945073D01*
X154920431Y-30864211D01*
X154951463Y-30822036D01*
X155632191Y-30141308D01*
X156326964Y-29446534D01*
X156347718Y-29428810D01*
X156355871Y-29422888D01*
X156401919Y-29371745D01*
X156405013Y-29368485D01*
X156420120Y-29353380D01*
X156433553Y-29336789D01*
X156436502Y-29333337D01*
X156482529Y-29282221D01*
X156482529Y-29282219D01*
X156482533Y-29282216D01*
X156487573Y-29273484D01*
X156503042Y-29250979D01*
X156509383Y-29243149D01*
X156509385Y-29243146D01*
X156527563Y-29207468D01*
X156540621Y-29181838D01*
X156542786Y-29177852D01*
X156577174Y-29118292D01*
X156577179Y-29118284D01*
X156580291Y-29108701D01*
X156590748Y-29083460D01*
X156595320Y-29074488D01*
X156613134Y-29008003D01*
X156614400Y-29003727D01*
X156635674Y-28938256D01*
X156636727Y-28928227D01*
X156641701Y-28901389D01*
X156644313Y-28891645D01*
X156647913Y-28822943D01*
X156648267Y-28818427D01*
X156655460Y-28750000D01*
X156654405Y-28739971D01*
X156653691Y-28712675D01*
X156654219Y-28702612D01*
X156643459Y-28634676D01*
X156642864Y-28630159D01*
X156635674Y-28561746D01*
X156635674Y-28561744D01*
X156632556Y-28552149D01*
X156626183Y-28525598D01*
X156624608Y-28515658D01*
X156624607Y-28515650D01*
X156599948Y-28451410D01*
X156598439Y-28447147D01*
X156593892Y-28433153D01*
X156577179Y-28381716D01*
X156572139Y-28372986D01*
X156560382Y-28348336D01*
X156556771Y-28338927D01*
X156536637Y-28307924D01*
X156519282Y-28281200D01*
X156516934Y-28277368D01*
X156482533Y-28217784D01*
X156475787Y-28210292D01*
X156459167Y-28188633D01*
X156453675Y-28180175D01*
X156436600Y-28163100D01*
X156405019Y-28131518D01*
X156401884Y-28128215D01*
X156355871Y-28077112D01*
X156347721Y-28071190D01*
X156326964Y-28053464D01*
X156319825Y-28046325D01*
X156300714Y-28033914D01*
X156262121Y-28008850D01*
X156258367Y-28006271D01*
X156202733Y-27965850D01*
X156193520Y-27961748D01*
X156169538Y-27948727D01*
X156161070Y-27943228D01*
X156096844Y-27918573D01*
X156092636Y-27916831D01*
X156089975Y-27915646D01*
X156029803Y-27888856D01*
X156029799Y-27888855D01*
X156019930Y-27886757D01*
X155993759Y-27879004D01*
X155984360Y-27875396D01*
X155984353Y-27875394D01*
X155984350Y-27875393D01*
X155984346Y-27875392D01*
X155984341Y-27875391D01*
X155916414Y-27864632D01*
X155911936Y-27863802D01*
X155844647Y-27849500D01*
X155844646Y-27849500D01*
X155834563Y-27849500D01*
X155807346Y-27847358D01*
X155797388Y-27845781D01*
X155728687Y-27849381D01*
X155724134Y-27849500D01*
X155655346Y-27849500D01*
X155645482Y-27851597D01*
X155618432Y-27855158D01*
X155608358Y-27855686D01*
X155541907Y-27873491D01*
X155537479Y-27874554D01*
X155470200Y-27888854D01*
X155470198Y-27888855D01*
X155460980Y-27892959D01*
X155435262Y-27902066D01*
X155425520Y-27904676D01*
X155425509Y-27904681D01*
X155364210Y-27935914D01*
X155360100Y-27937874D01*
X155297269Y-27965848D01*
X155289109Y-27971777D01*
X155265844Y-27986034D01*
X155256852Y-27990615D01*
X155203381Y-28033914D01*
X155199769Y-28036685D01*
X155144132Y-28077109D01*
X155144126Y-28077114D01*
X155098114Y-28128214D01*
X155094980Y-28131517D01*
X153423042Y-29803457D01*
X153402290Y-29821181D01*
X153394134Y-29827107D01*
X153394125Y-29827115D01*
X153348096Y-29878234D01*
X153344965Y-29881534D01*
X153329886Y-29896613D01*
X153329878Y-29896623D01*
X153316460Y-29913191D01*
X153313507Y-29916648D01*
X153267470Y-29967779D01*
X153262424Y-29976519D01*
X153246967Y-29999008D01*
X153240623Y-30006842D01*
X153240614Y-30006856D01*
X153209384Y-30068146D01*
X153207212Y-30072146D01*
X153172822Y-30131713D01*
X153172816Y-30131727D01*
X153169703Y-30141308D01*
X153159262Y-30166518D01*
X153154681Y-30175508D01*
X153154679Y-30175514D01*
X153136877Y-30241947D01*
X153135584Y-30246310D01*
X153114326Y-30311740D01*
X153114325Y-30311744D01*
X153113272Y-30321770D01*
X153108298Y-30348608D01*
X153105688Y-30358347D01*
X153105686Y-30358363D01*
X153102086Y-30427052D01*
X153101729Y-30431588D01*
X153099500Y-30452812D01*
X153099500Y-30474131D01*
X153099381Y-30478685D01*
X153095781Y-30547388D01*
X153097358Y-30557345D01*
X153099500Y-30584563D01*
X153099500Y-32315437D01*
X153097358Y-32342654D01*
X153095781Y-32352611D01*
X153099381Y-32421313D01*
X153099500Y-32425866D01*
X153099500Y-32447192D01*
X153100504Y-32456747D01*
X153101729Y-32468412D01*
X153102086Y-32472948D01*
X153105686Y-32541639D01*
X153105688Y-32541651D01*
X153108296Y-32551384D01*
X153113272Y-32578230D01*
X153114325Y-32588255D01*
X153114326Y-32588257D01*
X153135581Y-32653674D01*
X153136874Y-32658039D01*
X153154679Y-32724484D01*
X153154682Y-32724492D01*
X153159261Y-32733480D01*
X153169704Y-32758693D01*
X153172820Y-32768283D01*
X153172821Y-32768285D01*
X153207212Y-32827851D01*
X153209386Y-32831855D01*
X153230294Y-32872890D01*
X153240617Y-32893149D01*
X153240619Y-32893151D01*
X153246961Y-32900983D01*
X153262426Y-32923485D01*
X153267464Y-32932211D01*
X153267468Y-32932218D01*
X153313500Y-32983341D01*
X153316456Y-32986803D01*
X153329881Y-33003380D01*
X153344969Y-33018469D01*
X153348099Y-33021766D01*
X153394129Y-33072888D01*
X153402279Y-33078809D01*
X153423044Y-33096543D01*
X154275593Y-33949092D01*
X154318677Y-34020363D01*
X154323706Y-34103493D01*
X154289526Y-34179438D01*
X154254831Y-34212898D01*
X154097628Y-34327112D01*
X153970970Y-34467780D01*
X153970967Y-34467783D01*
X153876320Y-34631718D01*
X153876317Y-34631724D01*
X153875427Y-34634465D01*
X153864193Y-34659384D01*
X153864841Y-34659707D01*
X153862072Y-34665267D01*
X153862069Y-34665273D01*
X153768812Y-34891753D01*
X153719596Y-34958933D01*
X153644795Y-34995548D01*
X153607920Y-34999500D01*
X152947898Y-34999500D01*
X152880975Y-34986115D01*
X152739368Y-34927112D01*
X152358291Y-34768330D01*
X152358283Y-34768327D01*
X152307313Y-34750225D01*
X152307311Y-34750224D01*
X152300743Y-34747892D01*
X152294468Y-34745385D01*
X152279805Y-34738856D01*
X152094647Y-34699500D01*
X152094646Y-34699500D01*
X151905354Y-34699500D01*
X151720197Y-34738856D01*
X151547268Y-34815850D01*
X151500000Y-34850191D01*
X151500000Y-21500000D01*
X132000000Y-21500000D01*
X132000000Y-41250000D01*
X151500000Y-41250000D01*
X151500000Y-38549807D01*
X151547270Y-38584151D01*
X151720197Y-38661144D01*
X151905354Y-38700500D01*
X152094647Y-38700500D01*
X152279798Y-38661145D01*
X152279797Y-38661145D01*
X152279803Y-38661144D01*
X152315872Y-38645084D01*
X152343245Y-38635542D01*
X152358293Y-38631668D01*
X152880973Y-38413885D01*
X152947896Y-38400500D01*
X153279191Y-38400500D01*
X153360053Y-38420431D01*
X153402228Y-38451463D01*
X153705116Y-38754351D01*
X153742973Y-38811137D01*
X153958569Y-39334725D01*
X153958574Y-39334735D01*
X153958573Y-39334734D01*
X153966688Y-39351788D01*
X153970871Y-39362284D01*
X153972821Y-39368284D01*
X154067467Y-39532216D01*
X154133871Y-39605965D01*
X154194128Y-39672887D01*
X154194131Y-39672890D01*
X154270699Y-39728519D01*
X154347270Y-39784151D01*
X154520197Y-39861144D01*
X154705354Y-39900500D01*
X154725500Y-39900500D01*
X154806362Y-39920431D01*
X154868699Y-39975657D01*
X154898231Y-40053527D01*
X154899500Y-40074500D01*
X154899500Y-47254926D01*
X154879569Y-47335788D01*
X154848537Y-47377963D01*
X150423042Y-51803457D01*
X150402290Y-51821181D01*
X150394134Y-51827107D01*
X150394125Y-51827115D01*
X150348114Y-51878214D01*
X150344980Y-51881517D01*
X146673042Y-55553457D01*
X146652290Y-55571181D01*
X146644134Y-55577107D01*
X146644125Y-55577115D01*
X146598096Y-55628234D01*
X146594965Y-55631534D01*
X146579886Y-55646613D01*
X146579878Y-55646623D01*
X146566460Y-55663191D01*
X146563507Y-55666648D01*
X146517470Y-55717779D01*
X146517467Y-55717783D01*
X146517467Y-55717784D01*
X146513486Y-55724680D01*
X146512424Y-55726519D01*
X146496967Y-55749008D01*
X146490623Y-55756842D01*
X146490614Y-55756856D01*
X146459384Y-55818146D01*
X146457212Y-55822146D01*
X146422822Y-55881713D01*
X146422816Y-55881727D01*
X146419703Y-55891308D01*
X146409262Y-55916518D01*
X146404681Y-55925508D01*
X146404679Y-55925514D01*
X146386877Y-55991947D01*
X146385584Y-55996310D01*
X146364326Y-56061740D01*
X146364325Y-56061744D01*
X146363272Y-56071770D01*
X146358298Y-56098608D01*
X146355688Y-56108347D01*
X146355686Y-56108363D01*
X146352086Y-56177052D01*
X146351729Y-56181588D01*
X146349500Y-56202812D01*
X146349500Y-56224131D01*
X146349381Y-56228685D01*
X146345781Y-56297388D01*
X146347358Y-56307345D01*
X146349500Y-56334563D01*
X146349500Y-60054926D01*
X146329569Y-60135788D01*
X146298537Y-60177963D01*
X144427964Y-62048537D01*
X144356693Y-62091621D01*
X144304927Y-62099500D01*
X139275868Y-62099500D01*
X139271314Y-62099381D01*
X139216760Y-62096522D01*
X139202612Y-62095781D01*
X139202611Y-62095781D01*
X139192654Y-62097358D01*
X139165437Y-62099500D01*
X131284563Y-62099500D01*
X131257346Y-62097358D01*
X131247389Y-62095781D01*
X131247388Y-62095781D01*
X131235189Y-62096420D01*
X131178692Y-62099381D01*
X131174139Y-62099500D01*
X131152808Y-62099500D01*
X131150424Y-62099750D01*
X131131557Y-62101731D01*
X131127028Y-62102087D01*
X131058356Y-62105687D01*
X131051361Y-62107561D01*
X131048610Y-62108298D01*
X131021777Y-62113271D01*
X131011748Y-62114325D01*
X131011745Y-62114325D01*
X131011744Y-62114326D01*
X130994271Y-62120003D01*
X130946310Y-62135586D01*
X130941956Y-62136876D01*
X130921033Y-62142482D01*
X130875509Y-62154680D01*
X130866517Y-62159262D01*
X130841310Y-62169702D01*
X130831728Y-62172815D01*
X130831713Y-62172822D01*
X130772146Y-62207212D01*
X130768146Y-62209384D01*
X130706856Y-62240614D01*
X130706842Y-62240623D01*
X130699008Y-62246967D01*
X130676521Y-62262422D01*
X130667784Y-62267467D01*
X130667779Y-62267470D01*
X130616648Y-62313507D01*
X130613191Y-62316460D01*
X130596623Y-62329878D01*
X130596613Y-62329886D01*
X130581533Y-62344966D01*
X130578234Y-62348096D01*
X130527112Y-62394128D01*
X130521005Y-62400911D01*
X130520191Y-62400177D01*
X130500177Y-62420191D01*
X130500911Y-62421005D01*
X130494128Y-62427112D01*
X130448096Y-62478234D01*
X130444966Y-62481533D01*
X130429886Y-62496613D01*
X130429878Y-62496623D01*
X130416460Y-62513191D01*
X130413507Y-62516648D01*
X130367470Y-62567779D01*
X130362424Y-62576519D01*
X130346967Y-62599008D01*
X130340623Y-62606842D01*
X130340614Y-62606856D01*
X130309384Y-62668146D01*
X130307212Y-62672146D01*
X130272822Y-62731713D01*
X130272816Y-62731727D01*
X130269703Y-62741308D01*
X130259262Y-62766518D01*
X130254681Y-62775508D01*
X130254679Y-62775514D01*
X130236877Y-62841947D01*
X130235584Y-62846310D01*
X130214326Y-62911740D01*
X130214325Y-62911744D01*
X130213272Y-62921770D01*
X130208298Y-62948608D01*
X130205688Y-62958347D01*
X130205686Y-62958363D01*
X130202086Y-63027044D01*
X130201729Y-63031582D01*
X130194540Y-63099996D01*
X130194540Y-63099999D01*
X124546479Y-63099999D01*
X124674035Y-62917830D01*
X124773903Y-62703663D01*
X124835063Y-62475408D01*
X124855659Y-62240000D01*
X124835063Y-62004592D01*
X124773903Y-61776337D01*
X124755612Y-61737112D01*
X124674037Y-61562174D01*
X124674035Y-61562171D01*
X124538495Y-61368599D01*
X124538491Y-61368595D01*
X124538489Y-61368592D01*
X124371399Y-61201503D01*
X124244335Y-61112532D01*
X124189528Y-61049826D01*
X124170141Y-60968832D01*
X124190614Y-60888106D01*
X124244335Y-60827468D01*
X124343486Y-60758041D01*
X124371401Y-60738495D01*
X124538495Y-60571401D01*
X124588491Y-60500000D01*
X125344540Y-60500000D01*
X125364325Y-60688254D01*
X125422820Y-60868281D01*
X125422824Y-60868290D01*
X125517462Y-61032209D01*
X125517465Y-61032213D01*
X125517467Y-61032216D01*
X125517470Y-61032219D01*
X125644128Y-61172887D01*
X125644131Y-61172890D01*
X125683514Y-61201503D01*
X125797270Y-61284151D01*
X125970197Y-61361144D01*
X126155354Y-61400500D01*
X126344647Y-61400500D01*
X126494744Y-61368596D01*
X126529803Y-61361144D01*
X126590809Y-61333981D01*
X126600386Y-61330378D01*
X126631201Y-61320814D01*
X127091027Y-61102215D01*
X127143017Y-61086853D01*
X127156762Y-61085044D01*
X127302841Y-61024536D01*
X127428282Y-60928282D01*
X127448977Y-60901310D01*
X127456487Y-60892747D01*
X128697773Y-59651463D01*
X128769044Y-59608379D01*
X128820809Y-59600500D01*
X140946670Y-59600500D01*
X141027532Y-59620431D01*
X141089869Y-59675657D01*
X141108011Y-59709347D01*
X141157336Y-59831492D01*
X141157337Y-59831495D01*
X141166279Y-59850425D01*
X141170355Y-59860696D01*
X141172821Y-59868284D01*
X141211574Y-59935406D01*
X141267467Y-60032216D01*
X141267470Y-60032219D01*
X141394128Y-60172887D01*
X141394131Y-60172890D01*
X141428552Y-60197898D01*
X141547270Y-60284151D01*
X141720197Y-60361144D01*
X141905354Y-60400500D01*
X142094646Y-60400500D01*
X142279803Y-60361144D01*
X142452730Y-60284151D01*
X142605871Y-60172888D01*
X142732533Y-60032216D01*
X142827179Y-59868284D01*
X142885674Y-59688256D01*
X142905460Y-59500000D01*
X142885674Y-59311744D01*
X142827179Y-59131716D01*
X142732533Y-58967784D01*
X142732529Y-58967780D01*
X142729193Y-58962001D01*
X142706022Y-58882007D01*
X142722680Y-58800408D01*
X142729193Y-58787999D01*
X142732529Y-58782219D01*
X142732533Y-58782216D01*
X142827179Y-58618284D01*
X142885674Y-58438256D01*
X142905460Y-58250000D01*
X142885674Y-58061744D01*
X142827179Y-57881716D01*
X142732533Y-57717784D01*
X142732529Y-57717780D01*
X142729193Y-57712001D01*
X142706022Y-57632007D01*
X142722680Y-57550408D01*
X142729193Y-57537999D01*
X142732529Y-57532219D01*
X142732533Y-57532216D01*
X142827179Y-57368284D01*
X142885674Y-57188256D01*
X142905460Y-57000000D01*
X142885674Y-56811744D01*
X142827179Y-56631716D01*
X142792723Y-56572036D01*
X142732537Y-56467790D01*
X142732535Y-56467787D01*
X142732533Y-56467784D01*
X142605871Y-56327112D01*
X142605868Y-56327109D01*
X142452731Y-56215850D01*
X142452730Y-56215849D01*
X142279803Y-56138856D01*
X142094646Y-56099500D01*
X141905354Y-56099500D01*
X141720197Y-56138856D01*
X141634409Y-56177052D01*
X141547268Y-56215850D01*
X141394131Y-56327109D01*
X141394128Y-56327112D01*
X141267470Y-56467780D01*
X141267462Y-56467790D01*
X141172822Y-56631712D01*
X141172817Y-56631722D01*
X141171050Y-56637162D01*
X141159601Y-56662779D01*
X141160041Y-56662995D01*
X141157311Y-56668572D01*
X141157308Y-56668578D01*
X141157308Y-56668579D01*
X141108011Y-56790655D01*
X141059254Y-56858169D01*
X140984704Y-56895292D01*
X140946671Y-56899500D01*
X127303329Y-56899500D01*
X127222467Y-56879569D01*
X127160130Y-56824343D01*
X127141991Y-56790661D01*
X127092658Y-56668495D01*
X127092653Y-56668484D01*
X127083721Y-56649576D01*
X127079644Y-56639304D01*
X127077179Y-56631716D01*
X127077175Y-56631709D01*
X127077175Y-56631708D01*
X126982537Y-56467790D01*
X126982535Y-56467787D01*
X126982533Y-56467784D01*
X126855871Y-56327112D01*
X126855868Y-56327109D01*
X126702731Y-56215850D01*
X126702730Y-56215849D01*
X126529803Y-56138856D01*
X126344646Y-56099500D01*
X126155354Y-56099500D01*
X125970197Y-56138856D01*
X125884409Y-56177052D01*
X125797268Y-56215850D01*
X125644131Y-56327109D01*
X125644128Y-56327112D01*
X125517470Y-56467780D01*
X125517462Y-56467790D01*
X125422824Y-56631709D01*
X125422820Y-56631718D01*
X125364325Y-56811745D01*
X125344540Y-57000000D01*
X125364325Y-57188254D01*
X125422820Y-57368281D01*
X125422824Y-57368290D01*
X125520806Y-57538000D01*
X125543977Y-57617994D01*
X125527318Y-57699592D01*
X125520806Y-57712000D01*
X125422824Y-57881709D01*
X125422820Y-57881718D01*
X125364325Y-58061745D01*
X125344540Y-58250000D01*
X125364325Y-58438254D01*
X125422820Y-58618281D01*
X125422824Y-58618290D01*
X125517462Y-58782209D01*
X125517465Y-58782213D01*
X125517467Y-58782216D01*
X125517470Y-58782219D01*
X125644128Y-58922887D01*
X125644131Y-58922890D01*
X125705923Y-58967784D01*
X125797270Y-59034151D01*
X125970197Y-59111144D01*
X126155354Y-59150500D01*
X126344647Y-59150500D01*
X126529798Y-59111145D01*
X126529797Y-59111145D01*
X126529803Y-59111144D01*
X126565872Y-59095084D01*
X126593245Y-59085542D01*
X126608293Y-59081668D01*
X127130973Y-58863885D01*
X127197896Y-58850500D01*
X127380191Y-58850500D01*
X127461053Y-58870431D01*
X127523390Y-58925657D01*
X127552922Y-59003527D01*
X127542884Y-59086201D01*
X127503227Y-59147537D01*
X126949297Y-59701466D01*
X126878026Y-59744550D01*
X126794896Y-59749579D01*
X126752353Y-59735952D01*
X126678852Y-59701466D01*
X126623694Y-59675586D01*
X126618035Y-59673085D01*
X126618036Y-59673085D01*
X126556509Y-59650528D01*
X126551071Y-59648324D01*
X126529803Y-59638856D01*
X126344646Y-59599500D01*
X126155354Y-59599500D01*
X125970197Y-59638856D01*
X125829575Y-59701466D01*
X125797268Y-59715850D01*
X125644131Y-59827109D01*
X125644128Y-59827112D01*
X125517470Y-59967780D01*
X125517462Y-59967790D01*
X125422824Y-60131709D01*
X125422820Y-60131718D01*
X125364325Y-60311745D01*
X125344540Y-60500000D01*
X124588491Y-60500000D01*
X124674035Y-60377830D01*
X124773903Y-60163663D01*
X124835063Y-59935408D01*
X124855659Y-59700000D01*
X124835063Y-59464592D01*
X124773903Y-59236337D01*
X124703893Y-59086201D01*
X124674037Y-59022174D01*
X124635953Y-58967784D01*
X124538495Y-58828599D01*
X124538491Y-58828595D01*
X124538489Y-58828592D01*
X124371399Y-58661503D01*
X124244335Y-58572532D01*
X124189528Y-58509826D01*
X124170141Y-58428832D01*
X124190614Y-58348106D01*
X124244335Y-58287468D01*
X124312390Y-58239815D01*
X124371401Y-58198495D01*
X124538495Y-58031401D01*
X124674035Y-57837830D01*
X124773903Y-57623663D01*
X124835063Y-57395408D01*
X124855659Y-57160000D01*
X124835063Y-56924592D01*
X124773903Y-56696337D01*
X124743772Y-56631722D01*
X124674037Y-56482174D01*
X124663958Y-56467780D01*
X124538495Y-56288599D01*
X124538491Y-56288595D01*
X124538489Y-56288592D01*
X124371399Y-56121503D01*
X124244335Y-56032532D01*
X124189528Y-55969826D01*
X124170141Y-55888832D01*
X124190614Y-55808106D01*
X124244335Y-55747468D01*
X124364694Y-55663191D01*
X124371401Y-55658495D01*
X124538495Y-55491401D01*
X124674035Y-55297830D01*
X124773903Y-55083663D01*
X124835063Y-54855408D01*
X124855659Y-54620000D01*
X124835063Y-54384592D01*
X124773903Y-54156337D01*
X124753618Y-54112837D01*
X124674037Y-53942174D01*
X124674035Y-53942171D01*
X124538495Y-53748599D01*
X124538491Y-53748595D01*
X124538489Y-53748592D01*
X124371399Y-53581503D01*
X124244335Y-53492532D01*
X124189528Y-53429826D01*
X124170141Y-53348832D01*
X124190614Y-53268106D01*
X124244335Y-53207468D01*
X124306906Y-53163655D01*
X124371401Y-53118495D01*
X124538495Y-52951401D01*
X124674035Y-52757830D01*
X124749422Y-52596162D01*
X124801657Y-52531302D01*
X124878054Y-52498145D01*
X124961109Y-52504288D01*
X125031795Y-52548326D01*
X125036429Y-52553275D01*
X125046171Y-52564096D01*
X125051904Y-52571176D01*
X125077112Y-52605871D01*
X125108985Y-52634570D01*
X125115428Y-52641013D01*
X125144128Y-52672887D01*
X125144129Y-52672888D01*
X125178823Y-52698094D01*
X125185907Y-52703830D01*
X125217779Y-52732529D01*
X125217781Y-52732530D01*
X125217784Y-52732533D01*
X125254947Y-52753989D01*
X125262562Y-52758935D01*
X125297270Y-52784151D01*
X125336460Y-52801599D01*
X125344558Y-52805725D01*
X125381716Y-52827179D01*
X125422510Y-52840433D01*
X125431004Y-52843693D01*
X125470197Y-52861144D01*
X125512160Y-52870062D01*
X125520948Y-52872417D01*
X125561744Y-52885674D01*
X125604408Y-52890157D01*
X125613395Y-52891581D01*
X125627375Y-52894553D01*
X125655352Y-52900500D01*
X125655354Y-52900500D01*
X132344648Y-52900500D01*
X132365135Y-52896144D01*
X132386607Y-52891580D01*
X132395590Y-52890157D01*
X132438256Y-52885674D01*
X132479054Y-52872416D01*
X132487844Y-52870061D01*
X132529803Y-52861144D01*
X132568993Y-52843694D01*
X132577481Y-52840435D01*
X132618284Y-52827179D01*
X132655449Y-52805720D01*
X132663537Y-52801600D01*
X132702730Y-52784151D01*
X132737431Y-52758938D01*
X132745055Y-52753987D01*
X132782216Y-52732533D01*
X132814100Y-52703823D01*
X132821165Y-52698102D01*
X132855871Y-52672888D01*
X132884577Y-52641005D01*
X132891005Y-52634577D01*
X132922888Y-52605871D01*
X132948102Y-52571165D01*
X132953827Y-52564096D01*
X132982533Y-52532216D01*
X133003987Y-52495055D01*
X133008938Y-52487431D01*
X133034151Y-52452730D01*
X133051600Y-52413537D01*
X133055720Y-52405449D01*
X133077179Y-52368284D01*
X133090435Y-52327481D01*
X133093694Y-52318993D01*
X133111144Y-52279803D01*
X133120061Y-52237844D01*
X133122418Y-52229050D01*
X133135674Y-52188256D01*
X133140157Y-52145590D01*
X133141582Y-52136599D01*
X133150500Y-52094647D01*
X133150500Y-52051756D01*
X133150977Y-52042656D01*
X133155460Y-51999999D01*
X133150977Y-51957343D01*
X133150500Y-51948243D01*
X133150500Y-51905351D01*
X133141582Y-51863399D01*
X133140157Y-51854408D01*
X133135674Y-51811744D01*
X133122417Y-51770948D01*
X133120062Y-51762160D01*
X133111144Y-51720197D01*
X133093693Y-51681004D01*
X133090432Y-51672507D01*
X133077179Y-51631716D01*
X133055725Y-51594558D01*
X133051599Y-51586460D01*
X133034151Y-51547270D01*
X133008935Y-51512562D01*
X133003989Y-51504947D01*
X132982533Y-51467784D01*
X132982530Y-51467781D01*
X132982529Y-51467779D01*
X132953830Y-51435907D01*
X132953828Y-51435905D01*
X132953826Y-51435902D01*
X132948094Y-51428823D01*
X132922888Y-51394129D01*
X132922887Y-51394128D01*
X132891013Y-51365428D01*
X132884570Y-51358985D01*
X132855871Y-51327112D01*
X132821175Y-51301904D01*
X132814094Y-51296170D01*
X132782215Y-51267466D01*
X132745068Y-51246019D01*
X132737433Y-51241061D01*
X132702730Y-51215849D01*
X132702726Y-51215847D01*
X132663543Y-51198401D01*
X132655433Y-51194269D01*
X132626974Y-51177838D01*
X132618285Y-51172821D01*
X132618275Y-51172817D01*
X132577486Y-51159564D01*
X132568979Y-51156298D01*
X132529801Y-51138855D01*
X132529800Y-51138854D01*
X132487847Y-51129937D01*
X132479045Y-51127579D01*
X132438258Y-51114326D01*
X132438255Y-51114325D01*
X132395590Y-51109840D01*
X132386595Y-51108415D01*
X132353445Y-51101370D01*
X132344646Y-51099500D01*
X132297192Y-51099500D01*
X125844646Y-51099500D01*
X125655354Y-51099500D01*
X125633637Y-51104115D01*
X125613406Y-51108415D01*
X125604411Y-51109840D01*
X125561743Y-51114325D01*
X125520954Y-51127578D01*
X125512156Y-51129936D01*
X125470197Y-51138855D01*
X125431009Y-51156303D01*
X125422503Y-51159568D01*
X125381719Y-51172819D01*
X125381718Y-51172819D01*
X125344566Y-51194269D01*
X125336449Y-51198404D01*
X125297271Y-51215847D01*
X125262573Y-51241056D01*
X125254936Y-51246015D01*
X125217786Y-51267465D01*
X125217782Y-51267468D01*
X125185905Y-51296169D01*
X125178826Y-51301902D01*
X125144128Y-51327112D01*
X125144124Y-51327116D01*
X125115426Y-51358987D01*
X125108987Y-51365426D01*
X125077116Y-51394124D01*
X125077112Y-51394128D01*
X125051902Y-51428826D01*
X125046169Y-51435905D01*
X125017468Y-51467782D01*
X125017465Y-51467786D01*
X125011527Y-51478071D01*
X124953832Y-51538131D01*
X124874835Y-51564500D01*
X124792632Y-51551136D01*
X124726056Y-51501101D01*
X124703145Y-51464598D01*
X124689766Y-51435907D01*
X124674035Y-51402171D01*
X124538495Y-51208599D01*
X124538491Y-51208595D01*
X124538489Y-51208592D01*
X124371402Y-51041505D01*
X124243898Y-50952226D01*
X124189092Y-50889519D01*
X124169705Y-50808525D01*
X124190178Y-50727799D01*
X124243899Y-50667161D01*
X124371074Y-50578112D01*
X124538113Y-50411073D01*
X124538117Y-50411068D01*
X124673598Y-50217581D01*
X124773432Y-50003487D01*
X124830636Y-49790000D01*
X123933686Y-49790000D01*
X123959493Y-49749844D01*
X124000000Y-49611889D01*
X124000000Y-49468111D01*
X123959493Y-49330156D01*
X123933686Y-49290000D01*
X124830636Y-49290000D01*
X124830636Y-49289999D01*
X124773432Y-49076513D01*
X124773428Y-49076502D01*
X124673601Y-48862423D01*
X124673599Y-48862419D01*
X124594882Y-48750000D01*
X125844540Y-48750000D01*
X125864325Y-48938254D01*
X125922820Y-49118281D01*
X125922824Y-49118290D01*
X126017462Y-49282209D01*
X126017465Y-49282213D01*
X126017467Y-49282216D01*
X126094963Y-49368284D01*
X126144128Y-49422887D01*
X126144131Y-49422890D01*
X126206373Y-49468111D01*
X126297270Y-49534151D01*
X126470197Y-49611144D01*
X126655354Y-49650500D01*
X126844646Y-49650500D01*
X127029803Y-49611144D01*
X127202730Y-49534151D01*
X127355871Y-49422888D01*
X127370692Y-49406426D01*
X127439609Y-49359671D01*
X127522362Y-49350298D01*
X127599992Y-49380455D01*
X127629305Y-49406424D01*
X127644128Y-49422887D01*
X127644130Y-49422889D01*
X127644131Y-49422890D01*
X127706373Y-49468111D01*
X127797270Y-49534151D01*
X127970197Y-49611144D01*
X128155354Y-49650500D01*
X128344646Y-49650500D01*
X128529803Y-49611144D01*
X128702730Y-49534151D01*
X128855871Y-49422888D01*
X128982533Y-49282216D01*
X129077179Y-49118284D01*
X129078067Y-49115548D01*
X129089323Y-49090612D01*
X129088662Y-49090283D01*
X129091426Y-49084732D01*
X129091427Y-49084728D01*
X129091429Y-49084726D01*
X129197507Y-48827109D01*
X129246450Y-48708249D01*
X129295668Y-48641067D01*
X129370469Y-48604452D01*
X129407344Y-48600500D01*
X131694355Y-48600500D01*
X131775217Y-48620431D01*
X131837554Y-48675657D01*
X131867086Y-48753527D01*
X131864908Y-48802635D01*
X131865279Y-48802674D01*
X131864635Y-48808796D01*
X131864552Y-48810680D01*
X131864325Y-48811744D01*
X131844540Y-49000000D01*
X131864325Y-49188254D01*
X131922820Y-49368281D01*
X131922824Y-49368290D01*
X132017462Y-49532209D01*
X132017465Y-49532213D01*
X132017467Y-49532216D01*
X132078950Y-49600500D01*
X132144128Y-49672887D01*
X132144131Y-49672890D01*
X132176405Y-49696338D01*
X132297270Y-49784151D01*
X132470197Y-49861144D01*
X132655354Y-49900500D01*
X132844647Y-49900500D01*
X133029798Y-49861145D01*
X133029797Y-49861145D01*
X133029803Y-49861144D01*
X133065872Y-49845084D01*
X133093245Y-49835542D01*
X133108293Y-49831668D01*
X133630973Y-49613885D01*
X133697896Y-49600500D01*
X143694355Y-49600500D01*
X143775217Y-49620431D01*
X143837554Y-49675657D01*
X143867086Y-49753527D01*
X143864908Y-49802635D01*
X143865279Y-49802674D01*
X143864635Y-49808796D01*
X143864552Y-49810680D01*
X143864325Y-49811744D01*
X143844540Y-50000000D01*
X143864325Y-50188254D01*
X143922820Y-50368281D01*
X143922824Y-50368290D01*
X144017462Y-50532209D01*
X144017465Y-50532213D01*
X144017467Y-50532216D01*
X144112463Y-50637720D01*
X144144128Y-50672887D01*
X144169043Y-50690989D01*
X144222747Y-50754643D01*
X144240717Y-50835963D01*
X144218838Y-50916320D01*
X144171045Y-50971050D01*
X144142458Y-50992450D01*
X144142448Y-50992460D01*
X144056206Y-51107664D01*
X144056202Y-51107671D01*
X144005911Y-51242509D01*
X144005909Y-51242515D01*
X144005909Y-51242517D01*
X143999813Y-51299221D01*
X143999500Y-51302129D01*
X143999500Y-52397872D01*
X144005908Y-52457484D01*
X144006502Y-52459995D01*
X144006502Y-52463003D01*
X144007072Y-52468305D01*
X144006502Y-52468366D01*
X144006503Y-52531634D01*
X144007073Y-52531696D01*
X144006503Y-52536988D01*
X144006504Y-52539994D01*
X144005910Y-52542506D01*
X143999500Y-52602129D01*
X143999500Y-53697873D01*
X144005907Y-53757474D01*
X144005908Y-53757480D01*
X144056205Y-53892334D01*
X144056206Y-53892335D01*
X144142448Y-54007539D01*
X144142451Y-54007542D01*
X144142454Y-54007546D01*
X144142457Y-54007548D01*
X144142460Y-54007551D01*
X144257664Y-54093793D01*
X144257665Y-54093793D01*
X144257669Y-54093796D01*
X144321683Y-54117672D01*
X144390480Y-54164602D01*
X144429588Y-54238130D01*
X144430046Y-54321411D01*
X144429191Y-54324812D01*
X144413524Y-54384593D01*
X144394043Y-54458925D01*
X144389809Y-54476422D01*
X144387897Y-54484323D01*
X144387858Y-54484313D01*
X144383273Y-54503427D01*
X144364327Y-54561735D01*
X144364325Y-54561747D01*
X144344540Y-54750000D01*
X144364325Y-54938254D01*
X144422820Y-55118281D01*
X144422824Y-55118290D01*
X144517462Y-55282209D01*
X144517465Y-55282213D01*
X144517467Y-55282216D01*
X144517470Y-55282219D01*
X144644128Y-55422887D01*
X144644131Y-55422890D01*
X144681231Y-55449844D01*
X144797270Y-55534151D01*
X144970197Y-55611144D01*
X145155354Y-55650500D01*
X145344646Y-55650500D01*
X145529803Y-55611144D01*
X145702730Y-55534151D01*
X145855871Y-55422888D01*
X145982533Y-55282216D01*
X146077179Y-55118284D01*
X146135674Y-54938256D01*
X146155460Y-54750000D01*
X146139110Y-54594440D01*
X146135674Y-54561742D01*
X146113363Y-54493078D01*
X146107265Y-54464991D01*
X146107097Y-54465023D01*
X146106009Y-54459207D01*
X146105965Y-54459004D01*
X146105956Y-54458922D01*
X146070806Y-54324811D01*
X146069585Y-54241542D01*
X146107203Y-54167240D01*
X146175041Y-54118930D01*
X146178206Y-54117712D01*
X146242331Y-54093796D01*
X146357546Y-54007546D01*
X146443796Y-53892331D01*
X146494091Y-53757483D01*
X146500500Y-53697873D01*
X146500499Y-52602128D01*
X146494091Y-52542517D01*
X146494086Y-52542505D01*
X146493501Y-52540025D01*
X146493501Y-52537023D01*
X146492928Y-52531693D01*
X146493501Y-52531631D01*
X146493501Y-52468366D01*
X146492927Y-52468305D01*
X146493501Y-52462957D01*
X146493502Y-52459971D01*
X146494085Y-52457497D01*
X146494091Y-52457483D01*
X146500500Y-52397873D01*
X146500499Y-51302128D01*
X146499858Y-51296169D01*
X146494092Y-51242525D01*
X146494091Y-51242519D01*
X146494091Y-51242518D01*
X146494091Y-51242517D01*
X146443796Y-51107669D01*
X146443794Y-51107667D01*
X146443794Y-51107665D01*
X146443793Y-51107664D01*
X146357551Y-50992460D01*
X146357548Y-50992457D01*
X146357546Y-50992454D01*
X146357541Y-50992450D01*
X146357539Y-50992448D01*
X146242335Y-50906206D01*
X146242328Y-50906202D01*
X146107490Y-50855911D01*
X146107485Y-50855910D01*
X146107483Y-50855909D01*
X146064182Y-50851253D01*
X145985916Y-50822793D01*
X145946913Y-50786946D01*
X145888628Y-50714088D01*
X145853678Y-50638495D01*
X145850500Y-50605393D01*
X145850500Y-50577445D01*
X145850769Y-50570651D01*
X145850767Y-50570641D01*
X145850649Y-50568608D01*
X145850500Y-50563513D01*
X145850500Y-50545066D01*
X145851244Y-50533706D01*
X145855682Y-50500000D01*
X145855682Y-50499996D01*
X145835045Y-50343245D01*
X145835044Y-50343244D01*
X145835044Y-50343238D01*
X145829957Y-50330957D01*
X145774539Y-50197164D01*
X145774535Y-50197158D01*
X145763876Y-50183267D01*
X145735667Y-50128691D01*
X145732442Y-50118250D01*
X145727621Y-50035108D01*
X145761990Y-49959249D01*
X145827676Y-49908051D01*
X145862510Y-49896702D01*
X146029803Y-49861144D01*
X146202730Y-49784151D01*
X146355871Y-49672888D01*
X146482533Y-49532216D01*
X146577179Y-49368284D01*
X146635674Y-49188256D01*
X146655460Y-49000000D01*
X146635674Y-48811744D01*
X146577179Y-48631716D01*
X146559953Y-48601879D01*
X146482537Y-48467790D01*
X146482535Y-48467787D01*
X146482533Y-48467784D01*
X146355871Y-48327112D01*
X146355868Y-48327109D01*
X146241015Y-48243664D01*
X146202730Y-48215849D01*
X146029803Y-48138856D01*
X145844646Y-48099500D01*
X145655354Y-48099500D01*
X145470194Y-48138856D01*
X145434139Y-48154909D01*
X145406758Y-48164455D01*
X145391706Y-48168330D01*
X144869025Y-48386115D01*
X144802102Y-48399500D01*
X137055645Y-48399500D01*
X136974783Y-48379569D01*
X136912446Y-48324343D01*
X136882914Y-48246473D01*
X136885091Y-48197364D01*
X136884721Y-48197326D01*
X136885364Y-48191203D01*
X136885448Y-48189320D01*
X136885674Y-48188255D01*
X136887768Y-48168330D01*
X136905460Y-48000000D01*
X136885674Y-47811744D01*
X136827179Y-47631716D01*
X136820415Y-47620000D01*
X136732537Y-47467790D01*
X136732535Y-47467787D01*
X136732533Y-47467784D01*
X136605871Y-47327112D01*
X136605868Y-47327109D01*
X136491015Y-47243664D01*
X136452730Y-47215849D01*
X136319068Y-47156338D01*
X136279795Y-47138852D01*
X136273635Y-47136851D01*
X136202891Y-47092906D01*
X136160673Y-47021119D01*
X136154362Y-46989556D01*
X136135674Y-46811745D01*
X136135674Y-46811744D01*
X136077179Y-46631716D01*
X136048190Y-46581505D01*
X135982537Y-46467790D01*
X135982535Y-46467787D01*
X135982533Y-46467784D01*
X135958352Y-46440928D01*
X135919057Y-46367499D01*
X135918386Y-46284220D01*
X135956495Y-46210169D01*
X136024651Y-46162309D01*
X136087660Y-46150500D01*
X152977437Y-46150500D01*
X153004654Y-46152642D01*
X153006421Y-46152921D01*
X153014612Y-46154219D01*
X153072249Y-46151198D01*
X153083314Y-46150619D01*
X153087868Y-46150500D01*
X153109183Y-46150500D01*
X153109192Y-46150500D01*
X153130421Y-46148268D01*
X153134946Y-46147913D01*
X153146242Y-46147320D01*
X153203646Y-46144313D01*
X153213379Y-46141704D01*
X153240243Y-46136726D01*
X153240385Y-46136710D01*
X153250256Y-46135674D01*
X153315710Y-46114406D01*
X153320011Y-46113132D01*
X153386488Y-46095320D01*
X153395460Y-46090747D01*
X153420701Y-46080291D01*
X153430284Y-46077179D01*
X153489889Y-46042764D01*
X153493824Y-46040628D01*
X153555149Y-46009383D01*
X153562978Y-46003041D01*
X153585491Y-45987569D01*
X153594216Y-45982533D01*
X153645369Y-45936473D01*
X153648806Y-45933540D01*
X153665380Y-45920119D01*
X153680493Y-45905004D01*
X153683753Y-45901911D01*
X153734888Y-45855871D01*
X153740809Y-45847719D01*
X153758540Y-45826957D01*
X154032957Y-45552540D01*
X154053719Y-45534809D01*
X154061871Y-45528888D01*
X154107911Y-45477753D01*
X154111004Y-45474493D01*
X154126119Y-45459380D01*
X154139545Y-45442800D01*
X154142473Y-45439369D01*
X154188533Y-45388216D01*
X154193569Y-45379491D01*
X154209041Y-45356978D01*
X154215383Y-45349149D01*
X154246628Y-45287824D01*
X154248764Y-45283889D01*
X154283179Y-45224284D01*
X154286290Y-45214706D01*
X154296745Y-45189464D01*
X154301320Y-45180488D01*
X154319123Y-45114037D01*
X154320416Y-45109677D01*
X154341672Y-45044263D01*
X154341672Y-45044261D01*
X154341674Y-45044256D01*
X154342728Y-45034224D01*
X154347705Y-45007373D01*
X154350311Y-44997648D01*
X154350312Y-44997646D01*
X154353912Y-44928954D01*
X154354266Y-44924437D01*
X154361460Y-44856000D01*
X154360405Y-44845971D01*
X154359691Y-44818675D01*
X154360219Y-44808612D01*
X154349459Y-44740676D01*
X154348864Y-44736159D01*
X154342230Y-44673040D01*
X154341674Y-44667744D01*
X154338556Y-44658149D01*
X154332183Y-44631598D01*
X154330607Y-44621652D01*
X154330608Y-44621652D01*
X154305955Y-44557430D01*
X154304435Y-44553135D01*
X154286185Y-44496969D01*
X154283179Y-44487716D01*
X154278139Y-44478987D01*
X154266380Y-44454334D01*
X154262771Y-44444930D01*
X154225301Y-44387231D01*
X154222942Y-44383382D01*
X154188533Y-44323784D01*
X154181786Y-44316291D01*
X154165159Y-44294621D01*
X154159676Y-44286177D01*
X154159675Y-44286176D01*
X154111029Y-44237529D01*
X154107893Y-44234224D01*
X154061871Y-44183112D01*
X154061870Y-44183111D01*
X154053720Y-44177190D01*
X154032956Y-44159457D01*
X154025823Y-44152324D01*
X153968128Y-44114856D01*
X153964376Y-44112277D01*
X153908729Y-44071848D01*
X153899518Y-44067747D01*
X153875527Y-44054721D01*
X153867070Y-44049229D01*
X153867068Y-44049228D01*
X153850702Y-44042946D01*
X153802829Y-44024569D01*
X153798666Y-44022845D01*
X153735803Y-43994856D01*
X153725927Y-43992756D01*
X153699760Y-43985005D01*
X153690354Y-43981394D01*
X153690343Y-43981391D01*
X153622414Y-43970632D01*
X153617936Y-43969802D01*
X153550647Y-43955500D01*
X153550646Y-43955500D01*
X153540563Y-43955500D01*
X153513346Y-43953358D01*
X153503389Y-43951781D01*
X153503388Y-43951781D01*
X153491189Y-43952420D01*
X153434692Y-43955381D01*
X153430139Y-43955500D01*
X153361352Y-43955500D01*
X153351475Y-43957599D01*
X153324429Y-43961159D01*
X153314360Y-43961687D01*
X153314352Y-43961688D01*
X153247899Y-43979493D01*
X153243471Y-43980556D01*
X153176196Y-43994856D01*
X153166980Y-43998959D01*
X153141262Y-44008066D01*
X153131520Y-44010676D01*
X153131509Y-44010681D01*
X153070210Y-44041914D01*
X153066100Y-44043874D01*
X153003269Y-44071848D01*
X152995109Y-44077777D01*
X152971844Y-44092034D01*
X152962851Y-44096616D01*
X152962848Y-44096618D01*
X152909394Y-44139905D01*
X152905781Y-44142677D01*
X152850137Y-44183105D01*
X152850126Y-44183115D01*
X152804096Y-44234235D01*
X152800963Y-44237536D01*
X152775846Y-44262654D01*
X152739963Y-44298537D01*
X152668696Y-44341621D01*
X152616928Y-44349500D01*
X128584563Y-44349500D01*
X128557346Y-44347358D01*
X128547388Y-44345781D01*
X128478687Y-44349381D01*
X128474134Y-44349500D01*
X128452808Y-44349500D01*
X128441016Y-44350738D01*
X128431590Y-44351729D01*
X128427053Y-44352086D01*
X128358356Y-44355686D01*
X128348605Y-44358299D01*
X128321775Y-44363271D01*
X128311743Y-44364325D01*
X128246340Y-44385576D01*
X128241974Y-44386870D01*
X128175517Y-44404677D01*
X128166523Y-44409260D01*
X128141305Y-44419705D01*
X128131721Y-44422818D01*
X128131717Y-44422820D01*
X128072147Y-44457212D01*
X128068146Y-44459385D01*
X128006852Y-44490615D01*
X127999006Y-44496969D01*
X127976518Y-44512424D01*
X127967784Y-44517466D01*
X127916660Y-44563497D01*
X127913200Y-44566452D01*
X127896623Y-44579876D01*
X127896617Y-44579881D01*
X127881523Y-44594975D01*
X127878224Y-44598105D01*
X127827112Y-44644128D01*
X127827110Y-44644130D01*
X127821189Y-44652281D01*
X127803459Y-44673040D01*
X126173042Y-46303457D01*
X126152290Y-46321181D01*
X126144134Y-46327107D01*
X126144125Y-46327115D01*
X126098096Y-46378234D01*
X126094965Y-46381534D01*
X126079886Y-46396613D01*
X126079878Y-46396623D01*
X126066460Y-46413191D01*
X126063507Y-46416648D01*
X126017470Y-46467779D01*
X126012424Y-46476519D01*
X125996967Y-46499008D01*
X125990623Y-46506842D01*
X125990614Y-46506856D01*
X125959384Y-46568146D01*
X125957212Y-46572146D01*
X125922822Y-46631713D01*
X125922816Y-46631727D01*
X125919703Y-46641308D01*
X125909262Y-46666518D01*
X125904681Y-46675508D01*
X125904679Y-46675514D01*
X125886877Y-46741947D01*
X125885584Y-46746310D01*
X125864326Y-46811740D01*
X125864325Y-46811744D01*
X125863272Y-46821770D01*
X125858298Y-46848608D01*
X125855688Y-46858347D01*
X125855686Y-46858363D01*
X125852086Y-46927044D01*
X125851729Y-46931582D01*
X125844540Y-46999996D01*
X125844540Y-46999999D01*
X125845594Y-47010032D01*
X125846308Y-47037309D01*
X125845780Y-47047383D01*
X125845780Y-47047386D01*
X125856538Y-47115315D01*
X125857132Y-47119827D01*
X125864325Y-47188252D01*
X125864328Y-47188267D01*
X125867445Y-47197860D01*
X125873814Y-47224389D01*
X125875391Y-47234344D01*
X125875392Y-47234350D01*
X125900035Y-47298545D01*
X125901555Y-47302838D01*
X125917573Y-47352134D01*
X125922821Y-47368284D01*
X125927863Y-47377017D01*
X125939617Y-47401659D01*
X125943230Y-47411072D01*
X125980683Y-47468745D01*
X125983063Y-47472628D01*
X126017467Y-47532216D01*
X126024213Y-47539708D01*
X126040840Y-47561377D01*
X126046323Y-47569821D01*
X126046328Y-47569827D01*
X126094970Y-47618470D01*
X126098105Y-47621774D01*
X126144128Y-47672887D01*
X126152279Y-47678809D01*
X126173044Y-47696543D01*
X126180175Y-47703674D01*
X126220218Y-47729678D01*
X126277178Y-47790433D01*
X126299381Y-47870700D01*
X126281738Y-47952092D01*
X126228291Y-48015962D01*
X126227726Y-48016374D01*
X126144129Y-48077111D01*
X126144128Y-48077112D01*
X126017470Y-48217780D01*
X126017462Y-48217790D01*
X125922824Y-48381709D01*
X125922820Y-48381718D01*
X125864325Y-48561745D01*
X125844540Y-48750000D01*
X124594882Y-48750000D01*
X124538113Y-48668926D01*
X124471067Y-48601880D01*
X124427983Y-48530609D01*
X124422954Y-48447479D01*
X124457134Y-48371534D01*
X124522692Y-48320172D01*
X124533275Y-48315822D01*
X124592331Y-48293796D01*
X124707546Y-48207546D01*
X124793796Y-48092331D01*
X124844091Y-47957483D01*
X124850500Y-47897873D01*
X124850499Y-46102128D01*
X124848151Y-46080289D01*
X124844092Y-46042525D01*
X124844091Y-46042519D01*
X124844091Y-46042518D01*
X124844091Y-46042517D01*
X124793796Y-45907669D01*
X124793794Y-45907667D01*
X124793794Y-45907665D01*
X124793793Y-45907664D01*
X124707551Y-45792460D01*
X124707548Y-45792457D01*
X124707546Y-45792454D01*
X124707542Y-45792451D01*
X124707539Y-45792448D01*
X124592335Y-45706206D01*
X124592328Y-45706202D01*
X124457490Y-45655911D01*
X124457485Y-45655910D01*
X124457483Y-45655909D01*
X124397873Y-45649500D01*
X124397870Y-45649500D01*
X122602126Y-45649500D01*
X122542525Y-45655907D01*
X122542519Y-45655908D01*
X122407665Y-45706205D01*
X122407664Y-45706206D01*
X122292460Y-45792448D01*
X122292448Y-45792460D01*
X122206206Y-45907664D01*
X122206202Y-45907671D01*
X122155911Y-46042509D01*
X122155909Y-46042515D01*
X122155909Y-46042517D01*
X122150724Y-46090748D01*
X122149500Y-46102129D01*
X122149500Y-47897873D01*
X122155907Y-47957474D01*
X122155908Y-47957480D01*
X122206205Y-48092334D01*
X122206206Y-48092335D01*
X122292448Y-48207539D01*
X122292451Y-48207542D01*
X122292454Y-48207546D01*
X122292457Y-48207548D01*
X122292460Y-48207551D01*
X122407664Y-48293793D01*
X122407669Y-48293796D01*
X122466702Y-48315814D01*
X122535500Y-48362746D01*
X122574608Y-48436275D01*
X122575065Y-48519555D01*
X122536768Y-48593509D01*
X122528932Y-48601879D01*
X122461888Y-48668923D01*
X122326400Y-48862419D01*
X122326398Y-48862423D01*
X122226571Y-49076502D01*
X122226567Y-49076513D01*
X122169363Y-49289999D01*
X122169364Y-49290000D01*
X123066314Y-49290000D01*
X123040507Y-49330156D01*
X123000000Y-49468111D01*
X123000000Y-49611889D01*
X123040507Y-49749844D01*
X123066314Y-49790000D01*
X122169364Y-49790000D01*
X122226567Y-50003487D01*
X122326401Y-50217581D01*
X122461882Y-50411068D01*
X122461886Y-50411073D01*
X122628925Y-50578112D01*
X122756101Y-50667161D01*
X122810907Y-50729868D01*
X122830295Y-50810861D01*
X122809822Y-50891588D01*
X122756102Y-50952226D01*
X122628598Y-51041505D01*
X122461507Y-51208596D01*
X122325962Y-51402174D01*
X122226098Y-51616333D01*
X122226096Y-51616338D01*
X122164936Y-51844593D01*
X122144341Y-52080000D01*
X122164936Y-52315406D01*
X122226094Y-52543655D01*
X122226097Y-52543663D01*
X122325966Y-52757832D01*
X122450306Y-52935408D01*
X122461505Y-52951401D01*
X122628599Y-53118495D01*
X122628602Y-53118497D01*
X122628603Y-53118498D01*
X122755665Y-53207468D01*
X122810472Y-53270174D01*
X122829859Y-53351168D01*
X122809386Y-53431894D01*
X122755665Y-53492532D01*
X122628602Y-53581501D01*
X122461507Y-53748596D01*
X122325962Y-53942174D01*
X122226098Y-54156333D01*
X122226096Y-54156338D01*
X122164936Y-54384593D01*
X122144341Y-54620000D01*
X122164936Y-54855406D01*
X122226094Y-55083655D01*
X122226097Y-55083663D01*
X122318685Y-55282219D01*
X122325966Y-55297832D01*
X122413531Y-55422888D01*
X122461505Y-55491401D01*
X122628599Y-55658495D01*
X122628602Y-55658497D01*
X122628603Y-55658498D01*
X122755665Y-55747468D01*
X122810472Y-55810174D01*
X122829859Y-55891168D01*
X122809386Y-55971894D01*
X122755665Y-56032532D01*
X122628602Y-56121501D01*
X122461507Y-56288596D01*
X122325962Y-56482174D01*
X122226098Y-56696333D01*
X122226096Y-56696338D01*
X122164936Y-56924593D01*
X122144341Y-57160000D01*
X122164936Y-57395406D01*
X122226094Y-57623655D01*
X122226097Y-57623663D01*
X122325966Y-57837832D01*
X122450306Y-58015408D01*
X122461505Y-58031401D01*
X122628599Y-58198495D01*
X122628602Y-58198497D01*
X122628603Y-58198498D01*
X122755665Y-58287468D01*
X122810472Y-58350174D01*
X122829859Y-58431168D01*
X122809386Y-58511894D01*
X122755665Y-58572532D01*
X122628602Y-58661501D01*
X122461507Y-58828596D01*
X122325962Y-59022174D01*
X122226098Y-59236333D01*
X122226096Y-59236338D01*
X122164936Y-59464593D01*
X122144341Y-59700000D01*
X122164936Y-59935406D01*
X122226094Y-60163655D01*
X122226097Y-60163663D01*
X122325966Y-60377832D01*
X122460993Y-60570671D01*
X122461505Y-60571401D01*
X122628599Y-60738495D01*
X122628602Y-60738497D01*
X122628603Y-60738498D01*
X122755665Y-60827468D01*
X122810472Y-60890174D01*
X122829859Y-60971168D01*
X122809386Y-61051894D01*
X122755665Y-61112532D01*
X122628602Y-61201501D01*
X122461507Y-61368596D01*
X122325962Y-61562174D01*
X122226098Y-61776333D01*
X122226096Y-61776338D01*
X122164936Y-62004593D01*
X122144341Y-62240000D01*
X122164936Y-62475406D01*
X122226094Y-62703655D01*
X122226097Y-62703663D01*
X122239183Y-62731727D01*
X122325966Y-62917832D01*
X122453521Y-63100000D01*
X122461505Y-63111401D01*
X122628599Y-63278495D01*
X122628602Y-63278497D01*
X122628603Y-63278498D01*
X122755665Y-63367468D01*
X122810472Y-63430174D01*
X122829859Y-63511168D01*
X122809386Y-63591894D01*
X122755665Y-63652532D01*
X122628602Y-63741501D01*
X122461507Y-63908596D01*
X122325962Y-64102174D01*
X122226098Y-64316333D01*
X122226096Y-64316338D01*
X122164936Y-64544593D01*
X122144341Y-64780000D01*
X121550500Y-64780000D01*
X121550500Y-40780000D01*
X122144341Y-40780000D01*
X122164936Y-41015406D01*
X122226094Y-41243655D01*
X122226097Y-41243663D01*
X122281626Y-41362746D01*
X122325966Y-41457832D01*
X122420968Y-41593509D01*
X122461505Y-41651401D01*
X122628599Y-41818495D01*
X122628602Y-41818497D01*
X122628603Y-41818498D01*
X122822167Y-41954033D01*
X122822170Y-41954035D01*
X123036337Y-42053903D01*
X123264592Y-42115063D01*
X123264591Y-42115063D01*
X123283530Y-42116719D01*
X123500000Y-42135659D01*
X123735408Y-42115063D01*
X123963663Y-42053903D01*
X124177830Y-41954035D01*
X124371401Y-41818495D01*
X124538495Y-41651401D01*
X124674035Y-41457830D01*
X124773903Y-41243663D01*
X124835063Y-41015408D01*
X124855659Y-40780000D01*
X124835063Y-40544592D01*
X124773903Y-40316337D01*
X124755612Y-40277112D01*
X124674037Y-40102174D01*
X124674035Y-40102171D01*
X124538495Y-39908599D01*
X124538491Y-39908595D01*
X124538489Y-39908592D01*
X124371399Y-39741503D01*
X124244335Y-39652532D01*
X124189528Y-39589826D01*
X124170141Y-39508832D01*
X124190614Y-39428106D01*
X124244335Y-39367468D01*
X124363326Y-39284149D01*
X124371401Y-39278495D01*
X124538495Y-39111401D01*
X124674035Y-38917830D01*
X124773903Y-38703663D01*
X124835063Y-38475408D01*
X124855659Y-38240000D01*
X124835063Y-38004592D01*
X124773903Y-37776337D01*
X124697152Y-37611745D01*
X124674037Y-37562174D01*
X124674035Y-37562171D01*
X124538495Y-37368599D01*
X124538491Y-37368595D01*
X124538489Y-37368592D01*
X124371399Y-37201503D01*
X124244335Y-37112532D01*
X124189528Y-37049826D01*
X124170141Y-36968832D01*
X124190614Y-36888106D01*
X124244335Y-36827468D01*
X124296222Y-36791135D01*
X124371401Y-36738495D01*
X124538495Y-36571401D01*
X124674035Y-36377830D01*
X124773903Y-36163663D01*
X124835063Y-35935408D01*
X124855659Y-35700000D01*
X124835063Y-35464592D01*
X124773903Y-35236337D01*
X124712510Y-35104680D01*
X124674037Y-35022174D01*
X124674035Y-35022171D01*
X124538495Y-34828599D01*
X124538491Y-34828595D01*
X124538489Y-34828592D01*
X124371399Y-34661503D01*
X124244335Y-34572532D01*
X124189528Y-34509826D01*
X124170141Y-34428832D01*
X124190614Y-34348106D01*
X124244335Y-34287468D01*
X124296222Y-34251135D01*
X124371401Y-34198495D01*
X124538495Y-34031401D01*
X124674035Y-33837830D01*
X124773903Y-33623663D01*
X124835063Y-33395408D01*
X124855659Y-33160000D01*
X124835063Y-32924592D01*
X124773903Y-32696337D01*
X124722820Y-32586789D01*
X124674037Y-32482174D01*
X124667577Y-32472948D01*
X124538495Y-32288599D01*
X124538491Y-32288595D01*
X124538489Y-32288592D01*
X124371399Y-32121503D01*
X124244335Y-32032532D01*
X124189528Y-31969826D01*
X124170141Y-31888832D01*
X124190614Y-31808106D01*
X124244335Y-31747468D01*
X124358126Y-31667790D01*
X124371401Y-31658495D01*
X124538495Y-31491401D01*
X124674035Y-31297830D01*
X124773903Y-31083663D01*
X124835063Y-30855408D01*
X124855659Y-30620000D01*
X124835063Y-30384592D01*
X124773903Y-30156337D01*
X124732779Y-30068146D01*
X124674037Y-29942174D01*
X124674035Y-29942171D01*
X124538495Y-29748599D01*
X124538491Y-29748595D01*
X124538489Y-29748592D01*
X124371399Y-29581503D01*
X124244335Y-29492532D01*
X124189528Y-29429826D01*
X124170141Y-29348832D01*
X124190614Y-29268106D01*
X124244335Y-29207468D01*
X124296222Y-29171135D01*
X124371401Y-29118495D01*
X124538495Y-28951401D01*
X124674035Y-28757830D01*
X124773903Y-28543663D01*
X124835063Y-28315408D01*
X124855659Y-28080000D01*
X124835063Y-27844592D01*
X124773903Y-27616337D01*
X124732599Y-27527760D01*
X124674037Y-27402174D01*
X124666660Y-27391639D01*
X124567486Y-27250003D01*
X125344540Y-27250003D01*
X125351729Y-27318416D01*
X125352086Y-27322954D01*
X125355686Y-27391639D01*
X125355688Y-27391651D01*
X125358296Y-27401384D01*
X125363272Y-27428230D01*
X125364325Y-27438255D01*
X125364326Y-27438257D01*
X125385581Y-27503674D01*
X125386874Y-27508039D01*
X125404679Y-27574484D01*
X125404682Y-27574492D01*
X125409261Y-27583480D01*
X125419704Y-27608693D01*
X125422820Y-27618283D01*
X125422821Y-27618285D01*
X125457212Y-27677851D01*
X125459386Y-27681855D01*
X125490617Y-27743149D01*
X125490619Y-27743151D01*
X125496961Y-27750983D01*
X125512426Y-27773485D01*
X125517464Y-27782211D01*
X125517468Y-27782218D01*
X125563500Y-27833341D01*
X125566456Y-27836803D01*
X125579881Y-27853380D01*
X125594969Y-27868469D01*
X125598099Y-27871766D01*
X125621605Y-27897873D01*
X125644128Y-27922887D01*
X125652279Y-27928809D01*
X125673044Y-27946543D01*
X125798537Y-28072036D01*
X125841621Y-28143307D01*
X125849500Y-28195073D01*
X125849500Y-38448243D01*
X125849023Y-38457342D01*
X125844540Y-38499999D01*
X125854945Y-38598995D01*
X125864325Y-38688252D01*
X125864326Y-38688257D01*
X125922820Y-38868281D01*
X125922824Y-38868290D01*
X126017462Y-39032209D01*
X126017465Y-39032213D01*
X126017467Y-39032216D01*
X126080415Y-39102127D01*
X126144128Y-39172887D01*
X126144131Y-39172890D01*
X126220699Y-39228519D01*
X126297270Y-39284151D01*
X126470197Y-39361144D01*
X126655354Y-39400500D01*
X126844649Y-39400500D01*
X126903564Y-39387977D01*
X126986803Y-39390659D01*
X127059261Y-39431717D01*
X127104338Y-39501745D01*
X127112789Y-39576361D01*
X127094540Y-39749999D01*
X127114325Y-39938254D01*
X127172820Y-40118281D01*
X127172824Y-40118290D01*
X127267462Y-40282209D01*
X127267465Y-40282213D01*
X127267467Y-40282216D01*
X127267470Y-40282219D01*
X127394128Y-40422887D01*
X127394131Y-40422890D01*
X127470699Y-40478519D01*
X127547270Y-40534151D01*
X127720197Y-40611144D01*
X127905354Y-40650500D01*
X128094646Y-40650500D01*
X128279803Y-40611144D01*
X128452730Y-40534151D01*
X128605871Y-40422888D01*
X128732533Y-40282216D01*
X128827179Y-40118284D01*
X128885674Y-39938256D01*
X128905460Y-39750000D01*
X128885674Y-39561744D01*
X128885673Y-39561742D01*
X128885673Y-39561739D01*
X128866179Y-39501745D01*
X128837244Y-39412696D01*
X128835743Y-39407533D01*
X128831669Y-39391706D01*
X128613885Y-38869022D01*
X128600500Y-38802099D01*
X128600500Y-28197898D01*
X128613885Y-28130975D01*
X128831669Y-27608292D01*
X128849757Y-27557369D01*
X128849899Y-27556394D01*
X128856591Y-27527760D01*
X128862999Y-27508039D01*
X128885674Y-27438256D01*
X128905460Y-27250000D01*
X128885674Y-27061744D01*
X128827179Y-26881716D01*
X128785774Y-26810000D01*
X128732537Y-26717790D01*
X128732535Y-26717787D01*
X128732533Y-26717784D01*
X128605871Y-26577112D01*
X128605870Y-26577111D01*
X128605868Y-26577109D01*
X128471961Y-26479821D01*
X128452730Y-26465849D01*
X128279803Y-26388856D01*
X128094646Y-26349500D01*
X127905354Y-26349500D01*
X127720197Y-26388856D01*
X127612187Y-26436946D01*
X127547268Y-26465850D01*
X127394131Y-26577109D01*
X127394128Y-26577112D01*
X127261365Y-26724561D01*
X127259359Y-26722755D01*
X127207284Y-26766659D01*
X127125958Y-26784601D01*
X127045609Y-26762693D01*
X127007193Y-26733694D01*
X126905036Y-26631537D01*
X126901901Y-26628233D01*
X126855871Y-26577112D01*
X126855870Y-26577111D01*
X126813497Y-26546326D01*
X126800221Y-26536680D01*
X126796620Y-26533917D01*
X126743151Y-26490619D01*
X126743149Y-26490617D01*
X126743143Y-26490614D01*
X126743140Y-26490612D01*
X126734156Y-26486034D01*
X126710880Y-26471770D01*
X126702730Y-26465849D01*
X126693517Y-26461747D01*
X126639862Y-26437858D01*
X126635795Y-26435917D01*
X126574488Y-26404680D01*
X126572328Y-26404101D01*
X126564745Y-26402069D01*
X126539016Y-26392958D01*
X126529803Y-26388856D01*
X126462535Y-26374557D01*
X126458109Y-26373494D01*
X126391644Y-26355686D01*
X126381568Y-26355158D01*
X126354519Y-26351597D01*
X126344653Y-26349500D01*
X126344646Y-26349500D01*
X126275868Y-26349500D01*
X126271314Y-26349381D01*
X126216760Y-26346522D01*
X126202612Y-26345781D01*
X126202611Y-26345781D01*
X126192654Y-26347358D01*
X126165437Y-26349500D01*
X126155351Y-26349500D01*
X126088061Y-26363802D01*
X126083584Y-26364632D01*
X126015646Y-26375393D01*
X126006229Y-26379008D01*
X125980070Y-26386756D01*
X125970197Y-26388856D01*
X125970196Y-26388856D01*
X125970193Y-26388857D01*
X125907350Y-26416836D01*
X125903144Y-26418578D01*
X125838932Y-26443228D01*
X125830462Y-26448728D01*
X125806482Y-26461747D01*
X125797271Y-26465848D01*
X125741627Y-26506275D01*
X125737875Y-26508853D01*
X125680176Y-26546324D01*
X125673038Y-26553462D01*
X125652297Y-26571176D01*
X125644133Y-26577108D01*
X125644125Y-26577115D01*
X125598096Y-26628235D01*
X125594962Y-26631537D01*
X125546327Y-26680173D01*
X125546323Y-26680177D01*
X125540834Y-26688631D01*
X125524218Y-26710286D01*
X125517469Y-26717780D01*
X125517462Y-26717791D01*
X125483070Y-26777359D01*
X125480691Y-26781242D01*
X125443228Y-26838931D01*
X125443227Y-26838932D01*
X125439611Y-26848352D01*
X125427865Y-26872978D01*
X125422820Y-26881715D01*
X125422820Y-26881717D01*
X125401563Y-26947139D01*
X125400043Y-26951431D01*
X125375392Y-27015649D01*
X125373815Y-27025609D01*
X125367444Y-27052147D01*
X125364324Y-27061748D01*
X125357132Y-27130176D01*
X125356537Y-27134688D01*
X125345780Y-27202611D01*
X125345780Y-27202615D01*
X125346308Y-27212689D01*
X125345594Y-27239966D01*
X125344540Y-27249998D01*
X125344540Y-27250003D01*
X124567486Y-27250003D01*
X124538495Y-27208599D01*
X124538491Y-27208595D01*
X124538489Y-27208592D01*
X124371399Y-27041503D01*
X124244335Y-26952532D01*
X124189528Y-26889826D01*
X124170141Y-26808832D01*
X124190614Y-26728106D01*
X124244335Y-26667468D01*
X124300368Y-26628233D01*
X124371401Y-26578495D01*
X124538495Y-26411401D01*
X124674035Y-26217830D01*
X124773903Y-26003663D01*
X124835063Y-25775408D01*
X124855659Y-25540000D01*
X124835063Y-25304592D01*
X124773903Y-25076337D01*
X124755612Y-25037112D01*
X124674037Y-24862174D01*
X124674035Y-24862171D01*
X124538495Y-24668599D01*
X124538491Y-24668595D01*
X124538489Y-24668592D01*
X124471195Y-24601299D01*
X124428110Y-24530029D01*
X124423081Y-24446899D01*
X124457260Y-24370954D01*
X124522818Y-24319592D01*
X124533426Y-24315232D01*
X124592090Y-24293351D01*
X124592093Y-24293350D01*
X124707182Y-24207194D01*
X124707194Y-24207182D01*
X124793350Y-24092093D01*
X124793354Y-24092086D01*
X124843598Y-23957376D01*
X124843598Y-23957373D01*
X124850000Y-23897828D01*
X124850000Y-23250001D01*
X124849999Y-23250000D01*
X123933686Y-23250000D01*
X123959493Y-23209844D01*
X124000000Y-23071889D01*
X124000000Y-22928111D01*
X123959493Y-22790156D01*
X123933686Y-22750000D01*
X124849999Y-22750000D01*
X124850000Y-22749999D01*
X124850000Y-22102171D01*
X124843598Y-22042626D01*
X124843598Y-22042623D01*
X124793354Y-21907913D01*
X124793350Y-21907906D01*
X124707194Y-21792817D01*
X124707182Y-21792805D01*
X124592093Y-21706649D01*
X124592086Y-21706645D01*
X124457375Y-21656401D01*
X124397829Y-21650000D01*
X123750001Y-21650000D01*
X123750000Y-21650001D01*
X123750000Y-22564498D01*
X123642315Y-22515320D01*
X123535763Y-22500000D01*
X123464237Y-22500000D01*
X123357685Y-22515320D01*
X123250000Y-22564498D01*
X123250000Y-21650001D01*
X123249999Y-21650000D01*
X122602171Y-21650000D01*
X122542626Y-21656401D01*
X122542623Y-21656401D01*
X122407913Y-21706645D01*
X122407906Y-21706649D01*
X122292817Y-21792805D01*
X122292805Y-21792817D01*
X122206649Y-21907906D01*
X122206645Y-21907913D01*
X122156401Y-22042623D01*
X122156401Y-22042626D01*
X122150000Y-22102171D01*
X122150000Y-22749999D01*
X122150001Y-22750000D01*
X123066314Y-22750000D01*
X123040507Y-22790156D01*
X123000000Y-22928111D01*
X123000000Y-23071889D01*
X123040507Y-23209844D01*
X123066314Y-23250000D01*
X122150001Y-23250000D01*
X122150000Y-23250001D01*
X122150000Y-23897828D01*
X122156401Y-23957373D01*
X122156401Y-23957376D01*
X122206645Y-24092086D01*
X122206649Y-24092093D01*
X122292805Y-24207182D01*
X122292817Y-24207194D01*
X122407906Y-24293350D01*
X122407911Y-24293353D01*
X122466574Y-24315233D01*
X122535372Y-24362165D01*
X122574480Y-24435694D01*
X122574937Y-24518974D01*
X122536640Y-24592928D01*
X122528804Y-24601298D01*
X122461511Y-24668591D01*
X122461508Y-24668595D01*
X122325962Y-24862174D01*
X122226098Y-25076333D01*
X122226096Y-25076338D01*
X122164936Y-25304593D01*
X122144341Y-25540000D01*
X122164936Y-25775406D01*
X122226094Y-26003655D01*
X122226097Y-26003663D01*
X122325966Y-26217832D01*
X122456798Y-26404680D01*
X122461505Y-26411401D01*
X122628599Y-26578495D01*
X122628602Y-26578497D01*
X122628603Y-26578498D01*
X122755665Y-26667468D01*
X122810472Y-26730174D01*
X122829859Y-26811168D01*
X122809386Y-26891894D01*
X122755665Y-26952532D01*
X122628602Y-27041501D01*
X122461507Y-27208596D01*
X122325962Y-27402174D01*
X122226098Y-27616333D01*
X122226096Y-27616338D01*
X122164936Y-27844593D01*
X122144341Y-28080000D01*
X122164936Y-28315406D01*
X122226094Y-28543655D01*
X122226097Y-28543663D01*
X122311287Y-28726354D01*
X122325966Y-28757832D01*
X122452302Y-28938259D01*
X122461505Y-28951401D01*
X122628599Y-29118495D01*
X122628602Y-29118497D01*
X122628603Y-29118498D01*
X122755665Y-29207468D01*
X122810472Y-29270174D01*
X122829859Y-29351168D01*
X122809386Y-29431894D01*
X122755665Y-29492532D01*
X122628602Y-29581501D01*
X122461507Y-29748596D01*
X122325962Y-29942174D01*
X122226098Y-30156333D01*
X122226096Y-30156338D01*
X122164936Y-30384593D01*
X122144341Y-30620000D01*
X122164936Y-30855406D01*
X122226094Y-31083655D01*
X122226097Y-31083663D01*
X122325966Y-31297832D01*
X122408603Y-31415850D01*
X122461505Y-31491401D01*
X122628599Y-31658495D01*
X122628602Y-31658497D01*
X122628603Y-31658498D01*
X122755665Y-31747468D01*
X122810472Y-31810174D01*
X122829859Y-31891168D01*
X122809386Y-31971894D01*
X122755665Y-32032532D01*
X122628602Y-32121501D01*
X122461507Y-32288596D01*
X122325962Y-32482174D01*
X122226098Y-32696333D01*
X122226096Y-32696338D01*
X122164936Y-32924593D01*
X122144341Y-33160000D01*
X122164936Y-33395406D01*
X122226094Y-33623655D01*
X122226097Y-33623663D01*
X122325966Y-33837832D01*
X122403871Y-33949092D01*
X122461505Y-34031401D01*
X122628599Y-34198495D01*
X122628602Y-34198497D01*
X122628603Y-34198498D01*
X122755665Y-34287468D01*
X122810472Y-34350174D01*
X122829859Y-34431168D01*
X122809386Y-34511894D01*
X122755665Y-34572532D01*
X122628602Y-34661501D01*
X122461507Y-34828596D01*
X122325962Y-35022174D01*
X122226098Y-35236333D01*
X122226096Y-35236338D01*
X122164936Y-35464593D01*
X122144341Y-35700000D01*
X122164936Y-35935406D01*
X122226094Y-36163655D01*
X122226097Y-36163663D01*
X122325966Y-36377832D01*
X122385842Y-36463344D01*
X122461505Y-36571401D01*
X122628599Y-36738495D01*
X122628602Y-36738497D01*
X122628603Y-36738498D01*
X122755665Y-36827468D01*
X122810472Y-36890174D01*
X122829859Y-36971168D01*
X122809386Y-37051894D01*
X122755665Y-37112532D01*
X122628602Y-37201501D01*
X122461507Y-37368596D01*
X122325962Y-37562174D01*
X122226098Y-37776333D01*
X122226096Y-37776338D01*
X122164936Y-38004593D01*
X122144341Y-38240000D01*
X122164936Y-38475406D01*
X122226094Y-38703655D01*
X122226097Y-38703663D01*
X122325966Y-38917832D01*
X122455012Y-39102129D01*
X122461505Y-39111401D01*
X122628599Y-39278495D01*
X122628602Y-39278497D01*
X122628603Y-39278498D01*
X122755665Y-39367468D01*
X122810472Y-39430174D01*
X122829859Y-39511168D01*
X122809386Y-39591894D01*
X122755665Y-39652532D01*
X122628602Y-39741501D01*
X122461507Y-39908596D01*
X122325962Y-40102174D01*
X122226098Y-40316333D01*
X122226096Y-40316338D01*
X122164936Y-40544593D01*
X122144341Y-40780000D01*
X121550500Y-40780000D01*
X121550500Y-20503112D01*
X121550722Y-20496904D01*
X121560452Y-20360845D01*
X121566911Y-20270537D01*
X121570439Y-20245991D01*
X121616703Y-20033325D01*
X121623683Y-20009554D01*
X121699732Y-19805658D01*
X121710042Y-19783084D01*
X121738495Y-19730974D01*
X121814331Y-19592092D01*
X121827735Y-19571234D01*
X121958153Y-19397016D01*
X121974392Y-19378275D01*
X122128275Y-19224392D01*
X122147016Y-19208153D01*
X122321234Y-19077735D01*
X122342092Y-19064331D01*
X122533084Y-18960042D01*
X122555658Y-18949732D01*
X122759554Y-18873683D01*
X122783325Y-18866703D01*
X122995991Y-18820439D01*
X123020537Y-18816911D01*
X123120769Y-18809742D01*
X123246905Y-18800722D01*
X123253113Y-18800500D01*
X123297595Y-18800500D01*
X160702405Y-18800500D01*
X160746887Y-18800500D01*
X160753095Y-18800722D01*
G37*
%TD.AperFunction*%
%TD*%
%TA.AperFunction,Conductor*%
%TO.N,/LED_CTRL*%
G36*
X135245998Y-46603719D02*
G01*
X135250002Y-46611729D01*
X135250031Y-46612528D01*
X135250987Y-46995124D01*
X135247581Y-47003405D01*
X135247546Y-47003441D01*
X134975536Y-47274493D01*
X134967256Y-47277905D01*
X134958989Y-47274464D01*
X134958899Y-47274372D01*
X134548534Y-46853407D01*
X134545212Y-46845240D01*
X134545212Y-46660899D01*
X134548639Y-46652626D01*
X134556082Y-46649228D01*
X135237504Y-46600886D01*
X135245998Y-46603719D01*
G37*
%TD.AperFunction*%
%TD*%
%TA.AperFunction,Conductor*%
%TO.N,GPIO0*%
G36*
X155358755Y-59398571D02*
G01*
X155365073Y-59404918D01*
X155365053Y-59413870D01*
X155103000Y-60042800D01*
X155096655Y-60049119D01*
X155092200Y-60050000D01*
X154907800Y-60050000D01*
X154899527Y-60046573D01*
X154897000Y-60042800D01*
X154634945Y-59413868D01*
X154634927Y-59404915D01*
X154641242Y-59398572D01*
X154995500Y-59250875D01*
X155004449Y-59250855D01*
X155358755Y-59398571D01*
G37*
%TD.AperFunction*%
%TD*%
%TA.AperFunction,Conductor*%
%TO.N,+3V3*%
G36*
X140117741Y-68451377D02*
G01*
X140124036Y-68457668D01*
X140288399Y-68851343D01*
X140288424Y-68860298D01*
X140285875Y-68864124D01*
X140014124Y-69135875D01*
X140005851Y-69139302D01*
X140001343Y-69138399D01*
X139607668Y-68974036D01*
X139601354Y-68967686D01*
X139601355Y-68958789D01*
X139747437Y-68603802D01*
X139753753Y-68597457D01*
X140108789Y-68451356D01*
X140117741Y-68451377D01*
G37*
%TD.AperFunction*%
%TD*%
%TA.AperFunction,Conductor*%
%TO.N,Net-(U1-SPIDQS{slash}GPIO37{slash}FSPIQ{slash}SUBSPIQ)*%
G36*
X154699695Y-34997436D02*
G01*
X154706042Y-35003754D01*
X154706063Y-35003804D01*
X154852121Y-35358734D01*
X154852100Y-35367688D01*
X154845756Y-35374005D01*
X154215737Y-35633426D01*
X154206782Y-35633407D01*
X154203009Y-35630880D01*
X154072619Y-35500490D01*
X154069192Y-35492217D01*
X154070072Y-35487766D01*
X154329494Y-34857742D01*
X154335813Y-34851398D01*
X154344764Y-34851378D01*
X154699695Y-34997436D01*
G37*
%TD.AperFunction*%
%TD*%
%TA.AperFunction,Conductor*%
%TO.N,Net-(U1-SPIIO6{slash}GPIO35{slash}FSPID{slash}SUBSPID)*%
G36*
X152163868Y-37434945D02*
G01*
X152792800Y-37697000D01*
X152799119Y-37703345D01*
X152800000Y-37707800D01*
X152800000Y-37892199D01*
X152796573Y-37900472D01*
X152792800Y-37902999D01*
X152163870Y-38165053D01*
X152154915Y-38165072D01*
X152148571Y-38158755D01*
X152000875Y-37804499D01*
X152000855Y-37795550D01*
X152148572Y-37441242D01*
X152154918Y-37434926D01*
X152163868Y-37434945D01*
G37*
%TD.AperFunction*%
%TD*%
%TA.AperFunction,Conductor*%
%TO.N,/SD_SCLK*%
G36*
X147663868Y-70384945D02*
G01*
X148292800Y-70647000D01*
X148299119Y-70653345D01*
X148300000Y-70657800D01*
X148300000Y-70842199D01*
X148296573Y-70850472D01*
X148292800Y-70852999D01*
X147663870Y-71115053D01*
X147654915Y-71115072D01*
X147648571Y-71108755D01*
X147500875Y-70754499D01*
X147500855Y-70745550D01*
X147648572Y-70391242D01*
X147654918Y-70384926D01*
X147663868Y-70384945D01*
G37*
%TD.AperFunction*%
%TD*%
%TA.AperFunction,Conductor*%
%TO.N,Net-(D5-DIN)*%
G36*
X145449244Y-53953427D02*
G01*
X145452289Y-53958734D01*
X145616971Y-54587079D01*
X145615753Y-54595950D01*
X145610155Y-54600844D01*
X145254502Y-54749123D01*
X145245548Y-54749144D01*
X145245498Y-54749123D01*
X144889844Y-54600844D01*
X144883526Y-54594497D01*
X144883028Y-54587082D01*
X145047711Y-53958734D01*
X145053124Y-53951600D01*
X145059029Y-53950000D01*
X145440971Y-53950000D01*
X145449244Y-53953427D01*
G37*
%TD.AperFunction*%
%TD*%
%TA.AperFunction,Conductor*%
%TO.N,GPIO38*%
G36*
X145352650Y-50853427D02*
G01*
X145353513Y-50854391D01*
X145743464Y-51341830D01*
X145745956Y-51350431D01*
X145742609Y-51357404D01*
X145258281Y-51842702D01*
X145250012Y-51846137D01*
X145241735Y-51842718D01*
X145241719Y-51842702D01*
X144757390Y-51357404D01*
X144753971Y-51349127D01*
X144756534Y-51341832D01*
X145146487Y-50854390D01*
X145154331Y-50850072D01*
X145155623Y-50850000D01*
X145344377Y-50850000D01*
X145352650Y-50853427D01*
G37*
%TD.AperFunction*%
%TD*%
%TA.AperFunction,Conductor*%
%TO.N,CHIP_PU*%
G36*
X145601428Y-48641244D02*
G01*
X145749123Y-48995498D01*
X145749144Y-49004452D01*
X145749123Y-49004502D01*
X145601428Y-49358755D01*
X145595081Y-49365073D01*
X145586129Y-49365053D01*
X144957200Y-49102999D01*
X144950881Y-49096654D01*
X144950000Y-49092199D01*
X144950000Y-48907800D01*
X144953427Y-48899527D01*
X144957200Y-48897000D01*
X145586131Y-48634945D01*
X145595084Y-48634927D01*
X145601428Y-48641244D01*
G37*
%TD.AperFunction*%
%TD*%
%TA.AperFunction,Conductor*%
%TO.N,/BTN1*%
G36*
X135851428Y-47641244D02*
G01*
X135999123Y-47995498D01*
X135999144Y-48004452D01*
X135999123Y-48004502D01*
X135851428Y-48358755D01*
X135845081Y-48365073D01*
X135836129Y-48365053D01*
X135207200Y-48102999D01*
X135200881Y-48096654D01*
X135200000Y-48092199D01*
X135200000Y-47907800D01*
X135203427Y-47899527D01*
X135207200Y-47897000D01*
X135836131Y-47634945D01*
X135845084Y-47634927D01*
X135851428Y-47641244D01*
G37*
%TD.AperFunction*%
%TD*%
%TA.AperFunction,Conductor*%
%TO.N,/U1TX*%
G36*
X157512233Y-51366572D02*
G01*
X158080944Y-51600747D01*
X158142256Y-51625994D01*
X158148601Y-51632313D01*
X158148621Y-51641265D01*
X158002563Y-51996195D01*
X157996245Y-52002542D01*
X157996195Y-52002563D01*
X157641265Y-52148621D01*
X157632311Y-52148600D01*
X157625994Y-52142256D01*
X157565851Y-51996195D01*
X157366573Y-51512235D01*
X157366592Y-51503282D01*
X157369116Y-51499512D01*
X157499510Y-51369118D01*
X157507782Y-51365692D01*
X157512233Y-51366572D01*
G37*
%TD.AperFunction*%
%TD*%
%TA.AperFunction,Conductor*%
%TO.N,/BTN3*%
G36*
X126413868Y-57884945D02*
G01*
X127042800Y-58147000D01*
X127049119Y-58153345D01*
X127050000Y-58157800D01*
X127050000Y-58342199D01*
X127046573Y-58350472D01*
X127042800Y-58352999D01*
X126413870Y-58615053D01*
X126404915Y-58615072D01*
X126398571Y-58608755D01*
X126250875Y-58254499D01*
X126250855Y-58245550D01*
X126398572Y-57891242D01*
X126404918Y-57884926D01*
X126413868Y-57884945D01*
G37*
%TD.AperFunction*%
%TD*%
%TA.AperFunction,Conductor*%
%TO.N,/BTN1*%
G36*
X128746717Y-48116592D02*
G01*
X128750490Y-48119119D01*
X128880880Y-48249509D01*
X128884307Y-48257782D01*
X128883426Y-48262237D01*
X128624005Y-48892256D01*
X128617686Y-48898601D01*
X128608734Y-48898621D01*
X128253804Y-48752563D01*
X128247457Y-48746245D01*
X128247436Y-48746195D01*
X128101378Y-48391265D01*
X128101399Y-48382311D01*
X128107742Y-48375994D01*
X128737764Y-48116573D01*
X128746717Y-48116592D01*
G37*
%TD.AperFunction*%
%TD*%
%TA.AperFunction,Conductor*%
%TO.N,CHIP_PU*%
G36*
X155746717Y-76366592D02*
G01*
X155750490Y-76369119D01*
X155880880Y-76499509D01*
X155884307Y-76507782D01*
X155883426Y-76512237D01*
X155624005Y-77142256D01*
X155617686Y-77148601D01*
X155608734Y-77148621D01*
X155253804Y-77002563D01*
X155247457Y-76996245D01*
X155247436Y-76996195D01*
X155101378Y-76641265D01*
X155101399Y-76632311D01*
X155107742Y-76625994D01*
X155737764Y-76366573D01*
X155746717Y-76366592D01*
G37*
%TD.AperFunction*%
%TD*%
%TA.AperFunction,Conductor*%
%TO.N,Net-(U1-SPIIO7{slash}GPIO36{slash}FSPICLK{slash}SUBSPICLK)*%
G36*
X154698921Y-36604078D02*
G01*
X154703427Y-36611816D01*
X154703533Y-36613358D01*
X154704487Y-36995124D01*
X154701081Y-37003405D01*
X154701046Y-37003441D01*
X154428244Y-37275281D01*
X154419964Y-37278693D01*
X154412456Y-37275948D01*
X153969474Y-36903506D01*
X153965347Y-36895559D01*
X153965303Y-36894551D01*
X153965303Y-36710221D01*
X153968730Y-36701948D01*
X153975429Y-36698628D01*
X154690262Y-36601793D01*
X154698921Y-36604078D01*
G37*
%TD.AperFunction*%
%TD*%
%TA.AperFunction,Conductor*%
%TO.N,/LED_CTRL*%
G36*
X127246717Y-48116592D02*
G01*
X127250490Y-48119119D01*
X127380880Y-48249509D01*
X127384307Y-48257782D01*
X127383426Y-48262237D01*
X127124005Y-48892256D01*
X127117686Y-48898601D01*
X127108734Y-48898621D01*
X126753804Y-48752563D01*
X126747457Y-48746245D01*
X126747436Y-48746195D01*
X126601378Y-48391265D01*
X126601399Y-48382311D01*
X126607742Y-48375994D01*
X127237764Y-48116573D01*
X127246717Y-48116592D01*
G37*
%TD.AperFunction*%
%TD*%
%TA.AperFunction,Conductor*%
%TO.N,CHIP_PU*%
G36*
X132913868Y-48634945D02*
G01*
X133542800Y-48897000D01*
X133549119Y-48903345D01*
X133550000Y-48907800D01*
X133550000Y-49092199D01*
X133546573Y-49100472D01*
X133542800Y-49102999D01*
X132913870Y-49365053D01*
X132904915Y-49365072D01*
X132898571Y-49358755D01*
X132750875Y-49004499D01*
X132750855Y-48995550D01*
X132898572Y-48641242D01*
X132904918Y-48634926D01*
X132913868Y-48634945D01*
G37*
%TD.AperFunction*%
%TD*%
%TA.AperFunction,Conductor*%
%TO.N,+3V3*%
G36*
X140117741Y-68451377D02*
G01*
X140124036Y-68457668D01*
X140288399Y-68851343D01*
X140288424Y-68860298D01*
X140285875Y-68864124D01*
X140014124Y-69135875D01*
X140005851Y-69139302D01*
X140001343Y-69138399D01*
X139607668Y-68974036D01*
X139601354Y-68967686D01*
X139601355Y-68958789D01*
X139747437Y-68603802D01*
X139753753Y-68597457D01*
X140108789Y-68451356D01*
X140117741Y-68451377D01*
G37*
%TD.AperFunction*%
%TD*%
%TA.AperFunction,Conductor*%
%TO.N,CHIP_PU*%
G36*
X156358755Y-58148571D02*
G01*
X156365073Y-58154918D01*
X156365053Y-58163870D01*
X156103000Y-58792800D01*
X156096655Y-58799119D01*
X156092200Y-58800000D01*
X155907800Y-58800000D01*
X155899527Y-58796573D01*
X155897000Y-58792800D01*
X155634945Y-58163868D01*
X155634927Y-58154915D01*
X155641242Y-58148572D01*
X155995500Y-58000875D01*
X156004449Y-58000855D01*
X156358755Y-58148571D01*
G37*
%TD.AperFunction*%
%TD*%
%TA.AperFunction,Conductor*%
%TO.N,GNDPWR*%
G36*
X132487862Y-82302745D02*
G01*
X132488656Y-82303539D01*
X132757715Y-82600042D01*
X132976504Y-82841148D01*
X132979526Y-82849577D01*
X132979482Y-82850174D01*
X132881054Y-83834464D01*
X132876821Y-83842355D01*
X132869412Y-83845000D01*
X132090588Y-83845000D01*
X132082315Y-83841573D01*
X132078946Y-83834464D01*
X131980517Y-82850174D01*
X131983104Y-82841601D01*
X131983495Y-82841148D01*
X132471337Y-82303546D01*
X132479433Y-82299723D01*
X132487862Y-82302745D01*
G37*
%TD.AperFunction*%
%TD*%
%TA.AperFunction,Conductor*%
%TO.N,/U1RX*%
G36*
X157762233Y-48866572D02*
G01*
X158330944Y-49100747D01*
X158392256Y-49125994D01*
X158398601Y-49132313D01*
X158398621Y-49141265D01*
X158252563Y-49496195D01*
X158246245Y-49502542D01*
X158246195Y-49502563D01*
X157891265Y-49648621D01*
X157882311Y-49648600D01*
X157875994Y-49642256D01*
X157815851Y-49496195D01*
X157616573Y-49012235D01*
X157616592Y-49003282D01*
X157619116Y-48999512D01*
X157749510Y-48869118D01*
X157757782Y-48865692D01*
X157762233Y-48866572D01*
G37*
%TD.AperFunction*%
%TD*%
%TA.AperFunction,Conductor*%
%TO.N,CHIP_PU*%
G36*
X128358755Y-27398571D02*
G01*
X128365073Y-27404918D01*
X128365053Y-27413870D01*
X128103000Y-28042800D01*
X128096655Y-28049119D01*
X128092200Y-28050000D01*
X127907800Y-28050000D01*
X127899527Y-28046573D01*
X127897000Y-28042800D01*
X127634945Y-27413868D01*
X127634927Y-27404915D01*
X127641242Y-27398572D01*
X127995500Y-27250875D01*
X128004449Y-27250855D01*
X128358755Y-27398571D01*
G37*
%TD.AperFunction*%
%TD*%
%TA.AperFunction,Conductor*%
%TO.N,/SD_DAT1*%
G36*
X153262233Y-74366572D02*
G01*
X153830944Y-74600747D01*
X153892256Y-74625994D01*
X153898601Y-74632313D01*
X153898621Y-74641265D01*
X153752563Y-74996195D01*
X153746245Y-75002542D01*
X153746195Y-75002563D01*
X153391265Y-75148621D01*
X153382311Y-75148600D01*
X153375994Y-75142256D01*
X153315851Y-74996195D01*
X153116573Y-74512235D01*
X153116592Y-74503282D01*
X153119116Y-74499512D01*
X153249510Y-74369118D01*
X153257782Y-74365692D01*
X153262233Y-74366572D01*
G37*
%TD.AperFunction*%
%TD*%
%TA.AperFunction,Conductor*%
%TO.N,Net-(U1-SPIDQS{slash}GPIO37{slash}FSPIQ{slash}SUBSPIQ)*%
G36*
X152163868Y-35234945D02*
G01*
X152792800Y-35497000D01*
X152799119Y-35503345D01*
X152800000Y-35507800D01*
X152800000Y-35692199D01*
X152796573Y-35700472D01*
X152792800Y-35702999D01*
X152163870Y-35965053D01*
X152154915Y-35965072D01*
X152148571Y-35958755D01*
X152000875Y-35604499D01*
X152000855Y-35595550D01*
X152148572Y-35241242D01*
X152154918Y-35234926D01*
X152163868Y-35234945D01*
G37*
%TD.AperFunction*%
%TD*%
%TA.AperFunction,Conductor*%
%TO.N,/U1RX*%
G36*
X157400434Y-32202425D02*
G01*
X157402995Y-32206251D01*
X157445382Y-32308860D01*
X157549179Y-32560127D01*
X157549170Y-32569082D01*
X157544268Y-32574696D01*
X157171402Y-32792589D01*
X157105865Y-32830888D01*
X157102735Y-32832717D01*
X157096832Y-32834315D01*
X156913689Y-32834315D01*
X156905416Y-32830888D01*
X156901989Y-32822615D01*
X156902132Y-32820793D01*
X156943226Y-32560127D01*
X156998446Y-32209851D01*
X157003119Y-32202214D01*
X157009973Y-32199975D01*
X157392154Y-32199019D01*
X157400434Y-32202425D01*
G37*
%TD.AperFunction*%
%TD*%
%TA.AperFunction,Conductor*%
%TO.N,GNDPWR*%
G36*
X140642425Y-85978001D02*
G01*
X140644294Y-85979576D01*
X141113194Y-86466888D01*
X141116461Y-86475225D01*
X141113194Y-86483112D01*
X140644294Y-86970423D01*
X140636088Y-86974009D01*
X140633653Y-86973800D01*
X140129490Y-86876825D01*
X140122013Y-86871898D01*
X140120000Y-86865336D01*
X140120000Y-86084663D01*
X140123427Y-86076390D01*
X140129488Y-86073174D01*
X140633655Y-85976199D01*
X140642425Y-85978001D01*
G37*
%TD.AperFunction*%
%TD*%
%TA.AperFunction,Conductor*%
%TO.N,GNDPWR*%
G36*
X141127862Y-82302745D02*
G01*
X141128656Y-82303539D01*
X141397715Y-82600042D01*
X141616504Y-82841148D01*
X141619526Y-82849577D01*
X141619482Y-82850174D01*
X141521054Y-83834464D01*
X141516821Y-83842355D01*
X141509412Y-83845000D01*
X140730588Y-83845000D01*
X140722315Y-83841573D01*
X140718946Y-83834464D01*
X140620517Y-82850174D01*
X140623104Y-82841601D01*
X140623495Y-82841148D01*
X141111337Y-82303546D01*
X141119433Y-82299723D01*
X141127862Y-82302745D01*
G37*
%TD.AperFunction*%
%TD*%
%TA.AperFunction,Conductor*%
%TO.N,GPIO38*%
G36*
X145116657Y-49851823D02*
G01*
X145122975Y-49858170D01*
X145123333Y-49859166D01*
X145280429Y-50367692D01*
X145345319Y-50577741D01*
X145344486Y-50586657D01*
X145337593Y-50592373D01*
X145334140Y-50592894D01*
X145152274Y-50592894D01*
X145147893Y-50592043D01*
X144932195Y-50504940D01*
X144607861Y-50373967D01*
X144601474Y-50367692D01*
X144601394Y-50358738D01*
X144748141Y-50003498D01*
X144754465Y-49997162D01*
X145107705Y-49851802D01*
X145116657Y-49851823D01*
G37*
%TD.AperFunction*%
%TD*%
%TA.AperFunction,Conductor*%
%TO.N,/BTN2*%
G36*
X126617607Y-56851438D02*
G01*
X126623933Y-56857776D01*
X126830598Y-57369552D01*
X126842043Y-57397892D01*
X126842894Y-57402273D01*
X126842894Y-57584139D01*
X126839467Y-57592412D01*
X126831194Y-57595839D01*
X126827741Y-57595318D01*
X126109169Y-57373334D01*
X126102276Y-57367618D01*
X126101443Y-57358702D01*
X126101795Y-57357721D01*
X126247147Y-57004501D01*
X126253464Y-56998156D01*
X126253467Y-56998154D01*
X126608653Y-56851429D01*
X126617607Y-56851438D01*
G37*
%TD.AperFunction*%
%TD*%
%TA.AperFunction,Conductor*%
%TO.N,GNDPWR*%
G36*
X141517685Y-85078427D02*
G01*
X141521054Y-85085536D01*
X141619368Y-86068681D01*
X141616781Y-86077254D01*
X141615046Y-86078972D01*
X141127320Y-86470129D01*
X141118722Y-86472632D01*
X141112680Y-86470129D01*
X140624953Y-86078972D01*
X140620643Y-86071123D01*
X140620631Y-86068689D01*
X140718946Y-85085535D01*
X140723179Y-85077645D01*
X140730588Y-85075000D01*
X141509412Y-85075000D01*
X141517685Y-85078427D01*
G37*
%TD.AperFunction*%
%TD*%
%TA.AperFunction,Conductor*%
%TO.N,+3V3*%
G36*
X151983526Y-69297448D02*
G01*
X152472827Y-69583530D01*
X152544284Y-69625309D01*
X152549697Y-69632443D01*
X152549199Y-69639861D01*
X152402563Y-69996195D01*
X152396245Y-70002542D01*
X152396195Y-70002563D01*
X152039861Y-70149199D01*
X152030907Y-70149178D01*
X152025309Y-70144284D01*
X151938725Y-69996195D01*
X151697448Y-69583527D01*
X151696231Y-69574659D01*
X151699274Y-69569354D01*
X151969353Y-69299275D01*
X151977625Y-69295849D01*
X151983526Y-69297448D01*
G37*
%TD.AperFunction*%
%TD*%
%TA.AperFunction,Conductor*%
%TO.N,Net-(U1-SPIIO7{slash}GPIO36{slash}FSPICLK{slash}SUBSPICLK)*%
G36*
X152537368Y-36434945D02*
G01*
X153166300Y-36697000D01*
X153172619Y-36703345D01*
X153173500Y-36707800D01*
X153173500Y-36892199D01*
X153170073Y-36900472D01*
X153166300Y-36902999D01*
X152537370Y-37165053D01*
X152528415Y-37165072D01*
X152522071Y-37158755D01*
X152374375Y-36804499D01*
X152374355Y-36795550D01*
X152522072Y-36441242D01*
X152528418Y-36434926D01*
X152537368Y-36434945D01*
G37*
%TD.AperFunction*%
%TD*%
%TA.AperFunction,Conductor*%
%TO.N,/SD_DO*%
G36*
X153846049Y-73384187D02*
G01*
X153850765Y-73389690D01*
X153997697Y-73743460D01*
X153997706Y-73752415D01*
X153995144Y-73756242D01*
X153724357Y-74025678D01*
X153716076Y-74029084D01*
X153709052Y-74026718D01*
X153213234Y-73652036D01*
X153208701Y-73644316D01*
X153210955Y-73635649D01*
X153212009Y-73634437D01*
X153341613Y-73504833D01*
X153347123Y-73501739D01*
X153837201Y-73382808D01*
X153846049Y-73384187D01*
G37*
%TD.AperFunction*%
%TD*%
%TA.AperFunction,Conductor*%
%TO.N,/BTN4*%
G36*
X141422258Y-58904680D02*
G01*
X142140831Y-59126666D01*
X142147723Y-59132381D01*
X142148556Y-59141297D01*
X142148197Y-59142296D01*
X142002853Y-59495496D01*
X141996535Y-59501843D01*
X141996500Y-59501858D01*
X141641347Y-59648570D01*
X141632392Y-59648561D01*
X141626066Y-59642223D01*
X141407957Y-59102107D01*
X141407106Y-59097726D01*
X141407106Y-58915860D01*
X141410533Y-58907587D01*
X141418806Y-58904160D01*
X141422258Y-58904680D01*
G37*
%TD.AperFunction*%
%TD*%
%TA.AperFunction,Conductor*%
%TO.N,GPIO0*%
G36*
X154096717Y-76366592D02*
G01*
X154100490Y-76369119D01*
X154230880Y-76499509D01*
X154234307Y-76507782D01*
X154233426Y-76512237D01*
X153974005Y-77142256D01*
X153967686Y-77148601D01*
X153958734Y-77148621D01*
X153603804Y-77002563D01*
X153597457Y-76996245D01*
X153597436Y-76996195D01*
X153451378Y-76641265D01*
X153451399Y-76632311D01*
X153457742Y-76625994D01*
X154087764Y-76366573D01*
X154096717Y-76366592D01*
G37*
%TD.AperFunction*%
%TD*%
%TA.AperFunction,Conductor*%
%TO.N,/BTN4*%
G36*
X126413671Y-60135433D02*
G01*
X126414128Y-60135635D01*
X126962791Y-60393064D01*
X126966094Y-60395383D01*
X127094343Y-60523632D01*
X127097770Y-60531905D01*
X127094343Y-60540178D01*
X127091093Y-60542472D01*
X126414167Y-60864277D01*
X126405224Y-60864734D01*
X126398577Y-60858733D01*
X126398345Y-60858212D01*
X126265749Y-60540178D01*
X126251165Y-60505199D01*
X126251145Y-60496247D01*
X126398379Y-60141748D01*
X126404716Y-60135424D01*
X126413671Y-60135433D01*
G37*
%TD.AperFunction*%
%TD*%
%TA.AperFunction,Conductor*%
%TO.N,/SD_SCLK*%
G36*
X153512233Y-71116572D02*
G01*
X154080944Y-71350747D01*
X154142256Y-71375994D01*
X154148601Y-71382313D01*
X154148621Y-71391265D01*
X154002563Y-71746195D01*
X153996245Y-71752542D01*
X153996195Y-71752563D01*
X153641265Y-71898621D01*
X153632311Y-71898600D01*
X153625994Y-71892256D01*
X153565851Y-71746195D01*
X153366573Y-71262235D01*
X153366592Y-71253282D01*
X153369116Y-71249512D01*
X153499510Y-71119118D01*
X153507782Y-71115692D01*
X153512233Y-71116572D01*
G37*
%TD.AperFunction*%
%TD*%
%TA.AperFunction,Conductor*%
%TO.N,GNDPWR*%
G36*
X132966339Y-85976198D02*
G01*
X133470511Y-86073174D01*
X133477987Y-86078101D01*
X133480000Y-86084663D01*
X133480000Y-86865336D01*
X133476573Y-86873609D01*
X133470510Y-86876825D01*
X132966346Y-86973800D01*
X132957574Y-86971998D01*
X132955705Y-86970423D01*
X132854588Y-86865336D01*
X132486804Y-86483111D01*
X132483538Y-86474775D01*
X132486804Y-86466888D01*
X132955706Y-85979575D01*
X132963911Y-85975990D01*
X132966339Y-85976198D01*
G37*
%TD.AperFunction*%
%TD*%
%TA.AperFunction,Conductor*%
%TO.N,/BTN3*%
G36*
X141851428Y-57891244D02*
G01*
X141999123Y-58245498D01*
X141999144Y-58254452D01*
X141999123Y-58254502D01*
X141851428Y-58608755D01*
X141845081Y-58615073D01*
X141836129Y-58615053D01*
X141207200Y-58352999D01*
X141200881Y-58346654D01*
X141200000Y-58342199D01*
X141200000Y-58157800D01*
X141203427Y-58149527D01*
X141207200Y-58147000D01*
X141836131Y-57884945D01*
X141845084Y-57884927D01*
X141851428Y-57891244D01*
G37*
%TD.AperFunction*%
%TD*%
%TA.AperFunction,Conductor*%
%TO.N,Net-(U1-SPIIO6{slash}GPIO35{slash}FSPID{slash}SUBSPID)*%
G36*
X154312233Y-38366572D02*
G01*
X154880944Y-38600747D01*
X154942256Y-38625994D01*
X154948601Y-38632313D01*
X154948621Y-38641265D01*
X154802563Y-38996195D01*
X154796245Y-39002542D01*
X154796195Y-39002563D01*
X154441265Y-39148621D01*
X154432311Y-39148600D01*
X154425994Y-39142256D01*
X154365851Y-38996195D01*
X154166573Y-38512235D01*
X154166592Y-38503282D01*
X154169116Y-38499512D01*
X154299510Y-38369118D01*
X154307782Y-38365692D01*
X154312233Y-38366572D01*
G37*
%TD.AperFunction*%
%TD*%
%TA.AperFunction,Conductor*%
%TO.N,/SD_DO*%
G36*
X146787812Y-71747121D02*
G01*
X146794311Y-71753281D01*
X146795326Y-71758047D01*
X146795326Y-71942478D01*
X146791899Y-71950751D01*
X146788483Y-71953122D01*
X146164075Y-72238031D01*
X146155126Y-72238348D01*
X146148574Y-72232244D01*
X146148419Y-72231889D01*
X146139896Y-72211447D01*
X146000875Y-71877999D01*
X146000855Y-71869050D01*
X146148700Y-71514435D01*
X146155046Y-71508119D01*
X146163684Y-71508013D01*
X146787812Y-71747121D01*
G37*
%TD.AperFunction*%
%TD*%
%TA.AperFunction,Conductor*%
%TO.N,Net-(D5-DIN)*%
G36*
X145258264Y-53157280D02*
G01*
X145445333Y-53344724D01*
X145743552Y-53643540D01*
X145746971Y-53651817D01*
X145745304Y-53657825D01*
X145453408Y-54144320D01*
X145446213Y-54149651D01*
X145443375Y-54150000D01*
X145056625Y-54150000D01*
X145048352Y-54146573D01*
X145046592Y-54144320D01*
X144754695Y-53657825D01*
X144753377Y-53648967D01*
X144756447Y-53643540D01*
X145241719Y-53157296D01*
X145249988Y-53153862D01*
X145258264Y-53157280D01*
G37*
%TD.AperFunction*%
%TD*%
%TA.AperFunction,Conductor*%
%TO.N,/BTN2*%
G36*
X141641295Y-56851407D02*
G01*
X141996500Y-56998141D01*
X142002838Y-57004467D01*
X142002853Y-57004503D01*
X142148197Y-57357703D01*
X142148176Y-57366657D01*
X142141829Y-57372975D01*
X142140830Y-57373334D01*
X141422259Y-57595318D01*
X141413343Y-57594485D01*
X141407627Y-57587592D01*
X141407106Y-57584139D01*
X141407106Y-57402273D01*
X141407957Y-57397892D01*
X141418019Y-57372975D01*
X141626033Y-56857859D01*
X141632307Y-56851474D01*
X141641261Y-56851394D01*
X141641295Y-56851407D01*
G37*
%TD.AperFunction*%
%TD*%
%TA.AperFunction,Conductor*%
%TO.N,CHIP_PU*%
G36*
X128100473Y-38953427D02*
G01*
X128103000Y-38957200D01*
X128365053Y-39586129D01*
X128365072Y-39595084D01*
X128358755Y-39601428D01*
X128004502Y-39749123D01*
X127995548Y-39749144D01*
X127995498Y-39749123D01*
X127641244Y-39601428D01*
X127634926Y-39595081D01*
X127634945Y-39586131D01*
X127897000Y-38957199D01*
X127903345Y-38950881D01*
X127907800Y-38950000D01*
X128092200Y-38950000D01*
X128100473Y-38953427D01*
G37*
%TD.AperFunction*%
%TD*%
%TA.AperFunction,Conductor*%
%TO.N,/SD_DAT1*%
G36*
X147413868Y-72134945D02*
G01*
X148042800Y-72397000D01*
X148049119Y-72403345D01*
X148050000Y-72407800D01*
X148050000Y-72592199D01*
X148046573Y-72600472D01*
X148042800Y-72602999D01*
X147413870Y-72865053D01*
X147404915Y-72865072D01*
X147398571Y-72858755D01*
X147250875Y-72504499D01*
X147250855Y-72495550D01*
X147398572Y-72141242D01*
X147404918Y-72134926D01*
X147413868Y-72134945D01*
G37*
%TD.AperFunction*%
%TD*%
%TA.AperFunction,Conductor*%
%TO.N,GNDPWR*%
G36*
X132877685Y-85078427D02*
G01*
X132881054Y-85085536D01*
X132979368Y-86068681D01*
X132976781Y-86077254D01*
X132975046Y-86078972D01*
X132487320Y-86470129D01*
X132478722Y-86472632D01*
X132472680Y-86470129D01*
X131984953Y-86078972D01*
X131980643Y-86071123D01*
X131980631Y-86068689D01*
X132078946Y-85085535D01*
X132083179Y-85077645D01*
X132090588Y-85075000D01*
X132869412Y-85075000D01*
X132877685Y-85078427D01*
G37*
%TD.AperFunction*%
%TD*%
%TA.AperFunction,Conductor*%
%TO.N,/U1TX*%
G36*
X156758755Y-31548571D02*
G01*
X156765073Y-31554918D01*
X156765053Y-31563870D01*
X156503000Y-32192800D01*
X156496655Y-32199119D01*
X156492200Y-32200000D01*
X156307800Y-32200000D01*
X156299527Y-32196573D01*
X156297000Y-32192800D01*
X156034945Y-31563868D01*
X156034927Y-31554915D01*
X156041242Y-31548572D01*
X156395500Y-31400875D01*
X156404449Y-31400855D01*
X156758755Y-31548571D01*
G37*
%TD.AperFunction*%
%TD*%
M02*
