%TF.GenerationSoftware,KiCad,Pcbnew,8.0.1-1.fc39*%
%TF.CreationDate,2024-05-03T11:27:34+02:00*%
%TF.ProjectId,esp32-board,65737033-322d-4626-9f61-72642e6b6963,rev?*%
%TF.SameCoordinates,Original*%
%TF.FileFunction,Plated,1,2,PTH,Mixed*%
%TF.FilePolarity,Positive*%
%FSLAX46Y46*%
G04 Gerber Fmt 4.6, Leading zero omitted, Abs format (unit mm)*
G04 Created by KiCad (PCBNEW 8.0.1-1.fc39) date 2024-05-03 11:27:34*
%MOMM*%
%LPD*%
G01*
G04 APERTURE LIST*
%TA.AperFunction,ViaDrill*%
%ADD10C,0.400000*%
%TD*%
G04 aperture for slot hole*
%TA.AperFunction,ComponentDrill*%
%ADD11C,0.600000*%
%TD*%
%TA.AperFunction,ComponentDrill*%
%ADD12C,1.000000*%
%TD*%
%TA.AperFunction,ComponentDrill*%
%ADD13C,1.100000*%
%TD*%
G04 APERTURE END LIST*
D10*
X125000000Y-21500000D03*
X125000000Y-78750000D03*
X125500000Y-49500000D03*
X125750000Y-52000000D03*
X126250000Y-27250000D03*
X126250000Y-57000000D03*
X126250000Y-58250000D03*
X126250000Y-60500000D03*
X126250000Y-81250000D03*
X126500000Y-72000000D03*
X126750000Y-38500000D03*
X126750000Y-47000000D03*
X126750000Y-48750000D03*
X128000000Y-27250000D03*
X128000000Y-39750000D03*
X128250000Y-48750000D03*
X128250000Y-66250000D03*
X129500000Y-27250000D03*
X131100000Y-63100000D03*
X132250000Y-52000000D03*
X132750000Y-49000000D03*
X132750000Y-71750000D03*
X135000000Y-21600000D03*
X135000000Y-25000000D03*
X135000000Y-28400000D03*
X135000000Y-31800000D03*
X135000000Y-35200000D03*
X135000000Y-38600000D03*
X135000000Y-79100000D03*
X135250000Y-47000000D03*
X136000000Y-48000000D03*
X137800000Y-33000000D03*
X138000000Y-27600000D03*
X138400000Y-21600000D03*
X138400000Y-25000000D03*
X138400000Y-35200000D03*
X138400000Y-38600000D03*
X139000000Y-80100000D03*
X139250000Y-63000000D03*
X139736092Y-70513908D03*
X139900000Y-80100000D03*
X141400000Y-76300000D03*
X141800000Y-21600000D03*
X141800000Y-25000000D03*
X141800000Y-35200000D03*
X141800000Y-38600000D03*
X142000000Y-57000000D03*
X142000000Y-58250000D03*
X142000000Y-59500000D03*
X142800000Y-27600000D03*
X143000000Y-33200000D03*
X143000000Y-84250000D03*
X143500000Y-79750000D03*
X144500000Y-84250000D03*
X144750000Y-50000000D03*
X145200000Y-21600000D03*
X145200000Y-25000000D03*
X145200000Y-28400000D03*
X145200000Y-31800000D03*
X145200000Y-35200000D03*
X145200000Y-38600000D03*
X145250000Y-54750000D03*
X145750000Y-49000000D03*
X146000000Y-71873500D03*
X147250000Y-60500000D03*
X147250000Y-72500000D03*
X147500000Y-70750000D03*
X148600000Y-21600000D03*
X148600000Y-25000000D03*
X148600000Y-28400000D03*
X148600000Y-31800000D03*
X148600000Y-35200000D03*
X148600000Y-38600000D03*
X149250000Y-47000000D03*
X151000000Y-52500000D03*
X151900000Y-59400000D03*
X152000000Y-35600000D03*
X152000000Y-37800000D03*
X152373500Y-36800000D03*
X152400000Y-70000000D03*
X153000000Y-21000000D03*
X153250000Y-78500000D03*
X153456000Y-44856000D03*
X153600000Y-77000000D03*
X153750000Y-75000000D03*
X154000000Y-71750000D03*
X154000000Y-73750000D03*
X154500000Y-78500000D03*
X154703500Y-35000000D03*
X154703500Y-37000000D03*
X154800000Y-39000000D03*
X155000000Y-59250000D03*
X155250000Y-77000000D03*
X155750000Y-28750000D03*
X156000000Y-58000000D03*
X156400000Y-31400000D03*
X157400000Y-32200000D03*
X158000000Y-45000000D03*
X158000000Y-52000000D03*
X158250000Y-34250000D03*
X158250000Y-49500000D03*
X158250000Y-54500000D03*
X159250000Y-60500000D03*
X161250000Y-77750000D03*
D11*
%TO.C,J3*%
X132480000Y-82845000D02*
X132480000Y-81745000D01*
X132480000Y-86875000D02*
X132480000Y-86075000D01*
X141120000Y-82845000D02*
X141120000Y-81745000D01*
X141120000Y-86875000D02*
X141120000Y-86075000D01*
D12*
%TO.C,DP1*%
X123500000Y-23000000D03*
X123500000Y-25540000D03*
X123500000Y-28080000D03*
X123500000Y-30620000D03*
X123500000Y-33160000D03*
X123500000Y-35700000D03*
X123500000Y-38240000D03*
X123500000Y-40780000D03*
%TO.C,J5*%
X123500000Y-47000000D03*
X123500000Y-49540000D03*
X123500000Y-52080000D03*
X123500000Y-54620000D03*
X123500000Y-57160000D03*
X123500000Y-59700000D03*
X123500000Y-62240000D03*
X123500000Y-64780000D03*
%TO.C,J2*%
X160500000Y-27000000D03*
X160500000Y-29540000D03*
X160500000Y-32080000D03*
X160500000Y-34620000D03*
%TO.C,J1*%
X160500000Y-40000000D03*
X160500000Y-42540000D03*
X160500000Y-45080000D03*
X160500000Y-47620000D03*
X160500000Y-50160000D03*
X160500000Y-52700000D03*
X160500000Y-55240000D03*
X160500000Y-57780000D03*
D13*
%TO.C,SW1*%
X147250000Y-80250000D03*
X147250000Y-86750000D03*
X151750000Y-80250000D03*
X151750000Y-86750000D03*
%TO.C,SW2*%
X156000000Y-80250000D03*
X156000000Y-86750000D03*
X160500000Y-80250000D03*
X160500000Y-86750000D03*
M02*
