%TF.GenerationSoftware,KiCad,Pcbnew,8.0.1-1.fc39*%
%TF.CreationDate,2024-05-03T11:27:30+02:00*%
%TF.ProjectId,esp32-board,65737033-322d-4626-9f61-72642e6b6963,rev?*%
%TF.SameCoordinates,Original*%
%TF.FileFunction,Legend,Bot*%
%TF.FilePolarity,Positive*%
%FSLAX46Y46*%
G04 Gerber Fmt 4.6, Leading zero omitted, Abs format (unit mm)*
G04 Created by KiCad (PCBNEW 8.0.1-1.fc39) date 2024-05-03 11:27:30*
%MOMM*%
%LPD*%
G01*
G04 APERTURE LIST*
G04 Aperture macros list*
%AMRoundRect*
0 Rectangle with rounded corners*
0 $1 Rounding radius*
0 $2 $3 $4 $5 $6 $7 $8 $9 X,Y pos of 4 corners*
0 Add a 4 corners polygon primitive as box body*
4,1,4,$2,$3,$4,$5,$6,$7,$8,$9,$2,$3,0*
0 Add four circle primitives for the rounded corners*
1,1,$1+$1,$2,$3*
1,1,$1+$1,$4,$5*
1,1,$1+$1,$6,$7*
1,1,$1+$1,$8,$9*
0 Add four rect primitives between the rounded corners*
20,1,$1+$1,$2,$3,$4,$5,0*
20,1,$1+$1,$4,$5,$6,$7,0*
20,1,$1+$1,$6,$7,$8,$9,0*
20,1,$1+$1,$8,$9,$2,$3,0*%
G04 Aperture macros list end*
%ADD10C,0.150000*%
%ADD11C,0.120000*%
%ADD12C,2.076000*%
%ADD13RoundRect,0.038000X-0.850000X-0.850000X0.850000X-0.850000X0.850000X0.850000X-0.850000X0.850000X0*%
%ADD14O,1.776000X1.776000*%
%ADD15C,0.726000*%
%ADD16O,1.076000X2.176000*%
%ADD17O,1.076000X1.876000*%
%ADD18RoundRect,0.038000X-0.750000X0.500000X-0.750000X-0.500000X0.750000X-0.500000X0.750000X0.500000X0*%
G04 APERTURE END LIST*
D10*
X142904819Y-51666666D02*
X143619104Y-51666666D01*
X143619104Y-51666666D02*
X143761961Y-51619047D01*
X143761961Y-51619047D02*
X143857200Y-51523809D01*
X143857200Y-51523809D02*
X143904819Y-51380952D01*
X143904819Y-51380952D02*
X143904819Y-51285714D01*
X143904819Y-52142857D02*
X142904819Y-52142857D01*
X142904819Y-52142857D02*
X142904819Y-52523809D01*
X142904819Y-52523809D02*
X142952438Y-52619047D01*
X142952438Y-52619047D02*
X143000057Y-52666666D01*
X143000057Y-52666666D02*
X143095295Y-52714285D01*
X143095295Y-52714285D02*
X143238152Y-52714285D01*
X143238152Y-52714285D02*
X143333390Y-52666666D01*
X143333390Y-52666666D02*
X143381009Y-52619047D01*
X143381009Y-52619047D02*
X143428628Y-52523809D01*
X143428628Y-52523809D02*
X143428628Y-52142857D01*
X143000057Y-53095238D02*
X142952438Y-53142857D01*
X142952438Y-53142857D02*
X142904819Y-53238095D01*
X142904819Y-53238095D02*
X142904819Y-53476190D01*
X142904819Y-53476190D02*
X142952438Y-53571428D01*
X142952438Y-53571428D02*
X143000057Y-53619047D01*
X143000057Y-53619047D02*
X143095295Y-53666666D01*
X143095295Y-53666666D02*
X143190533Y-53666666D01*
X143190533Y-53666666D02*
X143333390Y-53619047D01*
X143333390Y-53619047D02*
X143904819Y-53047619D01*
X143904819Y-53047619D02*
X143904819Y-53666666D01*
D11*
%TO.C,JP2*%
X146250000Y-51100000D02*
X144250000Y-51100000D01*
X144250000Y-51100000D02*
X144250000Y-53900000D01*
X146250000Y-53900000D02*
X146250000Y-51100000D01*
X144250000Y-53900000D02*
X146250000Y-53900000D01*
%TD*%
%LPC*%
D12*
%TO.C,SW1*%
X151750000Y-80250000D03*
X151750000Y-86750000D03*
X147250000Y-80250000D03*
X147250000Y-86750000D03*
%TD*%
D13*
%TO.C,DP1*%
X123500000Y-23000000D03*
D14*
X123500000Y-25540000D03*
X123500000Y-28080000D03*
X123500000Y-30620000D03*
X123500000Y-33160000D03*
X123500000Y-35700000D03*
X123500000Y-38240000D03*
X123500000Y-40780000D03*
%TD*%
D15*
%TO.C,J3*%
X133910000Y-82795000D03*
X139690000Y-82795000D03*
D16*
X132480000Y-82295000D03*
D17*
X132480000Y-86475000D03*
D16*
X141120000Y-82295000D03*
D17*
X141120000Y-86475000D03*
%TD*%
D13*
%TO.C,J1*%
X160500000Y-40000000D03*
D14*
X160500000Y-42540000D03*
X160500000Y-45080000D03*
X160500000Y-47620000D03*
X160500000Y-50160000D03*
X160500000Y-52700000D03*
X160500000Y-55240000D03*
X160500000Y-57780000D03*
%TD*%
D13*
%TO.C,J5*%
X123500000Y-47000000D03*
D14*
X123500000Y-49540000D03*
X123500000Y-52080000D03*
X123500000Y-54620000D03*
X123500000Y-57160000D03*
X123500000Y-59700000D03*
X123500000Y-62240000D03*
X123500000Y-64780000D03*
%TD*%
D12*
%TO.C,SW2*%
X156000000Y-86750000D03*
X156000000Y-80250000D03*
X160500000Y-86750000D03*
X160500000Y-80250000D03*
%TD*%
D13*
%TO.C,J2*%
X160500000Y-27000000D03*
D14*
X160500000Y-29540000D03*
X160500000Y-32080000D03*
X160500000Y-34620000D03*
%TD*%
D18*
%TO.C,JP2*%
X145250000Y-51850000D03*
X145250000Y-53150000D03*
%TD*%
%LPD*%
M02*
