%TF.GenerationSoftware,KiCad,Pcbnew,8.0.1-1.fc39*%
%TF.CreationDate,2024-05-03T11:25:41+02:00*%
%TF.ProjectId,esp32-s3-simple,65737033-322d-4733-932d-73696d706c65,rev?*%
%TF.SameCoordinates,Original*%
%TF.FileFunction,Legend,Bot*%
%TF.FilePolarity,Positive*%
%FSLAX46Y46*%
G04 Gerber Fmt 4.6, Leading zero omitted, Abs format (unit mm)*
G04 Created by KiCad (PCBNEW 8.0.1-1.fc39) date 2024-05-03 11:25:41*
%MOMM*%
%LPD*%
G01*
G04 APERTURE LIST*
%ADD10C,0.150000*%
%ADD11C,0.120000*%
%ADD12R,1.700000X1.700000*%
%ADD13O,1.700000X1.700000*%
%ADD14C,2.000000*%
%ADD15C,0.650000*%
%ADD16O,1.000000X2.100000*%
%ADD17O,1.000000X1.800000*%
%ADD18R,1.000000X1.000000*%
%ADD19C,0.800000*%
%ADD20C,0.600000*%
%ADD21C,0.500000*%
G04 APERTURE END LIST*
D10*
X148761904Y-57204819D02*
X148190476Y-57204819D01*
X148476190Y-58204819D02*
X148476190Y-57204819D01*
X147857142Y-58204819D02*
X147857142Y-57204819D01*
X147857142Y-57204819D02*
X147476190Y-57204819D01*
X147476190Y-57204819D02*
X147380952Y-57252438D01*
X147380952Y-57252438D02*
X147333333Y-57300057D01*
X147333333Y-57300057D02*
X147285714Y-57395295D01*
X147285714Y-57395295D02*
X147285714Y-57538152D01*
X147285714Y-57538152D02*
X147333333Y-57633390D01*
X147333333Y-57633390D02*
X147380952Y-57681009D01*
X147380952Y-57681009D02*
X147476190Y-57728628D01*
X147476190Y-57728628D02*
X147857142Y-57728628D01*
X146333333Y-58204819D02*
X146904761Y-58204819D01*
X146619047Y-58204819D02*
X146619047Y-57204819D01*
X146619047Y-57204819D02*
X146714285Y-57347676D01*
X146714285Y-57347676D02*
X146809523Y-57442914D01*
X146809523Y-57442914D02*
X146904761Y-57490533D01*
D11*
%TO.C,TP1*%
X145700000Y-58450000D02*
X145700000Y-57050000D01*
X145700000Y-57050000D02*
X144300000Y-57050000D01*
X144300000Y-58450000D02*
X145700000Y-58450000D01*
X144300000Y-57050000D02*
X144300000Y-58450000D01*
%TD*%
%LPC*%
D12*
%TO.C,J2*%
X176250000Y-37250000D03*
D13*
X176250000Y-39790000D03*
X176250000Y-42330000D03*
X176250000Y-44870000D03*
X176250000Y-47410000D03*
X176250000Y-49950000D03*
X176250000Y-52490000D03*
X176250000Y-55030000D03*
X176250000Y-57570000D03*
X176250000Y-60110000D03*
X176250000Y-62650000D03*
X176250000Y-65190000D03*
X176250000Y-67730000D03*
X176250000Y-70270000D03*
X176250000Y-72810000D03*
X176250000Y-75350000D03*
X176250000Y-77890000D03*
X176250000Y-80430000D03*
X176250000Y-82970000D03*
X176250000Y-85510000D03*
%TD*%
D14*
%TO.C,SW1*%
X167000000Y-86000000D03*
X167000000Y-79500000D03*
X171500000Y-86000000D03*
X171500000Y-79500000D03*
%TD*%
D12*
%TO.C,J1*%
X140690000Y-37240000D03*
D13*
X140690000Y-39780000D03*
X140690000Y-42320000D03*
X140690000Y-44860000D03*
X140690000Y-47400000D03*
X140690000Y-49940000D03*
X140690000Y-52480000D03*
X140690000Y-55020000D03*
X140690000Y-57560000D03*
X140690000Y-60100000D03*
X140690000Y-62640000D03*
X140690000Y-65180000D03*
X140690000Y-67720000D03*
X140690000Y-70260000D03*
X140690000Y-72800000D03*
X140690000Y-75340000D03*
X140690000Y-77880000D03*
X140690000Y-80420000D03*
X140690000Y-82960000D03*
X140690000Y-85500000D03*
%TD*%
D14*
%TO.C,SW2*%
X150000000Y-79450000D03*
X150000000Y-85950000D03*
X145500000Y-79450000D03*
X145500000Y-85950000D03*
%TD*%
D15*
%TO.C,J3*%
X156540000Y-81070000D03*
X162320000Y-81070000D03*
D16*
X155110000Y-80570000D03*
D17*
X155110000Y-84750000D03*
D16*
X163750000Y-80570000D03*
D17*
X163750000Y-84750000D03*
%TD*%
D18*
%TO.C,TP1*%
X145000000Y-57750000D03*
%TD*%
D19*
X144500000Y-75750000D03*
X151750000Y-72500000D03*
X143000000Y-52000000D03*
D20*
X143750000Y-40250000D03*
D19*
X151000000Y-76500000D03*
X152850000Y-68450000D03*
D20*
X152250000Y-86350000D03*
D19*
X174000000Y-70250000D03*
D20*
X163000000Y-72250000D03*
D21*
X157000000Y-45500000D03*
D19*
X143250000Y-69500000D03*
D21*
X163800000Y-62350000D03*
D19*
X154750000Y-63000000D03*
X157193016Y-72901500D03*
X149250000Y-65100000D03*
X167500000Y-77250000D03*
X174000000Y-50250000D03*
D20*
X152000000Y-65200000D03*
D19*
X142500000Y-80400000D03*
D20*
X172250000Y-56250000D03*
X171877708Y-67122292D03*
X145000000Y-56250000D03*
X143750000Y-41250000D03*
X148500000Y-71000000D03*
X157750000Y-68000000D03*
D19*
X155000000Y-78250000D03*
X143000000Y-85750000D03*
X162000000Y-78500000D03*
X162000000Y-77500000D03*
X157000000Y-78250000D03*
X144950000Y-69500000D03*
X158750000Y-68500000D03*
X156250000Y-69750000D03*
X144000000Y-36500000D03*
X155000000Y-58250000D03*
X161000000Y-68500000D03*
D20*
X169500000Y-55250000D03*
X169500000Y-49250000D03*
X144750000Y-59250000D03*
X150700000Y-59250000D03*
X144750000Y-60250000D03*
X151300000Y-60050000D03*
X153100000Y-59350000D03*
X144750000Y-61250000D03*
X168800000Y-71100000D03*
X165500000Y-61900000D03*
X169750000Y-70750000D03*
X166169067Y-61290467D03*
X166750000Y-61900000D03*
X170500000Y-70000000D03*
X167250000Y-60500000D03*
X171400000Y-70500000D03*
X171650000Y-68650000D03*
X167750000Y-59600000D03*
X172600000Y-68000000D03*
X168400000Y-60600000D03*
X170250000Y-64750000D03*
X168750000Y-58250000D03*
X170200000Y-63250000D03*
X169500000Y-57500000D03*
X170250000Y-58250000D03*
X170250000Y-61950000D03*
X170300000Y-66550000D03*
X161400000Y-69750000D03*
X171500000Y-43000000D03*
X143950000Y-70400000D03*
X171147292Y-66447292D03*
X143950000Y-71850000D03*
X172750000Y-41750000D03*
X161750000Y-70800000D03*
%LPD*%
M02*
