%TF.GenerationSoftware,KiCad,Pcbnew,8.0.1-1.fc39*%
%TF.CreationDate,2024-05-03T11:25:29+02:00*%
%TF.ProjectId,esp32-s3-simple,65737033-322d-4733-932d-73696d706c65,rev?*%
%TF.SameCoordinates,Original*%
%TF.FileFunction,Copper,L2,Bot*%
%TF.FilePolarity,Positive*%
%FSLAX46Y46*%
G04 Gerber Fmt 4.6, Leading zero omitted, Abs format (unit mm)*
G04 Created by KiCad (PCBNEW 8.0.1-1.fc39) date 2024-05-03 11:25:29*
%MOMM*%
%LPD*%
G01*
G04 APERTURE LIST*
%TA.AperFunction,ComponentPad*%
%ADD10R,1.700000X1.700000*%
%TD*%
%TA.AperFunction,ComponentPad*%
%ADD11O,1.700000X1.700000*%
%TD*%
%TA.AperFunction,ComponentPad*%
%ADD12C,2.000000*%
%TD*%
%TA.AperFunction,ComponentPad*%
%ADD13O,1.000000X2.100000*%
%TD*%
%TA.AperFunction,ComponentPad*%
%ADD14O,1.000000X1.800000*%
%TD*%
%TA.AperFunction,SMDPad,CuDef*%
%ADD15R,1.000000X1.000000*%
%TD*%
%TA.AperFunction,ViaPad*%
%ADD16C,0.800000*%
%TD*%
%TA.AperFunction,ViaPad*%
%ADD17C,0.600000*%
%TD*%
%TA.AperFunction,ViaPad*%
%ADD18C,0.500000*%
%TD*%
%TA.AperFunction,Conductor*%
%ADD19C,0.800000*%
%TD*%
%TA.AperFunction,Conductor*%
%ADD20C,0.250000*%
%TD*%
%TA.AperFunction,Conductor*%
%ADD21C,0.200000*%
%TD*%
G04 APERTURE END LIST*
D10*
%TO.P,J2,1,Pin_1*%
%TO.N,/GPIO1*%
X176250000Y-37250000D03*
D11*
%TO.P,J2,2,Pin_2*%
%TO.N,/GPIO2*%
X176250000Y-39790000D03*
%TO.P,J2,3,Pin_3*%
%TO.N,/GPIO42*%
X176250000Y-42330000D03*
%TO.P,J2,4,Pin_4*%
%TO.N,/GPIO41*%
X176250000Y-44870000D03*
%TO.P,J2,5,Pin_5*%
%TO.N,/GPIO40*%
X176250000Y-47410000D03*
%TO.P,J2,6,Pin_6*%
%TO.N,/GPIO39*%
X176250000Y-49950000D03*
%TO.P,J2,7,Pin_7*%
%TO.N,GND*%
X176250000Y-52490000D03*
%TO.P,J2,8,Pin_8*%
%TO.N,/GPIO37*%
X176250000Y-55030000D03*
%TO.P,J2,9,Pin_9*%
%TO.N,/GPIO36*%
X176250000Y-57570000D03*
%TO.P,J2,10,Pin_10*%
%TO.N,/GPIO35*%
X176250000Y-60110000D03*
%TO.P,J2,11,Pin_11*%
%TO.N,/GPIO45*%
X176250000Y-62650000D03*
%TO.P,J2,12,Pin_12*%
%TO.N,/GPIO48*%
X176250000Y-65190000D03*
%TO.P,J2,13,Pin_13*%
%TO.N,/GPIO47*%
X176250000Y-67730000D03*
%TO.P,J2,14,Pin_14*%
%TO.N,GND*%
X176250000Y-70270000D03*
%TO.P,J2,15,Pin_15*%
%TO.N,/GPIO21*%
X176250000Y-72810000D03*
%TO.P,J2,16,Pin_16*%
%TO.N,/GPIO14*%
X176250000Y-75350000D03*
%TO.P,J2,17,Pin_17*%
%TO.N,/GPIO13*%
X176250000Y-77890000D03*
%TO.P,J2,18,Pin_18*%
%TO.N,/GPIO12*%
X176250000Y-80430000D03*
%TO.P,J2,19,Pin_19*%
%TO.N,/GPIO11*%
X176250000Y-82970000D03*
%TO.P,J2,20,Pin_20*%
%TO.N,/GPIO10*%
X176250000Y-85510000D03*
%TD*%
D12*
%TO.P,SW1,1,1*%
%TO.N,GND*%
X167000000Y-86000000D03*
X167000000Y-79500000D03*
%TO.P,SW1,2,2*%
%TO.N,GPIO0*%
X171500000Y-86000000D03*
X171500000Y-79500000D03*
%TD*%
D10*
%TO.P,J1,1,Pin_1*%
%TO.N,/GPIO4*%
X140690000Y-37240000D03*
D11*
%TO.P,J1,2,Pin_2*%
%TO.N,/GPIO5*%
X140690000Y-39780000D03*
%TO.P,J1,3,Pin_3*%
%TO.N,/GPIO6*%
X140690000Y-42320000D03*
%TO.P,J1,4,Pin_4*%
%TO.N,/GPIO7*%
X140690000Y-44860000D03*
%TO.P,J1,5,Pin_5*%
%TO.N,/GPIO15*%
X140690000Y-47400000D03*
%TO.P,J1,6,Pin_6*%
%TO.N,/GPIO16*%
X140690000Y-49940000D03*
%TO.P,J1,7,Pin_7*%
%TO.N,GND*%
X140690000Y-52480000D03*
%TO.P,J1,8,Pin_8*%
%TO.N,/GPIO17*%
X140690000Y-55020000D03*
%TO.P,J1,9,Pin_9*%
%TO.N,/GPIO18*%
X140690000Y-57560000D03*
%TO.P,J1,10,Pin_10*%
%TO.N,/GPIO8*%
X140690000Y-60100000D03*
%TO.P,J1,11,Pin_11*%
%TO.N,/GPIO3*%
X140690000Y-62640000D03*
%TO.P,J1,12,Pin_12*%
%TO.N,/GPIO46*%
X140690000Y-65180000D03*
%TO.P,J1,13,Pin_13*%
%TO.N,/GPIO9*%
X140690000Y-67720000D03*
%TO.P,J1,14,Pin_14*%
%TO.N,GND*%
X140690000Y-70260000D03*
%TO.P,J1,15,Pin_15*%
%TO.N,/RX*%
X140690000Y-72800000D03*
%TO.P,J1,16,Pin_16*%
%TO.N,/TX*%
X140690000Y-75340000D03*
%TO.P,J1,17,Pin_17*%
%TO.N,+3V3*%
X140690000Y-77880000D03*
%TO.P,J1,18,Pin_18*%
%TO.N,GND*%
X140690000Y-80420000D03*
%TO.P,J1,19,Pin_19*%
%TO.N,VSYS*%
X140690000Y-82960000D03*
%TO.P,J1,20,Pin_20*%
%TO.N,/VBUS_USB*%
X140690000Y-85500000D03*
%TD*%
D12*
%TO.P,SW2,1,1*%
%TO.N,GND*%
X150000000Y-79450000D03*
X150000000Y-85950000D03*
%TO.P,SW2,2,2*%
%TO.N,CHIP_PU*%
X145500000Y-79450000D03*
X145500000Y-85950000D03*
%TD*%
D13*
%TO.P,J3,S1,SHIELD*%
%TO.N,GNDPWR*%
X155110000Y-80570000D03*
D14*
X155110000Y-84750000D03*
D13*
X163750000Y-80570000D03*
D14*
X163750000Y-84750000D03*
%TD*%
D15*
%TO.P,TP1,1,1*%
%TO.N,CHIP_PU*%
X145000000Y-57750000D03*
%TD*%
D16*
%TO.N,VSYS*%
X144500000Y-75750000D03*
X151750000Y-72500000D03*
%TO.N,GND*%
X143000000Y-52000000D03*
D17*
X143750000Y-40250000D03*
D16*
X151000000Y-76500000D03*
X152850000Y-68450000D03*
D17*
X152250000Y-86350000D03*
D16*
X174000000Y-70250000D03*
D17*
X163000000Y-72250000D03*
D18*
X157000000Y-45500000D03*
D16*
X143250000Y-69500000D03*
D18*
X163800000Y-62350000D03*
D16*
X154750000Y-63000000D03*
X157193016Y-72901500D03*
X149250000Y-65100000D03*
X167500000Y-77250000D03*
X174000000Y-50250000D03*
D17*
X152000000Y-65200000D03*
D16*
X142500000Y-80400000D03*
D17*
%TO.N,GPIO0*%
X172250000Y-56250000D03*
X171877708Y-67122292D03*
%TO.N,CHIP_PU*%
X145000000Y-56250000D03*
X143750000Y-41250000D03*
%TO.N,/power/3V3_OUT*%
X148500000Y-71000000D03*
X157750000Y-68000000D03*
D16*
%TO.N,/VBUS_USB*%
X155000000Y-78250000D03*
X143000000Y-85750000D03*
X162000000Y-78500000D03*
X162000000Y-77500000D03*
X157000000Y-78250000D03*
%TO.N,+3V3*%
X144950000Y-69500000D03*
X158750000Y-68500000D03*
X156250000Y-69750000D03*
X144000000Y-36500000D03*
X155000000Y-58250000D03*
X161000000Y-68500000D03*
D17*
%TO.N,GPIO38*%
X169500000Y-55250000D03*
X169500000Y-49250000D03*
%TO.N,/GPIO3*%
X144750000Y-59250000D03*
X150700000Y-59250000D03*
%TO.N,/GPIO46*%
X144750000Y-60250000D03*
X151300000Y-60050000D03*
%TO.N,/GPIO9*%
X153100000Y-59350000D03*
X144750000Y-61250000D03*
%TO.N,/GPIO10*%
X168800000Y-71100000D03*
X165500000Y-61900000D03*
%TO.N,/GPIO11*%
X169750000Y-70750000D03*
X166169067Y-61290467D03*
%TO.N,/GPIO12*%
X166750000Y-61900000D03*
X170500000Y-70000000D03*
%TO.N,/GPIO13*%
X167250000Y-60500000D03*
X171400000Y-70500000D03*
%TO.N,/GPIO14*%
X171650000Y-68650000D03*
X167750000Y-59600000D03*
%TO.N,/GPIO21*%
X172600000Y-68000000D03*
X168400000Y-60600000D03*
%TO.N,/GPIO47*%
X170250000Y-64750000D03*
X168750000Y-58250000D03*
%TO.N,/GPIO48*%
X170200000Y-63250000D03*
X169500000Y-57500000D03*
%TO.N,/GPIO45*%
X170250000Y-58250000D03*
X170250000Y-61950000D03*
%TO.N,/RX*%
X170300000Y-66550000D03*
X161400000Y-69750000D03*
X171500000Y-43000000D03*
X143950000Y-70400000D03*
%TO.N,/TX*%
X171147292Y-66447292D03*
X143950000Y-71850000D03*
X172750000Y-41750000D03*
X161750000Y-70800000D03*
%TD*%
D19*
%TO.N,VSYS*%
X148500000Y-75750000D02*
X151750000Y-72500000D01*
X144500000Y-75750000D02*
X148500000Y-75750000D01*
D20*
%TO.N,GPIO0*%
X172500000Y-56500000D02*
X172250000Y-56250000D01*
X172500000Y-66500000D02*
X172500000Y-56500000D01*
X171877708Y-67122292D02*
X172500000Y-66500000D01*
D21*
%TO.N,CHIP_PU*%
X145000000Y-56250000D02*
X145000000Y-57750000D01*
X144000000Y-55250000D02*
X144000000Y-41500000D01*
X144000000Y-41500000D02*
X143750000Y-41250000D01*
X145000000Y-56250000D02*
X144000000Y-55250000D01*
%TO.N,/power/3V3_OUT*%
X157750000Y-71000000D02*
X158000000Y-70750000D01*
X158000000Y-70750000D02*
X158000000Y-68250000D01*
X148750000Y-70750000D02*
X156000000Y-70750000D01*
X158000000Y-68250000D02*
X157750000Y-68000000D01*
X148500000Y-71000000D02*
X148750000Y-70750000D01*
X156000000Y-70750000D02*
X156250000Y-71000000D01*
X156250000Y-71000000D02*
X157750000Y-71000000D01*
D19*
%TO.N,/VBUS_USB*%
X153250000Y-82000000D02*
X153250000Y-79250000D01*
X145500000Y-83250000D02*
X152000000Y-83250000D01*
X152000000Y-83250000D02*
X153250000Y-82000000D01*
X142990000Y-85760000D02*
X145500000Y-83250000D01*
X153250000Y-79250000D02*
X155000000Y-78250000D01*
%TO.N,+3V3*%
X156050000Y-69950000D02*
X156250000Y-69750000D01*
X144950000Y-69500000D02*
X145400000Y-69950000D01*
X158750000Y-68500000D02*
X161000000Y-68500000D01*
X145000000Y-37500000D02*
X144000000Y-36500000D01*
X145000000Y-55000000D02*
X145000000Y-37500000D01*
X148250000Y-58250000D02*
X145000000Y-55000000D01*
X155000000Y-58250000D02*
X148250000Y-58250000D01*
X145400000Y-69950000D02*
X156050000Y-69950000D01*
%TO.N,GNDPWR*%
X163750000Y-80570000D02*
X163750000Y-84750000D01*
X155110000Y-84750000D02*
X163750000Y-84750000D01*
X155110000Y-84750000D02*
X155110000Y-80570000D01*
D21*
%TO.N,GPIO38*%
X169500000Y-55250000D02*
X169500000Y-49250000D01*
%TO.N,/GPIO3*%
X150700000Y-59250000D02*
X144750000Y-59250000D01*
%TO.N,/GPIO46*%
X151200497Y-60149503D02*
X144850497Y-60149503D01*
X144850497Y-60149503D02*
X144750000Y-60250000D01*
X151300000Y-60050000D02*
X151200497Y-60149503D01*
%TO.N,/GPIO9*%
X153100000Y-59350000D02*
X151200000Y-61250000D01*
X151200000Y-61250000D02*
X144750000Y-61250000D01*
%TO.N,/GPIO10*%
X165500000Y-62500000D02*
X165500000Y-61900000D01*
X165600000Y-62600000D02*
X165500000Y-62500000D01*
X168100000Y-71100000D02*
X165600000Y-68600000D01*
X165600000Y-68600000D02*
X165600000Y-62600000D01*
X168800000Y-71100000D02*
X168100000Y-71100000D01*
%TO.N,/GPIO11*%
X166100000Y-61359534D02*
X166100000Y-67350000D01*
X166169067Y-61290467D02*
X166100000Y-61359534D01*
X169500000Y-70750000D02*
X169750000Y-70750000D01*
X166100000Y-67350000D02*
X169500000Y-70750000D01*
%TO.N,/GPIO12*%
X166750000Y-67000000D02*
X169750000Y-70000000D01*
X166750000Y-61900000D02*
X166750000Y-67000000D01*
X169750000Y-70000000D02*
X170500000Y-70000000D01*
%TO.N,/GPIO13*%
X171400000Y-70500000D02*
X171400000Y-69900000D01*
X171400000Y-69900000D02*
X167500000Y-66000000D01*
X167250000Y-61150000D02*
X167250000Y-60500000D01*
X167500000Y-66000000D02*
X167500000Y-61400000D01*
X167500000Y-61400000D02*
X167250000Y-61150000D01*
%TO.N,/GPIO14*%
X167900000Y-65750000D02*
X167900000Y-61212764D01*
X167777000Y-61089764D02*
X167777000Y-60281709D01*
X167900000Y-61212764D02*
X167777000Y-61089764D01*
X167750000Y-60254709D02*
X167750000Y-59600000D01*
X171650000Y-68650000D02*
X170800000Y-68650000D01*
X167777000Y-60281709D02*
X167750000Y-60254709D01*
X170800000Y-68650000D02*
X167900000Y-65750000D01*
%TO.N,/GPIO21*%
X170750000Y-68000000D02*
X168400000Y-65650000D01*
X172600000Y-68000000D02*
X170750000Y-68000000D01*
X168400000Y-65650000D02*
X168400000Y-60600000D01*
%TO.N,/GPIO47*%
X169000000Y-63500000D02*
X170250000Y-64750000D01*
X169000000Y-58500000D02*
X169000000Y-63500000D01*
X168750000Y-58250000D02*
X169000000Y-58500000D01*
%TO.N,/GPIO48*%
X169500000Y-62550000D02*
X169500000Y-57500000D01*
X170200000Y-63250000D02*
X169500000Y-62550000D01*
%TO.N,/GPIO45*%
X170250000Y-58250000D02*
X170250000Y-61950000D01*
%TO.N,/RX*%
X143950000Y-70400000D02*
X145350000Y-71800000D01*
X155374264Y-71450000D02*
X158000000Y-71450000D01*
X150775000Y-71200000D02*
X155124264Y-71200000D01*
X171000000Y-65550000D02*
X171000000Y-55750000D01*
X145350000Y-71800000D02*
X150175000Y-71800000D01*
X171500000Y-55250000D02*
X171500000Y-43000000D01*
X159700000Y-69750000D02*
X161400000Y-69750000D01*
X158000000Y-71450000D02*
X159700000Y-69750000D01*
X170300000Y-66550000D02*
X170300000Y-66250000D01*
X155124264Y-71200000D02*
X155374264Y-71450000D01*
X150175000Y-71800000D02*
X150775000Y-71200000D01*
X171000000Y-55750000D02*
X171500000Y-55250000D01*
X170300000Y-66250000D02*
X171000000Y-65550000D01*
%TO.N,/TX*%
X171500000Y-56000000D02*
X172750000Y-54750000D01*
X172750000Y-54750000D02*
X172750000Y-41750000D01*
X171500000Y-66094584D02*
X171500000Y-56000000D01*
X144400000Y-72300000D02*
X150450000Y-72300000D01*
X160550000Y-72000000D02*
X161750000Y-70800000D01*
X143950000Y-71850000D02*
X144400000Y-72300000D01*
X155000000Y-71750000D02*
X155250000Y-72000000D01*
X171147292Y-66447292D02*
X171500000Y-66094584D01*
X151000000Y-71750000D02*
X155000000Y-71750000D01*
X150450000Y-72300000D02*
X151000000Y-71750000D01*
X155250000Y-72000000D02*
X160550000Y-72000000D01*
%TD*%
%TA.AperFunction,Conductor*%
%TO.N,GND*%
G36*
X153855017Y-83081017D02*
G01*
X153979674Y-83149085D01*
X154080104Y-83249515D01*
X154148172Y-83374172D01*
X154178363Y-83512957D01*
X154177158Y-83598205D01*
X154152838Y-83841409D01*
X154115947Y-84210313D01*
X154112076Y-84235724D01*
X154109500Y-84248259D01*
X154109500Y-84262329D01*
X154108261Y-84287167D01*
X154107640Y-84293381D01*
X154106324Y-84306546D01*
X154105404Y-84325965D01*
X154105072Y-84332964D01*
X154105149Y-84348617D01*
X154107970Y-84373988D01*
X154109500Y-84401582D01*
X154109500Y-85200740D01*
X154124925Y-85352433D01*
X154124925Y-85352434D01*
X154124925Y-85352436D01*
X154124926Y-85352438D01*
X154125091Y-85352963D01*
X154185839Y-85546584D01*
X154185840Y-85546587D01*
X154185841Y-85546588D01*
X154274701Y-85706684D01*
X154284593Y-85724505D01*
X154381208Y-85837047D01*
X154417134Y-85878895D01*
X154502858Y-85945251D01*
X154578039Y-86003446D01*
X154578044Y-86003449D01*
X154678031Y-86052495D01*
X154795347Y-86132554D01*
X154885356Y-86242422D01*
X154940765Y-86373199D01*
X154957085Y-86514288D01*
X154932996Y-86654260D01*
X154870447Y-86781776D01*
X154774507Y-86886504D01*
X154652947Y-86959961D01*
X154515616Y-86996195D01*
X154458276Y-86999500D01*
X151922694Y-86999500D01*
X151782109Y-86979287D01*
X151652914Y-86920286D01*
X151545575Y-86827276D01*
X151468788Y-86707792D01*
X151428773Y-86571515D01*
X151428773Y-86429485D01*
X151438964Y-86378002D01*
X151484611Y-86197747D01*
X151484611Y-86197742D01*
X151505140Y-85950000D01*
X151484611Y-85702257D01*
X151484611Y-85702252D01*
X151423589Y-85461287D01*
X151423587Y-85461280D01*
X151354143Y-85302963D01*
X151354141Y-85302963D01*
X150515664Y-86141440D01*
X150543559Y-86062953D01*
X150553877Y-85912114D01*
X150523116Y-85764085D01*
X150453558Y-85629844D01*
X150350362Y-85519348D01*
X150221181Y-85440791D01*
X150075596Y-85400000D01*
X149962378Y-85400000D01*
X149850217Y-85415416D01*
X149711542Y-85475651D01*
X149594261Y-85571066D01*
X149507072Y-85694585D01*
X149456441Y-85837047D01*
X149446123Y-85987886D01*
X149476379Y-86133486D01*
X148645856Y-85302962D01*
X148645855Y-85302962D01*
X148576412Y-85461280D01*
X148576410Y-85461285D01*
X148515388Y-85702252D01*
X148515388Y-85702257D01*
X148494859Y-85950000D01*
X148515388Y-86197742D01*
X148515388Y-86197747D01*
X148561036Y-86378002D01*
X148575954Y-86519246D01*
X148550474Y-86658972D01*
X148486660Y-86785860D01*
X148389683Y-86889629D01*
X148267400Y-86961873D01*
X148129716Y-86996740D01*
X148077306Y-86999500D01*
X147423210Y-86999500D01*
X147282625Y-86979287D01*
X147153430Y-86920286D01*
X147046091Y-86827276D01*
X146969304Y-86707792D01*
X146929289Y-86571515D01*
X146929289Y-86429485D01*
X146939479Y-86378003D01*
X146985108Y-86197821D01*
X147005643Y-85950000D01*
X146985108Y-85702179D01*
X146924063Y-85461119D01*
X146824173Y-85233393D01*
X146824169Y-85233388D01*
X146824168Y-85233384D01*
X146688162Y-85025211D01*
X146653412Y-84987463D01*
X146573068Y-84870342D01*
X146528975Y-84735329D01*
X146524706Y-84593363D01*
X146560606Y-84455945D01*
X146633767Y-84334208D01*
X146738262Y-84238013D01*
X146865625Y-84175155D01*
X147005539Y-84150725D01*
X147020538Y-84150500D01*
X148839938Y-84150500D01*
X148980523Y-84170713D01*
X149109718Y-84229714D01*
X149217057Y-84322724D01*
X149293844Y-84442208D01*
X149333138Y-84576032D01*
X150000000Y-85242893D01*
X150000001Y-85242893D01*
X150667047Y-84575845D01*
X150705765Y-84443063D01*
X150782327Y-84323435D01*
X150889491Y-84230223D01*
X151018575Y-84170979D01*
X151159121Y-84150501D01*
X151160061Y-84150500D01*
X151889861Y-84150500D01*
X151926476Y-84153381D01*
X151926504Y-84152850D01*
X151952600Y-84154217D01*
X151952612Y-84154219D01*
X152017058Y-84150841D01*
X152030111Y-84150500D01*
X152047191Y-84150500D01*
X152047192Y-84150500D01*
X152064189Y-84148713D01*
X152077155Y-84147692D01*
X152141646Y-84144313D01*
X152141650Y-84144311D01*
X152165056Y-84140604D01*
X152188252Y-84135675D01*
X152188254Y-84135674D01*
X152188256Y-84135674D01*
X152249640Y-84115728D01*
X152262120Y-84112031D01*
X152324488Y-84095320D01*
X152324491Y-84095318D01*
X152346636Y-84086817D01*
X152368279Y-84077181D01*
X152368280Y-84077180D01*
X152368284Y-84077179D01*
X152424200Y-84044894D01*
X152435621Y-84038693D01*
X152493149Y-84009383D01*
X152493153Y-84009379D01*
X152513031Y-83996470D01*
X152532211Y-83982535D01*
X152532216Y-83982533D01*
X152580203Y-83939324D01*
X152590072Y-83930894D01*
X152603380Y-83920119D01*
X152615453Y-83908044D01*
X152624924Y-83899056D01*
X152672888Y-83855871D01*
X152672890Y-83855866D01*
X152690390Y-83836433D01*
X152690786Y-83836789D01*
X152714634Y-83808863D01*
X153327791Y-83195706D01*
X153441489Y-83110593D01*
X153574564Y-83060959D01*
X153716232Y-83050826D01*
X153855017Y-83081017D01*
G37*
%TD.AperFunction*%
%TA.AperFunction,Conductor*%
G36*
X142747477Y-35870713D02*
G01*
X142876672Y-35929714D01*
X142984011Y-36022724D01*
X143060798Y-36142208D01*
X143100813Y-36278485D01*
X143100813Y-36420515D01*
X143099749Y-36427559D01*
X143095780Y-36452617D01*
X143094540Y-36476282D01*
X143094540Y-36500004D01*
X143101284Y-36564176D01*
X143102308Y-36577191D01*
X143105687Y-36641647D01*
X143109394Y-36665051D01*
X143114327Y-36688260D01*
X143134269Y-36749638D01*
X143137976Y-36762154D01*
X143154679Y-36824485D01*
X143163175Y-36846619D01*
X143172822Y-36868286D01*
X143205085Y-36924167D01*
X143211317Y-36935645D01*
X143240617Y-36993149D01*
X143240620Y-36993152D01*
X143253536Y-37013042D01*
X143267465Y-37032214D01*
X143310660Y-37080189D01*
X143319136Y-37090112D01*
X143329881Y-37103380D01*
X143341962Y-37115461D01*
X143350936Y-37124918D01*
X143394129Y-37172888D01*
X143413568Y-37190391D01*
X143413211Y-37190786D01*
X143441137Y-37214636D01*
X143953346Y-37726845D01*
X144038462Y-37840546D01*
X144088096Y-37973621D01*
X144099500Y-38079691D01*
X144099500Y-39959121D01*
X144079287Y-40099706D01*
X144020286Y-40228901D01*
X143927276Y-40336240D01*
X143807792Y-40413027D01*
X143671515Y-40453042D01*
X143656374Y-40454983D01*
X143570750Y-40464631D01*
X143570747Y-40464631D01*
X143492127Y-40492141D01*
X143400478Y-40524211D01*
X143400476Y-40524211D01*
X143400473Y-40524213D01*
X143247736Y-40620185D01*
X143247733Y-40620187D01*
X143120187Y-40747733D01*
X143120185Y-40747736D01*
X143024213Y-40900473D01*
X143024211Y-40900476D01*
X143024211Y-40900478D01*
X143001763Y-40964630D01*
X142964631Y-41070747D01*
X142964630Y-41070753D01*
X142944435Y-41249995D01*
X142944435Y-41250004D01*
X142964630Y-41429246D01*
X142964631Y-41429252D01*
X142964631Y-41429254D01*
X142964632Y-41429255D01*
X143024211Y-41599522D01*
X143024212Y-41599524D01*
X143024213Y-41599526D01*
X143057293Y-41652172D01*
X143118760Y-41749996D01*
X143120185Y-41752263D01*
X143120187Y-41752266D01*
X143253345Y-41885423D01*
X143338461Y-41999123D01*
X143388096Y-42132198D01*
X143399500Y-42238270D01*
X143399500Y-55194269D01*
X143397363Y-55226870D01*
X143394318Y-55249999D01*
X143394318Y-55250000D01*
X143405514Y-55335044D01*
X143414955Y-55406759D01*
X143414956Y-55406763D01*
X143475463Y-55552840D01*
X143571715Y-55678279D01*
X143571716Y-55678280D01*
X143571718Y-55678282D01*
X143590231Y-55692487D01*
X143614794Y-55714029D01*
X144015813Y-56115048D01*
X144100929Y-56228749D01*
X144115432Y-56257475D01*
X144180253Y-56396860D01*
X144221207Y-56532858D01*
X144222187Y-56674884D01*
X144183114Y-56811434D01*
X144117467Y-56918970D01*
X144111815Y-56926036D01*
X144096139Y-56946692D01*
X144084881Y-56964456D01*
X144084111Y-56963968D01*
X144058772Y-57004236D01*
X144056209Y-57007659D01*
X144056203Y-57007671D01*
X144041367Y-57047446D01*
X144035259Y-57061255D01*
X144029612Y-57074273D01*
X144027050Y-57081568D01*
X144027008Y-57081704D01*
X144026244Y-57084586D01*
X144018848Y-57107826D01*
X144005909Y-57142516D01*
X143999500Y-57202130D01*
X143999500Y-58297875D01*
X143999501Y-58297880D01*
X144005908Y-58357480D01*
X144005908Y-58357483D01*
X144053704Y-58485629D01*
X144083894Y-58624413D01*
X144073761Y-58766082D01*
X144035755Y-58876504D01*
X144024213Y-58900471D01*
X143964631Y-59070747D01*
X143964630Y-59070753D01*
X143944435Y-59249995D01*
X143944435Y-59250004D01*
X143964630Y-59429246D01*
X143964631Y-59429250D01*
X143964632Y-59429255D01*
X143996077Y-59519120D01*
X144019197Y-59585193D01*
X144046549Y-59724564D01*
X144033529Y-59865997D01*
X144019197Y-59914807D01*
X143996450Y-59979816D01*
X143964631Y-60070749D01*
X143964630Y-60070753D01*
X143944435Y-60249995D01*
X143944435Y-60250004D01*
X143964630Y-60429246D01*
X143964631Y-60429250D01*
X143964632Y-60429255D01*
X143991171Y-60505098D01*
X144019197Y-60585193D01*
X144046549Y-60724564D01*
X144033529Y-60865997D01*
X144019197Y-60914807D01*
X143965222Y-61069061D01*
X143964631Y-61070749D01*
X143964630Y-61070753D01*
X143944435Y-61249995D01*
X143944435Y-61250004D01*
X143964630Y-61429246D01*
X143964631Y-61429252D01*
X143964631Y-61429254D01*
X143964632Y-61429255D01*
X144024211Y-61599522D01*
X144024212Y-61599524D01*
X144024213Y-61599526D01*
X144120185Y-61752263D01*
X144120187Y-61752266D01*
X144247733Y-61879812D01*
X144247736Y-61879814D01*
X144247738Y-61879816D01*
X144376016Y-61960418D01*
X144394721Y-61972172D01*
X144400478Y-61975789D01*
X144570745Y-62035368D01*
X144570751Y-62035368D01*
X144570753Y-62035369D01*
X144749995Y-62055565D01*
X144750000Y-62055565D01*
X144750005Y-62055565D01*
X144929248Y-62035369D01*
X144929250Y-62035368D01*
X144929255Y-62035368D01*
X145000560Y-62010416D01*
X145031628Y-62001753D01*
X145048687Y-61998166D01*
X145317518Y-61900004D01*
X164694435Y-61900004D01*
X164714630Y-62079251D01*
X164714631Y-62079254D01*
X164739577Y-62150544D01*
X164748246Y-62181629D01*
X164751832Y-62198682D01*
X164899763Y-62603818D01*
X164906398Y-62624825D01*
X164914955Y-62656759D01*
X164914955Y-62656761D01*
X164914956Y-62656762D01*
X164961516Y-62769168D01*
X164996641Y-62906782D01*
X164999500Y-62960125D01*
X164999500Y-68544268D01*
X164997363Y-68576869D01*
X164994318Y-68600000D01*
X164999500Y-68639361D01*
X165012831Y-68740619D01*
X165014956Y-68756762D01*
X165075463Y-68902840D01*
X165171715Y-69028279D01*
X165171716Y-69028280D01*
X165171718Y-69028282D01*
X165190231Y-69042487D01*
X165214794Y-69064029D01*
X167635974Y-71485209D01*
X167657507Y-71509763D01*
X167669804Y-71525788D01*
X167671718Y-71528282D01*
X167777642Y-71609560D01*
X167797159Y-71624536D01*
X167797160Y-71624536D01*
X167797161Y-71624537D01*
X167943237Y-71685044D01*
X167979914Y-71689872D01*
X168062914Y-71700799D01*
X168168932Y-71726799D01*
X168501312Y-71848165D01*
X168541824Y-71861054D01*
X168541832Y-71861055D01*
X168552257Y-71863338D01*
X168581317Y-71871571D01*
X168620745Y-71885368D01*
X168800000Y-71905565D01*
X168800002Y-71905564D01*
X168800004Y-71905565D01*
X168800005Y-71905565D01*
X168979246Y-71885369D01*
X168979245Y-71885369D01*
X168979255Y-71885368D01*
X169149522Y-71825789D01*
X169302262Y-71729816D01*
X169334281Y-71697796D01*
X169447977Y-71612681D01*
X169581052Y-71563044D01*
X169722720Y-71552909D01*
X169742980Y-71554774D01*
X169750000Y-71555565D01*
X169750002Y-71555564D01*
X169750004Y-71555565D01*
X169750005Y-71555565D01*
X169929246Y-71535369D01*
X169929245Y-71535369D01*
X169929255Y-71535368D01*
X170099522Y-71475789D01*
X170252262Y-71379816D01*
X170373483Y-71258594D01*
X170487181Y-71173481D01*
X170620256Y-71123846D01*
X170761924Y-71113713D01*
X170900709Y-71143903D01*
X170991814Y-71188928D01*
X171050471Y-71225785D01*
X171050472Y-71225785D01*
X171050478Y-71225789D01*
X171220745Y-71285368D01*
X171220751Y-71285368D01*
X171220753Y-71285369D01*
X171399995Y-71305565D01*
X171400000Y-71305565D01*
X171400005Y-71305565D01*
X171579246Y-71285369D01*
X171579245Y-71285369D01*
X171579255Y-71285368D01*
X171749522Y-71225789D01*
X171902262Y-71129816D01*
X172029816Y-71002262D01*
X172125789Y-70849522D01*
X172185368Y-70679255D01*
X172191960Y-70620747D01*
X172205565Y-70500004D01*
X172205565Y-70499995D01*
X172185369Y-70320751D01*
X172185368Y-70320746D01*
X172177317Y-70297738D01*
X172160416Y-70249439D01*
X172151752Y-70218367D01*
X172148166Y-70201312D01*
X172011679Y-69827521D01*
X171982448Y-69688534D01*
X171993557Y-69546939D01*
X172044109Y-69414210D01*
X172130007Y-69301099D01*
X172138646Y-69293432D01*
X172279812Y-69152266D01*
X172279816Y-69152262D01*
X172362012Y-69021447D01*
X172453921Y-68913166D01*
X172572614Y-68835163D01*
X172708476Y-68793760D01*
X172728635Y-68791071D01*
X172779255Y-68785368D01*
X172949522Y-68725789D01*
X173102262Y-68629816D01*
X173229816Y-68502262D01*
X173325789Y-68349522D01*
X173385368Y-68179255D01*
X173395355Y-68090617D01*
X173405565Y-68000004D01*
X173405565Y-67999995D01*
X173385369Y-67820753D01*
X173385368Y-67820747D01*
X173385368Y-67820745D01*
X173325789Y-67650478D01*
X173229816Y-67497738D01*
X173229814Y-67497736D01*
X173229812Y-67497733D01*
X173134400Y-67402321D01*
X173049284Y-67288620D01*
X172999650Y-67155545D01*
X172989517Y-67013877D01*
X173019708Y-66875092D01*
X173031542Y-66850335D01*
X173030202Y-66849755D01*
X173046174Y-66812846D01*
X173057664Y-66786290D01*
X173068007Y-66765176D01*
X173086197Y-66732092D01*
X173086199Y-66732081D01*
X173092022Y-66717377D01*
X173101026Y-66691080D01*
X173105438Y-66675894D01*
X173111341Y-66638619D01*
X173116113Y-66615574D01*
X173125499Y-66579022D01*
X173125500Y-66579019D01*
X173125500Y-66579014D01*
X173127479Y-66563343D01*
X173129663Y-66535599D01*
X173130160Y-66519804D01*
X173126608Y-66482231D01*
X173125500Y-66458736D01*
X173125500Y-56594083D01*
X173126608Y-56570587D01*
X173127672Y-56559332D01*
X173126724Y-56529145D01*
X173125500Y-56490202D01*
X173125500Y-56460650D01*
X173125499Y-56460647D01*
X173125138Y-56454909D01*
X173123896Y-56439155D01*
X173122709Y-56401372D01*
X173122706Y-56401364D01*
X173120231Y-56385731D01*
X173114599Y-56358533D01*
X173110665Y-56343211D01*
X173107651Y-56335598D01*
X173096762Y-56308098D01*
X173089147Y-56285854D01*
X173078617Y-56249611D01*
X173076961Y-56245784D01*
X173039676Y-56108735D01*
X173039065Y-56103559D01*
X173035368Y-56070745D01*
X172975789Y-55900478D01*
X172975782Y-55900467D01*
X172963628Y-55875226D01*
X172966412Y-55873884D01*
X172926451Y-55783959D01*
X172907676Y-55643176D01*
X172929325Y-55502805D01*
X172989643Y-55374219D01*
X173053799Y-55295434D01*
X173135218Y-55214015D01*
X173159766Y-55192488D01*
X173178282Y-55178282D01*
X173274536Y-55052841D01*
X173335044Y-54906762D01*
X173350500Y-54789361D01*
X173355682Y-54750000D01*
X173352637Y-54726869D01*
X173350500Y-54694268D01*
X173350500Y-42541347D01*
X173370713Y-42400762D01*
X173380770Y-42370195D01*
X173415817Y-42274213D01*
X173498166Y-42048686D01*
X173511071Y-42008117D01*
X173511071Y-42008109D01*
X173513342Y-41997737D01*
X173521580Y-41968654D01*
X173535368Y-41929255D01*
X173555565Y-41750000D01*
X173555565Y-41749996D01*
X173555565Y-41749995D01*
X173535369Y-41570753D01*
X173535368Y-41570747D01*
X173535368Y-41570745D01*
X173475789Y-41400478D01*
X173379816Y-41247738D01*
X173379814Y-41247736D01*
X173379812Y-41247733D01*
X173252266Y-41120187D01*
X173252263Y-41120185D01*
X173252262Y-41120184D01*
X173140565Y-41050000D01*
X173099526Y-41024213D01*
X173099524Y-41024212D01*
X173099522Y-41024211D01*
X172929255Y-40964632D01*
X172929254Y-40964631D01*
X172929252Y-40964631D01*
X172929246Y-40964630D01*
X172750005Y-40944435D01*
X172749995Y-40944435D01*
X172570753Y-40964630D01*
X172570747Y-40964631D01*
X172492127Y-40992141D01*
X172400478Y-41024211D01*
X172400476Y-41024211D01*
X172400473Y-41024213D01*
X172247736Y-41120185D01*
X172247733Y-41120187D01*
X172120187Y-41247733D01*
X172120185Y-41247736D01*
X172024213Y-41400473D01*
X172024211Y-41400476D01*
X172024211Y-41400478D01*
X172007373Y-41448598D01*
X171964631Y-41570747D01*
X171964630Y-41570751D01*
X171943984Y-41753993D01*
X171908158Y-41891431D01*
X171835062Y-42013207D01*
X171730618Y-42109458D01*
X171603288Y-42172384D01*
X171503993Y-42193984D01*
X171320751Y-42214630D01*
X171320747Y-42214631D01*
X171253191Y-42238270D01*
X171150478Y-42274211D01*
X171150476Y-42274211D01*
X171150473Y-42274213D01*
X170997736Y-42370185D01*
X170997733Y-42370187D01*
X170870187Y-42497733D01*
X170870185Y-42497736D01*
X170774213Y-42650473D01*
X170774211Y-42650479D01*
X170714631Y-42820747D01*
X170714630Y-42820753D01*
X170694435Y-42999995D01*
X170694435Y-43000004D01*
X170714630Y-43179251D01*
X170714631Y-43179254D01*
X170739577Y-43250544D01*
X170748246Y-43281629D01*
X170751832Y-43298681D01*
X170751833Y-43298683D01*
X170858204Y-43590000D01*
X170869230Y-43620195D01*
X170898462Y-43759184D01*
X170899500Y-43791347D01*
X170899500Y-48312729D01*
X170879287Y-48453314D01*
X170820286Y-48582509D01*
X170727276Y-48689848D01*
X170607792Y-48766635D01*
X170471515Y-48806650D01*
X170329485Y-48806650D01*
X170193208Y-48766635D01*
X170073724Y-48689848D01*
X170047654Y-48665575D01*
X170002266Y-48620187D01*
X170002263Y-48620185D01*
X170002262Y-48620184D01*
X169928649Y-48573930D01*
X169849526Y-48524213D01*
X169849524Y-48524212D01*
X169849522Y-48524211D01*
X169679255Y-48464632D01*
X169679254Y-48464631D01*
X169679252Y-48464631D01*
X169679246Y-48464630D01*
X169500005Y-48444435D01*
X169499995Y-48444435D01*
X169320753Y-48464630D01*
X169320747Y-48464631D01*
X169242127Y-48492141D01*
X169150478Y-48524211D01*
X169150476Y-48524211D01*
X169150473Y-48524213D01*
X168997736Y-48620185D01*
X168997733Y-48620187D01*
X168870187Y-48747733D01*
X168870185Y-48747736D01*
X168774213Y-48900473D01*
X168774211Y-48900476D01*
X168774211Y-48900478D01*
X168746721Y-48979040D01*
X168714631Y-49070747D01*
X168714630Y-49070753D01*
X168694435Y-49249995D01*
X168694435Y-49250004D01*
X168714630Y-49429251D01*
X168714631Y-49429254D01*
X168739577Y-49500544D01*
X168748246Y-49531629D01*
X168751832Y-49548681D01*
X168869230Y-49870195D01*
X168898462Y-50009184D01*
X168899500Y-50041347D01*
X168899500Y-54458650D01*
X168879287Y-54599235D01*
X168869230Y-54629801D01*
X168751833Y-54951316D01*
X168738922Y-54991901D01*
X168736647Y-55002295D01*
X168728415Y-55031352D01*
X168714631Y-55070746D01*
X168694435Y-55249995D01*
X168694435Y-55250004D01*
X168714630Y-55429246D01*
X168714631Y-55429252D01*
X168714631Y-55429254D01*
X168714632Y-55429255D01*
X168774211Y-55599522D01*
X168774212Y-55599524D01*
X168774213Y-55599526D01*
X168823697Y-55678279D01*
X168867341Y-55747738D01*
X168870185Y-55752263D01*
X168870187Y-55752266D01*
X168997733Y-55879812D01*
X168997736Y-55879814D01*
X168997738Y-55879816D01*
X169088991Y-55937154D01*
X169113390Y-55952485D01*
X169221672Y-56044396D01*
X169299674Y-56163090D01*
X169341076Y-56298952D01*
X169342524Y-56440974D01*
X169303902Y-56577652D01*
X169228337Y-56697913D01*
X169121952Y-56792012D01*
X169113390Y-56797515D01*
X168997736Y-56870185D01*
X168997733Y-56870187D01*
X168870187Y-56997733D01*
X168870185Y-56997736D01*
X168774213Y-57150473D01*
X168774208Y-57150484D01*
X168756699Y-57200521D01*
X168691186Y-57326539D01*
X168592824Y-57428996D01*
X168469580Y-57499590D01*
X168450521Y-57506699D01*
X168400484Y-57524208D01*
X168400473Y-57524213D01*
X168247736Y-57620185D01*
X168247733Y-57620187D01*
X168120187Y-57747733D01*
X168120185Y-57747736D01*
X168024213Y-57900473D01*
X168024211Y-57900476D01*
X168024211Y-57900478D01*
X168010801Y-57938801D01*
X167964631Y-58070747D01*
X167964630Y-58070753D01*
X167944435Y-58249995D01*
X167944435Y-58249999D01*
X167947161Y-58274195D01*
X167942814Y-58416159D01*
X167898648Y-58551148D01*
X167818240Y-58668225D01*
X167708105Y-58757907D01*
X167596931Y-58804621D01*
X167597196Y-58805377D01*
X167584861Y-58809693D01*
X167577165Y-58812927D01*
X167572039Y-58814179D01*
X167526826Y-58830000D01*
X167400478Y-58874211D01*
X167400476Y-58874211D01*
X167400473Y-58874213D01*
X167247736Y-58970185D01*
X167247733Y-58970187D01*
X167120187Y-59097733D01*
X167120185Y-59097736D01*
X167024213Y-59250473D01*
X167024211Y-59250476D01*
X167024211Y-59250478D01*
X166998411Y-59324211D01*
X166964631Y-59420747D01*
X166964630Y-59420751D01*
X166953547Y-59519120D01*
X166917720Y-59656557D01*
X166844624Y-59778334D01*
X166768807Y-59853381D01*
X166747737Y-59870183D01*
X166620187Y-59997733D01*
X166620185Y-59997736D01*
X166524213Y-60150473D01*
X166524206Y-60150487D01*
X166520517Y-60161032D01*
X166455004Y-60287050D01*
X166356641Y-60389507D01*
X166233396Y-60460100D01*
X166105395Y-60492075D01*
X165989818Y-60505097D01*
X165989814Y-60505098D01*
X165911194Y-60532608D01*
X165819545Y-60564678D01*
X165819543Y-60564678D01*
X165819540Y-60564680D01*
X165666803Y-60660652D01*
X165666800Y-60660654D01*
X165539254Y-60788200D01*
X165539247Y-60788209D01*
X165430814Y-60960779D01*
X165338904Y-61069061D01*
X165220210Y-61147063D01*
X165173113Y-61166290D01*
X165150485Y-61174207D01*
X165150473Y-61174213D01*
X164997736Y-61270185D01*
X164997733Y-61270187D01*
X164870187Y-61397733D01*
X164870185Y-61397736D01*
X164774213Y-61550473D01*
X164774211Y-61550476D01*
X164774211Y-61550478D01*
X164756356Y-61601505D01*
X164714631Y-61720747D01*
X164714630Y-61720753D01*
X164694435Y-61899995D01*
X164694435Y-61900004D01*
X145317518Y-61900004D01*
X145370196Y-61880769D01*
X145509185Y-61851538D01*
X145541348Y-61850500D01*
X151144268Y-61850500D01*
X151176869Y-61852637D01*
X151199999Y-61855682D01*
X151200000Y-61855682D01*
X151356762Y-61835044D01*
X151502841Y-61774536D01*
X151554308Y-61735044D01*
X151572933Y-61720753D01*
X151576737Y-61717833D01*
X151628282Y-61678282D01*
X151642488Y-61659766D01*
X151664015Y-61635218D01*
X152965052Y-60334181D01*
X153078750Y-60249068D01*
X153107453Y-60234576D01*
X153417830Y-60090236D01*
X153417838Y-60090231D01*
X153435823Y-60081868D01*
X153442685Y-60079080D01*
X153449514Y-60075791D01*
X153449522Y-60075789D01*
X153602262Y-59979816D01*
X153729816Y-59852262D01*
X153825789Y-59699522D01*
X153885368Y-59529255D01*
X153885368Y-59529251D01*
X153894623Y-59502804D01*
X153896702Y-59503531D01*
X153934253Y-59405904D01*
X154020523Y-59293076D01*
X154135085Y-59209124D01*
X154268659Y-59160848D01*
X154369755Y-59150500D01*
X155094644Y-59150500D01*
X155094646Y-59150500D01*
X155128261Y-59143354D01*
X155154063Y-59139267D01*
X155188256Y-59135674D01*
X155220947Y-59125051D01*
X155246190Y-59118288D01*
X155255283Y-59116355D01*
X155279803Y-59111144D01*
X155311204Y-59097162D01*
X155335594Y-59087799D01*
X155368284Y-59077179D01*
X155398055Y-59059989D01*
X155421329Y-59048130D01*
X155452730Y-59034151D01*
X155480539Y-59013946D01*
X155502435Y-58999726D01*
X155532216Y-58982533D01*
X155557755Y-58959536D01*
X155578071Y-58943085D01*
X155578454Y-58942806D01*
X155605871Y-58922888D01*
X155628882Y-58897330D01*
X155647330Y-58878882D01*
X155672888Y-58855871D01*
X155693085Y-58828071D01*
X155709539Y-58807752D01*
X155732533Y-58782216D01*
X155749726Y-58752435D01*
X155763946Y-58730539D01*
X155784151Y-58702730D01*
X155798130Y-58671329D01*
X155809989Y-58648055D01*
X155827179Y-58618284D01*
X155837799Y-58585594D01*
X155847162Y-58561204D01*
X155861144Y-58529803D01*
X155868288Y-58496190D01*
X155875051Y-58470947D01*
X155885674Y-58438256D01*
X155889267Y-58404063D01*
X155893356Y-58378253D01*
X155900499Y-58344650D01*
X155900500Y-58344643D01*
X155900500Y-58310280D01*
X155901868Y-58284185D01*
X155905460Y-58250002D01*
X155905460Y-58250001D01*
X155905232Y-58247830D01*
X155901866Y-58215812D01*
X155900500Y-58189719D01*
X155900500Y-58155357D01*
X155900500Y-58155354D01*
X155893353Y-58121730D01*
X155889266Y-58095923D01*
X155885674Y-58061744D01*
X155875047Y-58029041D01*
X155868291Y-58003826D01*
X155861144Y-57970197D01*
X155847165Y-57938801D01*
X155837797Y-57914397D01*
X155827179Y-57881717D01*
X155827179Y-57881716D01*
X155809986Y-57851938D01*
X155798136Y-57828682D01*
X155784151Y-57797270D01*
X155763947Y-57769461D01*
X155749721Y-57747554D01*
X155732530Y-57717779D01*
X155709532Y-57692238D01*
X155693083Y-57671926D01*
X155672888Y-57644129D01*
X155647342Y-57621127D01*
X155628862Y-57602646D01*
X155605872Y-57577112D01*
X155578064Y-57556909D01*
X155557763Y-57540470D01*
X155532216Y-57517467D01*
X155532215Y-57517466D01*
X155532208Y-57517461D01*
X155502443Y-57500276D01*
X155480537Y-57486050D01*
X155452734Y-57465851D01*
X155452725Y-57465846D01*
X155421333Y-57451870D01*
X155398059Y-57440011D01*
X155376189Y-57427384D01*
X155368283Y-57422820D01*
X155368279Y-57422819D01*
X155335596Y-57412199D01*
X155311204Y-57402836D01*
X155279807Y-57388857D01*
X155279795Y-57388853D01*
X155246181Y-57381709D01*
X155220945Y-57374947D01*
X155188256Y-57364326D01*
X155188253Y-57364325D01*
X155188255Y-57364325D01*
X155154060Y-57360730D01*
X155128263Y-57356644D01*
X155094650Y-57349500D01*
X155094646Y-57349500D01*
X155047192Y-57349500D01*
X148829691Y-57349500D01*
X148689106Y-57329287D01*
X148559911Y-57270286D01*
X148476845Y-57203346D01*
X146046654Y-54773155D01*
X145961538Y-54659454D01*
X145911904Y-54526379D01*
X145900500Y-54420309D01*
X145900500Y-37610140D01*
X145903381Y-37573527D01*
X145902850Y-37573500D01*
X145904217Y-37547399D01*
X145904219Y-37547388D01*
X145900841Y-37482941D01*
X145900500Y-37469889D01*
X145900500Y-37452812D01*
X145900500Y-37452808D01*
X145898711Y-37435792D01*
X145897692Y-37422858D01*
X145894313Y-37358355D01*
X145894312Y-37358352D01*
X145894312Y-37358347D01*
X145890605Y-37334943D01*
X145885674Y-37311747D01*
X145885674Y-37311744D01*
X145865724Y-37250347D01*
X145862021Y-37237843D01*
X145849306Y-37190391D01*
X145845320Y-37175513D01*
X145845319Y-37175512D01*
X145845319Y-37175510D01*
X145836830Y-37153395D01*
X145827181Y-37131723D01*
X145827179Y-37131716D01*
X145794907Y-37075820D01*
X145788684Y-37064358D01*
X145759381Y-37006848D01*
X145746469Y-36986965D01*
X145732534Y-36967785D01*
X145689356Y-36919831D01*
X145680871Y-36909896D01*
X145670123Y-36896623D01*
X145670112Y-36896611D01*
X145658035Y-36884534D01*
X145649042Y-36875058D01*
X145605872Y-36827113D01*
X145586437Y-36809614D01*
X145586792Y-36809218D01*
X145558868Y-36785368D01*
X145475846Y-36702346D01*
X145390730Y-36588645D01*
X145341096Y-36455570D01*
X145330963Y-36313902D01*
X145361154Y-36175117D01*
X145429222Y-36050460D01*
X145529652Y-35950030D01*
X145654309Y-35881962D01*
X145793094Y-35851771D01*
X145828692Y-35850500D01*
X174400500Y-35850500D01*
X174541085Y-35870713D01*
X174670280Y-35929714D01*
X174777619Y-36022724D01*
X174854406Y-36142208D01*
X174894421Y-36278485D01*
X174899500Y-36349500D01*
X174899500Y-38147875D01*
X174899501Y-38147880D01*
X174905908Y-38207480D01*
X174905909Y-38207484D01*
X174956202Y-38342326D01*
X174956206Y-38342334D01*
X175063841Y-38486115D01*
X175062750Y-38486931D01*
X175120805Y-38564482D01*
X175170439Y-38697557D01*
X175180572Y-38839225D01*
X175150381Y-38978010D01*
X175091602Y-39089838D01*
X175075965Y-39112170D01*
X175075964Y-39112170D01*
X174976098Y-39326332D01*
X174976097Y-39326336D01*
X174914937Y-39554590D01*
X174894341Y-39790000D01*
X174909137Y-39959121D01*
X174914937Y-40025408D01*
X174973418Y-40243665D01*
X174976098Y-40253665D01*
X175075963Y-40467826D01*
X175075967Y-40467833D01*
X175211503Y-40661399D01*
X175211512Y-40661409D01*
X175257257Y-40707154D01*
X175342373Y-40820855D01*
X175392007Y-40953930D01*
X175402140Y-41095598D01*
X175371949Y-41234383D01*
X175303881Y-41359040D01*
X175257257Y-41412846D01*
X175211508Y-41458594D01*
X175211505Y-41458598D01*
X175075963Y-41652172D01*
X174976098Y-41866332D01*
X174976097Y-41866336D01*
X174914937Y-42094590D01*
X174894341Y-42330000D01*
X174909016Y-42497738D01*
X174914937Y-42565408D01*
X174973418Y-42783665D01*
X174976098Y-42793665D01*
X175075963Y-43007826D01*
X175075967Y-43007833D01*
X175211503Y-43201399D01*
X175211512Y-43201409D01*
X175257257Y-43247154D01*
X175342373Y-43360855D01*
X175392007Y-43493930D01*
X175402140Y-43635598D01*
X175371949Y-43774383D01*
X175303881Y-43899040D01*
X175257257Y-43952846D01*
X175211508Y-43998594D01*
X175211505Y-43998598D01*
X175075963Y-44192172D01*
X174976098Y-44406332D01*
X174976097Y-44406336D01*
X174914937Y-44634590D01*
X174914937Y-44634592D01*
X174894341Y-44870000D01*
X174914937Y-45105408D01*
X174973418Y-45323665D01*
X174976098Y-45333665D01*
X175075963Y-45547826D01*
X175075967Y-45547833D01*
X175211503Y-45741399D01*
X175211512Y-45741409D01*
X175257257Y-45787154D01*
X175342373Y-45900855D01*
X175392007Y-46033930D01*
X175402140Y-46175598D01*
X175371949Y-46314383D01*
X175303881Y-46439040D01*
X175257257Y-46492846D01*
X175211508Y-46538594D01*
X175211505Y-46538598D01*
X175075963Y-46732172D01*
X174976098Y-46946332D01*
X174976097Y-46946336D01*
X174914937Y-47174590D01*
X174914937Y-47174592D01*
X174894341Y-47410000D01*
X174914937Y-47645408D01*
X174973418Y-47863665D01*
X174976098Y-47873665D01*
X175075963Y-48087826D01*
X175075967Y-48087833D01*
X175211503Y-48281399D01*
X175211512Y-48281409D01*
X175257257Y-48327154D01*
X175342373Y-48440855D01*
X175392007Y-48573930D01*
X175402140Y-48715598D01*
X175371949Y-48854383D01*
X175303881Y-48979040D01*
X175257257Y-49032846D01*
X175211508Y-49078594D01*
X175211505Y-49078598D01*
X175075963Y-49272172D01*
X174976098Y-49486332D01*
X174976097Y-49486336D01*
X174914937Y-49714590D01*
X174914937Y-49714592D01*
X174894341Y-49950000D01*
X174914937Y-50185408D01*
X174973418Y-50403665D01*
X174976098Y-50413665D01*
X175075963Y-50627826D01*
X175075967Y-50627833D01*
X175211503Y-50821399D01*
X175211512Y-50821409D01*
X175257611Y-50867508D01*
X175342727Y-50981209D01*
X175392361Y-51114284D01*
X175402494Y-51255952D01*
X175372303Y-51394737D01*
X175304235Y-51519394D01*
X175257611Y-51573200D01*
X175211893Y-51618917D01*
X175211888Y-51618923D01*
X175076401Y-51812420D01*
X175076398Y-51812424D01*
X174993594Y-51990000D01*
X176214237Y-51990000D01*
X176107685Y-52005320D01*
X175976900Y-52065048D01*
X175868239Y-52159202D01*
X175790507Y-52280156D01*
X175750000Y-52418111D01*
X175750000Y-52561889D01*
X175790507Y-52699844D01*
X175868239Y-52820798D01*
X175976900Y-52914952D01*
X176107685Y-52974680D01*
X176214237Y-52990000D01*
X174993592Y-52990000D01*
X175076398Y-53167576D01*
X175076398Y-53167577D01*
X175211890Y-53361078D01*
X175211894Y-53361083D01*
X175257611Y-53406800D01*
X175342727Y-53520501D01*
X175392361Y-53653576D01*
X175402494Y-53795244D01*
X175372303Y-53934029D01*
X175304235Y-54058686D01*
X175257611Y-54112492D01*
X175211508Y-54158594D01*
X175211505Y-54158598D01*
X175075963Y-54352172D01*
X174976098Y-54566332D01*
X174976097Y-54566336D01*
X174914937Y-54794590D01*
X174894341Y-55030000D01*
X174913588Y-55249995D01*
X174914937Y-55265408D01*
X174973418Y-55483665D01*
X174976098Y-55493665D01*
X175075963Y-55707826D01*
X175075967Y-55707833D01*
X175211503Y-55901399D01*
X175211512Y-55901409D01*
X175257257Y-55947154D01*
X175342373Y-56060855D01*
X175392007Y-56193930D01*
X175402140Y-56335598D01*
X175371949Y-56474383D01*
X175303881Y-56599040D01*
X175257257Y-56652846D01*
X175211508Y-56698594D01*
X175211505Y-56698598D01*
X175075963Y-56892172D01*
X174976098Y-57106332D01*
X174976097Y-57106336D01*
X174914937Y-57334590D01*
X174894341Y-57570000D01*
X174914937Y-57805409D01*
X174935383Y-57881716D01*
X174973418Y-58023665D01*
X174976098Y-58033665D01*
X175075963Y-58247826D01*
X175075967Y-58247833D01*
X175211503Y-58441399D01*
X175211512Y-58441409D01*
X175257257Y-58487154D01*
X175342373Y-58600855D01*
X175392007Y-58733930D01*
X175402140Y-58875598D01*
X175371949Y-59014383D01*
X175303881Y-59139040D01*
X175257257Y-59192846D01*
X175211508Y-59238594D01*
X175211505Y-59238598D01*
X175075963Y-59432172D01*
X174976098Y-59646332D01*
X174976097Y-59646336D01*
X174914937Y-59874590D01*
X174905731Y-59979812D01*
X174894341Y-60110000D01*
X174914937Y-60345408D01*
X174973418Y-60563665D01*
X174976098Y-60573665D01*
X175075963Y-60787826D01*
X175075967Y-60787833D01*
X175211503Y-60981399D01*
X175211512Y-60981409D01*
X175257257Y-61027154D01*
X175342373Y-61140855D01*
X175392007Y-61273930D01*
X175402140Y-61415598D01*
X175371949Y-61554383D01*
X175303881Y-61679040D01*
X175257257Y-61732846D01*
X175211508Y-61778594D01*
X175211505Y-61778598D01*
X175075963Y-61972172D01*
X174976098Y-62186332D01*
X174976097Y-62186336D01*
X174914937Y-62414590D01*
X174914937Y-62414592D01*
X174894341Y-62650000D01*
X174914937Y-62885408D01*
X174973418Y-63103665D01*
X174976098Y-63113665D01*
X175075963Y-63327826D01*
X175075967Y-63327833D01*
X175211503Y-63521399D01*
X175211512Y-63521409D01*
X175257257Y-63567154D01*
X175342373Y-63680855D01*
X175392007Y-63813930D01*
X175402140Y-63955598D01*
X175371949Y-64094383D01*
X175303881Y-64219040D01*
X175257257Y-64272846D01*
X175211508Y-64318594D01*
X175211505Y-64318598D01*
X175075963Y-64512172D01*
X174976098Y-64726332D01*
X174976097Y-64726336D01*
X174914937Y-64954590D01*
X174914937Y-64954592D01*
X174894341Y-65190000D01*
X174914937Y-65425408D01*
X174973418Y-65643665D01*
X174976098Y-65653665D01*
X175075963Y-65867826D01*
X175075967Y-65867833D01*
X175211503Y-66061399D01*
X175211512Y-66061409D01*
X175257257Y-66107154D01*
X175342373Y-66220855D01*
X175392007Y-66353930D01*
X175402140Y-66495598D01*
X175371949Y-66634383D01*
X175303881Y-66759040D01*
X175257257Y-66812846D01*
X175211508Y-66858594D01*
X175211505Y-66858598D01*
X175075963Y-67052172D01*
X174976098Y-67266332D01*
X174976097Y-67266336D01*
X174914937Y-67494590D01*
X174894341Y-67730000D01*
X174914937Y-67965409D01*
X174923550Y-67997554D01*
X174974794Y-68188801D01*
X174976098Y-68193665D01*
X175075963Y-68407826D01*
X175075967Y-68407833D01*
X175211503Y-68601399D01*
X175211512Y-68601409D01*
X175257611Y-68647508D01*
X175342727Y-68761209D01*
X175392361Y-68894284D01*
X175402494Y-69035952D01*
X175372303Y-69174737D01*
X175304235Y-69299394D01*
X175257611Y-69353200D01*
X175211893Y-69398917D01*
X175211888Y-69398923D01*
X175076401Y-69592420D01*
X175076398Y-69592424D01*
X174993594Y-69770000D01*
X176214237Y-69770000D01*
X176107685Y-69785320D01*
X175976900Y-69845048D01*
X175868239Y-69939202D01*
X175790507Y-70060156D01*
X175750000Y-70198111D01*
X175750000Y-70341889D01*
X175790507Y-70479844D01*
X175868239Y-70600798D01*
X175976900Y-70694952D01*
X176107685Y-70754680D01*
X176214237Y-70770000D01*
X174993592Y-70770000D01*
X175076398Y-70947576D01*
X175076398Y-70947577D01*
X175211890Y-71141078D01*
X175211894Y-71141083D01*
X175257611Y-71186800D01*
X175342727Y-71300501D01*
X175392361Y-71433576D01*
X175402494Y-71575244D01*
X175372303Y-71714029D01*
X175304235Y-71838686D01*
X175257611Y-71892492D01*
X175211508Y-71938594D01*
X175211505Y-71938598D01*
X175075963Y-72132172D01*
X174976098Y-72346332D01*
X174976097Y-72346336D01*
X174914937Y-72574590D01*
X174894341Y-72810000D01*
X174914937Y-73045409D01*
X174933704Y-73115448D01*
X174973418Y-73263665D01*
X174976098Y-73273665D01*
X175075963Y-73487826D01*
X175075967Y-73487833D01*
X175211503Y-73681399D01*
X175211512Y-73681409D01*
X175257257Y-73727154D01*
X175342373Y-73840855D01*
X175392007Y-73973930D01*
X175402140Y-74115598D01*
X175371949Y-74254383D01*
X175303881Y-74379040D01*
X175257257Y-74432846D01*
X175211508Y-74478594D01*
X175211505Y-74478598D01*
X175075963Y-74672172D01*
X174976098Y-74886332D01*
X174976097Y-74886336D01*
X174914937Y-75114590D01*
X174894341Y-75350000D01*
X174914937Y-75585409D01*
X174933678Y-75655352D01*
X174973418Y-75803665D01*
X174976098Y-75813665D01*
X175075963Y-76027826D01*
X175075967Y-76027833D01*
X175211503Y-76221399D01*
X175211512Y-76221409D01*
X175257257Y-76267154D01*
X175342373Y-76380855D01*
X175392007Y-76513930D01*
X175402140Y-76655598D01*
X175371949Y-76794383D01*
X175303881Y-76919040D01*
X175257257Y-76972846D01*
X175211508Y-77018594D01*
X175211505Y-77018598D01*
X175075963Y-77212172D01*
X174976098Y-77426332D01*
X174976097Y-77426336D01*
X174914937Y-77654590D01*
X174894341Y-77890000D01*
X174905523Y-78017814D01*
X174914937Y-78125408D01*
X174973418Y-78343665D01*
X174976098Y-78353665D01*
X175075963Y-78567826D01*
X175075967Y-78567833D01*
X175211503Y-78761399D01*
X175211512Y-78761409D01*
X175257257Y-78807154D01*
X175342373Y-78920855D01*
X175392007Y-79053930D01*
X175402140Y-79195598D01*
X175371949Y-79334383D01*
X175303881Y-79459040D01*
X175257257Y-79512846D01*
X175211508Y-79558594D01*
X175211505Y-79558598D01*
X175075963Y-79752172D01*
X174976098Y-79966332D01*
X174976097Y-79966336D01*
X174914937Y-80194590D01*
X174899624Y-80369614D01*
X174894341Y-80430000D01*
X174914937Y-80665408D01*
X174972121Y-80878826D01*
X174976098Y-80893665D01*
X175075963Y-81107826D01*
X175075967Y-81107833D01*
X175211503Y-81301399D01*
X175211512Y-81301409D01*
X175257257Y-81347154D01*
X175342373Y-81460855D01*
X175392007Y-81593930D01*
X175402140Y-81735598D01*
X175371949Y-81874383D01*
X175303881Y-81999040D01*
X175257257Y-82052846D01*
X175211508Y-82098594D01*
X175211505Y-82098598D01*
X175075963Y-82292172D01*
X174976098Y-82506332D01*
X174976097Y-82506336D01*
X174914937Y-82734590D01*
X174894341Y-82970000D01*
X174901412Y-83050826D01*
X174914937Y-83205408D01*
X174973418Y-83423665D01*
X174976098Y-83433665D01*
X175075963Y-83647826D01*
X175075967Y-83647833D01*
X175211503Y-83841399D01*
X175211512Y-83841409D01*
X175257257Y-83887154D01*
X175342373Y-84000855D01*
X175392007Y-84133930D01*
X175402140Y-84275598D01*
X175371949Y-84414383D01*
X175303881Y-84539040D01*
X175257257Y-84592846D01*
X175211508Y-84638594D01*
X175211505Y-84638598D01*
X175075963Y-84832172D01*
X174976098Y-85046332D01*
X174976097Y-85046336D01*
X174914937Y-85274590D01*
X174894341Y-85510000D01*
X174914937Y-85745409D01*
X174937323Y-85828955D01*
X174976097Y-85973663D01*
X174999143Y-86023085D01*
X175075963Y-86187826D01*
X175075964Y-86187829D01*
X175094488Y-86214283D01*
X175158567Y-86341036D01*
X175184340Y-86480709D01*
X175169719Y-86621984D01*
X175115888Y-86753418D01*
X175027209Y-86864362D01*
X174910865Y-86945828D01*
X174776282Y-86991216D01*
X174685733Y-86999500D01*
X173435872Y-86999500D01*
X173295287Y-86979287D01*
X173166092Y-86920286D01*
X173058753Y-86827276D01*
X172981966Y-86707792D01*
X172941951Y-86571515D01*
X172941951Y-86429485D01*
X172952141Y-86378003D01*
X172985108Y-86247821D01*
X173005643Y-86000000D01*
X172985108Y-85752179D01*
X172924063Y-85511119D01*
X172824173Y-85283393D01*
X172824169Y-85283388D01*
X172824168Y-85283384D01*
X172688164Y-85075215D01*
X172519743Y-84892261D01*
X172323511Y-84739527D01*
X172104812Y-84621173D01*
X172104811Y-84621172D01*
X172104810Y-84621172D01*
X171869614Y-84540429D01*
X171869613Y-84540428D01*
X171869608Y-84540427D01*
X171706221Y-84513164D01*
X171624335Y-84499500D01*
X171375665Y-84499500D01*
X171301978Y-84511795D01*
X171130391Y-84540427D01*
X170895187Y-84621173D01*
X170676488Y-84739527D01*
X170480256Y-84892261D01*
X170311835Y-85075215D01*
X170175831Y-85283384D01*
X170075936Y-85511121D01*
X170029194Y-85695702D01*
X170014892Y-85752179D01*
X169994357Y-86000000D01*
X170014892Y-86247821D01*
X170047858Y-86378002D01*
X170047859Y-86378003D01*
X170062776Y-86519248D01*
X170037295Y-86658973D01*
X169973481Y-86785861D01*
X169876504Y-86889630D01*
X169754220Y-86961874D01*
X169616536Y-86996740D01*
X169564128Y-86999500D01*
X168935356Y-86999500D01*
X168794771Y-86979287D01*
X168665576Y-86920286D01*
X168558237Y-86827276D01*
X168481450Y-86707792D01*
X168441435Y-86571515D01*
X168441435Y-86429485D01*
X168451625Y-86378002D01*
X168484612Y-86247739D01*
X168505140Y-86000000D01*
X168484611Y-85752257D01*
X168484611Y-85752252D01*
X168423589Y-85511287D01*
X168423587Y-85511280D01*
X168354143Y-85352963D01*
X168354141Y-85352963D01*
X167515664Y-86191440D01*
X167543559Y-86112953D01*
X167553877Y-85962114D01*
X167523116Y-85814085D01*
X167453558Y-85679844D01*
X167350362Y-85569348D01*
X167221181Y-85490791D01*
X167075596Y-85450000D01*
X166962378Y-85450000D01*
X166850217Y-85465416D01*
X166711542Y-85525651D01*
X166594261Y-85621066D01*
X166507072Y-85744585D01*
X166456441Y-85887047D01*
X166446123Y-86037886D01*
X166476379Y-86183486D01*
X165645856Y-85352962D01*
X165602734Y-85361077D01*
X165525562Y-85430007D01*
X165397268Y-85490945D01*
X165257004Y-85513270D01*
X165116131Y-85495173D01*
X164986063Y-85438121D01*
X164877337Y-85346735D01*
X164798762Y-85228420D01*
X164756703Y-85092760D01*
X164750500Y-85014326D01*
X164750500Y-84645036D01*
X166352142Y-84645036D01*
X167000000Y-85292893D01*
X167000001Y-85292893D01*
X167647856Y-84645036D01*
X167647856Y-84645035D01*
X167604615Y-84621635D01*
X167604603Y-84621630D01*
X167369496Y-84540918D01*
X167369481Y-84540914D01*
X167124293Y-84500000D01*
X166875707Y-84500000D01*
X166630518Y-84540914D01*
X166630507Y-84540917D01*
X166395390Y-84621632D01*
X166352143Y-84645036D01*
X166352142Y-84645036D01*
X164750500Y-84645036D01*
X164750500Y-84336457D01*
X164751062Y-84323435D01*
X164752359Y-84293382D01*
X164663037Y-83400153D01*
X164654045Y-83310235D01*
X164652553Y-83298666D01*
X164650500Y-83266710D01*
X164650500Y-82207662D01*
X164651739Y-82182820D01*
X164660137Y-82098846D01*
X164721691Y-81483304D01*
X164744052Y-81259693D01*
X164747924Y-81234274D01*
X164750500Y-81221739D01*
X164750500Y-81207661D01*
X164751739Y-81182823D01*
X164753130Y-81168911D01*
X164753226Y-81167604D01*
X164753659Y-81161733D01*
X164753659Y-81161725D01*
X164754157Y-81094950D01*
X164751673Y-81069417D01*
X164750500Y-81045241D01*
X164750500Y-80854963D01*
X166352142Y-80854963D01*
X166395392Y-80878368D01*
X166395394Y-80878369D01*
X166630503Y-80959081D01*
X166630518Y-80959085D01*
X166875707Y-81000000D01*
X167124293Y-81000000D01*
X167369481Y-80959085D01*
X167369492Y-80959082D01*
X167604604Y-80878368D01*
X167604615Y-80878363D01*
X167647855Y-80854963D01*
X167647856Y-80854962D01*
X167000001Y-80207107D01*
X166352142Y-80854963D01*
X164750500Y-80854963D01*
X164750500Y-80485672D01*
X164770713Y-80345087D01*
X164829714Y-80215892D01*
X164922724Y-80108553D01*
X165042208Y-80031766D01*
X165178485Y-79991751D01*
X165320515Y-79991751D01*
X165456792Y-80031766D01*
X165576276Y-80108553D01*
X165602561Y-80138887D01*
X165645855Y-80147035D01*
X166255006Y-79537886D01*
X166446123Y-79537886D01*
X166476884Y-79685915D01*
X166546442Y-79820156D01*
X166649638Y-79930652D01*
X166778819Y-80009209D01*
X166924404Y-80050000D01*
X167037622Y-80050000D01*
X167149783Y-80034584D01*
X167288458Y-79974349D01*
X167405739Y-79878934D01*
X167492928Y-79755415D01*
X167543559Y-79612953D01*
X167551285Y-79500001D01*
X167707107Y-79500001D01*
X168354142Y-80147036D01*
X168423589Y-79988714D01*
X168423589Y-79988712D01*
X168484611Y-79747747D01*
X168484611Y-79747742D01*
X168505140Y-79500000D01*
X169994357Y-79500000D01*
X170014892Y-79747821D01*
X170029367Y-79804982D01*
X170075894Y-79988714D01*
X170075937Y-79988881D01*
X170175513Y-80215892D01*
X170175831Y-80216615D01*
X170311835Y-80424784D01*
X170480256Y-80607738D01*
X170660176Y-80747776D01*
X170676491Y-80760474D01*
X170895190Y-80878828D01*
X171130386Y-80959571D01*
X171130390Y-80959571D01*
X171130391Y-80959572D01*
X171191378Y-80969748D01*
X171375665Y-81000500D01*
X171375668Y-81000500D01*
X171624332Y-81000500D01*
X171624335Y-81000500D01*
X171869614Y-80959571D01*
X172104810Y-80878828D01*
X172323509Y-80760474D01*
X172519744Y-80607738D01*
X172688164Y-80424785D01*
X172824173Y-80216607D01*
X172924063Y-79988881D01*
X172985108Y-79747821D01*
X173005643Y-79500000D01*
X172985108Y-79252179D01*
X172924063Y-79011119D01*
X172824173Y-78783393D01*
X172824169Y-78783388D01*
X172824168Y-78783384D01*
X172688164Y-78575215D01*
X172519743Y-78392261D01*
X172323511Y-78239527D01*
X172104812Y-78121173D01*
X172104811Y-78121172D01*
X172104810Y-78121172D01*
X171869614Y-78040429D01*
X171869613Y-78040428D01*
X171869608Y-78040427D01*
X171706221Y-78013164D01*
X171624335Y-77999500D01*
X171375665Y-77999500D01*
X171301978Y-78011795D01*
X171130391Y-78040427D01*
X170895187Y-78121173D01*
X170676488Y-78239527D01*
X170480256Y-78392261D01*
X170311835Y-78575215D01*
X170175831Y-78783384D01*
X170075936Y-79011121D01*
X170019814Y-79232741D01*
X170014892Y-79252179D01*
X169994357Y-79500000D01*
X168505140Y-79500000D01*
X168484611Y-79252257D01*
X168484611Y-79252252D01*
X168423589Y-79011287D01*
X168423588Y-79011284D01*
X168354142Y-78852963D01*
X167707107Y-79500000D01*
X167707107Y-79500001D01*
X167551285Y-79500001D01*
X167553877Y-79462114D01*
X167523116Y-79314085D01*
X167453558Y-79179844D01*
X167350362Y-79069348D01*
X167221181Y-78990791D01*
X167075596Y-78950000D01*
X166962378Y-78950000D01*
X166850217Y-78965416D01*
X166711542Y-79025651D01*
X166594261Y-79121066D01*
X166507072Y-79244585D01*
X166456441Y-79387047D01*
X166446123Y-79537886D01*
X166255006Y-79537886D01*
X166292893Y-79499999D01*
X165645856Y-78852962D01*
X165645855Y-78852962D01*
X165576412Y-79011280D01*
X165576410Y-79011285D01*
X165515388Y-79252252D01*
X165515386Y-79252266D01*
X165515114Y-79255556D01*
X165514100Y-79259975D01*
X165511991Y-79272616D01*
X165511229Y-79272488D01*
X165483359Y-79393990D01*
X165413888Y-79517871D01*
X165312331Y-79617162D01*
X165186914Y-79683818D01*
X165047797Y-79712441D01*
X164906252Y-79700710D01*
X164773746Y-79649577D01*
X164661013Y-79563183D01*
X164581520Y-79456508D01*
X164577908Y-79450001D01*
X164575409Y-79445498D01*
X164456741Y-79307267D01*
X164442867Y-79291106D01*
X164281960Y-79166553D01*
X164281955Y-79166550D01*
X164176364Y-79114756D01*
X164099271Y-79076940D01*
X164099268Y-79076939D01*
X164099270Y-79076939D01*
X163902286Y-79025937D01*
X163868414Y-79024219D01*
X163699064Y-79015631D01*
X163699062Y-79015631D01*
X163699059Y-79015631D01*
X163580061Y-79033861D01*
X163438037Y-79035169D01*
X163301397Y-78996411D01*
X163181212Y-78920728D01*
X163087217Y-78814249D01*
X163027028Y-78685603D01*
X163005521Y-78545211D01*
X163005500Y-78540615D01*
X163005500Y-78145036D01*
X166352142Y-78145036D01*
X167000000Y-78792893D01*
X167000001Y-78792893D01*
X167647856Y-78145036D01*
X167647856Y-78145035D01*
X167604615Y-78121635D01*
X167604603Y-78121630D01*
X167369496Y-78040918D01*
X167369481Y-78040914D01*
X167124293Y-78000000D01*
X166875707Y-78000000D01*
X166630518Y-78040914D01*
X166630507Y-78040917D01*
X166395390Y-78121632D01*
X166352143Y-78145036D01*
X166352142Y-78145036D01*
X163005500Y-78145036D01*
X163005500Y-77124004D01*
X163005500Y-77124000D01*
X162993947Y-77016544D01*
X162982741Y-76965033D01*
X162948613Y-76862496D01*
X162941549Y-76851505D01*
X162870830Y-76741465D01*
X162870825Y-76741457D01*
X162825070Y-76688653D01*
X162783752Y-76652850D01*
X162716337Y-76594433D01*
X162626598Y-76553450D01*
X162585459Y-76534662D01*
X162585456Y-76534661D01*
X162585456Y-76534660D01*
X162518424Y-76514978D01*
X162518414Y-76514975D01*
X162518403Y-76514973D01*
X162376001Y-76494500D01*
X162376000Y-76494500D01*
X154374000Y-76494500D01*
X154306840Y-76501720D01*
X154266541Y-76506053D01*
X154215042Y-76517256D01*
X154215032Y-76517259D01*
X154112494Y-76551387D01*
X153991465Y-76629169D01*
X153991453Y-76629178D01*
X153938656Y-76674926D01*
X153844433Y-76783662D01*
X153784662Y-76914541D01*
X153784661Y-76914543D01*
X153784660Y-76914543D01*
X153764978Y-76981576D01*
X153764973Y-76981596D01*
X153744500Y-77123998D01*
X153744500Y-77640695D01*
X153724287Y-77781280D01*
X153665286Y-77910475D01*
X153572276Y-78017814D01*
X153493073Y-78073948D01*
X152853336Y-78439512D01*
X152831026Y-78450818D01*
X152797269Y-78465848D01*
X152797267Y-78465850D01*
X152750890Y-78499544D01*
X152722325Y-78520298D01*
X152687713Y-78545211D01*
X152647056Y-78574475D01*
X152645667Y-78575726D01*
X152644192Y-78577042D01*
X152582124Y-78645974D01*
X152519782Y-78714595D01*
X152518609Y-78716211D01*
X152517510Y-78717707D01*
X152488234Y-78768416D01*
X152471152Y-78798003D01*
X152461676Y-78814249D01*
X152424420Y-78878119D01*
X152423662Y-78879823D01*
X152422852Y-78881619D01*
X152394189Y-78969832D01*
X152383220Y-79003084D01*
X152319984Y-79130260D01*
X152223479Y-79234469D01*
X152101525Y-79307267D01*
X151964000Y-79342759D01*
X151822048Y-79338068D01*
X151687167Y-79293574D01*
X151570285Y-79212882D01*
X151480871Y-79102529D01*
X151426169Y-78971456D01*
X151425604Y-78969247D01*
X151423586Y-78961279D01*
X151354142Y-78802963D01*
X150707107Y-79450000D01*
X150707107Y-79450001D01*
X151354142Y-80097036D01*
X151393529Y-80007244D01*
X151468512Y-79886620D01*
X151574441Y-79792007D01*
X151702734Y-79731070D01*
X151842999Y-79708746D01*
X151983872Y-79726844D01*
X152113939Y-79783897D01*
X152222664Y-79875283D01*
X152301239Y-79993598D01*
X152343298Y-80129258D01*
X152349500Y-80207690D01*
X152349500Y-81420309D01*
X152329287Y-81560894D01*
X152270286Y-81690089D01*
X152203346Y-81773155D01*
X151773155Y-82203346D01*
X151659454Y-82288462D01*
X151526379Y-82338096D01*
X151420309Y-82349500D01*
X145610139Y-82349500D01*
X145573523Y-82346618D01*
X145573496Y-82347150D01*
X145547390Y-82345781D01*
X145547388Y-82345781D01*
X145547385Y-82345781D01*
X145547383Y-82345781D01*
X145510250Y-82347727D01*
X145482941Y-82349158D01*
X145469889Y-82349500D01*
X145452808Y-82349500D01*
X145435807Y-82351286D01*
X145422813Y-82352308D01*
X145358354Y-82355687D01*
X145334941Y-82359395D01*
X145311741Y-82364326D01*
X145250381Y-82384263D01*
X145237865Y-82387970D01*
X145175512Y-82404679D01*
X145153368Y-82413180D01*
X145131715Y-82422820D01*
X145075819Y-82455091D01*
X145064344Y-82461322D01*
X145006854Y-82490614D01*
X144986968Y-82503528D01*
X144967784Y-82517466D01*
X144919815Y-82560656D01*
X144909902Y-82569123D01*
X144896626Y-82579875D01*
X144896613Y-82579886D01*
X144884526Y-82591972D01*
X144875071Y-82600944D01*
X144827115Y-82644126D01*
X144809616Y-82663561D01*
X144809221Y-82663205D01*
X144785371Y-82691128D01*
X142610012Y-84866487D01*
X142496311Y-84951603D01*
X142363236Y-85001237D01*
X142221568Y-85011370D01*
X142082783Y-84981179D01*
X141958126Y-84913111D01*
X141857696Y-84812681D01*
X141848424Y-84799876D01*
X141771156Y-84689526D01*
X141728494Y-84628597D01*
X141682743Y-84582846D01*
X141597627Y-84469145D01*
X141547993Y-84336070D01*
X141537860Y-84194402D01*
X141568051Y-84055617D01*
X141636119Y-83930960D01*
X141682743Y-83877154D01*
X141728488Y-83831409D01*
X141728492Y-83831404D01*
X141728495Y-83831401D01*
X141864035Y-83637830D01*
X141963903Y-83423663D01*
X142025063Y-83195408D01*
X142045659Y-82960000D01*
X142025063Y-82724592D01*
X141963903Y-82496337D01*
X141963901Y-82496332D01*
X141864036Y-82282172D01*
X141735496Y-82098598D01*
X141728495Y-82088599D01*
X141728494Y-82088598D01*
X141728491Y-82088594D01*
X141682389Y-82042492D01*
X141597273Y-81928791D01*
X141547639Y-81795716D01*
X141537506Y-81654048D01*
X141567697Y-81515263D01*
X141635765Y-81390606D01*
X141682389Y-81336800D01*
X141728105Y-81291083D01*
X141728109Y-81291078D01*
X141863601Y-81097577D01*
X141863601Y-81097576D01*
X141946407Y-80920000D01*
X140725763Y-80920000D01*
X140832315Y-80904680D01*
X140963100Y-80844952D01*
X141071761Y-80750798D01*
X141149493Y-80629844D01*
X141190000Y-80491889D01*
X141190000Y-80348111D01*
X141149493Y-80210156D01*
X141071761Y-80089202D01*
X140963100Y-79995048D01*
X140832315Y-79935320D01*
X140725763Y-79920000D01*
X141946406Y-79920000D01*
X141863601Y-79742424D01*
X141863598Y-79742420D01*
X141728111Y-79548923D01*
X141728106Y-79548917D01*
X141682389Y-79503200D01*
X141642564Y-79450000D01*
X143994357Y-79450000D01*
X144014892Y-79697821D01*
X144020241Y-79718942D01*
X144075894Y-79938714D01*
X144075937Y-79938881D01*
X144168200Y-80149220D01*
X144175831Y-80166615D01*
X144311835Y-80374784D01*
X144480256Y-80557738D01*
X144618591Y-80665409D01*
X144676491Y-80710474D01*
X144895190Y-80828828D01*
X145130386Y-80909571D01*
X145130390Y-80909571D01*
X145130391Y-80909572D01*
X145185190Y-80918716D01*
X145375665Y-80950500D01*
X145375668Y-80950500D01*
X145624332Y-80950500D01*
X145624335Y-80950500D01*
X145869614Y-80909571D01*
X146104810Y-80828828D01*
X146148909Y-80804963D01*
X149352142Y-80804963D01*
X149395392Y-80828368D01*
X149395394Y-80828369D01*
X149630503Y-80909081D01*
X149630518Y-80909085D01*
X149875707Y-80950000D01*
X150124293Y-80950000D01*
X150369481Y-80909085D01*
X150369492Y-80909082D01*
X150604604Y-80828368D01*
X150604615Y-80828363D01*
X150647855Y-80804963D01*
X150647856Y-80804962D01*
X150000001Y-80157107D01*
X149352142Y-80804963D01*
X146148909Y-80804963D01*
X146323509Y-80710474D01*
X146519744Y-80557738D01*
X146688164Y-80374785D01*
X146805891Y-80194590D01*
X146824168Y-80166615D01*
X146824168Y-80166613D01*
X146824173Y-80166607D01*
X146924063Y-79938881D01*
X146985108Y-79697821D01*
X147005643Y-79450000D01*
X148494859Y-79450000D01*
X148515388Y-79697742D01*
X148515388Y-79697747D01*
X148576410Y-79938714D01*
X148645855Y-80097035D01*
X149255005Y-79487886D01*
X149446123Y-79487886D01*
X149476884Y-79635915D01*
X149546442Y-79770156D01*
X149649638Y-79880652D01*
X149778819Y-79959209D01*
X149924404Y-80000000D01*
X150037622Y-80000000D01*
X150149783Y-79984584D01*
X150288458Y-79924349D01*
X150405739Y-79828934D01*
X150492928Y-79705415D01*
X150543559Y-79562953D01*
X150553877Y-79412114D01*
X150523116Y-79264085D01*
X150453558Y-79129844D01*
X150350362Y-79019348D01*
X150221181Y-78940791D01*
X150075596Y-78900000D01*
X149962378Y-78900000D01*
X149850217Y-78915416D01*
X149711542Y-78975651D01*
X149594261Y-79071066D01*
X149507072Y-79194585D01*
X149456441Y-79337047D01*
X149446123Y-79487886D01*
X149255005Y-79487886D01*
X149292892Y-79449999D01*
X148645856Y-78802962D01*
X148645855Y-78802962D01*
X148576412Y-78961280D01*
X148576410Y-78961285D01*
X148515388Y-79202252D01*
X148515388Y-79202257D01*
X148494859Y-79450000D01*
X147005643Y-79450000D01*
X146985108Y-79202179D01*
X146924063Y-78961119D01*
X146824173Y-78733393D01*
X146824169Y-78733388D01*
X146824168Y-78733384D01*
X146688164Y-78525215D01*
X146530239Y-78353663D01*
X146519744Y-78342262D01*
X146519743Y-78342261D01*
X146323511Y-78189527D01*
X146148907Y-78095036D01*
X149352142Y-78095036D01*
X150000000Y-78742893D01*
X150000001Y-78742893D01*
X150647856Y-78095036D01*
X150647856Y-78095035D01*
X150604615Y-78071635D01*
X150604603Y-78071630D01*
X150369496Y-77990918D01*
X150369481Y-77990914D01*
X150124293Y-77950000D01*
X149875707Y-77950000D01*
X149630518Y-77990914D01*
X149630507Y-77990917D01*
X149395390Y-78071632D01*
X149352143Y-78095036D01*
X149352142Y-78095036D01*
X146148907Y-78095036D01*
X146104812Y-78071173D01*
X146104811Y-78071172D01*
X146104810Y-78071172D01*
X145869614Y-77990429D01*
X145869613Y-77990428D01*
X145869608Y-77990427D01*
X145706221Y-77963164D01*
X145624335Y-77949500D01*
X145375665Y-77949500D01*
X145301978Y-77961795D01*
X145130391Y-77990427D01*
X144895187Y-78071173D01*
X144676488Y-78189527D01*
X144480256Y-78342261D01*
X144311835Y-78525215D01*
X144175831Y-78733384D01*
X144075936Y-78961121D01*
X144023914Y-79166552D01*
X144014892Y-79202179D01*
X143994357Y-79450000D01*
X141642564Y-79450000D01*
X141597273Y-79389499D01*
X141547639Y-79256424D01*
X141537506Y-79114756D01*
X141567697Y-78975971D01*
X141635765Y-78851314D01*
X141682389Y-78797508D01*
X141728488Y-78751409D01*
X141728492Y-78751404D01*
X141728495Y-78751401D01*
X141864035Y-78557830D01*
X141963903Y-78343663D01*
X142025063Y-78115408D01*
X142045659Y-77880000D01*
X142025063Y-77644592D01*
X141963903Y-77416337D01*
X141868699Y-77212172D01*
X141864036Y-77202172D01*
X141735496Y-77018598D01*
X141728495Y-77008599D01*
X141728494Y-77008598D01*
X141728491Y-77008594D01*
X141682743Y-76962846D01*
X141597627Y-76849145D01*
X141547993Y-76716070D01*
X141537860Y-76574402D01*
X141568051Y-76435617D01*
X141636119Y-76310960D01*
X141682743Y-76257154D01*
X141728488Y-76211409D01*
X141728492Y-76211404D01*
X141728495Y-76211401D01*
X141864035Y-76017830D01*
X141963903Y-75803663D01*
X142025063Y-75575408D01*
X142045659Y-75340000D01*
X142025063Y-75104592D01*
X141963903Y-74876337D01*
X141963901Y-74876332D01*
X141864036Y-74662172D01*
X141735496Y-74478598D01*
X141728495Y-74468599D01*
X141728494Y-74468598D01*
X141728491Y-74468594D01*
X141682743Y-74422846D01*
X141597627Y-74309145D01*
X141547993Y-74176070D01*
X141537860Y-74034402D01*
X141568051Y-73895617D01*
X141636119Y-73770960D01*
X141682743Y-73717154D01*
X141728488Y-73671409D01*
X141728492Y-73671404D01*
X141728495Y-73671401D01*
X141864035Y-73477830D01*
X141963903Y-73263663D01*
X142025063Y-73035408D01*
X142045659Y-72800000D01*
X142025063Y-72564592D01*
X141963903Y-72336337D01*
X141868699Y-72132172D01*
X141864036Y-72122172D01*
X141735496Y-71938598D01*
X141728495Y-71928599D01*
X141728494Y-71928598D01*
X141728491Y-71928594D01*
X141682389Y-71882492D01*
X141658069Y-71850004D01*
X143144435Y-71850004D01*
X143164630Y-72029246D01*
X143164631Y-72029252D01*
X143164631Y-72029254D01*
X143164632Y-72029255D01*
X143224211Y-72199522D01*
X143224212Y-72199524D01*
X143224213Y-72199526D01*
X143279882Y-72288122D01*
X143316460Y-72346336D01*
X143320185Y-72352263D01*
X143320187Y-72352266D01*
X143447733Y-72479812D01*
X143447736Y-72479814D01*
X143447738Y-72479816D01*
X143582655Y-72564590D01*
X143600478Y-72575789D01*
X143607299Y-72579073D01*
X143614180Y-72581869D01*
X143632164Y-72590232D01*
X143632168Y-72590235D01*
X143842943Y-72688256D01*
X143987632Y-72755544D01*
X144080982Y-72812123D01*
X144097159Y-72824536D01*
X144148186Y-72845672D01*
X144243237Y-72885044D01*
X144400000Y-72905682D01*
X144400001Y-72905682D01*
X144423131Y-72902637D01*
X144455732Y-72900500D01*
X148871309Y-72900500D01*
X149011894Y-72920713D01*
X149141089Y-72979714D01*
X149248428Y-73072724D01*
X149325215Y-73192208D01*
X149365230Y-73328485D01*
X149365230Y-73470515D01*
X149325215Y-73606792D01*
X149248428Y-73726276D01*
X149224155Y-73752346D01*
X148273155Y-74703346D01*
X148159454Y-74788462D01*
X148026379Y-74838096D01*
X147920309Y-74849500D01*
X144405352Y-74849500D01*
X144371731Y-74856646D01*
X144345931Y-74860732D01*
X144311744Y-74864325D01*
X144311740Y-74864326D01*
X144279047Y-74874948D01*
X144253817Y-74881709D01*
X144220202Y-74888854D01*
X144220188Y-74888859D01*
X144188787Y-74902839D01*
X144164401Y-74912200D01*
X144131716Y-74922820D01*
X144131706Y-74922824D01*
X144101944Y-74940008D01*
X144078671Y-74951866D01*
X144047275Y-74965845D01*
X144047268Y-74965849D01*
X144019460Y-74986052D01*
X143997564Y-75000271D01*
X143967791Y-75017461D01*
X143967779Y-75017470D01*
X143942235Y-75040470D01*
X143921934Y-75056909D01*
X143894139Y-75077104D01*
X143894133Y-75077108D01*
X143894129Y-75077112D01*
X143871121Y-75102663D01*
X143852663Y-75121121D01*
X143827112Y-75144129D01*
X143827108Y-75144133D01*
X143827104Y-75144139D01*
X143806909Y-75171934D01*
X143790470Y-75192235D01*
X143767470Y-75217779D01*
X143767461Y-75217791D01*
X143750271Y-75247564D01*
X143736052Y-75269460D01*
X143715849Y-75297268D01*
X143715845Y-75297275D01*
X143701866Y-75328671D01*
X143690008Y-75351944D01*
X143672824Y-75381706D01*
X143672820Y-75381716D01*
X143662200Y-75414401D01*
X143652839Y-75438787D01*
X143638859Y-75470188D01*
X143638854Y-75470202D01*
X143631709Y-75503817D01*
X143624948Y-75529047D01*
X143614326Y-75561740D01*
X143614325Y-75561744D01*
X143610732Y-75595931D01*
X143606646Y-75621731D01*
X143599500Y-75655352D01*
X143599500Y-75689719D01*
X143598133Y-75715815D01*
X143594540Y-75750001D01*
X143594540Y-75750002D01*
X143598132Y-75784185D01*
X143599500Y-75810280D01*
X143599500Y-75844650D01*
X143606644Y-75878263D01*
X143610730Y-75904060D01*
X143614325Y-75938254D01*
X143624946Y-75970940D01*
X143631709Y-75996181D01*
X143638853Y-76029795D01*
X143638857Y-76029807D01*
X143652836Y-76061204D01*
X143662199Y-76085596D01*
X143672819Y-76118279D01*
X143672820Y-76118283D01*
X143672821Y-76118284D01*
X143690011Y-76148059D01*
X143701870Y-76171333D01*
X143715846Y-76202725D01*
X143715851Y-76202734D01*
X143736050Y-76230537D01*
X143750276Y-76252443D01*
X143767461Y-76282208D01*
X143767466Y-76282215D01*
X143767467Y-76282216D01*
X143790470Y-76307763D01*
X143806909Y-76328064D01*
X143827112Y-76355872D01*
X143852646Y-76378862D01*
X143871127Y-76397342D01*
X143891635Y-76420119D01*
X143894129Y-76422888D01*
X143916785Y-76439348D01*
X143921926Y-76443083D01*
X143942238Y-76459532D01*
X143967779Y-76482530D01*
X143967783Y-76482532D01*
X143967784Y-76482533D01*
X143988511Y-76494500D01*
X143997554Y-76499721D01*
X144019461Y-76513947D01*
X144047270Y-76534151D01*
X144078682Y-76548136D01*
X144101938Y-76559986D01*
X144131716Y-76577179D01*
X144164401Y-76587798D01*
X144188801Y-76597165D01*
X144220197Y-76611144D01*
X144253826Y-76618291D01*
X144279041Y-76625047D01*
X144311744Y-76635674D01*
X144345925Y-76639266D01*
X144371730Y-76643353D01*
X144405354Y-76650500D01*
X144452808Y-76650500D01*
X148389861Y-76650500D01*
X148426476Y-76653381D01*
X148426504Y-76652850D01*
X148452600Y-76654217D01*
X148452612Y-76654219D01*
X148517058Y-76650841D01*
X148530111Y-76650500D01*
X148547191Y-76650500D01*
X148547192Y-76650500D01*
X148564189Y-76648713D01*
X148577155Y-76647692D01*
X148641646Y-76644313D01*
X148641650Y-76644311D01*
X148665056Y-76640604D01*
X148688252Y-76635675D01*
X148688254Y-76635674D01*
X148688256Y-76635674D01*
X148749640Y-76615728D01*
X148762120Y-76612031D01*
X148824488Y-76595320D01*
X148824491Y-76595318D01*
X148846636Y-76586817D01*
X148868279Y-76577181D01*
X148868280Y-76577180D01*
X148868284Y-76577179D01*
X148924200Y-76544894D01*
X148935621Y-76538693D01*
X148993149Y-76509383D01*
X148993153Y-76509379D01*
X149013031Y-76496470D01*
X149032211Y-76482535D01*
X149032216Y-76482533D01*
X149080203Y-76439324D01*
X149090072Y-76430894D01*
X149103380Y-76420119D01*
X149115453Y-76408044D01*
X149124924Y-76399056D01*
X149172888Y-76355871D01*
X149172890Y-76355866D01*
X149190390Y-76336433D01*
X149190786Y-76336789D01*
X149214634Y-76308863D01*
X152308863Y-73214634D01*
X152336789Y-73190786D01*
X152336433Y-73190390D01*
X152355868Y-73172890D01*
X152355867Y-73172890D01*
X152355871Y-73172888D01*
X152399056Y-73124924D01*
X152408050Y-73115448D01*
X152420111Y-73103388D01*
X152420111Y-73103387D01*
X152420119Y-73103380D01*
X152430894Y-73090072D01*
X152439324Y-73080203D01*
X152482533Y-73032216D01*
X152482535Y-73032211D01*
X152496470Y-73013031D01*
X152509379Y-72993153D01*
X152509383Y-72993149D01*
X152538693Y-72935621D01*
X152544894Y-72924200D01*
X152577179Y-72868284D01*
X152577181Y-72868279D01*
X152586817Y-72846636D01*
X152595316Y-72824494D01*
X152595320Y-72824488D01*
X152612027Y-72762134D01*
X152615726Y-72749646D01*
X152625707Y-72718929D01*
X152633390Y-72695287D01*
X152696061Y-72567831D01*
X152792101Y-72463194D01*
X152913730Y-72389854D01*
X153051095Y-72353751D01*
X153107963Y-72350500D01*
X154550963Y-72350500D01*
X154691548Y-72370713D01*
X154820743Y-72429714D01*
X154854738Y-72453619D01*
X154888879Y-72479817D01*
X154947159Y-72524536D01*
X155093237Y-72585044D01*
X155250000Y-72605682D01*
X155250001Y-72605682D01*
X155273131Y-72602637D01*
X155305732Y-72600500D01*
X160494268Y-72600500D01*
X160526869Y-72602637D01*
X160549999Y-72605682D01*
X160550000Y-72605682D01*
X160706762Y-72585044D01*
X160852841Y-72524536D01*
X160884817Y-72500000D01*
X160911122Y-72479816D01*
X160959314Y-72442836D01*
X160978282Y-72428282D01*
X160992488Y-72409766D01*
X161014015Y-72385218D01*
X161615052Y-71784181D01*
X161728750Y-71699068D01*
X161757453Y-71684576D01*
X162067830Y-71540236D01*
X162067838Y-71540231D01*
X162085823Y-71531868D01*
X162092685Y-71529080D01*
X162099514Y-71525791D01*
X162099522Y-71525789D01*
X162252262Y-71429816D01*
X162379816Y-71302262D01*
X162475789Y-71149522D01*
X162535368Y-70979255D01*
X162547391Y-70872548D01*
X162555565Y-70800004D01*
X162555565Y-70799995D01*
X162535369Y-70620753D01*
X162535368Y-70620747D01*
X162535368Y-70620745D01*
X162475789Y-70450478D01*
X162379816Y-70297738D01*
X162379814Y-70297736D01*
X162379813Y-70297734D01*
X162337669Y-70255591D01*
X162252552Y-70141891D01*
X162202917Y-70008816D01*
X162192783Y-69867148D01*
X162194650Y-69846870D01*
X162194856Y-69845048D01*
X162205565Y-69750000D01*
X162205565Y-69749995D01*
X162185369Y-69570753D01*
X162185368Y-69570747D01*
X162185368Y-69570745D01*
X162125789Y-69400478D01*
X162029816Y-69247738D01*
X162029814Y-69247736D01*
X162029812Y-69247733D01*
X162000264Y-69218185D01*
X161915148Y-69104484D01*
X161865514Y-68971409D01*
X161855381Y-68829741D01*
X161865016Y-68761584D01*
X161868291Y-68746176D01*
X161875057Y-68720928D01*
X161885674Y-68688256D01*
X161889267Y-68654063D01*
X161893356Y-68628253D01*
X161893955Y-68625439D01*
X161900500Y-68594646D01*
X161900500Y-68560280D01*
X161901868Y-68534185D01*
X161905460Y-68500002D01*
X161905460Y-68500001D01*
X161905460Y-68500000D01*
X161901866Y-68465812D01*
X161900500Y-68439719D01*
X161900500Y-68405357D01*
X161900500Y-68405354D01*
X161893353Y-68371730D01*
X161889266Y-68345923D01*
X161885674Y-68311744D01*
X161875047Y-68279041D01*
X161868291Y-68253826D01*
X161861144Y-68220197D01*
X161847165Y-68188801D01*
X161837797Y-68164397D01*
X161827179Y-68131717D01*
X161827179Y-68131716D01*
X161809986Y-68101938D01*
X161798136Y-68078682D01*
X161784151Y-68047270D01*
X161763947Y-68019461D01*
X161749721Y-67997554D01*
X161732530Y-67967779D01*
X161709532Y-67942238D01*
X161693083Y-67921926D01*
X161672888Y-67894129D01*
X161647342Y-67871127D01*
X161628862Y-67852646D01*
X161605872Y-67827112D01*
X161578064Y-67806909D01*
X161557763Y-67790470D01*
X161532216Y-67767467D01*
X161532215Y-67767466D01*
X161532208Y-67767461D01*
X161502443Y-67750276D01*
X161480537Y-67736050D01*
X161452734Y-67715851D01*
X161452725Y-67715846D01*
X161421333Y-67701870D01*
X161398059Y-67690011D01*
X161376189Y-67677384D01*
X161368283Y-67672820D01*
X161368279Y-67672819D01*
X161335596Y-67662199D01*
X161311204Y-67652836D01*
X161279807Y-67638857D01*
X161279795Y-67638853D01*
X161246181Y-67631709D01*
X161220945Y-67624947D01*
X161188256Y-67614326D01*
X161188253Y-67614325D01*
X161188255Y-67614325D01*
X161154060Y-67610730D01*
X161128263Y-67606644D01*
X161094650Y-67599500D01*
X161094646Y-67599500D01*
X161047192Y-67599500D01*
X158844646Y-67599500D01*
X158688271Y-67599500D01*
X158547686Y-67579287D01*
X158418491Y-67520286D01*
X158335425Y-67453346D01*
X158252266Y-67370187D01*
X158252263Y-67370185D01*
X158252262Y-67370184D01*
X158122454Y-67288620D01*
X158099526Y-67274213D01*
X158099524Y-67274212D01*
X158099522Y-67274211D01*
X157929255Y-67214632D01*
X157929254Y-67214631D01*
X157929252Y-67214631D01*
X157929246Y-67214630D01*
X157750005Y-67194435D01*
X157749995Y-67194435D01*
X157570753Y-67214630D01*
X157570747Y-67214631D01*
X157519224Y-67232660D01*
X157400478Y-67274211D01*
X157400476Y-67274211D01*
X157400473Y-67274213D01*
X157247736Y-67370185D01*
X157247733Y-67370187D01*
X157120187Y-67497733D01*
X157120185Y-67497736D01*
X157024213Y-67650473D01*
X157024211Y-67650479D01*
X156964631Y-67820747D01*
X156964630Y-67820753D01*
X156944435Y-67999995D01*
X156944435Y-68000004D01*
X156964630Y-68179246D01*
X156964632Y-68179256D01*
X156974824Y-68208383D01*
X157002176Y-68347755D01*
X156989154Y-68489187D01*
X156936813Y-68621221D01*
X156849395Y-68733161D01*
X156733980Y-68815938D01*
X156599919Y-68862846D01*
X156458074Y-68870084D01*
X156400078Y-68861282D01*
X156344652Y-68849501D01*
X156344649Y-68849500D01*
X156344646Y-68849500D01*
X156344642Y-68849500D01*
X156321074Y-68847023D01*
X156297390Y-68845781D01*
X156297388Y-68845781D01*
X156297384Y-68845781D01*
X156297382Y-68845781D01*
X156257805Y-68847855D01*
X156232942Y-68849158D01*
X156219889Y-68849500D01*
X156155354Y-68849500D01*
X156131774Y-68851977D01*
X156108352Y-68855687D01*
X156046008Y-68872391D01*
X156033313Y-68875439D01*
X155970202Y-68888854D01*
X155947646Y-68896182D01*
X155925513Y-68904679D01*
X155868014Y-68933976D01*
X155856229Y-68939597D01*
X155797278Y-68965844D01*
X155774627Y-68978922D01*
X155772718Y-68975615D01*
X155687679Y-69020484D01*
X155548477Y-69048687D01*
X155520000Y-69049500D01*
X145979691Y-69049500D01*
X145839106Y-69029287D01*
X145709911Y-68970286D01*
X145626845Y-68903346D01*
X145617534Y-68894035D01*
X145608027Y-68884528D01*
X145599054Y-68875072D01*
X145555871Y-68827112D01*
X145503661Y-68789179D01*
X145493306Y-68781233D01*
X145443153Y-68740619D01*
X145423276Y-68727711D01*
X145402730Y-68715849D01*
X145376099Y-68703992D01*
X145343758Y-68689592D01*
X145332002Y-68683984D01*
X145274488Y-68654680D01*
X145274487Y-68654679D01*
X145274484Y-68654678D01*
X145252363Y-68646186D01*
X145229797Y-68638854D01*
X145166687Y-68625439D01*
X145153989Y-68622391D01*
X145091642Y-68605685D01*
X145068250Y-68601980D01*
X145044646Y-68599500D01*
X145044645Y-68599500D01*
X144980111Y-68599500D01*
X144967058Y-68599158D01*
X144936192Y-68597540D01*
X144902616Y-68595781D01*
X144902613Y-68595781D01*
X144902612Y-68595781D01*
X144902610Y-68595781D01*
X144878909Y-68597023D01*
X144855352Y-68599499D01*
X144792218Y-68612919D01*
X144779380Y-68615298D01*
X144715658Y-68625391D01*
X144715651Y-68625392D01*
X144715650Y-68625393D01*
X144715648Y-68625393D01*
X144692730Y-68631534D01*
X144670195Y-68638856D01*
X144611232Y-68665109D01*
X144599174Y-68670103D01*
X144570372Y-68681159D01*
X144538929Y-68693229D01*
X144517805Y-68703992D01*
X144497268Y-68715849D01*
X144445056Y-68753783D01*
X144434296Y-68761178D01*
X144380176Y-68796324D01*
X144361751Y-68811245D01*
X144344126Y-68827115D01*
X144300943Y-68875072D01*
X144291959Y-68884539D01*
X144246332Y-68930167D01*
X144231387Y-68948623D01*
X144217467Y-68967782D01*
X144185194Y-69023681D01*
X144178371Y-69034814D01*
X144143229Y-69088928D01*
X144132468Y-69110048D01*
X144122817Y-69131725D01*
X144102870Y-69193114D01*
X144098513Y-69205417D01*
X144075390Y-69265656D01*
X144071979Y-69278387D01*
X144016063Y-69408947D01*
X143925628Y-69518465D01*
X143808002Y-69598069D01*
X143754799Y-69620211D01*
X143600482Y-69674209D01*
X143600473Y-69674213D01*
X143447736Y-69770185D01*
X143447733Y-69770187D01*
X143320187Y-69897733D01*
X143320185Y-69897736D01*
X143224213Y-70050473D01*
X143224211Y-70050476D01*
X143224211Y-70050478D01*
X143215810Y-70074488D01*
X143164631Y-70220747D01*
X143164630Y-70220753D01*
X143144435Y-70399995D01*
X143144435Y-70400004D01*
X143164630Y-70579246D01*
X143164631Y-70579252D01*
X143164631Y-70579254D01*
X143164632Y-70579255D01*
X143224211Y-70749522D01*
X143224211Y-70749523D01*
X143224212Y-70749524D01*
X143293325Y-70859516D01*
X143351005Y-70989307D01*
X143369783Y-71130090D01*
X143348137Y-71270461D01*
X143293325Y-71390484D01*
X143224212Y-71500475D01*
X143224211Y-71500477D01*
X143224211Y-71500478D01*
X143210299Y-71540236D01*
X143164631Y-71670747D01*
X143164630Y-71670753D01*
X143144435Y-71849995D01*
X143144435Y-71850004D01*
X141658069Y-71850004D01*
X141597273Y-71768791D01*
X141547639Y-71635716D01*
X141537506Y-71494048D01*
X141567697Y-71355263D01*
X141635765Y-71230606D01*
X141682389Y-71176800D01*
X141728105Y-71131083D01*
X141728109Y-71131078D01*
X141863601Y-70937577D01*
X141863601Y-70937576D01*
X141946407Y-70760000D01*
X140725763Y-70760000D01*
X140832315Y-70744680D01*
X140963100Y-70684952D01*
X141071761Y-70590798D01*
X141149493Y-70469844D01*
X141190000Y-70331889D01*
X141190000Y-70188111D01*
X141149493Y-70050156D01*
X141071761Y-69929202D01*
X140963100Y-69835048D01*
X140832315Y-69775320D01*
X140725763Y-69760000D01*
X141946406Y-69760000D01*
X141863601Y-69582424D01*
X141863598Y-69582420D01*
X141728111Y-69388923D01*
X141728106Y-69388917D01*
X141682389Y-69343200D01*
X141597273Y-69229499D01*
X141547639Y-69096424D01*
X141537506Y-68954756D01*
X141567697Y-68815971D01*
X141635765Y-68691314D01*
X141682389Y-68637508D01*
X141728488Y-68591409D01*
X141728492Y-68591404D01*
X141728495Y-68591401D01*
X141864035Y-68397830D01*
X141963903Y-68183663D01*
X142025063Y-67955408D01*
X142045659Y-67720000D01*
X142025063Y-67484592D01*
X141963903Y-67256337D01*
X141959064Y-67245959D01*
X141864036Y-67042172D01*
X141769166Y-66906684D01*
X141728495Y-66848599D01*
X141728494Y-66848598D01*
X141728491Y-66848594D01*
X141682743Y-66802846D01*
X141597627Y-66689145D01*
X141547993Y-66556070D01*
X141537860Y-66414402D01*
X141568051Y-66275617D01*
X141636119Y-66150960D01*
X141682743Y-66097154D01*
X141728488Y-66051409D01*
X141728492Y-66051404D01*
X141728495Y-66051401D01*
X141864035Y-65857830D01*
X141963903Y-65643663D01*
X142025063Y-65415408D01*
X142045659Y-65180000D01*
X142025063Y-64944592D01*
X141963903Y-64716337D01*
X141868699Y-64512172D01*
X141864036Y-64502172D01*
X141796265Y-64405385D01*
X141728495Y-64308599D01*
X141728494Y-64308598D01*
X141728491Y-64308594D01*
X141682743Y-64262846D01*
X141597627Y-64149145D01*
X141547993Y-64016070D01*
X141537860Y-63874402D01*
X141568051Y-63735617D01*
X141636119Y-63610960D01*
X141682743Y-63557154D01*
X141728488Y-63511409D01*
X141728492Y-63511404D01*
X141728495Y-63511401D01*
X141864035Y-63317830D01*
X141963903Y-63103663D01*
X142025063Y-62875408D01*
X142045659Y-62640000D01*
X142025063Y-62404592D01*
X141963903Y-62176337D01*
X141958995Y-62165811D01*
X141864036Y-61962172D01*
X141735496Y-61778598D01*
X141728495Y-61768599D01*
X141728494Y-61768598D01*
X141728491Y-61768594D01*
X141682743Y-61722846D01*
X141597627Y-61609145D01*
X141547993Y-61476070D01*
X141537860Y-61334402D01*
X141568051Y-61195617D01*
X141636119Y-61070960D01*
X141682743Y-61017154D01*
X141728488Y-60971409D01*
X141728492Y-60971404D01*
X141728495Y-60971401D01*
X141864035Y-60777830D01*
X141963903Y-60563663D01*
X142025063Y-60335408D01*
X142045659Y-60100000D01*
X142025063Y-59864592D01*
X141963903Y-59636337D01*
X141963901Y-59636332D01*
X141864036Y-59422172D01*
X141773642Y-59293076D01*
X141728495Y-59228599D01*
X141728494Y-59228598D01*
X141728491Y-59228594D01*
X141682743Y-59182846D01*
X141597627Y-59069145D01*
X141547993Y-58936070D01*
X141537860Y-58794402D01*
X141568051Y-58655617D01*
X141636119Y-58530960D01*
X141682743Y-58477154D01*
X141728488Y-58431409D01*
X141728492Y-58431404D01*
X141728495Y-58431401D01*
X141864035Y-58237830D01*
X141963903Y-58023663D01*
X142025063Y-57795408D01*
X142045659Y-57560000D01*
X142025063Y-57324592D01*
X141963903Y-57096337D01*
X141963901Y-57096332D01*
X141864036Y-56882172D01*
X141735496Y-56698598D01*
X141728495Y-56688599D01*
X141728494Y-56688598D01*
X141728491Y-56688594D01*
X141682743Y-56642846D01*
X141597627Y-56529145D01*
X141547993Y-56396070D01*
X141537860Y-56254402D01*
X141568051Y-56115617D01*
X141636119Y-55990960D01*
X141682743Y-55937154D01*
X141728488Y-55891409D01*
X141728492Y-55891404D01*
X141728495Y-55891401D01*
X141864035Y-55697830D01*
X141963903Y-55483663D01*
X142025063Y-55255408D01*
X142045659Y-55020000D01*
X142025063Y-54784592D01*
X141963903Y-54556337D01*
X141959504Y-54546903D01*
X141864036Y-54342172D01*
X141735496Y-54158598D01*
X141728495Y-54148599D01*
X141728494Y-54148598D01*
X141728491Y-54148594D01*
X141682389Y-54102492D01*
X141597273Y-53988791D01*
X141547639Y-53855716D01*
X141537506Y-53714048D01*
X141567697Y-53575263D01*
X141635765Y-53450606D01*
X141682389Y-53396800D01*
X141728105Y-53351083D01*
X141728109Y-53351078D01*
X141863601Y-53157577D01*
X141863601Y-53157576D01*
X141946407Y-52980000D01*
X140725763Y-52980000D01*
X140832315Y-52964680D01*
X140963100Y-52904952D01*
X141071761Y-52810798D01*
X141149493Y-52689844D01*
X141190000Y-52551889D01*
X141190000Y-52408111D01*
X141149493Y-52270156D01*
X141071761Y-52149202D01*
X140963100Y-52055048D01*
X140832315Y-51995320D01*
X140725763Y-51980000D01*
X141946406Y-51980000D01*
X141863601Y-51802424D01*
X141863598Y-51802420D01*
X141728111Y-51608923D01*
X141728106Y-51608917D01*
X141682389Y-51563200D01*
X141597273Y-51449499D01*
X141547639Y-51316424D01*
X141537506Y-51174756D01*
X141567697Y-51035971D01*
X141635765Y-50911314D01*
X141682389Y-50857508D01*
X141728488Y-50811409D01*
X141728492Y-50811404D01*
X141728495Y-50811401D01*
X141864035Y-50617830D01*
X141963903Y-50403663D01*
X142025063Y-50175408D01*
X142045659Y-49940000D01*
X142025063Y-49704592D01*
X141963903Y-49476337D01*
X141963901Y-49476332D01*
X141864036Y-49262172D01*
X141735496Y-49078598D01*
X141728495Y-49068599D01*
X141728494Y-49068598D01*
X141728491Y-49068594D01*
X141682743Y-49022846D01*
X141597627Y-48909145D01*
X141547993Y-48776070D01*
X141537860Y-48634402D01*
X141568051Y-48495617D01*
X141636119Y-48370960D01*
X141682743Y-48317154D01*
X141728488Y-48271409D01*
X141728492Y-48271404D01*
X141728495Y-48271401D01*
X141864035Y-48077830D01*
X141963903Y-47863663D01*
X142025063Y-47635408D01*
X142045659Y-47400000D01*
X142025063Y-47164592D01*
X141963903Y-46936337D01*
X141868699Y-46732172D01*
X141864036Y-46722172D01*
X141735496Y-46538598D01*
X141728495Y-46528599D01*
X141728494Y-46528598D01*
X141728491Y-46528594D01*
X141682743Y-46482846D01*
X141597627Y-46369145D01*
X141547993Y-46236070D01*
X141537860Y-46094402D01*
X141568051Y-45955617D01*
X141636119Y-45830960D01*
X141682743Y-45777154D01*
X141728488Y-45731409D01*
X141728492Y-45731404D01*
X141728495Y-45731401D01*
X141864035Y-45537830D01*
X141963903Y-45323663D01*
X142025063Y-45095408D01*
X142045659Y-44860000D01*
X142025063Y-44624592D01*
X141963903Y-44396337D01*
X141868699Y-44192172D01*
X141864036Y-44182172D01*
X141735496Y-43998598D01*
X141728495Y-43988599D01*
X141728494Y-43988598D01*
X141728491Y-43988594D01*
X141682743Y-43942846D01*
X141597627Y-43829145D01*
X141547993Y-43696070D01*
X141537860Y-43554402D01*
X141568051Y-43415617D01*
X141636119Y-43290960D01*
X141682743Y-43237154D01*
X141728488Y-43191409D01*
X141728492Y-43191404D01*
X141728495Y-43191401D01*
X141864035Y-42997830D01*
X141963903Y-42783663D01*
X142025063Y-42555408D01*
X142045659Y-42320000D01*
X142025063Y-42084592D01*
X141963903Y-41856337D01*
X141915374Y-41752266D01*
X141864036Y-41642172D01*
X141735496Y-41458598D01*
X141728495Y-41448599D01*
X141728494Y-41448598D01*
X141728491Y-41448594D01*
X141682743Y-41402846D01*
X141597627Y-41289145D01*
X141547993Y-41156070D01*
X141537860Y-41014402D01*
X141568051Y-40875617D01*
X141636119Y-40750960D01*
X141682743Y-40697154D01*
X141728488Y-40651409D01*
X141728492Y-40651404D01*
X141728495Y-40651401D01*
X141864035Y-40457830D01*
X141963903Y-40243663D01*
X142025063Y-40015408D01*
X142045659Y-39780000D01*
X142025063Y-39544592D01*
X141963903Y-39316337D01*
X141864035Y-39102171D01*
X141848397Y-39079838D01*
X141784322Y-38953091D01*
X141758549Y-38813419D01*
X141773170Y-38672144D01*
X141827000Y-38540710D01*
X141876675Y-38476501D01*
X141876159Y-38476115D01*
X141897546Y-38447546D01*
X141983796Y-38332331D01*
X142034091Y-38197483D01*
X142040500Y-38137873D01*
X142040499Y-36349499D01*
X142060712Y-36208916D01*
X142119713Y-36079720D01*
X142212723Y-35972381D01*
X142332207Y-35895594D01*
X142468484Y-35855579D01*
X142539499Y-35850500D01*
X142606892Y-35850500D01*
X142747477Y-35870713D01*
G37*
%TD.AperFunction*%
%TA.AperFunction,Conductor*%
G36*
X140209971Y-80280093D02*
G01*
X140210213Y-80278415D01*
X140210917Y-80276872D01*
X140209971Y-80280093D01*
G37*
%TD.AperFunction*%
%TA.AperFunction,Conductor*%
G36*
X140268099Y-80151661D02*
G01*
X140269214Y-80149220D01*
X140270971Y-80147191D01*
X140268099Y-80151661D01*
G37*
%TD.AperFunction*%
%TA.AperFunction,Conductor*%
G36*
X140360334Y-80044061D02*
G01*
X140362224Y-80041881D01*
X140364651Y-80040320D01*
X140360334Y-80044061D01*
G37*
%TD.AperFunction*%
%TA.AperFunction,Conductor*%
G36*
X140479788Y-79966327D02*
G01*
X140481708Y-79965094D01*
X140483896Y-79964451D01*
X140479788Y-79966327D01*
G37*
%TD.AperFunction*%
%TA.AperFunction,Conductor*%
G36*
X140617095Y-79925340D02*
G01*
X140617985Y-79925079D01*
X140619829Y-79924947D01*
X140617095Y-79925340D01*
G37*
%TD.AperFunction*%
%TA.AperFunction,Conductor*%
G36*
X176322015Y-70764921D02*
G01*
X176320170Y-70765052D01*
X176322904Y-70764659D01*
X176322015Y-70764921D01*
G37*
%TD.AperFunction*%
%TA.AperFunction,Conductor*%
G36*
X176458292Y-70724906D02*
G01*
X176456103Y-70725548D01*
X176460211Y-70723672D01*
X176458292Y-70724906D01*
G37*
%TD.AperFunction*%
%TA.AperFunction,Conductor*%
G36*
X176577776Y-70648119D02*
G01*
X176575348Y-70649679D01*
X176579665Y-70645938D01*
X176577776Y-70648119D01*
G37*
%TD.AperFunction*%
%TA.AperFunction,Conductor*%
G36*
X176670786Y-70540780D02*
G01*
X176669028Y-70542808D01*
X176671900Y-70538338D01*
X176670786Y-70540780D01*
G37*
%TD.AperFunction*%
%TA.AperFunction,Conductor*%
G36*
X176729787Y-70411585D02*
G01*
X176729082Y-70413127D01*
X176730028Y-70409906D01*
X176729787Y-70411585D01*
G37*
%TD.AperFunction*%
%TA.AperFunction,Conductor*%
G36*
X140209971Y-70120093D02*
G01*
X140210213Y-70118415D01*
X140210917Y-70116872D01*
X140209971Y-70120093D01*
G37*
%TD.AperFunction*%
%TA.AperFunction,Conductor*%
G36*
X140268099Y-69991661D02*
G01*
X140269214Y-69989220D01*
X140270971Y-69987191D01*
X140268099Y-69991661D01*
G37*
%TD.AperFunction*%
%TA.AperFunction,Conductor*%
G36*
X140360334Y-69884061D02*
G01*
X140362224Y-69881881D01*
X140364651Y-69880320D01*
X140360334Y-69884061D01*
G37*
%TD.AperFunction*%
%TA.AperFunction,Conductor*%
G36*
X140479788Y-69806327D02*
G01*
X140481708Y-69805094D01*
X140483896Y-69804451D01*
X140479788Y-69806327D01*
G37*
%TD.AperFunction*%
%TA.AperFunction,Conductor*%
G36*
X140617095Y-69765340D02*
G01*
X140617985Y-69765079D01*
X140619829Y-69764947D01*
X140617095Y-69765340D01*
G37*
%TD.AperFunction*%
%TA.AperFunction,Conductor*%
G36*
X176322015Y-52984921D02*
G01*
X176320170Y-52985052D01*
X176322904Y-52984659D01*
X176322015Y-52984921D01*
G37*
%TD.AperFunction*%
%TA.AperFunction,Conductor*%
G36*
X176458292Y-52944906D02*
G01*
X176456103Y-52945548D01*
X176460211Y-52943672D01*
X176458292Y-52944906D01*
G37*
%TD.AperFunction*%
%TA.AperFunction,Conductor*%
G36*
X176577776Y-52868119D02*
G01*
X176575348Y-52869679D01*
X176579665Y-52865938D01*
X176577776Y-52868119D01*
G37*
%TD.AperFunction*%
%TA.AperFunction,Conductor*%
G36*
X176670786Y-52760780D02*
G01*
X176669028Y-52762808D01*
X176671900Y-52758338D01*
X176670786Y-52760780D01*
G37*
%TD.AperFunction*%
%TA.AperFunction,Conductor*%
G36*
X176729787Y-52631585D02*
G01*
X176729082Y-52633127D01*
X176730028Y-52629906D01*
X176729787Y-52631585D01*
G37*
%TD.AperFunction*%
%TA.AperFunction,Conductor*%
G36*
X140209971Y-52340093D02*
G01*
X140210213Y-52338415D01*
X140210917Y-52336872D01*
X140209971Y-52340093D01*
G37*
%TD.AperFunction*%
%TA.AperFunction,Conductor*%
G36*
X140268099Y-52211661D02*
G01*
X140269214Y-52209220D01*
X140270971Y-52207191D01*
X140268099Y-52211661D01*
G37*
%TD.AperFunction*%
%TA.AperFunction,Conductor*%
G36*
X140360334Y-52104061D02*
G01*
X140362224Y-52101881D01*
X140364651Y-52100320D01*
X140360334Y-52104061D01*
G37*
%TD.AperFunction*%
%TA.AperFunction,Conductor*%
G36*
X140479788Y-52026327D02*
G01*
X140481708Y-52025094D01*
X140483896Y-52024451D01*
X140479788Y-52026327D01*
G37*
%TD.AperFunction*%
%TA.AperFunction,Conductor*%
G36*
X140617095Y-51985340D02*
G01*
X140617985Y-51985079D01*
X140619829Y-51984947D01*
X140617095Y-51985340D01*
G37*
%TD.AperFunction*%
%TD*%
%TA.AperFunction,Conductor*%
%TO.N,/GPIO13*%
G36*
X167516851Y-60610496D02*
G01*
X167523163Y-60616848D01*
X167523330Y-60625305D01*
X167352807Y-61092313D01*
X167346751Y-61098909D01*
X167341817Y-61100000D01*
X167158183Y-61100000D01*
X167149910Y-61096573D01*
X167147193Y-61092313D01*
X166976669Y-60625302D01*
X166977050Y-60616358D01*
X166983147Y-60610496D01*
X167245490Y-60500883D01*
X167254444Y-60500857D01*
X167516851Y-60610496D01*
G37*
%TD.AperFunction*%
%TD*%
%TA.AperFunction,Conductor*%
%TO.N,/RX*%
G36*
X170449694Y-65975435D02*
G01*
X170449892Y-65975629D01*
X170579601Y-66105338D01*
X170583019Y-66113157D01*
X170599528Y-66537874D01*
X170596425Y-66546274D01*
X170588291Y-66550019D01*
X170587865Y-66550028D01*
X170304179Y-66550695D01*
X170295897Y-66547288D01*
X170295850Y-66547241D01*
X170095893Y-66345947D01*
X170092494Y-66337662D01*
X170095725Y-66329628D01*
X170433154Y-65975826D01*
X170441342Y-65972205D01*
X170449694Y-65975435D01*
G37*
%TD.AperFunction*%
%TD*%
%TA.AperFunction,Conductor*%
%TO.N,/GPIO45*%
G36*
X170350090Y-61353427D02*
G01*
X170352807Y-61357687D01*
X170523330Y-61824694D01*
X170522949Y-61833641D01*
X170516851Y-61839503D01*
X170254511Y-61949115D01*
X170245556Y-61949142D01*
X170245489Y-61949115D01*
X169983148Y-61839503D01*
X169976836Y-61833151D01*
X169976669Y-61824697D01*
X170147193Y-61357686D01*
X170153249Y-61351091D01*
X170158183Y-61350000D01*
X170341817Y-61350000D01*
X170350090Y-61353427D01*
G37*
%TD.AperFunction*%
%TD*%
%TA.AperFunction,Conductor*%
%TO.N,/RX*%
G36*
X161283641Y-69477050D02*
G01*
X161289503Y-69483148D01*
X161399115Y-69745489D01*
X161399142Y-69754444D01*
X161399115Y-69754511D01*
X161289503Y-70016851D01*
X161283151Y-70023163D01*
X161274694Y-70023329D01*
X161140947Y-69974493D01*
X160807687Y-69852806D01*
X160801091Y-69846750D01*
X160800000Y-69841816D01*
X160800000Y-69658183D01*
X160803427Y-69649910D01*
X160807687Y-69647193D01*
X161274697Y-69476669D01*
X161283641Y-69477050D01*
G37*
%TD.AperFunction*%
%TD*%
%TA.AperFunction,Conductor*%
%TO.N,CHIP_PU*%
G36*
X145102650Y-56753427D02*
G01*
X145103513Y-56754391D01*
X145493464Y-57241830D01*
X145495956Y-57250431D01*
X145492609Y-57257404D01*
X145008281Y-57742702D01*
X145000012Y-57746137D01*
X144991735Y-57742718D01*
X144991719Y-57742702D01*
X144507390Y-57257404D01*
X144503971Y-57249127D01*
X144506534Y-57241832D01*
X144896487Y-56754390D01*
X144904331Y-56750072D01*
X144905623Y-56750000D01*
X145094377Y-56750000D01*
X145102650Y-56753427D01*
G37*
%TD.AperFunction*%
%TD*%
%TA.AperFunction,Conductor*%
%TO.N,/GPIO10*%
G36*
X168683641Y-70827050D02*
G01*
X168689503Y-70833148D01*
X168799115Y-71095489D01*
X168799142Y-71104444D01*
X168799115Y-71104511D01*
X168689503Y-71366851D01*
X168683151Y-71373163D01*
X168674694Y-71373329D01*
X168540947Y-71324493D01*
X168207687Y-71202806D01*
X168201091Y-71196750D01*
X168200000Y-71191816D01*
X168200000Y-71008183D01*
X168203427Y-70999910D01*
X168207687Y-70997193D01*
X168674697Y-70826669D01*
X168683641Y-70827050D01*
G37*
%TD.AperFunction*%
%TD*%
%TA.AperFunction,Conductor*%
%TO.N,GNDPWR*%
G36*
X155507685Y-83353427D02*
G01*
X155511054Y-83360536D01*
X155609368Y-84343681D01*
X155606781Y-84352254D01*
X155605046Y-84353972D01*
X155117320Y-84745129D01*
X155108722Y-84747632D01*
X155102680Y-84745129D01*
X154614953Y-84353972D01*
X154610643Y-84346123D01*
X154610631Y-84343689D01*
X154708946Y-83360535D01*
X154713179Y-83352645D01*
X154720588Y-83350000D01*
X155499412Y-83350000D01*
X155507685Y-83353427D01*
G37*
%TD.AperFunction*%
%TD*%
%TA.AperFunction,Conductor*%
%TO.N,/GPIO47*%
G36*
X169039456Y-58249964D02*
G01*
X169047716Y-58253418D01*
X169051056Y-58260492D01*
X169098704Y-58733575D01*
X169096124Y-58742149D01*
X169088235Y-58746388D01*
X169087063Y-58746447D01*
X168904045Y-58746447D01*
X168896820Y-58743950D01*
X168756068Y-58633444D01*
X168548219Y-58470259D01*
X168543829Y-58462455D01*
X168546242Y-58453832D01*
X168547142Y-58452814D01*
X168746555Y-58252461D01*
X168754817Y-58249016D01*
X169039456Y-58249964D01*
G37*
%TD.AperFunction*%
%TD*%
%TA.AperFunction,Conductor*%
%TO.N,/TX*%
G36*
X161483174Y-70689439D02*
G01*
X161646804Y-70756629D01*
X161746184Y-70797436D01*
X161752536Y-70803748D01*
X161752563Y-70803815D01*
X161860559Y-71066824D01*
X161860532Y-71075779D01*
X161854670Y-71081877D01*
X161403867Y-71291523D01*
X161394920Y-71291904D01*
X161390660Y-71289187D01*
X161260812Y-71159339D01*
X161257385Y-71151066D01*
X161258474Y-71146136D01*
X161468124Y-70695327D01*
X161474718Y-70689273D01*
X161483174Y-70689439D01*
G37*
%TD.AperFunction*%
%TD*%
%TA.AperFunction,Conductor*%
%TO.N,GNDPWR*%
G36*
X163757862Y-80577745D02*
G01*
X163758656Y-80578539D01*
X164027715Y-80875042D01*
X164246504Y-81116148D01*
X164249526Y-81124577D01*
X164249482Y-81125174D01*
X164151054Y-82109464D01*
X164146821Y-82117355D01*
X164139412Y-82120000D01*
X163360588Y-82120000D01*
X163352315Y-82116573D01*
X163348946Y-82109464D01*
X163250517Y-81125174D01*
X163253104Y-81116601D01*
X163253495Y-81116148D01*
X163741337Y-80578546D01*
X163749433Y-80574723D01*
X163757862Y-80577745D01*
G37*
%TD.AperFunction*%
%TD*%
%TA.AperFunction,Conductor*%
%TO.N,CHIP_PU*%
G36*
X144039456Y-41249964D02*
G01*
X144047716Y-41253418D01*
X144051056Y-41260492D01*
X144098704Y-41733575D01*
X144096124Y-41742149D01*
X144088235Y-41746388D01*
X144087063Y-41746447D01*
X143904045Y-41746447D01*
X143896820Y-41743950D01*
X143756068Y-41633444D01*
X143548219Y-41470259D01*
X143543829Y-41462455D01*
X143546242Y-41453832D01*
X143547142Y-41452814D01*
X143746555Y-41252461D01*
X143754817Y-41249016D01*
X144039456Y-41249964D01*
G37*
%TD.AperFunction*%
%TD*%
%TA.AperFunction,Conductor*%
%TO.N,GNDPWR*%
G36*
X155117862Y-80577745D02*
G01*
X155118656Y-80578539D01*
X155387715Y-80875042D01*
X155606504Y-81116148D01*
X155609526Y-81124577D01*
X155609482Y-81125174D01*
X155511054Y-82109464D01*
X155506821Y-82117355D01*
X155499412Y-82120000D01*
X154720588Y-82120000D01*
X154712315Y-82116573D01*
X154708946Y-82109464D01*
X154610517Y-81125174D01*
X154613104Y-81116601D01*
X154613495Y-81116148D01*
X155101337Y-80578546D01*
X155109433Y-80574723D01*
X155117862Y-80577745D01*
G37*
%TD.AperFunction*%
%TD*%
%TA.AperFunction,Conductor*%
%TO.N,/power/3V3_OUT*%
G36*
X148992149Y-70653876D02*
G01*
X148996388Y-70661765D01*
X148996447Y-70662937D01*
X148996447Y-70845955D01*
X148993950Y-70853180D01*
X148720260Y-71201779D01*
X148712455Y-71206170D01*
X148703832Y-71203757D01*
X148702803Y-71202847D01*
X148502462Y-71003446D01*
X148499016Y-70995181D01*
X148499016Y-70995114D01*
X148499489Y-70853180D01*
X148499964Y-70710542D01*
X148503418Y-70702283D01*
X148510491Y-70698943D01*
X148983576Y-70651296D01*
X148992149Y-70653876D01*
G37*
%TD.AperFunction*%
%TD*%
%TA.AperFunction,Conductor*%
%TO.N,/GPIO45*%
G36*
X170516851Y-58360496D02*
G01*
X170523163Y-58366848D01*
X170523330Y-58375305D01*
X170352807Y-58842313D01*
X170346751Y-58848909D01*
X170341817Y-58850000D01*
X170158183Y-58850000D01*
X170149910Y-58846573D01*
X170147193Y-58842313D01*
X169976669Y-58375302D01*
X169977050Y-58366358D01*
X169983147Y-58360496D01*
X170245490Y-58250883D01*
X170254444Y-58250857D01*
X170516851Y-58360496D01*
G37*
%TD.AperFunction*%
%TD*%
%TA.AperFunction,Conductor*%
%TO.N,/GPIO11*%
G36*
X169322089Y-70425748D02*
G01*
X169738988Y-70449375D01*
X169747053Y-70453264D01*
X169750025Y-70461028D01*
X169750695Y-70745820D01*
X169747288Y-70754102D01*
X169747241Y-70754149D01*
X169546507Y-70953549D01*
X169538222Y-70956948D01*
X169529960Y-70953494D01*
X169529637Y-70953155D01*
X169183024Y-70575131D01*
X169179959Y-70566717D01*
X169183374Y-70558952D01*
X169313170Y-70429156D01*
X169321442Y-70425730D01*
X169322089Y-70425748D01*
G37*
%TD.AperFunction*%
%TD*%
%TA.AperFunction,Conductor*%
%TO.N,/GPIO13*%
G36*
X171500090Y-69903427D02*
G01*
X171502807Y-69907687D01*
X171673330Y-70374694D01*
X171672949Y-70383641D01*
X171666851Y-70389503D01*
X171404511Y-70499115D01*
X171395556Y-70499142D01*
X171395489Y-70499115D01*
X171133148Y-70389503D01*
X171126836Y-70383151D01*
X171126669Y-70374697D01*
X171297193Y-69907686D01*
X171303249Y-69901091D01*
X171308183Y-69900000D01*
X171491817Y-69900000D01*
X171500090Y-69903427D01*
G37*
%TD.AperFunction*%
%TD*%
%TA.AperFunction,Conductor*%
%TO.N,GPIO38*%
G36*
X169766851Y-49360496D02*
G01*
X169773163Y-49366848D01*
X169773330Y-49375305D01*
X169602807Y-49842313D01*
X169596751Y-49848909D01*
X169591817Y-49850000D01*
X169408183Y-49850000D01*
X169399910Y-49846573D01*
X169397193Y-49842313D01*
X169226669Y-49375302D01*
X169227050Y-49366358D01*
X169233147Y-49360496D01*
X169495490Y-49250883D01*
X169504444Y-49250857D01*
X169766851Y-49360496D01*
G37*
%TD.AperFunction*%
%TD*%
%TA.AperFunction,Conductor*%
%TO.N,/GPIO48*%
G36*
X169853864Y-62758475D02*
G01*
X170304671Y-62968123D01*
X170310726Y-62974718D01*
X170310559Y-62983175D01*
X170202563Y-63246184D01*
X170196251Y-63252536D01*
X170196184Y-63252563D01*
X169933175Y-63360559D01*
X169924220Y-63360532D01*
X169918123Y-63354671D01*
X169708475Y-62903865D01*
X169708095Y-62894920D01*
X169710810Y-62890662D01*
X169840661Y-62760811D01*
X169848933Y-62757385D01*
X169853864Y-62758475D01*
G37*
%TD.AperFunction*%
%TD*%
%TA.AperFunction,Conductor*%
%TO.N,/GPIO14*%
G36*
X171533641Y-68377050D02*
G01*
X171539503Y-68383148D01*
X171649115Y-68645489D01*
X171649142Y-68654444D01*
X171649115Y-68654511D01*
X171539503Y-68916851D01*
X171533151Y-68923163D01*
X171524694Y-68923329D01*
X171390947Y-68874493D01*
X171057687Y-68752806D01*
X171051091Y-68746750D01*
X171050000Y-68741816D01*
X171050000Y-68558183D01*
X171053427Y-68549910D01*
X171057687Y-68547193D01*
X171524697Y-68376669D01*
X171533641Y-68377050D01*
G37*
%TD.AperFunction*%
%TD*%
%TA.AperFunction,Conductor*%
%TO.N,/RX*%
G36*
X171766851Y-43110496D02*
G01*
X171773163Y-43116848D01*
X171773330Y-43125305D01*
X171602807Y-43592313D01*
X171596751Y-43598909D01*
X171591817Y-43600000D01*
X171408183Y-43600000D01*
X171399910Y-43596573D01*
X171397193Y-43592313D01*
X171226669Y-43125302D01*
X171227050Y-43116358D01*
X171233147Y-43110496D01*
X171495490Y-43000883D01*
X171504444Y-43000857D01*
X171766851Y-43110496D01*
G37*
%TD.AperFunction*%
%TD*%
%TA.AperFunction,Conductor*%
%TO.N,/RX*%
G36*
X144225779Y-70289467D02*
G01*
X144231877Y-70295329D01*
X144441523Y-70746132D01*
X144441904Y-70755079D01*
X144439187Y-70759339D01*
X144309339Y-70889187D01*
X144301066Y-70892614D01*
X144296132Y-70891523D01*
X144002736Y-70755079D01*
X143845328Y-70681876D01*
X143839273Y-70675281D01*
X143839439Y-70666825D01*
X143947436Y-70403814D01*
X143953746Y-70397464D01*
X144216825Y-70289440D01*
X144225779Y-70289467D01*
G37*
%TD.AperFunction*%
%TD*%
%TA.AperFunction,Conductor*%
%TO.N,/GPIO12*%
G36*
X170383641Y-69727050D02*
G01*
X170389503Y-69733148D01*
X170499115Y-69995489D01*
X170499142Y-70004444D01*
X170499115Y-70004511D01*
X170389503Y-70266851D01*
X170383151Y-70273163D01*
X170374694Y-70273329D01*
X170240947Y-70224493D01*
X169907687Y-70102806D01*
X169901091Y-70096750D01*
X169900000Y-70091816D01*
X169900000Y-69908183D01*
X169903427Y-69899910D01*
X169907687Y-69897193D01*
X170374697Y-69726669D01*
X170383641Y-69727050D01*
G37*
%TD.AperFunction*%
%TD*%
%TA.AperFunction,Conductor*%
%TO.N,/GPIO14*%
G36*
X168016851Y-59710496D02*
G01*
X168023163Y-59716848D01*
X168023330Y-59725305D01*
X167852807Y-60192313D01*
X167846751Y-60198909D01*
X167841817Y-60200000D01*
X167658183Y-60200000D01*
X167649910Y-60196573D01*
X167647193Y-60192313D01*
X167476669Y-59725302D01*
X167477050Y-59716358D01*
X167483147Y-59710496D01*
X167745490Y-59600883D01*
X167754444Y-59600857D01*
X168016851Y-59710496D01*
G37*
%TD.AperFunction*%
%TD*%
%TA.AperFunction,Conductor*%
%TO.N,/power/3V3_OUT*%
G36*
X158039456Y-67999964D02*
G01*
X158047716Y-68003418D01*
X158051056Y-68010492D01*
X158098704Y-68483575D01*
X158096124Y-68492149D01*
X158088235Y-68496388D01*
X158087063Y-68496447D01*
X157904045Y-68496447D01*
X157896820Y-68493950D01*
X157756068Y-68383444D01*
X157548219Y-68220259D01*
X157543829Y-68212455D01*
X157546242Y-68203832D01*
X157547142Y-68202814D01*
X157746555Y-68002461D01*
X157754817Y-67999016D01*
X158039456Y-67999964D01*
G37*
%TD.AperFunction*%
%TD*%
%TA.AperFunction,Conductor*%
%TO.N,/GPIO9*%
G36*
X152833174Y-59239439D02*
G01*
X152996804Y-59306629D01*
X153096184Y-59347436D01*
X153102536Y-59353748D01*
X153102563Y-59353815D01*
X153210559Y-59616824D01*
X153210532Y-59625779D01*
X153204670Y-59631877D01*
X152753867Y-59841523D01*
X152744920Y-59841904D01*
X152740660Y-59839187D01*
X152610812Y-59709339D01*
X152607385Y-59701066D01*
X152608474Y-59696136D01*
X152818124Y-59245327D01*
X152824718Y-59239273D01*
X152833174Y-59239439D01*
G37*
%TD.AperFunction*%
%TD*%
%TA.AperFunction,Conductor*%
%TO.N,/GPIO12*%
G36*
X167016851Y-62010496D02*
G01*
X167023163Y-62016848D01*
X167023330Y-62025305D01*
X166852807Y-62492313D01*
X166846751Y-62498909D01*
X166841817Y-62500000D01*
X166658183Y-62500000D01*
X166649910Y-62496573D01*
X166647193Y-62492313D01*
X166476669Y-62025302D01*
X166477050Y-62016358D01*
X166483147Y-62010496D01*
X166745490Y-61900883D01*
X166754444Y-61900857D01*
X167016851Y-62010496D01*
G37*
%TD.AperFunction*%
%TD*%
%TA.AperFunction,Conductor*%
%TO.N,/TX*%
G36*
X144225779Y-71739467D02*
G01*
X144231877Y-71745329D01*
X144441523Y-72196132D01*
X144441904Y-72205079D01*
X144439187Y-72209339D01*
X144309339Y-72339187D01*
X144301066Y-72342614D01*
X144296132Y-72341523D01*
X144002736Y-72205079D01*
X143845328Y-72131876D01*
X143839273Y-72125281D01*
X143839439Y-72116825D01*
X143947436Y-71853814D01*
X143953746Y-71847464D01*
X144216825Y-71739440D01*
X144225779Y-71739467D01*
G37*
%TD.AperFunction*%
%TD*%
%TA.AperFunction,Conductor*%
%TO.N,GPIO0*%
G36*
X172539969Y-56249966D02*
G01*
X172548230Y-56253420D01*
X172551498Y-56259918D01*
X172622968Y-56732999D01*
X172620815Y-56741691D01*
X172613147Y-56746316D01*
X172611399Y-56746447D01*
X172379275Y-56746447D01*
X172371732Y-56743691D01*
X172047581Y-56470323D01*
X172043466Y-56462370D01*
X172046180Y-56453836D01*
X172046811Y-56453146D01*
X172246555Y-56252461D01*
X172254818Y-56249016D01*
X172539969Y-56249966D01*
G37*
%TD.AperFunction*%
%TD*%
%TA.AperFunction,Conductor*%
%TO.N,GNDPWR*%
G36*
X163272425Y-84253001D02*
G01*
X163274294Y-84254576D01*
X163743194Y-84741888D01*
X163746461Y-84750225D01*
X163743194Y-84758112D01*
X163274294Y-85245423D01*
X163266088Y-85249009D01*
X163263653Y-85248800D01*
X162759490Y-85151825D01*
X162752013Y-85146898D01*
X162750000Y-85140336D01*
X162750000Y-84359663D01*
X162753427Y-84351390D01*
X162759488Y-84348174D01*
X163263655Y-84251199D01*
X163272425Y-84253001D01*
G37*
%TD.AperFunction*%
%TD*%
%TA.AperFunction,Conductor*%
%TO.N,/TX*%
G36*
X173016851Y-41860496D02*
G01*
X173023163Y-41866848D01*
X173023330Y-41875305D01*
X172852807Y-42342313D01*
X172846751Y-42348909D01*
X172841817Y-42350000D01*
X172658183Y-42350000D01*
X172649910Y-42346573D01*
X172647193Y-42342313D01*
X172476669Y-41875302D01*
X172477050Y-41866358D01*
X172483147Y-41860496D01*
X172745490Y-41750883D01*
X172754444Y-41750857D01*
X173016851Y-41860496D01*
G37*
%TD.AperFunction*%
%TD*%
%TA.AperFunction,Conductor*%
%TO.N,GPIO38*%
G36*
X169600090Y-54653427D02*
G01*
X169602807Y-54657687D01*
X169773330Y-55124694D01*
X169772949Y-55133641D01*
X169766851Y-55139503D01*
X169504511Y-55249115D01*
X169495556Y-55249142D01*
X169495489Y-55249115D01*
X169233148Y-55139503D01*
X169226836Y-55133151D01*
X169226669Y-55124697D01*
X169397193Y-54657686D01*
X169403249Y-54651091D01*
X169408183Y-54650000D01*
X169591817Y-54650000D01*
X169600090Y-54653427D01*
G37*
%TD.AperFunction*%
%TD*%
%TA.AperFunction,Conductor*%
%TO.N,/GPIO21*%
G36*
X168666851Y-60710496D02*
G01*
X168673163Y-60716848D01*
X168673330Y-60725305D01*
X168502807Y-61192313D01*
X168496751Y-61198909D01*
X168491817Y-61200000D01*
X168308183Y-61200000D01*
X168299910Y-61196573D01*
X168297193Y-61192313D01*
X168126669Y-60725302D01*
X168127050Y-60716358D01*
X168133147Y-60710496D01*
X168395490Y-60600883D01*
X168404444Y-60600857D01*
X168666851Y-60710496D01*
G37*
%TD.AperFunction*%
%TD*%
%TA.AperFunction,Conductor*%
%TO.N,/GPIO10*%
G36*
X165766851Y-62010496D02*
G01*
X165773163Y-62016848D01*
X165773330Y-62025305D01*
X165602807Y-62492313D01*
X165596751Y-62498909D01*
X165591817Y-62500000D01*
X165408183Y-62500000D01*
X165399910Y-62496573D01*
X165397193Y-62492313D01*
X165226669Y-62025302D01*
X165227050Y-62016358D01*
X165233147Y-62010496D01*
X165495490Y-61900883D01*
X165504444Y-61900857D01*
X165766851Y-62010496D01*
G37*
%TD.AperFunction*%
%TD*%
%TA.AperFunction,Conductor*%
%TO.N,CHIP_PU*%
G36*
X144653864Y-55758475D02*
G01*
X145104671Y-55968123D01*
X145110726Y-55974718D01*
X145110559Y-55983175D01*
X145002563Y-56246184D01*
X144996251Y-56252536D01*
X144996184Y-56252563D01*
X144733175Y-56360559D01*
X144724220Y-56360532D01*
X144718123Y-56354671D01*
X144508475Y-55903865D01*
X144508095Y-55894920D01*
X144510810Y-55890662D01*
X144640661Y-55760811D01*
X144648933Y-55757385D01*
X144653864Y-55758475D01*
G37*
%TD.AperFunction*%
%TD*%
%TA.AperFunction,Conductor*%
%TO.N,CHIP_PU*%
G36*
X145266851Y-56360496D02*
G01*
X145273163Y-56366848D01*
X145273330Y-56375305D01*
X145102807Y-56842313D01*
X145096751Y-56848909D01*
X145091817Y-56850000D01*
X144908183Y-56850000D01*
X144899910Y-56846573D01*
X144897193Y-56842313D01*
X144726669Y-56375302D01*
X144727050Y-56366358D01*
X144733147Y-56360496D01*
X144995490Y-56250883D01*
X145004444Y-56250857D01*
X145266851Y-56360496D01*
G37*
%TD.AperFunction*%
%TD*%
%TA.AperFunction,Conductor*%
%TO.N,/TX*%
G36*
X171592416Y-65996815D02*
G01*
X171595843Y-66005088D01*
X171595323Y-66008539D01*
X171428233Y-66549860D01*
X171422518Y-66556754D01*
X171413602Y-66557589D01*
X171412609Y-66557232D01*
X171151802Y-66450144D01*
X171145452Y-66443834D01*
X171036704Y-66180345D01*
X171036715Y-66171390D01*
X171042446Y-66165338D01*
X171397596Y-65994543D01*
X171402667Y-65993388D01*
X171584143Y-65993388D01*
X171592416Y-65996815D01*
G37*
%TD.AperFunction*%
%TD*%
%TA.AperFunction,Conductor*%
%TO.N,/GPIO21*%
G36*
X172483641Y-67727050D02*
G01*
X172489503Y-67733148D01*
X172599115Y-67995489D01*
X172599142Y-68004444D01*
X172599115Y-68004511D01*
X172489503Y-68266851D01*
X172483151Y-68273163D01*
X172474694Y-68273329D01*
X172340947Y-68224493D01*
X172007687Y-68102806D01*
X172001091Y-68096750D01*
X172000000Y-68091816D01*
X172000000Y-67908183D01*
X172003427Y-67899910D01*
X172007687Y-67897193D01*
X172474697Y-67726669D01*
X172483641Y-67727050D01*
G37*
%TD.AperFunction*%
%TD*%
%TA.AperFunction,Conductor*%
%TO.N,/GPIO46*%
G36*
X151189649Y-59783798D02*
G01*
X151190388Y-59785266D01*
X151300088Y-60047817D01*
X151300992Y-60052367D01*
X151300046Y-60336146D01*
X151296592Y-60344408D01*
X151288307Y-60347807D01*
X151286349Y-60347635D01*
X150729495Y-60251183D01*
X150721928Y-60246395D01*
X150719792Y-60239655D01*
X150719792Y-60056159D01*
X150723219Y-60047886D01*
X150725513Y-60046102D01*
X151173615Y-59779719D01*
X151182476Y-59778438D01*
X151189649Y-59783798D01*
G37*
%TD.AperFunction*%
%TD*%
%TA.AperFunction,Conductor*%
%TO.N,/GPIO3*%
G36*
X150583641Y-58977050D02*
G01*
X150589503Y-58983148D01*
X150699115Y-59245489D01*
X150699142Y-59254444D01*
X150699115Y-59254511D01*
X150589503Y-59516851D01*
X150583151Y-59523163D01*
X150574694Y-59523329D01*
X150440947Y-59474493D01*
X150107687Y-59352806D01*
X150101091Y-59346750D01*
X150100000Y-59341816D01*
X150100000Y-59158183D01*
X150103427Y-59149910D01*
X150107687Y-59147193D01*
X150574697Y-58976669D01*
X150583641Y-58977050D01*
G37*
%TD.AperFunction*%
%TD*%
%TA.AperFunction,Conductor*%
%TO.N,/GPIO46*%
G36*
X144763625Y-59952337D02*
G01*
X145320288Y-60047835D01*
X145327863Y-60052612D01*
X145330010Y-60059367D01*
X145330010Y-60242860D01*
X145326583Y-60251133D01*
X145324306Y-60252907D01*
X144876393Y-60520247D01*
X144867533Y-60521544D01*
X144860350Y-60516196D01*
X144859606Y-60514721D01*
X144749910Y-60252178D01*
X144749007Y-60247636D01*
X144749953Y-59963828D01*
X144753407Y-59955569D01*
X144761692Y-59952170D01*
X144763625Y-59952337D01*
G37*
%TD.AperFunction*%
%TD*%
%TA.AperFunction,Conductor*%
%TO.N,/GPIO47*%
G36*
X169903864Y-64258475D02*
G01*
X170354671Y-64468123D01*
X170360726Y-64474718D01*
X170360559Y-64483175D01*
X170252563Y-64746184D01*
X170246251Y-64752536D01*
X170246184Y-64752563D01*
X169983175Y-64860559D01*
X169974220Y-64860532D01*
X169968123Y-64854671D01*
X169758475Y-64403865D01*
X169758095Y-64394920D01*
X169760810Y-64390662D01*
X169890661Y-64260811D01*
X169898933Y-64257385D01*
X169903864Y-64258475D01*
G37*
%TD.AperFunction*%
%TD*%
%TA.AperFunction,Conductor*%
%TO.N,/GPIO3*%
G36*
X145342313Y-59147193D02*
G01*
X145348909Y-59153249D01*
X145350000Y-59158183D01*
X145350000Y-59341816D01*
X145346573Y-59350089D01*
X145342313Y-59352806D01*
X144875305Y-59523330D01*
X144866358Y-59522949D01*
X144860496Y-59516851D01*
X144750883Y-59254509D01*
X144750857Y-59245556D01*
X144750862Y-59245542D01*
X144860496Y-58983147D01*
X144866848Y-58976836D01*
X144875302Y-58976669D01*
X145342313Y-59147193D01*
G37*
%TD.AperFunction*%
%TD*%
%TA.AperFunction,Conductor*%
%TO.N,/GPIO9*%
G36*
X145342313Y-61147193D02*
G01*
X145348909Y-61153249D01*
X145350000Y-61158183D01*
X145350000Y-61341816D01*
X145346573Y-61350089D01*
X145342313Y-61352806D01*
X144875305Y-61523330D01*
X144866358Y-61522949D01*
X144860496Y-61516851D01*
X144750883Y-61254509D01*
X144750857Y-61245556D01*
X144750862Y-61245542D01*
X144860496Y-60983147D01*
X144866848Y-60976836D01*
X144875302Y-60976669D01*
X145342313Y-61147193D01*
G37*
%TD.AperFunction*%
%TD*%
%TA.AperFunction,Conductor*%
%TO.N,/VBUS_USB*%
G36*
X162443039Y-77019685D02*
G01*
X162488794Y-77072489D01*
X162500000Y-77124000D01*
X162500000Y-78626000D01*
X162480315Y-78693039D01*
X162427511Y-78738794D01*
X162376000Y-78750000D01*
X154374000Y-78750000D01*
X154306961Y-78730315D01*
X154261206Y-78677511D01*
X154250000Y-78626000D01*
X154250000Y-77124000D01*
X154269685Y-77056961D01*
X154322489Y-77011206D01*
X154374000Y-77000000D01*
X162376000Y-77000000D01*
X162443039Y-77019685D01*
G37*
%TD.AperFunction*%
%TD*%
%TA.AperFunction,Conductor*%
%TO.N,GPIO0*%
G36*
X172219658Y-66615715D02*
G01*
X172384284Y-66780341D01*
X172387711Y-66788614D01*
X172386381Y-66794032D01*
X172159814Y-67227638D01*
X172152945Y-67233384D01*
X172145000Y-67233043D01*
X171881523Y-67124855D01*
X171875171Y-67118543D01*
X171875144Y-67118476D01*
X171766956Y-66854999D01*
X171766983Y-66846044D01*
X171772359Y-66840186D01*
X172205970Y-66613617D01*
X172214886Y-66612824D01*
X172219658Y-66615715D01*
G37*
%TD.AperFunction*%
%TD*%
%TA.AperFunction,Conductor*%
%TO.N,GNDPWR*%
G36*
X164147685Y-83353427D02*
G01*
X164151054Y-83360536D01*
X164249368Y-84343681D01*
X164246781Y-84352254D01*
X164245046Y-84353972D01*
X163757320Y-84745129D01*
X163748722Y-84747632D01*
X163742680Y-84745129D01*
X163254953Y-84353972D01*
X163250643Y-84346123D01*
X163250631Y-84343689D01*
X163348946Y-83360535D01*
X163353179Y-83352645D01*
X163360588Y-83350000D01*
X164139412Y-83350000D01*
X164147685Y-83353427D01*
G37*
%TD.AperFunction*%
%TD*%
%TA.AperFunction,Conductor*%
%TO.N,/GPIO48*%
G36*
X169766851Y-57610496D02*
G01*
X169773163Y-57616848D01*
X169773330Y-57625305D01*
X169602807Y-58092313D01*
X169596751Y-58098909D01*
X169591817Y-58100000D01*
X169408183Y-58100000D01*
X169399910Y-58096573D01*
X169397193Y-58092313D01*
X169226669Y-57625302D01*
X169227050Y-57616358D01*
X169233147Y-57610496D01*
X169495490Y-57500883D01*
X169504444Y-57500857D01*
X169766851Y-57610496D01*
G37*
%TD.AperFunction*%
%TD*%
%TA.AperFunction,Conductor*%
%TO.N,GNDPWR*%
G36*
X155596339Y-84251198D02*
G01*
X156100511Y-84348174D01*
X156107987Y-84353101D01*
X156110000Y-84359663D01*
X156110000Y-85140336D01*
X156106573Y-85148609D01*
X156100510Y-85151825D01*
X155596346Y-85248800D01*
X155587574Y-85246998D01*
X155585705Y-85245423D01*
X155484588Y-85140336D01*
X155116804Y-84758111D01*
X155113538Y-84749775D01*
X155116804Y-84741888D01*
X155585706Y-84254575D01*
X155593911Y-84250990D01*
X155596339Y-84251198D01*
G37*
%TD.AperFunction*%
%TD*%
%TA.AperFunction,Conductor*%
%TO.N,/GPIO11*%
G36*
X166434470Y-61400358D02*
G01*
X166440782Y-61406710D01*
X166440755Y-61415665D01*
X166440330Y-61416570D01*
X166203282Y-61870445D01*
X166196414Y-61876192D01*
X166192911Y-61876729D01*
X166009321Y-61876729D01*
X166001048Y-61873302D01*
X165997917Y-61867644D01*
X165894106Y-61414882D01*
X165895597Y-61406052D01*
X165900997Y-61401471D01*
X166164557Y-61291350D01*
X166173511Y-61291324D01*
X166434470Y-61400358D01*
G37*
%TD.AperFunction*%
%TD*%
M02*
