%TF.GenerationSoftware,KiCad,Pcbnew,8.0.1-1.fc39*%
%TF.CreationDate,2024-05-03T11:25:32+02:00*%
%TF.ProjectId,esp32-s3-simple,65737033-322d-4733-932d-73696d706c65,rev?*%
%TF.SameCoordinates,Original*%
%TF.FileFunction,Paste,Top*%
%TF.FilePolarity,Positive*%
%FSLAX46Y46*%
G04 Gerber Fmt 4.6, Leading zero omitted, Abs format (unit mm)*
G04 Created by KiCad (PCBNEW 8.0.1-1.fc39) date 2024-05-03 11:25:32*
%MOMM*%
%LPD*%
G01*
G04 APERTURE LIST*
G04 Aperture macros list*
%AMRoundRect*
0 Rectangle with rounded corners*
0 $1 Rounding radius*
0 $2 $3 $4 $5 $6 $7 $8 $9 X,Y pos of 4 corners*
0 Add a 4 corners polygon primitive as box body*
4,1,4,$2,$3,$4,$5,$6,$7,$8,$9,$2,$3,0*
0 Add four circle primitives for the rounded corners*
1,1,$1+$1,$2,$3*
1,1,$1+$1,$4,$5*
1,1,$1+$1,$6,$7*
1,1,$1+$1,$8,$9*
0 Add four rect primitives between the rounded corners*
20,1,$1+$1,$2,$3,$4,$5,0*
20,1,$1+$1,$4,$5,$6,$7,0*
20,1,$1+$1,$6,$7,$8,$9,0*
20,1,$1+$1,$8,$9,$2,$3,0*%
G04 Aperture macros list end*
%ADD10RoundRect,0.250000X-0.400000X-0.625000X0.400000X-0.625000X0.400000X0.625000X-0.400000X0.625000X0*%
%ADD11RoundRect,0.250000X0.650000X-0.412500X0.650000X0.412500X-0.650000X0.412500X-0.650000X-0.412500X0*%
%ADD12R,1.500000X0.900000*%
%ADD13R,0.900000X1.500000*%
%ADD14R,0.900000X0.900000*%
%ADD15RoundRect,0.237500X0.300000X0.237500X-0.300000X0.237500X-0.300000X-0.237500X0.300000X-0.237500X0*%
%ADD16RoundRect,0.250000X-0.300000X0.300000X-0.300000X-0.300000X0.300000X-0.300000X0.300000X0.300000X0*%
%ADD17RoundRect,0.250000X0.250000X0.250000X-0.250000X0.250000X-0.250000X-0.250000X0.250000X-0.250000X0*%
%ADD18RoundRect,0.250000X0.400000X0.625000X-0.400000X0.625000X-0.400000X-0.625000X0.400000X-0.625000X0*%
%ADD19RoundRect,0.237500X0.237500X-0.300000X0.237500X0.300000X-0.237500X0.300000X-0.237500X-0.300000X0*%
%ADD20RoundRect,0.250000X0.625000X-0.400000X0.625000X0.400000X-0.625000X0.400000X-0.625000X-0.400000X0*%
%ADD21R,1.000000X1.500000*%
%ADD22RoundRect,0.250000X-0.650000X0.412500X-0.650000X-0.412500X0.650000X-0.412500X0.650000X0.412500X0*%
%ADD23RoundRect,0.237500X-0.300000X-0.237500X0.300000X-0.237500X0.300000X0.237500X-0.300000X0.237500X0*%
%ADD24R,0.350000X0.280000*%
%ADD25R,0.350000X0.260000*%
%ADD26R,0.440000X1.440000*%
%ADD27RoundRect,0.250000X-0.625000X0.400000X-0.625000X-0.400000X0.625000X-0.400000X0.625000X0.400000X0*%
%ADD28RoundRect,0.250000X-0.250000X0.250000X-0.250000X-0.250000X0.250000X-0.250000X0.250000X0.250000X0*%
%ADD29RoundRect,0.250000X0.450000X-0.325000X0.450000X0.325000X-0.450000X0.325000X-0.450000X-0.325000X0*%
%ADD30RoundRect,0.150000X-0.150000X-0.425000X0.150000X-0.425000X0.150000X0.425000X-0.150000X0.425000X0*%
%ADD31RoundRect,0.075000X-0.075000X-0.500000X0.075000X-0.500000X0.075000X0.500000X-0.075000X0.500000X0*%
%ADD32O,1.000000X2.100000*%
%ADD33O,1.000000X1.800000*%
G04 APERTURE END LIST*
D10*
%TO.C,R40*%
X143900000Y-38250000D03*
X147000000Y-38250000D03*
%TD*%
D11*
%TO.C,C8*%
X156500000Y-66062500D03*
X156500000Y-62937500D03*
%TD*%
D12*
%TO.C,U1*%
X149750000Y-37740000D03*
X149750000Y-39010000D03*
X149750000Y-40280000D03*
X149750000Y-41550000D03*
X149750000Y-42820000D03*
X149750000Y-44090000D03*
X149750000Y-45360000D03*
X149750000Y-46630000D03*
X149750000Y-47900000D03*
X149750000Y-49170000D03*
X149750000Y-50440000D03*
X149750000Y-51710000D03*
X149750000Y-52980000D03*
X149750000Y-54250000D03*
D13*
X151515000Y-55500000D03*
X152785000Y-55500000D03*
X154055000Y-55500000D03*
X155325000Y-55500000D03*
X156595000Y-55500000D03*
X157865000Y-55500000D03*
X159135000Y-55500000D03*
X160405000Y-55500000D03*
X161675000Y-55500000D03*
X162945000Y-55500000D03*
X164215000Y-55500000D03*
X165485000Y-55500000D03*
D12*
X167250000Y-54250000D03*
X167250000Y-52980000D03*
X167250000Y-51710000D03*
X167250000Y-50440000D03*
X167250000Y-49170000D03*
X167250000Y-47900000D03*
X167250000Y-46630000D03*
X167250000Y-45360000D03*
X167250000Y-44090000D03*
X167250000Y-42820000D03*
X167250000Y-41550000D03*
X167250000Y-40280000D03*
X167250000Y-39010000D03*
X167250000Y-37740000D03*
D14*
X155600000Y-44060000D03*
X155600000Y-45460000D03*
X155600000Y-46860000D03*
X155600000Y-46860000D03*
X157000000Y-44060000D03*
X157000000Y-44060000D03*
X157000000Y-45460000D03*
X157000000Y-46860000D03*
X158400000Y-44060000D03*
X158400000Y-45460000D03*
X158400000Y-46860000D03*
%TD*%
D15*
%TO.C,C2*%
X171112500Y-77250000D03*
X169387500Y-77250000D03*
%TD*%
D16*
%TO.C,D4*%
X155150000Y-73850000D03*
X155150000Y-76650000D03*
%TD*%
D17*
%TO.C,D1*%
X163050000Y-74250000D03*
X160550000Y-74250000D03*
%TD*%
D15*
%TO.C,C29*%
X147112500Y-40250000D03*
X145387500Y-40250000D03*
%TD*%
D18*
%TO.C,R4*%
X157000000Y-71500000D03*
X153900000Y-71500000D03*
%TD*%
D19*
%TO.C,C7*%
X154500000Y-66112500D03*
X154500000Y-64387500D03*
%TD*%
D20*
%TO.C,R3*%
X165500000Y-74350000D03*
X165500000Y-71250000D03*
%TD*%
D21*
%TO.C,D5*%
X165550000Y-63500000D03*
X162350000Y-63500000D03*
X162350000Y-68400000D03*
X165550000Y-68400000D03*
%TD*%
D11*
%TO.C,C1*%
X147250000Y-68037500D03*
X147250000Y-64912500D03*
%TD*%
D22*
%TO.C,C4*%
X152750000Y-73687500D03*
X152750000Y-76812500D03*
%TD*%
D23*
%TO.C,C3*%
X146637500Y-76850000D03*
X148362500Y-76850000D03*
%TD*%
D24*
%TO.C,U2*%
X152525000Y-67512500D03*
X152525000Y-67112500D03*
D25*
X152525000Y-66712500D03*
D24*
X152525000Y-66312500D03*
X151475000Y-66312500D03*
D25*
X151475000Y-66712500D03*
D24*
X151475000Y-67112500D03*
X151475000Y-67512500D03*
D26*
X152000000Y-66912500D03*
%TD*%
D17*
%TO.C,D2*%
X161800000Y-72100000D03*
X159300000Y-72100000D03*
%TD*%
D27*
%TO.C,R6*%
X147000000Y-70950000D03*
X147000000Y-74050000D03*
%TD*%
D19*
%TO.C,C5*%
X149500000Y-68025000D03*
X149500000Y-66300000D03*
%TD*%
D28*
%TO.C,D3*%
X157300000Y-74250000D03*
X157300000Y-76750000D03*
%TD*%
D29*
%TO.C,D6*%
X152750000Y-85125000D03*
X152750000Y-83075000D03*
%TD*%
D18*
%TO.C,R1*%
X152800000Y-63250000D03*
X149700000Y-63250000D03*
%TD*%
D30*
%TO.C,J3*%
X156230000Y-79995000D03*
X157030000Y-79995000D03*
D31*
X158180000Y-79995000D03*
X159180000Y-79995000D03*
X159680000Y-79995000D03*
X160680000Y-79995000D03*
D30*
X161830000Y-79995000D03*
X162630000Y-79995000D03*
X162630000Y-79995000D03*
X161830000Y-79995000D03*
D31*
X161180000Y-79995000D03*
X160180000Y-79995000D03*
X158680000Y-79995000D03*
X157680000Y-79995000D03*
D30*
X157030000Y-79995000D03*
X156230000Y-79995000D03*
D32*
X155110000Y-80570000D03*
D33*
X155110000Y-84750000D03*
D32*
X163750000Y-80570000D03*
D33*
X163750000Y-84750000D03*
%TD*%
M02*
