%TF.GenerationSoftware,KiCad,Pcbnew,8.0.1-1.fc39*%
%TF.CreationDate,2024-05-03T11:25:44+02:00*%
%TF.ProjectId,esp32-s3-simple,65737033-322d-4733-932d-73696d706c65,rev?*%
%TF.SameCoordinates,Original*%
%TF.FileFunction,Soldermask,Top*%
%TF.FilePolarity,Negative*%
%FSLAX46Y46*%
G04 Gerber Fmt 4.6, Leading zero omitted, Abs format (unit mm)*
G04 Created by KiCad (PCBNEW 8.0.1-1.fc39) date 2024-05-03 11:25:44*
%MOMM*%
%LPD*%
G01*
G04 APERTURE LIST*
G04 Aperture macros list*
%AMRoundRect*
0 Rectangle with rounded corners*
0 $1 Rounding radius*
0 $2 $3 $4 $5 $6 $7 $8 $9 X,Y pos of 4 corners*
0 Add a 4 corners polygon primitive as box body*
4,1,4,$2,$3,$4,$5,$6,$7,$8,$9,$2,$3,0*
0 Add four circle primitives for the rounded corners*
1,1,$1+$1,$2,$3*
1,1,$1+$1,$4,$5*
1,1,$1+$1,$6,$7*
1,1,$1+$1,$8,$9*
0 Add four rect primitives between the rounded corners*
20,1,$1+$1,$2,$3,$4,$5,0*
20,1,$1+$1,$4,$5,$6,$7,0*
20,1,$1+$1,$6,$7,$8,$9,0*
20,1,$1+$1,$8,$9,$2,$3,0*%
G04 Aperture macros list end*
%ADD10C,0.150000*%
%ADD11R,1.700000X1.700000*%
%ADD12O,1.700000X1.700000*%
%ADD13RoundRect,0.250000X-0.400000X-0.625000X0.400000X-0.625000X0.400000X0.625000X-0.400000X0.625000X0*%
%ADD14RoundRect,0.250000X0.650000X-0.412500X0.650000X0.412500X-0.650000X0.412500X-0.650000X-0.412500X0*%
%ADD15R,1.500000X0.900000*%
%ADD16R,0.900000X1.500000*%
%ADD17R,0.900000X0.900000*%
%ADD18RoundRect,0.237500X0.300000X0.237500X-0.300000X0.237500X-0.300000X-0.237500X0.300000X-0.237500X0*%
%ADD19RoundRect,0.250000X-0.300000X0.300000X-0.300000X-0.300000X0.300000X-0.300000X0.300000X0.300000X0*%
%ADD20C,2.000000*%
%ADD21RoundRect,0.250000X0.250000X0.250000X-0.250000X0.250000X-0.250000X-0.250000X0.250000X-0.250000X0*%
%ADD22R,1.000000X1.000000*%
%ADD23RoundRect,0.250000X0.400000X0.625000X-0.400000X0.625000X-0.400000X-0.625000X0.400000X-0.625000X0*%
%ADD24R,1.500000X1.000000*%
%ADD25RoundRect,0.237500X0.237500X-0.300000X0.237500X0.300000X-0.237500X0.300000X-0.237500X-0.300000X0*%
%ADD26RoundRect,0.250000X0.625000X-0.400000X0.625000X0.400000X-0.625000X0.400000X-0.625000X-0.400000X0*%
%ADD27R,1.000000X1.500000*%
%ADD28RoundRect,0.250000X-0.650000X0.412500X-0.650000X-0.412500X0.650000X-0.412500X0.650000X0.412500X0*%
%ADD29RoundRect,0.237500X-0.300000X-0.237500X0.300000X-0.237500X0.300000X0.237500X-0.300000X0.237500X0*%
%ADD30R,0.350000X0.280000*%
%ADD31R,0.350000X0.260000*%
%ADD32R,0.440000X1.440000*%
%ADD33RoundRect,0.250000X-0.625000X0.400000X-0.625000X-0.400000X0.625000X-0.400000X0.625000X0.400000X0*%
%ADD34RoundRect,0.250000X-0.250000X0.250000X-0.250000X-0.250000X0.250000X-0.250000X0.250000X0.250000X0*%
%ADD35RoundRect,0.250000X0.450000X-0.325000X0.450000X0.325000X-0.450000X0.325000X-0.450000X-0.325000X0*%
%ADD36C,0.650000*%
%ADD37RoundRect,0.150000X-0.150000X-0.425000X0.150000X-0.425000X0.150000X0.425000X-0.150000X0.425000X0*%
%ADD38RoundRect,0.075000X-0.075000X-0.500000X0.075000X-0.500000X0.075000X0.500000X-0.075000X0.500000X0*%
%ADD39O,1.000000X2.100000*%
%ADD40O,1.000000X1.800000*%
%ADD41C,0.800000*%
%ADD42C,0.600000*%
%ADD43C,0.500000*%
G04 APERTURE END LIST*
D10*
X152100000Y-67700000D02*
X152300000Y-67900000D01*
X152150000Y-68050000D01*
X151900000Y-67800000D01*
X151900000Y-67550000D01*
X152100000Y-67550000D01*
X152100000Y-67700000D01*
G36*
X152100000Y-67700000D02*
G01*
X152300000Y-67900000D01*
X152150000Y-68050000D01*
X151900000Y-67800000D01*
X151900000Y-67550000D01*
X152100000Y-67550000D01*
X152100000Y-67700000D01*
G37*
X152100000Y-66250000D02*
X151900000Y-66250000D01*
X151900000Y-65800000D01*
X152100000Y-65800000D01*
X152100000Y-66250000D01*
G36*
X152100000Y-66250000D02*
G01*
X151900000Y-66250000D01*
X151900000Y-65800000D01*
X152100000Y-65800000D01*
X152100000Y-66250000D01*
G37*
D11*
%TO.C,J2*%
X176250000Y-37250000D03*
D12*
X176250000Y-39790000D03*
X176250000Y-42330000D03*
X176250000Y-44870000D03*
X176250000Y-47410000D03*
X176250000Y-49950000D03*
X176250000Y-52490000D03*
X176250000Y-55030000D03*
X176250000Y-57570000D03*
X176250000Y-60110000D03*
X176250000Y-62650000D03*
X176250000Y-65190000D03*
X176250000Y-67730000D03*
X176250000Y-70270000D03*
X176250000Y-72810000D03*
X176250000Y-75350000D03*
X176250000Y-77890000D03*
X176250000Y-80430000D03*
X176250000Y-82970000D03*
X176250000Y-85510000D03*
%TD*%
D13*
%TO.C,R40*%
X143900000Y-38250000D03*
X147000000Y-38250000D03*
%TD*%
D14*
%TO.C,C8*%
X156500000Y-66062500D03*
X156500000Y-62937500D03*
%TD*%
D15*
%TO.C,U1*%
X149750000Y-37740000D03*
X149750000Y-39010000D03*
X149750000Y-40280000D03*
X149750000Y-41550000D03*
X149750000Y-42820000D03*
X149750000Y-44090000D03*
X149750000Y-45360000D03*
X149750000Y-46630000D03*
X149750000Y-47900000D03*
X149750000Y-49170000D03*
X149750000Y-50440000D03*
X149750000Y-51710000D03*
X149750000Y-52980000D03*
X149750000Y-54250000D03*
D16*
X151515000Y-55500000D03*
X152785000Y-55500000D03*
X154055000Y-55500000D03*
X155325000Y-55500000D03*
X156595000Y-55500000D03*
X157865000Y-55500000D03*
X159135000Y-55500000D03*
X160405000Y-55500000D03*
X161675000Y-55500000D03*
X162945000Y-55500000D03*
X164215000Y-55500000D03*
X165485000Y-55500000D03*
D15*
X167250000Y-54250000D03*
X167250000Y-52980000D03*
X167250000Y-51710000D03*
X167250000Y-50440000D03*
X167250000Y-49170000D03*
X167250000Y-47900000D03*
X167250000Y-46630000D03*
X167250000Y-45360000D03*
X167250000Y-44090000D03*
X167250000Y-42820000D03*
X167250000Y-41550000D03*
X167250000Y-40280000D03*
X167250000Y-39010000D03*
X167250000Y-37740000D03*
D17*
X155600000Y-44060000D03*
X155600000Y-45460000D03*
X155600000Y-46860000D03*
X155600000Y-46860000D03*
X157000000Y-44060000D03*
X157000000Y-44060000D03*
X157000000Y-45460000D03*
X157000000Y-46860000D03*
X158400000Y-44060000D03*
X158400000Y-45460000D03*
X158400000Y-46860000D03*
%TD*%
D18*
%TO.C,C2*%
X171112500Y-77250000D03*
X169387500Y-77250000D03*
%TD*%
D19*
%TO.C,D4*%
X155150000Y-73850000D03*
X155150000Y-76650000D03*
%TD*%
D20*
%TO.C,SW1*%
X167000000Y-86000000D03*
X167000000Y-79500000D03*
X171500000Y-86000000D03*
X171500000Y-79500000D03*
%TD*%
D21*
%TO.C,D1*%
X163050000Y-74250000D03*
X160550000Y-74250000D03*
%TD*%
D18*
%TO.C,C29*%
X147112500Y-40250000D03*
X145387500Y-40250000D03*
%TD*%
D22*
%TO.C,TP2*%
X172500000Y-57750000D03*
%TD*%
D23*
%TO.C,R4*%
X157000000Y-71500000D03*
X153900000Y-71500000D03*
%TD*%
D24*
%TO.C,JP3*%
X154750000Y-68000000D03*
X154750000Y-69300000D03*
%TD*%
D25*
%TO.C,C7*%
X154500000Y-66112500D03*
X154500000Y-64387500D03*
%TD*%
D26*
%TO.C,R3*%
X165500000Y-74350000D03*
X165500000Y-71250000D03*
%TD*%
D27*
%TO.C,D5*%
X165550000Y-63500000D03*
X162350000Y-63500000D03*
X162350000Y-68400000D03*
X165550000Y-68400000D03*
%TD*%
D14*
%TO.C,C1*%
X147250000Y-68037500D03*
X147250000Y-64912500D03*
%TD*%
D28*
%TO.C,C4*%
X152750000Y-73687500D03*
X152750000Y-76812500D03*
%TD*%
D29*
%TO.C,C3*%
X146637500Y-76850000D03*
X148362500Y-76850000D03*
%TD*%
D30*
%TO.C,U2*%
X152525000Y-67512500D03*
X152525000Y-67112500D03*
D31*
X152525000Y-66712500D03*
D30*
X152525000Y-66312500D03*
X151475000Y-66312500D03*
D31*
X151475000Y-66712500D03*
D30*
X151475000Y-67112500D03*
X151475000Y-67512500D03*
D32*
X152000000Y-66912500D03*
%TD*%
D24*
%TO.C,JP2*%
X168500000Y-65250000D03*
X168500000Y-66550000D03*
%TD*%
D21*
%TO.C,D2*%
X161800000Y-72100000D03*
X159300000Y-72100000D03*
%TD*%
D33*
%TO.C,R6*%
X147000000Y-70950000D03*
X147000000Y-74050000D03*
%TD*%
D25*
%TO.C,C5*%
X149500000Y-68025000D03*
X149500000Y-66300000D03*
%TD*%
D11*
%TO.C,J1*%
X140690000Y-37240000D03*
D12*
X140690000Y-39780000D03*
X140690000Y-42320000D03*
X140690000Y-44860000D03*
X140690000Y-47400000D03*
X140690000Y-49940000D03*
X140690000Y-52480000D03*
X140690000Y-55020000D03*
X140690000Y-57560000D03*
X140690000Y-60100000D03*
X140690000Y-62640000D03*
X140690000Y-65180000D03*
X140690000Y-67720000D03*
X140690000Y-70260000D03*
X140690000Y-72800000D03*
X140690000Y-75340000D03*
X140690000Y-77880000D03*
X140690000Y-80420000D03*
X140690000Y-82960000D03*
X140690000Y-85500000D03*
%TD*%
D34*
%TO.C,D3*%
X157300000Y-74250000D03*
X157300000Y-76750000D03*
%TD*%
D35*
%TO.C,D6*%
X152750000Y-85125000D03*
X152750000Y-83075000D03*
%TD*%
D23*
%TO.C,R1*%
X152800000Y-63250000D03*
X149700000Y-63250000D03*
%TD*%
D20*
%TO.C,SW2*%
X150000000Y-79450000D03*
X150000000Y-85950000D03*
X145500000Y-79450000D03*
X145500000Y-85950000D03*
%TD*%
D27*
%TO.C,JP1*%
X164850000Y-76500000D03*
X166150000Y-76500000D03*
%TD*%
D22*
%TO.C,TP3*%
X172500000Y-60000000D03*
%TD*%
D36*
%TO.C,J3*%
X156540000Y-81070000D03*
X162320000Y-81070000D03*
D37*
X156230000Y-79995000D03*
X157030000Y-79995000D03*
D38*
X158180000Y-79995000D03*
X159180000Y-79995000D03*
X159680000Y-79995000D03*
X160680000Y-79995000D03*
D37*
X161830000Y-79995000D03*
X162630000Y-79995000D03*
X162630000Y-79995000D03*
X161830000Y-79995000D03*
D38*
X161180000Y-79995000D03*
X160180000Y-79995000D03*
X158680000Y-79995000D03*
X157680000Y-79995000D03*
D37*
X157030000Y-79995000D03*
X156230000Y-79995000D03*
D39*
X155110000Y-80570000D03*
D40*
X155110000Y-84750000D03*
D39*
X163750000Y-80570000D03*
D40*
X163750000Y-84750000D03*
%TD*%
D41*
X144500000Y-75750000D03*
X151750000Y-72500000D03*
X143000000Y-52000000D03*
D42*
X143750000Y-40250000D03*
D41*
X151000000Y-76500000D03*
X152850000Y-68450000D03*
D42*
X152250000Y-86350000D03*
D41*
X174000000Y-70250000D03*
D42*
X163000000Y-72250000D03*
D43*
X157000000Y-45500000D03*
D41*
X143250000Y-69500000D03*
D43*
X163800000Y-62350000D03*
D41*
X154750000Y-63000000D03*
X157193016Y-72901500D03*
X149250000Y-65100000D03*
X167500000Y-77250000D03*
X174000000Y-50250000D03*
D42*
X152000000Y-65200000D03*
D41*
X142500000Y-80400000D03*
D42*
X172250000Y-56250000D03*
X171877708Y-67122292D03*
X145000000Y-56250000D03*
X143750000Y-41250000D03*
X148500000Y-71000000D03*
X157750000Y-68000000D03*
D41*
X155000000Y-78250000D03*
X143000000Y-85750000D03*
X162000000Y-78500000D03*
X162000000Y-77500000D03*
X157000000Y-78250000D03*
X144950000Y-69500000D03*
X158750000Y-68500000D03*
X156250000Y-69750000D03*
X144000000Y-36500000D03*
X155000000Y-58250000D03*
X161000000Y-68500000D03*
D42*
X169500000Y-55250000D03*
X169500000Y-49250000D03*
X144750000Y-59250000D03*
X150700000Y-59250000D03*
X144750000Y-60250000D03*
X151300000Y-60050000D03*
X153100000Y-59350000D03*
X144750000Y-61250000D03*
X168800000Y-71100000D03*
X165500000Y-61900000D03*
X169750000Y-70750000D03*
X166169067Y-61290467D03*
X166750000Y-61900000D03*
X170500000Y-70000000D03*
X167250000Y-60500000D03*
X171400000Y-70500000D03*
X171650000Y-68650000D03*
X167750000Y-59600000D03*
X172600000Y-68000000D03*
X168400000Y-60600000D03*
X170250000Y-64750000D03*
X168750000Y-58250000D03*
X170200000Y-63250000D03*
X169500000Y-57500000D03*
X170250000Y-58250000D03*
X170250000Y-61950000D03*
X170300000Y-66550000D03*
X161400000Y-69750000D03*
X171500000Y-43000000D03*
X143950000Y-70400000D03*
X171147292Y-66447292D03*
X143950000Y-71850000D03*
X172750000Y-41750000D03*
X161750000Y-70800000D03*
M02*
